<?xml version="1.0" standalone="no"?>
<!DOCTYPE svg PUBLIC "-//W3C//DTD SVG 1.1//EN" "http://www.w3.org/Graphics/SVG/1.1/DTD/svg11.dtd" >
<svg xmlns="http://www.w3.org/2000/svg" xmlns:xlink="http://www.w3.org/1999/xlink" version="1.1">
<metadata>
Created by FontForge 20170924 at Sat Mar 28 16:08:41 2020
 By www-data
Copyright 2015 Google LLC. All Rights Reserved.
</metadata>
<defs>
<font id="GoogleSans-Thin" horiz-adv-x="0" >
  <font-face 
    font-family="Google Sans"
    font-weight="100"
    font-stretch="normal"
    units-per-em="1000"
    panose-1="2 11 5 3 3 5 2 4 2 4"
    ascent="800"
    descent="-200"
    x-height="480"
    cap-height="686"
    bbox="-365.002 -299 3250 1054"
    underline-thickness="84"
    underline-position="-160"
    unicode-range="U+0002-FFFD"
  />
<missing-glyph 
 />
    <glyph glyph-name="G_l_o_g_o_l_i_g_a_t_u_r_e.liga" unicode="Glogoligature" horiz-adv-x="831" 
d="M245.5 37.5c-61.667 35.667 -110.667 83.6699 -147 144.003s-54.5 126.166 -54.5 197.499s18.167 137.166 54.5 197.499s85.333 108.333 147 144s128.167 53.5 199.5 53.5c104.667 0 191.334 -32.667 260.001 -98l-58 -58c-52.667 49.333 -120 74 -202 74
c-56.667 0 -108.667 -14 -156 -42s-84.666 -66 -111.999 -114s-41 -100.333 -41 -157s13.667 -109 41 -157s64.666 -86 111.999 -114s99.333 -42 156 -42c50 0 92.5 8.16699 127.5 24.5s65.167 36.833 90.5 61.5c34.667 35.333 57 91 67 167h-270v82h350
c2 -10.667 3 -29 3 -55c0 -46 -7.33301 -91.333 -22 -136s-38.334 -83.334 -71.001 -116.001c-70 -73.333 -161.667 -110 -275 -110c-71.333 0 -137.833 17.833 -199.5 53.5z" />
    <glyph glyph-name="e_l_o_g_o_l_i_g_a_t_u_r_e.liga" unicode="elogoligature" horiz-adv-x="480" 
d="M147.5 17c-37.667 22 -67.1689 51.999 -88.502 89.999s-32 80 -32 126c0 48.667 10.5 91.834 31.5 129.501s49.333 67 85 88s74.834 31.5 117.501 31.5c56.667 0 102.5 -16.5 137.5 -49.5s59.833 -69.167 74.5 -108.5l7 -17l-355 -146c35.333 -68.667 85 -103 149 -103
c58.667 0 103.334 22.333 134.001 67l65 -43c-13.333 -20 -37.166 -41.333 -71.499 -64s-76.833 -34 -127.5 -34c-46.667 0 -88.834 11 -126.501 33zM381.998 330.999c-11.333 28.667 -27.3359 49 -48.0029 61s-43.667 18 -69 18c-23.333 0 -47.166 -6.66699 -71.499 -20
s-44.166 -32.833 -59.499 -58.5s-22.666 -63.167 -21.999 -112.5z" />
    <glyph glyph-name="g_l_o_g_o_l_i_g_a_t_u_r_e.liga" unicode="glogoligature" horiz-adv-x="536" 
d="M122.5 -209c-37.667 29.333 -62.5029 58.999 -74.5029 88.999l73 30c8 -18 24.5 -37.333 49.5 -58s55.5 -31 91.5 -31c48 0 86 14.833 114 44.5s42 71.5 42 125.5v53h-26c-15.333 -19.333 -34.166 -34.166 -56.499 -44.499s-47.5 -15.5 -75.5 -15.5
c-41.333 0 -80.166 11 -116.499 33s-65.666 52 -87.999 90s-33.5 79.667 -33.5 125c0 46 11.167 88 33.5 126s51.833 68.167 88.5 90.5s75.334 33.5 116.001 33.5c28 0 53.167 -5.16699 75.5 -15.5s41.166 -24.833 56.499 -43.5h26v43h80v-459c0 -88 -22 -153.333 -66 -196
s-100.667 -64 -170 -64c-55.333 0 -101.833 14.667 -139.5 44zM349.497 80.999c24.333 15.333 43.166 36.1689 56.499 62.502s20 55.833 20 88.5c0 33.333 -6.66699 63.166 -20 89.499s-32.166 47.333 -56.499 63s-50.833 23.5 -79.5 23.5
c-29.333 0 -56.333 -7.66699 -81 -23s-44.334 -36.5 -59.001 -63.5s-22 -56.833 -22 -89.5s7.33301 -62.334 22 -89.001s34.334 -47.5 59.001 -62.5s51.667 -22.5 81 -22.5c28.667 0 55.167 7.66699 79.5 23z" />
    <glyph glyph-name="l_l_o_g_o_l_i_g_a_t_u_r_e.liga" unicode="llogoligature" horiz-adv-x="157" 
d="M42 746h86v-746h-86v746z" />
    <glyph glyph-name="o_l_o_g_o_l_i_g_a_t_u_r_e.liga" unicode="ologoligature" horiz-adv-x="548" 
d="M146.5 16.5c-38.333 21.667 -68.666 51.5 -90.999 89.5s-33.5 80.333 -33.5 127c0 47.333 11.167 90 33.5 128s52.666 67.667 90.999 89s80.166 32 125.499 32s87.166 -10.667 125.499 -32s68.666 -51 90.999 -89s33.5 -80.667 33.5 -128
c0 -46.667 -11.167 -89 -33.5 -127s-52.666 -67.833 -90.999 -89.5s-80.166 -32.5 -125.499 -32.5s-87.166 10.833 -125.499 32.5zM353.5 80.5c25 15 45 35.833 60 62.5s22.5 56.667 22.5 90s-7.5 63.333 -22.5 90s-35 47.5 -60 62.5s-52.167 22.5 -81.5 22.5
s-56.5 -7.5 -81.5 -22.5s-45 -35.833 -60 -62.5s-22.5 -56.667 -22.5 -90s7.5 -63.333 22.5 -90s35 -47.5 60 -62.5s52.167 -22.5 81.5 -22.5s56.5 7.5 81.5 22.5z" />
    <glyph glyph-name="f_b.liga" unicode="fb" horiz-adv-x="949" 
d="M587 8.5c-28.667 16.333 -52 38.499 -70 66.499h-27v-75h-51v643h-162c-29.333 0 -53.333 -9 -72 -27s-28 -43 -28 -75v-61h131v-47h-131v-433h-55v433h-94v47h94v63c0 44.667 14.167 80.334 42.5 107.001s65.833 40 112.5 40h217v-203l-5 -83h29
c16.667 28.667 39.5 51.167 68.5 67.5s61.5 24.5 97.5 24.5c42.667 0 81.5 -11 116.5 -33s62.5 -52.5 82.5 -91.5s30 -82.833 30 -131.5c0 -49.333 -10 -93.333 -30 -132s-47.5 -69 -82.5 -91s-73.833 -33 -116.5 -33c-36 0 -68.333 8.16699 -97 24.5zM764.5 56.999
c28.333 17.333 51 42 68 74s25.5 68.333 25.5 109s-8.5 77 -25.5 109s-39.667 56.667 -68 74s-58.5 26 -90.5 26c-32.667 0 -63 -8.66699 -91 -26s-50.5 -41.833 -67.5 -73.5s-25.5 -68.167 -25.5 -109.5s8.5 -77.833 25.5 -109.5s39.5 -56.167 67.5 -73.5
s58.333 -26 91 -26c32 0 62.167 8.66699 90.5 26z" />
    <glyph glyph-name="f_f.liga" unicode="ff" horiz-adv-x="666" 
d="M122 433l-93.9971 -0.000976562v47h94v70c0 29.333 6.66699 54.833 20 76.5s31.166 38.334 53.499 50.001s47.166 17.5 74.499 17.5c26.667 0 46.667 -2.33301 60 -7v-51c1.33301 -0.666992 -3.83398 0.666016 -15.501 3.99902s-25.5 5 -41.5 5
c-26 0 -48.5 -9.33301 -67.5 -28s-28.5 -44 -28.5 -76v-61h262v70c0 29.333 6.5 54.833 19.5 76.5s30.833 38.334 53.5 50.001s47.667 17.5 75 17.5c25.333 0 45.333 -2.66699 60 -8v-50l-17 4.5c-11.333 3 -25 4.5 -41 4.5c-26 0 -48.333 -9.33301 -67 -28s-28 -44 -28 -76
v-61h131v-47h-131v-433h-55v433h-262v-433h-55v433z" />
    <glyph glyph-name="f_f_b.liga" unicode="ffb" horiz-adv-x="1265" 
d="M903.5 8.5c-28.333 16.333 -51.4971 38.499 -69.4971 66.499h-27v-75h-51v643h-163c-29.333 0 -53.333 -9 -72 -27s-28 -43 -28 -75v-61h131v-47h-131v-433h-54v433h-262v-433h-55v433h-94v47h94v70c0 29.333 6.66699 54.833 20 76.5s31.166 38.334 53.499 50.001
s47.166 17.5 74.499 17.5c26.667 0 46.667 -2.33301 60 -7v-51c1.33301 -0.666992 -3.83398 0.666016 -15.501 3.99902s-25.5 5 -41.5 5c-26 0 -48.5 -9.33301 -67.5 -28s-28.5 -44 -28.5 -76v-61h262v63c0 44.667 14.167 80.334 42.5 107.001s65.5 40 111.5 40h218v-203
l-5 -83h28c18 28.667 41.167 51.167 69.5 67.5s60.5 24.5 96.5 24.5c43.333 0 82.333 -11 117 -33s62 -52.5 82 -91.5s30 -82.833 30 -131.5c0 -49.333 -10 -93.333 -30 -132s-47.333 -69 -82 -91s-73.667 -33 -117 -33c-36 0 -68.167 8.16699 -96.5 24.5zM1081.5 56.999
c28.333 17.333 50.833 41.833 67.5 73.5s25 68.167 25 109.5s-8.33301 77.833 -25 109.5s-39.167 56.167 -67.5 73.5s-58.5 26 -90.5 26c-32.667 0 -63 -8.66699 -91 -26s-50.5 -41.833 -67.5 -73.5s-25.5 -68.167 -25.5 -109.5s8.5 -77.833 25.5 -109.5
s39.5 -56.167 67.5 -73.5s58.333 -26 91 -26c32 0 62.167 8.66699 90.5 26z" />
    <glyph glyph-name="f_f_h.liga" unicode="ffh" horiz-adv-x="1226" 
d="M122 433l-93.998 -0.000976562v47h94v70c0 29.333 6.66699 54.833 20 76.5s31.166 38.334 53.499 50.001s47.166 17.5 74.499 17.5c26.667 0 46.667 -2.33301 60 -7v-51c1.33301 -0.666992 -3.83398 0.666016 -15.501 3.99902s-25.5 5 -41.5 5
c-26 0 -48.5 -9.33301 -67.5 -28s-28.5 -44 -28.5 -76v-61h262v63c0 44.667 14.167 80.334 42.5 107.001s65.5 40 111.5 40h217v-200l-5 -85h29c15.333 28.667 37 51 65 67s58.667 24 92 24c57.333 0 101 -16.667 131 -50s45 -78 45 -134v-312h-55v299
c0 50 -13.167 87.5 -39.5 112.5s-60.166 37.5 -101.499 37.5c-30 0 -57.333 -8.83301 -82 -26.5s-44 -40.167 -58 -67.5s-21 -56 -21 -86v-269h-55v643h-162c-29.333 0 -53.333 -9 -72 -27s-28 -43 -28 -75v-61h131v-47h-131v-433h-54v433h-262v-433h-55v433z" />
    <glyph glyph-name="f_f_i.liga" unicode="ffi" horiz-adv-x="880" 
d="M122 433l-93.9971 -0.000976562v47h94v70c0 29.333 6.66699 54.833 20 76.5s31.166 38.334 53.499 50.001s47.166 17.5 74.499 17.5c26.667 0 46.667 -2.33301 60 -7v-51c1.33301 -0.666992 -3.83398 0.666016 -15.501 3.99902s-25.5 5 -41.5 5
c-26 0 -48.5 -9.33301 -67.5 -28s-28.5 -44 -28.5 -76v-61h262v70c0 29.333 6.5 54.833 19.5 76.5s30.833 38.334 53.5 50.001s47.667 17.5 75 17.5c25.333 0 45.333 -2.66699 60 -8v-50l-17 4.5c-11.333 3 -25 4.5 -41 4.5c-26 0 -48.5 -9.33301 -67.5 -28
s-28.5 -44 -28.5 -76v-61h317v-480h-55v433h-262v-433h-54v433h-262v-433h-55v433zM750.003 611.499c-8.66699 9 -13 19.833 -13 32.5s4.33301 23.5 13 32.5s19.334 13.5 32.001 13.5c13.333 0 24.333 -4.33301 33 -13s13 -19.667 13 -33
c0 -12.667 -4.33301 -23.5 -13 -32.5s-19.667 -13.5 -33 -13.5c-12.667 0 -23.334 4.5 -32.001 13.5z" />
    <glyph glyph-name="f_f_j.liga" unicode="ffj" horiz-adv-x="880" 
d="M654 -223l0.00390625 42.999c-8.66699 5.33301 -8.16699 6.83301 1.5 4.5s18.5 -3.5 26.5 -3.5c26 0 44.667 8.16699 56 24.5s17 38.833 17 67.5v520h-262v-433h-54v433h-262v-433h-55v433h-94v47h94v70c0 29.333 6.66699 54.833 20 76.5s31.166 38.334 53.499 50.001
s47.166 17.5 74.499 17.5c26.667 0 46.667 -2.33301 60 -7v-51c1.33301 -0.666992 -3.83398 0.666016 -15.501 3.99902s-25.5 5 -41.5 5c-26 0 -48.5 -9.33301 -67.5 -28s-28.5 -44 -28.5 -76v-61h262v70c0 29.333 6.5 54.833 19.5 76.5s30.833 38.334 53.5 50.001
s47.667 17.5 75 17.5c25.333 0 45.333 -2.66699 60 -8v-50l-17 4.5c-11.333 3 -25 4.5 -41 4.5c-26 0 -48.5 -9.33301 -67.5 -28s-28.5 -44 -28.5 -76v-61h317v-567c0 -47.333 -10.833 -82.333 -32.5 -105s-52.834 -34 -93.501 -34c-13.333 0 -23.333 1 -30 3z
M750.004 611.499c-8.66699 9 -13 19.833 -13 32.5s4.33301 23.5 13 32.5s19.334 13.5 32.001 13.5c13.333 0 24.333 -4.33301 33 -13s13 -19.667 13 -33c0 -12.667 -4.33301 -23.5 -13 -32.5s-19.667 -13.5 -33 -13.5c-12.667 0 -23.334 4.5 -32.001 13.5z" />
    <glyph glyph-name="f_f_k.liga" unicode="ffk" horiz-adv-x="1167" 
d="M122 433l-93.9971 -0.000976562v47h94v70c0 29.333 6.66699 54.833 20 76.5s31.166 38.334 53.499 50.001s47.166 17.5 74.499 17.5c26.667 0 46.667 -2.33301 60 -7v-51c1.33301 -0.666992 -3.83398 0.666016 -15.501 3.99902s-25.5 5 -41.5 5
c-26 0 -48.5 -9.33301 -67.5 -28s-28.5 -44 -28.5 -76v-61h262v63c0 44.667 14.167 80.334 42.5 107.001s65.5 40 111.5 40h217v-476l261 266h87v17l-204 -206l210 -307v16h-79l-170 254l-105 -106v-148h-55v643h-162c-29.333 0 -53.333 -9 -72 -27s-28 -43 -28 -75v-61h131
v-47h-131v-433h-54v433h-262v-433h-55v433z" />
    <glyph glyph-name="f_f_l.liga" unicode="ffl" horiz-adv-x="873" 
d="M122 433l-93.9971 -0.000976562v47h94v70c0 29.333 6.66699 54.833 20 76.5s31.166 38.334 53.499 50.001s47.166 17.5 74.499 17.5c26.667 0 46.667 -2.33301 60 -7v-51c1.33301 -0.666992 -3.83398 0.666016 -15.501 3.99902s-25.5 5 -41.5 5
c-26 0 -48.5 -9.33301 -67.5 -28s-28.5 -44 -28.5 -76v-61h262v63c0 44.667 14.167 80.334 42.5 107.001s65.5 40 111.5 40h217v-690h-55v643h-162c-29.333 0 -53.333 -9 -72 -27s-28 -43 -28 -75v-61h131v-47h-131v-433h-54v433h-262v-433h-55v433z" />
    <glyph glyph-name="f_f_t.liga" unicode="fft" horiz-adv-x="974" 
d="M830 1c-16 6 -29.3301 13.999 -39.9971 23.999c-11.333 11.333 -20 24.333 -26 39s-9 33 -9 55v314h-262v-433h-54v433h-262v-433h-55v433h-94v47h94v70c0 29.333 6.66699 54.833 20 76.5s31.166 38.334 53.499 50.001s47.166 17.5 74.499 17.5
c26.667 0 46.667 -2.33301 60 -7v-51c1.33301 -0.666992 -3.83398 0.666016 -15.501 3.99902s-25.5 5 -41.5 5c-26 0 -48.5 -9.33301 -67.5 -28s-28.5 -44 -28.5 -76v-61h262v70c0 29.333 6.5 54.833 19.5 76.5s30.833 38.334 53.5 50.001s47.667 17.5 75 17.5
c25.333 0 45.333 -2.66699 60 -8v-50l-17 4.5c-11.333 3 -25 4.5 -41 4.5c-26 0 -48.5 -9.33301 -67.5 -28s-28.5 -44 -28.5 -76v-61h262v144h55v-144h124v-47h-124v-293c0 -31.333 6.33301 -55.333 19 -72c16 -18 38.333 -27 67 -27c22 0 35.667 1.66699 41 5v-46
c-4 -2 -10.333 -3.83301 -19 -5.5s-20.667 -2.5 -36 -2.5c-18.667 0 -36 3 -52 9z" />
    <glyph glyph-name="f_h.liga" unicode="fh" horiz-adv-x="910" 
d="M122 433l-94 -0.000976562v47h94v63c0 44.667 14.167 80.334 42.5 107.001s65.833 40 112.5 40h217v-200l-5 -85h29c16 28.667 38 51 66 67s58.667 24 92 24c57.333 0 100.833 -16.667 130.5 -50s44.5 -78 44.5 -134v-312h-54v299c0 50 -13.167 87.5 -39.5 112.5
s-60.166 37.5 -101.499 37.5c-30.667 0 -58.334 -8.83301 -83.001 -26.5s-44 -40.167 -58 -67.5s-21 -56 -21 -86v-269h-55v643h-162c-29.333 0 -53.333 -9 -72 -27s-28 -43 -28 -75v-61h131v-47h-131v-433h-55v433z" />
    <glyph glyph-name="f_i.liga" unicode="fi" horiz-adv-x="564" 
d="M433.5 617.5c-9 9 -13.5 19.833 -13.5 32.5c0 13.333 4.5 24.333 13.5 33s19.833 13 32.5 13c13.333 0 24.333 -4.33301 33 -13s13 -19.667 13 -33c0 -12.667 -4.33301 -23.5 -13 -32.5s-19.667 -13.5 -33 -13.5c-12.667 0 -23.5 4.5 -32.5 13.5zM122 433h-93.9971v47h94
v70c0 29.333 6.66699 54.833 20 76.5s31.166 38.334 53.499 50.001s47.166 17.5 74.499 17.5c26.667 0 46.667 -2.33301 60 -7v-51c1.33301 -0.666992 -3.83398 0.666016 -15.501 3.99902s-25.5 5 -41.5 5c-26 0 -48.5 -9.33301 -67.5 -28s-28.5 -44 -28.5 -76v-61h317v-480
h-55v433h-262v-433h-55v433z" />
    <glyph glyph-name="f_j.liga" unicode="fj" horiz-adv-x="564" 
d="M433.5 617.5c-9 9 -13.5 19.833 -13.5 32.5c0 13.333 4.5 24.333 13.5 33s19.833 13 32.5 13c13.333 0 24.333 -4.33301 33 -13s13 -19.667 13 -33c0 -12.667 -4.33301 -23.5 -13 -32.5s-19.667 -13.5 -33 -13.5c-12.667 0 -23.5 4.5 -32.5 13.5zM338 -223l0.00390625 43
c-8.66699 5.33301 -8.33398 6.83301 0.999023 4.5s18 -3.5 26 -3.5c26 0 44.833 8.16699 56.5 24.5s17.5 38.833 17.5 67.5v520h-262v-433h-55v433h-94v47h94v70c0 29.333 6.66699 54.833 20 76.5s31.166 38.334 53.499 50.001s47.166 17.5 74.499 17.5
c26.667 0 46.667 -2.33301 60 -7v-51c1.33301 -0.666992 -3.83398 0.666016 -15.501 3.99902s-25.5 5 -41.5 5c-26 0 -48.5 -9.33301 -67.5 -28s-28.5 -44 -28.5 -76v-61h317v-567c0 -47.333 -11 -82.333 -33 -105s-53 -34 -93 -34c-14.667 0 -24.667 1 -30 3z" />
    <glyph glyph-name="f_k.liga" unicode="fk" horiz-adv-x="851" 
d="M122 433l-94 -0.000976562v47h94v63c0 44.667 14.167 80.334 42.5 107.001s65.833 40 112.5 40h217v-476l262 266h87v17l-204 -206l209 -307v16h-78l-170 253l-106 -105v-148h-55v643h-162c-29.333 0 -53.333 -9 -72 -27s-28 -43 -28 -75v-61h131v-47h-131v-433h-55v433z
" />
    <glyph glyph-name="f_l.liga" unicode="fl" horiz-adv-x="557" 
d="M122 433l-94 -0.000976562v47h94v63c0 44.667 14.167 80.334 42.5 107.001s65.833 40 112.5 40h217v-690h-55v643h-162c-29.333 0 -53.333 -9 -72 -27s-28 -43 -28 -75v-61h131v-47h-131v-433h-55v433z" />
    <glyph glyph-name="f_t.liga" unicode="ft" horiz-adv-x="658" 
d="M514 1c-16 6 -29.3301 14 -39.9971 24c-23.333 22 -35 53.333 -35 94v314h-262v-433h-55v433h-94v47h94v70c0 29.333 6.66699 54.833 20 76.5s31.166 38.334 53.499 50.001s47.166 17.5 74.499 17.5c26.667 0 46.667 -2.33301 60 -7v-51
c1.33301 -0.666992 -3.83398 0.666016 -15.501 3.99902s-25.5 5 -41.5 5c-26 0 -48.5 -9.33301 -67.5 -28s-28.5 -44 -28.5 -76v-61h262v144h55v-144h125v-47h-125v-293c0 -32 6.66699 -56 20 -72c15.333 -18 37.333 -27 66 -27c24 0 37.667 1.33301 41 4v-45
c-3.33301 -2 -9.5 -3.83301 -18.5 -5.5s-21.167 -2.5 -36.5 -2.5c-18.667 0 -36 3 -52 9z" />
    <glyph glyph-name="r_f.liga" unicode="rf" horiz-adv-x="726" 
d="M499 433l-94.998 -0.000976562v47h95v70c0 29.333 6.66699 54.833 20 76.5s31.166 38.334 53.499 50.001s47.166 17.5 74.499 17.5c26.667 0 46.667 -2.33301 60 -7v-51l-17 4.5c-11.333 3 -24.666 4.5 -39.999 4.5c-26.667 0 -49.334 -9.33301 -68.001 -28
s-28 -44 -28 -76v-61h130v-47h-130v-433h-55v433zM63.002 479.999h51v-81h29c13.333 33.333 33 57.5 59 72.5s55 22.5 87 22.5h21v-56h-31c-47.333 0 -86 -15.833 -116 -47.5s-45 -72.5 -45 -122.5v-268h-55v480z" />
    <glyph glyph-name="r_f_f.liga" unicode="rff" horiz-adv-x="1065" 
d="M63 480h51v-81h29c13.333 33.333 33 57.5 59 72.5s55 22.5 87 22.5h21v-56h-31c-47.333 0 -86 -15.833 -116 -47.5s-45 -72.5 -45 -122.5v-268h-55v480zM491 433l-93.9971 -0.000976562v47h94v70c0 29.333 6.66699 54.833 20 76.5s31.166 38.334 53.499 50.001
s47.166 17.5 74.499 17.5c26.667 0 46.667 -2.33301 60 -7v-51c1.33301 -0.666992 -3.83398 0.666016 -15.501 3.99902s-25.5 5 -41.5 5c-26 0 -48.5 -9.33301 -67.5 -28s-28.5 -44 -28.5 -76v-61h262v70c0 29.333 6.5 54.833 19.5 76.5s30.833 38.334 53.5 50.001
s47.667 17.5 75 17.5c25.333 0 45.333 -2.66699 60 -8v-50l-17 4.5c-11.333 3 -25 4.5 -41 4.5c-26 0 -48.333 -9.33301 -67 -28s-28 -44 -28 -76v-61h131v-47h-131v-433h-55v433h-262v-433h-55v433z" />
    <glyph glyph-name="r_t.liga" unicode="rt" horiz-adv-x="715" 
d="M571 1c-16 6 -29.333 14 -40 24c-23.333 22 -35 53.333 -35 94v314h-89v47h89v144h55v-144h125v-47h-125v-293c0 -31.333 6.33301 -55.333 19 -72c16 -18 38.333 -27 67 -27c24 0 37.667 1.33301 41 4v-45c-3.33301 -2 -9.5 -3.83301 -18.5 -5.5s-21.167 -2.5 -36.5 -2.5
c-18.667 0 -36 3 -52 9zM63 480h51v-81h29c13.333 33.333 33 57.5 59 72.5s55 22.5 87 22.5h21v-56h-31c-47.333 0 -86 -15.833 -116 -47.5s-45 -72.5 -45 -122.5v-268h-55v480z" />
    <glyph glyph-name="t_f.liga" unicode="tf" horiz-adv-x="661" 
d="M192 1c-16 6 -29.333 13.999 -40 23.999c-23.333 22 -35 53.333 -35 94v314h-89v47h89v144h55v-144h262v70c0 29.333 6.5 54.833 19.5 76.5s30.833 38.334 53.5 50.001s47.667 17.5 75 17.5c25.333 0 45.333 -2.66699 60 -8v-50l-17 4.5c-11.333 3 -25 4.5 -41 4.5
c-26 0 -48.5 -9.33301 -67.5 -28s-28.5 -44 -28.5 -76v-61h131v-47h-131v-433h-54v433h-262v-293c0 -31.333 6.33301 -55.333 19 -72c16 -18 38.333 -27 67 -27c24 0 37.667 1.33301 41 4v-45c-3.33301 -2 -9.5 -3.83301 -18.5 -5.5s-21.167 -2.5 -36.5 -2.5
c-18.667 0 -36 3 -52 9z" />
    <glyph glyph-name="t_t.liga" unicode="tt" horiz-adv-x="650" 
d="M192 1c-16 6 -29.332 14.001 -39.999 24.001c-23.333 22 -35 53.333 -35 94v314h-89v47h89v144h55v-144h260v144h54v-144h125v-47h-125v-293c0 -32 7 -56 21 -72c15.333 -18 37.333 -27 66 -27c23.333 0 36.666 1.33301 39.999 4v-45
c-3.33301 -2 -9.33301 -3.83301 -18 -5.5s-20.667 -2.5 -36 -2.5c-18.667 0 -36.167 3 -52.5 9s-29.833 14 -40.5 24c-11.333 10.667 -19.833 23.667 -25.5 39s-8.5 33.666 -8.5 54.999v314h-260v-293c0 -31.333 6.33301 -55.333 19 -72c16 -18 38.333 -27 67 -27
c24 0 37.667 1.33301 41 4v-45c-3.33301 -2 -9.5 -3.83301 -18.5 -5.5s-21.167 -2.5 -36.5 -2.5c-18.667 0 -36 3 -52 9z" />
    <glyph glyph-name="G_o_o_g_l_e_l_o_g_o_l_i_g_a_t_u_r_e.liga" unicode="Googlelogoligature" horiz-adv-x="3250" 
d="M245.5 37.5c-61.667 35.667 -110.667 83.6699 -147 144.003s-54.5 126.166 -54.5 197.499s18.167 137.166 54.5 197.499s85.333 108.333 147 144s128.167 53.5 199.5 53.5c104.667 0 191.334 -32.667 260.001 -98l-58 -58c-52.667 49.333 -120 74 -202 74
c-56.667 0 -108.667 -14 -156 -42s-84.666 -66 -111.999 -114s-41 -100.333 -41 -157s13.667 -109 41 -157s64.666 -86 111.999 -114s99.333 -42 156 -42c50 0 92.5 8.16699 127.5 24.5s65.167 36.833 90.5 61.5c34.667 35.333 57 91 67 167h-270v82h350
c2 -10.667 3 -29 3 -55c0 -46 -7.33301 -91.333 -22 -136s-38.334 -83.334 -71.001 -116.001c-70 -73.333 -161.667 -110 -275 -110c-71.333 0 -137.833 17.833 -199.5 53.5zM2625 746.003h86v-746h-86v746zM1007.5 16.5029c-38.333 21.667 -68.666 51.5 -90.999 89.5
s-33.5 80.333 -33.5 127c0 47.333 11.167 90 33.5 128s52.666 67.667 90.999 89s80.166 32 125.499 32s87.166 -10.667 125.499 -32s68.666 -51 90.999 -89s33.5 -80.667 33.5 -128c0 -46.667 -11.167 -89 -33.5 -127s-52.666 -67.833 -90.999 -89.5
s-80.166 -32.5 -125.499 -32.5s-87.166 10.833 -125.499 32.5zM1585.5 16.5029c-38.333 21.667 -68.666 51.5 -90.999 89.5s-33.5 80.333 -33.5 127c0 47.333 11.167 90 33.5 128s52.666 67.667 90.999 89s80.166 32 125.499 32s87.166 -10.667 125.499 -32
s68.666 -51 90.999 -89s33.5 -80.667 33.5 -128c0 -46.667 -11.167 -89 -33.5 -127s-52.666 -67.833 -90.999 -89.5s-80.166 -32.5 -125.499 -32.5s-87.166 10.833 -125.499 32.5zM2139.5 -208.997c-37.667 29.333 -62.5029 58.999 -74.5029 88.999l73 30
c8 -18 24.5 -37.333 49.5 -58s55.5 -31 91.5 -31c48 0 86 14.833 114 44.5s42 71.5 42 125.5v53h-26c-15.333 -19.333 -34.166 -34.166 -56.499 -44.499s-47.5 -15.5 -75.5 -15.5c-41.333 0 -80.166 11 -116.499 33s-65.666 52 -87.999 90s-33.5 79.667 -33.5 125
c0 46 11.167 88 33.5 126s51.833 68.167 88.5 90.5s75.334 33.5 116.001 33.5c28 0 53.167 -5.16699 75.5 -15.5s41.166 -24.833 56.499 -43.5h26v43h80v-459c0 -88 -22 -153.333 -66 -196s-100.667 -64 -170 -64c-55.333 0 -101.833 14.667 -139.5 44zM2917.5 17.002
c-37.667 22 -67.1689 51.999 -88.502 89.999s-32 80 -32 126c0 48.667 10.5 91.834 31.5 129.501s49.333 67 85 88s74.834 31.5 117.501 31.5c56.667 0 102.5 -16.5 137.5 -49.5s59.833 -69.167 74.5 -108.5l7 -17l-355 -146c35.333 -68.667 85 -103 149 -103
c58.667 0 103.334 22.333 134.001 67l65 -43c-13.333 -20 -37.166 -41.333 -71.499 -64s-76.833 -34 -127.5 -34c-46.667 0 -88.834 11 -126.501 33zM3152 331.001c-11.333 28.667 -27.3359 49 -48.0029 61s-43.667 18 -69 18c-23.333 0 -47.166 -6.66699 -71.499 -20
s-44.166 -32.833 -59.499 -58.5s-22.666 -63.167 -21.999 -112.5zM1214.49 80.501c25 15 45 35.833 60 62.5s22.5 56.667 22.5 90s-7.5 63.333 -22.5 90s-35 47.5 -60 62.5s-52.167 22.5 -81.5 22.5s-56.5 -7.5 -81.5 -22.5s-45 -35.833 -60 -62.5s-22.5 -56.667 -22.5 -90
s7.5 -63.333 22.5 -90s35 -47.5 60 -62.5s52.167 -22.5 81.5 -22.5s56.5 7.5 81.5 22.5zM1792.49 80.501c25 15 45 35.833 60 62.5s22.5 56.667 22.5 90s-7.5 63.333 -22.5 90s-35 47.5 -60 62.5s-52.167 22.5 -81.5 22.5s-56.5 -7.5 -81.5 -22.5s-45 -35.833 -60 -62.5
s-22.5 -56.667 -22.5 -90s7.5 -63.333 22.5 -90s35 -47.5 60 -62.5s52.167 -22.5 81.5 -22.5s56.5 7.5 81.5 22.5zM2366.49 81.001c24.333 15.333 43.166 36.1689 56.499 62.502s20 55.833 20 88.5c0 33.333 -6.66699 63.166 -20 89.499s-32.166 47.333 -56.499 63
s-50.833 23.5 -79.5 23.5c-29.333 0 -56.333 -7.66699 -81 -23s-44.334 -36.5 -59.001 -63.5s-22 -56.833 -22 -89.5s7.33301 -62.334 22 -89.001s34.334 -47.5 59.001 -62.5s51.667 -22.5 81 -22.5c28.667 0 55.167 7.66699 79.5 23z" />
    <glyph glyph-name=".notdef" 
 />
    <glyph glyph-name="uni0002" 
 />
    <glyph glyph-name="space" unicode=" " horiz-adv-x="232" 
 />
    <glyph glyph-name="exclam" unicode="!" horiz-adv-x="208" 
d="M77 458v228h54v-228l-9 -247h-37zM69 8c-9.33301 9.33301 -14 21 -14 35c0 13.333 4.66699 24.666 14 33.999s21 14 35 14s25.667 -4.66699 35 -14s14 -20.666 14 -33.999c0 -14 -4.66699 -25.667 -14 -35s-21 -14 -35 -14s-25.667 4.66699 -35 14z" />
    <glyph glyph-name="quotedbl" unicode="&#x22;" horiz-adv-x="293" 
d="M51 686h47v-191h-47v191zM194 686h47v-191h-47v191z" />
    <glyph glyph-name="numbersign" unicode="#" horiz-adv-x="605" 
d="M153 206h-123l7 40h123l25 171h-124l6 40h124l29 197h45l-30 -197h172l29 197h45l-30 -197h123l-6 -40h-123l-25 -171h124l-6 -40h-125l-30 -206h-45l31 206h-172l-30 -206h-45zM376 246l25 171h-172l-25 -171h172z" />
    <glyph glyph-name="dollar" unicode="$" horiz-adv-x="509" 
d="M414 42.5c-32.667 -30.333 -78.002 -49.5029 -136.002 -57.5029v-85h-40v84c-53.333 6 -98.666 24 -135.999 54s-61.333 65.333 -72 106l48 19c7.33301 -25.333 24.166 -51 50.499 -77s62.833 -43.333 109.5 -52v280l-13 4c-57.333 23.333 -100.333 49.5 -129 78.5
s-43 64.833 -43 107.5c0 26.667 6.66699 52 20 76s33 44 59 60s61.333 26 106 30v84h40v-85c52 -8 91.333 -24.167 118 -48.5s43 -46.166 49 -65.499l-48 -20c-3.33301 10.667 -13.666 24.834 -30.999 42.501s-46.666 31.167 -87.999 40.5v-264
c63.333 -26.667 110 -53.667 140 -81s45 -63.333 45 -108c0 -51.333 -16.333 -92.166 -49 -122.499zM135.498 431.997c18.333 -19.333 52.5 -40.335 102.5 -63.002v251c-44.667 -7.33301 -77.5 -21.166 -98.5 -41.499s-31.5 -45.166 -31.5 -74.499
c0 -28.667 9.16699 -52.667 27.5 -72zM377.498 80.9951c21 21.333 31.5 48.667 31.5 82c0 28.667 -9.33301 52.667 -28 72s-53 40 -103 62v-261c45.333 8.66699 78.5 23.667 99.5 45z" />
    <glyph glyph-name="percent" unicode="%" horiz-adv-x="797" 
d="M117 379.5c-24 14.333 -42.833 33.5 -56.5 57.5s-20.5 49.667 -20.5 77s6.83301 53 20.5 77s32.5 43.167 56.5 57.5s50 21.5 78 21.5s53.833 -7.16699 77.5 -21.5s42.5 -33.5 56.5 -57.5s21 -49.667 21 -77s-7 -53 -21 -77s-32.833 -43.167 -56.5 -57.5
s-49.5 -21.5 -77.5 -21.5s-54 7.16699 -78 21.5zM170 17l428 638l28 -19l-427 -637zM278 426c22 24 33.002 53.333 33.002 88c0 35.333 -11 64.833 -33 88.5s-49.667 35.5 -83 35.5c-32.667 0 -60.334 -11.833 -83.001 -35.5s-34 -53.167 -34 -88.5
c0 -34.667 11.167 -64 33.5 -88s50.166 -36 83.499 -36s61 12 83 36zM525.002 5.5c-24 14.333 -42.833 33.5 -56.5 57.5s-20.5 49.667 -20.5 77s6.83301 53 20.5 77s32.5 43.167 56.5 57.5s50 21.5 78 21.5s53.833 -7.16699 77.5 -21.5s42.5 -33.5 56.5 -57.5
s21 -49.667 21 -77s-7 -53 -21 -77s-32.833 -43.167 -56.5 -57.5s-49.5 -21.5 -77.5 -21.5s-54 7.16699 -78 21.5zM686.002 52c22 24 33.002 53.333 33.002 88c0 35.333 -11 64.833 -33 88.5s-49.667 35.5 -83 35.5c-32.667 0 -60.334 -11.833 -83.001 -35.5
s-34 -53.167 -34 -88.5c0 -34.667 11.167 -64 33.5 -88s50.166 -36 83.499 -36s61 12 83 36z" />
    <glyph glyph-name="ampersand" unicode="&#x26;" horiz-adv-x="592" 
d="M483 105l64.999 -84.998l-40 -30l-52 68c-52 -49.333 -108.333 -74 -169 -74c-44.667 0 -85.5 10.333 -122.5 31s-66.333 49 -88 85s-32.5 76 -32.5 120c0 39.333 10.5 76.666 31.5 111.999s55.167 67.666 102.5 96.999l-14 14c-16 21.333 -28 40.666 -36 57.999
s-12 35 -12 53c0 26.667 7 51.334 21 74.001s32.833 40.667 56.5 54s49.5 20 77.5 20c36.667 0 67.334 -10.5 92.001 -31.5s41 -43.5 49 -67.5l-47 -24c-16 48 -47.333 72 -94 72c-28.667 0 -52.5 -9 -71.5 -27s-28.5 -41.333 -28.5 -70c0 -28 9.33301 -54 28 -78l255 -333
l69 119l41 -24zM425.999 98.002l-220.998 291c-38.667 -20.667 -67.334 -45.667 -86.001 -75s-28 -60.333 -28 -93c0 -36 8.66699 -68.5 26 -97.5s41 -51.667 71 -68s63 -24.5 99 -24.5c53.333 0 99.666 22.333 138.999 67z" />
    <glyph glyph-name="quotesingle" unicode="'" horiz-adv-x="150" 
d="M51 686h47v-191h-47v191z" />
    <glyph glyph-name="parenleft" unicode="(" horiz-adv-x="286" 
d="M114.5 58c-34.333 78 -51.5 161.002 -51.5 249.002s17.167 171 51.5 249s72.166 141 113.499 189l38 -27c-39.333 -46.667 -74 -107.334 -104 -182.001s-45 -151 -45 -229s15 -154.333 45 -229s64.667 -135.334 104 -182.001l-38 -27
c-41.333 48 -79.166 111 -113.499 189z" />
    <glyph glyph-name="parenright" unicode=")" horiz-adv-x="286" 
d="M20 -104c39.333 46.667 74 107.332 104 181.999s45 151 45 229s-15 154.333 -45 229s-64.667 135.334 -104 182.001l38 27c41.333 -48 79.166 -111 113.499 -189s51.5 -161 51.5 -249s-17.167 -171 -51.5 -249s-72.166 -141 -113.499 -189z" />
    <glyph glyph-name="asterisk" unicode="*" horiz-adv-x="389" 
d="M79 406l71 97l-5 23l-106 35l13 39l101 -36l21 7v115h41v-114l20 -8l102 36l13 -39l-105 -35l-8 -22l73 -98l-34 -24l-70 97h-23l-70 -97z" />
    <glyph glyph-name="plus" unicode="+" horiz-adv-x="528" 
d="M466 236h-182v-182h-40v182h-182v40h182v182h40v-182h182v-40z" />
    <glyph glyph-name="comma" unicode="," horiz-adv-x="205" 
d="M51 -94l57.999 90c-23.333 4 -38.666 10 -45.999 18s-11 17.667 -11 29c0 13.333 4.66699 24.666 14 33.999s21 14 35 14s25.667 -4.66699 35 -14s14 -20.666 14 -33.999c0 -9.33301 -2 -18.5 -6 -27.5s-10.333 -19.833 -19 -32.5l-58 -87z" />
    <glyph glyph-name="hyphen" unicode="-" horiz-adv-x="411" 
d="M62 315h287v-40h-287v40z" />
    <glyph glyph-name="period" unicode="." horiz-adv-x="208" 
d="M69 8c-9.33301 9.33301 -14 21 -14 35c0 13.333 4.66699 24.666 14 33.999s21 14 35 14s25.667 -4.66699 35 -14s14 -20.666 14 -33.999c0 -14 -4.66699 -25.667 -14 -35s-21 -14 -35 -14s-25.667 4.66699 -35 14z" />
    <glyph glyph-name="slash" unicode="/" horiz-adv-x="260" 
d="M211 686h47l-209 -686h-47z" />
    <glyph glyph-name="zero" unicode="0" horiz-adv-x="615" 
d="M172 28.5c-39.333 29.667 -69.667 70.667 -91 123s-32 110.833 -32 175.5s10.667 123.167 32 175.5s51.5 93.333 90.5 123s84.167 44.5 135.5 44.5s96.5 -14.833 135.5 -44.5s69.333 -70.667 91 -123s32.5 -110.833 32.5 -175.5s-10.833 -123 -32.5 -175
s-52.167 -93 -91.5 -123s-84.333 -45 -135 -45s-95.667 14.833 -135 44.5zM415.499 74.5c30.333 26.333 53.5 61.5 69.5 105.5s24 93 24 147s-8 103 -24 147s-39.167 79.167 -69.5 105.5s-66.5 39.5 -108.5 39.5s-78.167 -13.167 -108.5 -39.5s-53.333 -61.5 -69 -105.5
s-23.5 -93 -23.5 -147s7.83301 -103 23.5 -147s38.667 -79.167 69 -105.5s66.5 -39.5 108.5 -39.5s78.167 13.167 108.5 39.5z" />
    <glyph glyph-name="one" unicode="1" horiz-adv-x="344" 
d="M203 579l-131 -94l-27 40l179 129h34v-654h-55v579z" />
    <glyph glyph-name="two" unicode="2" horiz-adv-x="496" 
d="M45 64c128 128.667 210.334 213.004 247.001 253.004c34.667 37.333 58.5 67.166 71.5 89.499s19.5 49.5 19.5 81.5c0 22 -5.66699 43.167 -17 63.5s-28 36.666 -50 48.999s-48 18.5 -78 18.5c-40 0 -72.167 -11.667 -96.5 -35s-38.833 -43.333 -43.5 -60l-49 20
c3.33301 10.667 13 26.667 29 48s37.667 39.666 65 54.999s59.666 23 96.999 23c39.333 0 74 -8.33301 104 -25s53.333 -38.834 70 -66.501s25 -57.5 25 -89.5c0 -66 -35.333 -134.667 -106 -206l-230 -232h344v-51h-402v64z" />
    <glyph glyph-name="three" unicode="3" horiz-adv-x="502" 
d="M161 1c-28 11.333 -53.5 28.999 -76.5 52.999s-38.167 49.667 -45.5 77l49 21c8.66699 -31.333 27.167 -58.666 55.5 -81.999s61.5 -35 99.5 -35c28 0 54 6 78 18s43.333 29 58 51s22 46.667 22 74c0 26.667 -7.33301 50.834 -22 72.501s-34.334 38.5 -59.001 50.5
s-51.334 18 -80.001 18h-44v49h38c40.667 0 74.834 11.833 102.501 35.5s41.5 55.167 41.5 94.5c0 36.667 -13.667 66 -41 88s-60.333 33 -99 33s-69 -10.167 -91 -30.5s-36 -39.5 -42 -57.5l-50 21c8 24.667 27.833 50.5 59.5 77.5s72.834 40.5 123.501 40.5
c37.333 0 71 -7.5 101 -22.5s53.333 -35.5 70 -61.5s25 -55.333 25 -88c0 -32 -8.16699 -59.167 -24.5 -81.5s-39.5 -41.5 -69.5 -57.5v-23c38 -15.333 67 -36.333 87 -63s30 -58 30 -94c0 -37.333 -9.33301 -70.833 -28 -100.5s-44.5 -52.834 -77.5 -69.501
s-69.167 -25 -108.5 -25c-26.667 0 -54 5.66699 -82 17z" />
    <glyph glyph-name="four" unicode="4" horiz-adv-x="563" 
d="M373 147h-328v44l313 463h69v-457h88v-50h-88v-147h-54v147zM373 197v363h-27l-247 -363h274z" />
    <glyph glyph-name="five" unicode="5" horiz-adv-x="530" 
d="M167 3c-29.333 12.667 -55.168 32.002 -77.501 58.002s-37.166 54 -44.499 84l47 19c8.66699 -32.667 27.5 -62.334 56.5 -89.001s64.167 -40 105.5 -40c48.667 0 88.667 15.167 120 45.5s47 69.5 47 117.5c0 47.333 -15.5 86.666 -46.5 117.999s-70.5 47 -118.5 47
c-26.667 0 -51.667 -6 -75 -18s-40 -25.333 -50 -40l-65 28l41 321h326v-51h-282l-31 -233l25 -6c36.667 30.667 78.667 46 126 46c36.667 0 70.667 -9 102 -27s56.333 -43.167 75 -75.5s28 -68.5 28 -108.5s-9.5 -76.333 -28.5 -109s-45.167 -58.5 -78.5 -77.5
s-71 -28.5 -113 -28.5c-30 0 -59.667 6.33301 -89 19z" />
    <glyph glyph-name="six" unicode="6" horiz-adv-x="527" 
d="M150 15c-33.333 20.667 -59.166 47.333 -77.499 80s-27.5 67 -27.5 103c0 34.667 7.16699 68.167 21.5 100.5s35.166 68.833 62.499 109.5l171 256l43 -30l-171 -239l20 -19c28 18.667 58 28 90 28s63.5 -9 94.5 -27s56.333 -42.667 76 -74s29.5 -66.333 29.5 -105
c0 -37.333 -10 -72.333 -30 -105s-46.667 -59 -80 -79s-69.333 -30 -108 -30c-42.667 0 -80.667 10.333 -114 31zM345.5 56.499c25 14.333 44.833 33.833 59.5 58.5s22 52 22 82c0 29.333 -7.33301 56.333 -22 81s-34.5 44.167 -59.5 58.5s-52.167 21.5 -81.5 21.5
s-56.666 -7.16699 -81.999 -21.5s-45.333 -33.833 -60 -58.5s-22 -51.667 -22 -81c0 -30 7.33301 -57.333 22 -82s34.667 -44.167 60 -58.5s52.666 -21.5 81.999 -21.5s56.5 7.16699 81.5 21.5z" />
    <glyph glyph-name="seven" unicode="7" horiz-adv-x="499" 
d="M83 14l323 589h-361v51h410v-68l-323 -597z" />
    <glyph glyph-name="eight" unicode="8" horiz-adv-x="521" 
d="M150 9.5c-33.333 17 -59.1611 39.667 -77.4941 68s-27.5 60.166 -27.5 95.499s9.66699 66.333 29 93s47.666 49.334 84.999 68.001v21c-29.333 18 -51.833 39 -67.5 63s-23.5 49 -23.5 75c0 33.333 8.16699 63.5 24.5 90.5s39.166 48.167 68.499 63.5
s62.666 23 99.999 23c36.667 0 69.667 -7.66699 99 -23s52.166 -36.5 68.499 -63.5s24.5 -57.167 24.5 -90.5c0 -26 -7.83301 -51 -23.5 -75s-37.834 -45 -66.501 -63v-21c37.333 -18.667 65.666 -41.334 84.999 -68.001s29 -57.667 29 -93s-9.33301 -67.166 -28 -95.499
s-44.667 -51 -78 -68s-70 -25.5 -110 -25.5c-40.667 0 -77.667 8.5 -111 25.5zM358.505 403c25.667 23.333 38.5 54 38.5 92s-13 68.167 -39 90.5s-58.333 33.5 -97 33.5c-39.333 0 -72 -11.167 -98 -33.5s-39 -52.5 -39 -90.5s13 -68.667 39 -92s58.667 -35 98 -35
s71.833 11.667 97.5 35zM374.005 74.5c30.667 26.333 46 60.833 46 103.5c0 41.333 -15.333 75.166 -46 101.499s-68.334 39.5 -113.001 39.5c-44 0 -81.667 -13.167 -113 -39.5s-47 -60.166 -47 -101.499c0 -42.667 15.667 -77.167 47 -103.5s69 -39.5 113 -39.5
c44.667 0 82.334 13.167 113.001 39.5z" />
    <glyph glyph-name="nine" unicode="9" horiz-adv-x="527" 
d="M184 20l171.001 239.001l-20 19c-28 -18.667 -58 -28 -90 -28s-63.5 9 -94.5 27s-56.333 42.667 -76 74s-29.5 66.333 -29.5 105c0 37.333 9.83301 72.333 29.5 105s46.167 59 79.5 79s69.666 30 108.999 30c42.667 0 80.667 -10.333 114 -31
s59.166 -47.334 77.499 -80.001s27.5 -67 27.5 -103c0 -34.667 -7.16699 -68.167 -21.5 -100.5s-35.166 -68.833 -62.499 -109.5l-171 -256zM345.001 317.501c25.333 14.333 45.333 33.833 60 58.5s22 51.667 22 81c0 30 -7.33301 57.333 -22 82s-34.667 44.167 -60 58.5
s-52.666 21.5 -81.999 21.5s-56.5 -7.16699 -81.5 -21.5s-44.833 -33.833 -59.5 -58.5s-22 -52 -22 -82c0 -29.333 7.33301 -56.333 22 -81s34.5 -44.167 59.5 -58.5s52.167 -21.5 81.5 -21.5s56.666 7.16699 81.999 21.5z" />
    <glyph glyph-name="colon" unicode=":" horiz-adv-x="208" 
d="M69 402c-9.33301 9.33301 -14 21 -14 35s4.66699 25.667 14 35s21 14 35 14s25.667 -4.66699 35 -14s14 -21 14 -35s-4.66699 -25.667 -14 -35s-21 -14 -35 -14s-25.667 4.66699 -35 14zM69 8c-9.33301 9.33301 -14 21 -14 35c0 13.333 4.66699 24.666 14 33.999
s21 14 35 14s25.667 -4.66699 35 -14s14 -20.666 14 -33.999c0 -14 -4.66699 -25.667 -14 -35s-21 -14 -35 -14s-25.667 4.66699 -35 14z" />
    <glyph glyph-name="semicolon" unicode=";" horiz-adv-x="211" 
d="M70 402c-9.33301 9.33301 -14 21 -14 35s4.66699 25.667 14 35s21 14 35 14s25.667 -4.66699 35 -14s14 -21 14 -35s-4.66699 -25.667 -14 -35s-21 -14 -35 -14s-25.667 4.66699 -35 14zM57 -78l57.999 90c-23.333 4 -38.666 10 -45.999 18s-11 17.667 -11 29
c0 13.333 4.66699 24.666 14 33.999s21 14 35 14s25.667 -4.66699 35 -14s14 -20.666 14 -33.999c0 -9.33301 -2 -18.5 -6 -27.5s-10.333 -19.833 -19 -32.5l-58 -87z" />
    <glyph glyph-name="less" unicode="&#x3c;" horiz-adv-x="467" 
d="M55 234v44l353 169v-44l-294 -135v-24l294 -135v-44z" />
    <glyph glyph-name="equal" unicode="=" horiz-adv-x="538" 
d="M61 419h416v-40h-416v40zM61 229h416v-40h-416v40z" />
    <glyph glyph-name="greater" unicode="&#x3e;" horiz-adv-x="467" 
d="M59 109l293 135v24l-293 135v44l353 -169v-44l-353 -169v44z" />
    <glyph glyph-name="question" unicode="?" horiz-adv-x="470" 
d="M197 244c0 30.667 5.83594 56.168 17.5029 76.501s33.167 45.166 64.5 74.499c27.333 24.667 47.5 46.334 60.5 65.001s19.5 41.667 19.5 69c0 36 -11.833 65.333 -35.5 88s-55.834 34 -96.501 34c-37.333 0 -67 -10.667 -89 -32s-36.667 -42 -44 -62l-50 21
c10 27.333 30.667 54.833 62 82.5s71.666 41.5 120.999 41.5c37.333 0 70.166 -7.5 98.499 -22.5s50.333 -35.667 66 -62s23.5 -55.833 23.5 -88.5c0 -33.333 -8.5 -62 -25.5 -86s-39.5 -48.667 -67.5 -74c-23.333 -21.333 -40.5 -41.833 -51.5 -61.5
s-16.5 -42.834 -16.5 -69.501v-27h-57v33zM191.003 8.00098c-9.33301 9.33301 -14 21 -14 35c0 13.333 4.66699 24.666 14 33.999s21 14 35 14c13.333 0 24.666 -4.66699 33.999 -14s14 -20.666 14 -33.999c0 -14 -4.66699 -25.667 -14 -35s-20.666 -14 -33.999 -14
c-14 0 -25.667 4.66699 -35 14z" />
    <glyph glyph-name="at" unicode="@" horiz-adv-x="854" 
d="M238 -32c-57.333 33.333 -102.502 78.332 -135.502 134.999s-49.5 118.667 -49.5 186s16.5 129.333 49.5 186s78.333 101.667 136 135s121.167 50 190.5 50s132.333 -16.667 189 -50s101.334 -78.333 134.001 -135s49 -118.667 49 -186c0 -58 -11.667 -104.667 -35 -140
s-56 -53 -98 -53c-21.333 0 -40.5 6 -57.5 18s-34.167 36.667 -51.5 74c-24 -38 -47.167 -62.833 -69.5 -74.5s-47.5 -17.5 -75.5 -17.5c-32.667 0 -62.667 8 -90 24s-48.833 38.333 -64.5 67s-23.5 61.334 -23.5 98.001c0 36 8 68.5 24 97.5s37.333 51.5 64 67.5
s55.667 24 87 24c24 0 46.167 -5 66.5 -15s39.5 -25.667 57.5 -47h26v48h37v-246c0 -22.667 6.33301 -43 19 -61s31.667 -27 57 -27c34.667 0 58.334 16.833 71.001 50.5s19 71.167 19 112.5c0 61.333 -15 117.5 -45 168.5s-70.5 91.333 -121.5 121
s-107.167 44.5 -168.5 44.5s-117.666 -14.833 -168.999 -44.5s-92 -70 -122 -121s-45 -107.167 -45 -168.5s15 -117.5 45 -168.5s70.667 -91.333 122 -121s107.666 -44.5 168.999 -44.5c50 0 89.667 7.33301 119 22l15 -34c-35.333 -16.667 -80 -25 -134 -25
c-70 0 -133.667 16.667 -191 50zM519.998 176.999c27.333 27.333 41 63.333 41 108s-13.667 80.667 -41 108s-60.333 41 -99 41s-71.834 -13.833 -99.501 -41.5s-41.5 -63.5 -41.5 -107.5s13.833 -79.833 41.5 -107.5s60.834 -41.5 99.501 -41.5s71.667 13.667 99 41z" />
    <glyph glyph-name="A" unicode="A" horiz-adv-x="626" 
d="M275 686h76l260 -686h-61l-72 197h-330l-72 -197h-61zM461 247l-104 278l-31 87h-26l-31 -87l-104 -278h296z" />
    <glyph glyph-name="B" unicode="B" horiz-adv-x="576" 
d="M80 686h242.002c33.333 0 64.666 -7.66699 93.999 -23s52.666 -36.5 69.999 -63.5s26 -57.5 26 -91.5c0 -31.333 -8 -58.833 -24 -82.5s-40.667 -43.167 -74 -58.5v-25c40 -13.333 70.333 -33.333 91 -60s31 -58 31 -94s-9.16699 -68.333 -27.5 -97
s-42.833 -51 -73.5 -67s-63.667 -24 -99 -24h-256v686zM322.002 377c26.667 0 50.333 6.16699 71 18.5s36.667 28.5 48 48.5s17 40.667 17 62c0 20.667 -5.5 41 -16.5 61s-26.5 36.333 -46.5 49s-43 19 -69 19h-191v-258h187zM341.001 51c26.667 0 50.667 6.66797 72 20.001
s37.833 30.666 49.5 51.999s17.5 43.333 17.5 66s-6 44.667 -18 66s-28.833 38.5 -50.5 51.5s-46.5 19.5 -74.5 19.5h-202v-275h206z" />
    <glyph glyph-name="C" unicode="C" horiz-adv-x="706" 
d="M219.5 31c-54.333 31.333 -96.999 74.3369 -127.999 129.004s-46.5 115.667 -46.5 183s15.5 128.333 46.5 183s73.667 97.667 128 129s114.833 47 181.5 47c51.333 0 98.166 -9.5 140.499 -28.5s75.833 -43.167 100.5 -72.5l-39 -38c-22 26 -50.167 47.167 -84.5 63.5
s-73.5 24.5 -117.5 24.5c-54.667 0 -104.834 -12.833 -150.501 -38.5s-82 -61.834 -109 -108.501s-40.5 -100.334 -40.5 -161.001s13.5 -114.334 40.5 -161.001s63.333 -82.834 109 -108.501s95.834 -38.5 150.501 -38.5c91.333 0 165.333 33.333 222 100l41 -39
c-25.333 -30.667 -61.5 -57 -108.5 -79s-98.5 -33 -154.5 -33c-66.667 0 -127.167 15.667 -181.5 47z" />
    <glyph glyph-name="D" unicode="D" horiz-adv-x="673" 
d="M80 686h201c70.667 0 132.167 -14.5 184.5 -43.5s92.5 -69.333 120.5 -121s42 -111.167 42 -178.5s-14 -126.833 -42 -178.5s-68.167 -92 -120.5 -121s-113.833 -43.5 -184.5 -43.5h-201v686zM281 51c88.667 0 159.334 25.833 212.001 77.5s79 123.167 79 214.5
s-26.333 162.833 -79 214.5s-123.334 77.5 -212.001 77.5h-146v-584h146z" />
    <glyph glyph-name="E" unicode="E" horiz-adv-x="521" 
d="M80 686h384v-51h-329v-267h297v-50h-297v-267h329v-51h-384v686z" />
    <glyph glyph-name="F" unicode="F" horiz-adv-x="501" 
d="M80 686h384v-51h-329v-275h297v-50h-297v-310h-55v686z" />
    <glyph glyph-name="G" unicode="G" horiz-adv-x="783" 
d="M222.5 31c-54.333 31.333 -97.5 74.5029 -129.5 129.503s-48 115.833 -48 182.5s16 127.5 48 182.5s75.167 98.167 129.5 129.5s113.833 47 178.5 47c50.667 0 98.167 -9 142.5 -27s77.833 -39.333 100.5 -64l-39 -40c-18 21.333 -45.667 40 -83 56s-77.333 24 -120 24
c-52.667 0 -102.167 -12.833 -148.5 -38.5s-83.333 -61.834 -111 -108.501s-41.5 -100.334 -41.5 -161.001s13.833 -114.334 41.5 -161.001s64.667 -82.834 111 -108.501s95.833 -38.5 148.5 -38.5c50 0 92.167 8 126.5 24s63.833 37 88.5 63
c18.667 20 33.667 43.833 45 71.5s18.666 63.834 21.999 108.501h-266v49h316c2 -9.33301 3 -21.666 3 -36.999c0 -42.667 -6.66699 -83.834 -20 -123.501s-34.666 -74.5 -63.999 -104.5c-63.333 -68 -147.333 -102 -252 -102c-64.667 0 -124.167 15.667 -178.5 47z" />
    <glyph glyph-name="H" unicode="H" horiz-adv-x="668" 
d="M80 686h55v-309h398v309h55v-686h-55v326h-398v-326h-55v686z" />
    <glyph glyph-name="I" unicode="I" horiz-adv-x="215" 
d="M80 686h55v-686h-55v686z" />
    <glyph glyph-name="J" unicode="J" horiz-adv-x="497" 
d="M100 24.5c-36.667 27 -61.332 60.832 -73.999 101.499l52 22c23.333 -75.333 73.666 -113 150.999 -113c44 0 79.167 15.167 105.5 45.5s39.5 69.833 39.5 118.5v487h55v-480c0 -47.333 -8.5 -87.666 -25.5 -120.999s-40.5 -58.5 -70.5 -75.5s-64.667 -25.5 -104 -25.5
c-49.333 0 -92.333 13.5 -129 40.5z" />
    <glyph glyph-name="K" unicode="K" horiz-adv-x="596" 
d="M80 686h55v-377h26l322 377h72l-254 -294l277 -392h-69l-245 350l-129 -149v-201h-55v686z" />
    <glyph glyph-name="L" unicode="L" horiz-adv-x="479" 
d="M80 686h55v-635h313v-51h-368v686z" />
    <glyph glyph-name="M" unicode="M" horiz-adv-x="836" 
d="M80 686h98l228 -587h24l228 587h98v-686h-54v440l4 151h-29l-234 -591h-50l-234 591h-29l4 -151v-440h-54v686z" />
    <glyph glyph-name="N" unicode="N" horiz-adv-x="678" 
d="M80 686h81l359 -570h27l-4 153v417h55v-686h-65l-375 597h-27l4 -153v-444h-55v686z" />
    <glyph glyph-name="O" unicode="O" horiz-adv-x="794" 
d="M217.5 32c-53.667 32 -95.834 75.5 -126.501 130.5s-46 115.167 -46 180.5s15.333 125.5 46 180.5s72.834 98.5 126.501 130.5s113.5 48 179.5 48s125.833 -16 179.5 -48s95.834 -75.5 126.501 -130.5s46 -115.167 46 -180.5s-15.333 -125.5 -46 -180.5
s-72.834 -98.5 -126.501 -130.5s-113.5 -48 -179.5 -48s-125.833 16 -179.5 48zM546 74.5c45.333 26.333 81.166 62.833 107.499 109.5s39.5 99.667 39.5 159s-13.167 112.333 -39.5 159s-62.166 83.167 -107.499 109.5s-95 39.5 -149 39.5s-103.667 -13.167 -149 -39.5
s-81.166 -62.833 -107.499 -109.5s-39.5 -99.667 -39.5 -159s13.167 -112.333 39.5 -159s62.166 -83.167 107.499 -109.5s95 -39.5 149 -39.5s103.667 13.167 149 39.5z" />
    <glyph glyph-name="P" unicode="P" horiz-adv-x="546" 
d="M80 686h226c37.333 0 71.833 -8.33301 103.5 -25s57 -40 76 -70s28.5 -64 28.5 -102s-9.5 -72 -28.5 -102s-44.333 -53.333 -76 -70s-66.167 -25 -103.5 -25h-171v-292h-55v686zM308 343c29.333 0 55.333 7 78 21s40.334 32.167 53.001 54.5s19 45.833 19 70.5
s-6.33301 48.167 -19 70.5s-30.334 40.5 -53.001 54.5s-48.667 21 -78 21h-173v-292h173z" />
    <glyph glyph-name="Q" unicode="Q" horiz-adv-x="794" 
d="M577 32c-60 -32 -120.001 -48.001 -180.001 -48.001c-66 0 -125.833 16 -179.5 48s-95.834 75.333 -126.501 130s-46 115 -46 181c0 65.333 15.333 125.5 46 180.5s72.834 98.5 126.501 130.5s113.5 48 179.5 48s125.833 -16 179.5 -48s95.834 -75.5 126.501 -130.5
s46 -115.167 46 -180.5c0 -55.333 -10.5 -106.666 -31.5 -153.999s-54.5 -90.333 -100.5 -129l49 -73l-41 -26zM547.999 74.999l-88.001 132l41 28l87 -131c38 35.333 65 72.5 81 111.5s24 81.5 24 127.5c0 59.333 -13.167 112.333 -39.5 159s-62.166 83.167 -107.499 109.5
s-95 39.5 -149 39.5s-103.667 -13.167 -149 -39.5s-81.166 -62.833 -107.499 -109.5s-39.5 -99.667 -39.5 -159c0 -58.667 13.333 -111.5 40 -158.5s62.5 -83.667 107.5 -110s94.5 -39.5 148.5 -39.5c47.333 0 97.666 13.333 150.999 40z" />
    <glyph glyph-name="R" unicode="R" horiz-adv-x="556" 
d="M80 686l226.999 0.000976562c36.667 0 70.834 -8.33301 102.501 -25s57 -40 76 -70s28.5 -64 28.5 -102c0 -30.667 -7 -59.334 -21 -86.001s-33.167 -49 -57.5 -67s-53.5 -30.667 -87.5 -38l-11 -16l205 -298v16h-77l-195 292h-135v-292h-55v686zM301.999 341.001
c27.333 0 52.833 6.33203 76.5 18.999s42.834 30.334 57.501 53.001s22 48 22 76c0 24.667 -6.33301 48.167 -19 70.5s-30.334 40.5 -53.001 54.5s-48.667 21 -78 21h-173v-294h167z" />
    <glyph glyph-name="S" unicode="S" horiz-adv-x="529" 
d="M163.5 5c-31.667 14 -59.668 34.6699 -84.001 62.0029s-40.833 56.333 -49.5 87l53 22c9.33301 -34.667 30.5 -66.834 63.5 -96.501s72.167 -44.5 117.5 -44.5c44.667 0 83 12.5 115 37.5s48 59.167 48 102.5c0 38 -13.333 68.833 -40 92.5s-68.667 45.167 -126 64.5
l-45 16c-48.667 17.333 -87.834 39.666 -117.501 66.999s-44.5 64.666 -44.5 111.999c0 31.333 8.5 60.333 25.5 87s41.167 48 72.5 64s66.333 24 105 24s72.334 -7.16699 101.001 -21.5s51.667 -31.666 69 -51.999s27.666 -36.166 30.999 -47.499l-50 -22
c-5.33301 17.333 -21.166 37 -47.499 59s-60.5 33 -102.5 33c-40 0 -74.667 -11.667 -104 -35s-44 -53 -44 -89c0 -32.667 12.333 -58.834 37 -78.501s60 -37.5 106 -53.5l47 -16c58.667 -21.333 103.834 -47.333 135.501 -78s47.5 -72.334 47.5 -125.001
c0 -42.667 -10.833 -78.5 -32.5 -107.5s-49.5 -50.333 -83.5 -64s-69 -20.5 -105 -20.5c-34 0 -66.833 7 -98.5 21z" />
    <glyph glyph-name="T" unicode="T" horiz-adv-x="508" 
d="M227 635h-201v51h456v-51h-200v-635h-55v635z" />
    <glyph glyph-name="U" unicode="U" horiz-adv-x="623" 
d="M181.5 17.5c-37.667 22.333 -66.8311 53.5 -87.498 93.5s-31 86.333 -31 139v436h55v-440c0 -61.333 16.667 -111.833 50 -151.5s81 -59.5 143 -59.5s109.833 19.667 143.5 59s50.5 90 50.5 152v440h55v-436c0 -53.333 -9.83301 -100 -29.5 -140s-48.334 -71 -86.001 -93
s-82.167 -33 -133.5 -33c-48.667 0 -91.834 11.167 -129.501 33.5z" />
    <glyph glyph-name="V" unicode="V" horiz-adv-x="589" 
d="M14 686h62l174 -509l27 -81h26l28 81l182 509h62l-251 -686h-66z" />
    <glyph glyph-name="W" unicode="W" horiz-adv-x="904" 
d="M17 686h62l127 -515l15 -60h27l18 60l157 515h66l150 -515l18 -60h27l141 575h62l-184 -686h-66l-149 507l-19 67h-26l-20 -67l-155 -507h-66z" />
    <glyph glyph-name="X" unicode="X" horiz-adv-x="575" 
d="M250 355l-218 331h66l180 -279h20l180 279h65l-218 -331l232 -355h-64l-195 299h-20l-196 -299h-64z" />
    <glyph glyph-name="Y" unicode="Y" horiz-adv-x="541" 
d="M245 320l-230 366h64l183 -300h20l180 300h64l-226 -366v-320h-55v320z" />
    <glyph glyph-name="Z" unicode="Z" horiz-adv-x="542" 
d="M38 69l400 566h-384v51h438v-69l-400 -566h404v-51h-458v69z" />
    <glyph glyph-name="bracketleft" unicode="[" horiz-adv-x="288" 
d="M80 762h171v-40h-124v-806h124v-40h-171v886z" />
    <glyph glyph-name="backslash" unicode="\" horiz-adv-x="260" 
d="M2 686h47l209 -686h-47z" />
    <glyph glyph-name="bracketright" unicode="]" horiz-adv-x="288" 
d="M37 -84h124v806h-124v40h171v-886h-171v40z" />
    <glyph glyph-name="asciicircum" unicode="^" horiz-adv-x="411" 
d="M180 686h51l168 -276h-53l-130 224h-22l-129 -224h-53z" />
    <glyph glyph-name="underscore" unicode="_" horiz-adv-x="446" 
d="M0 -176h446v-40h-446v40z" />
    <glyph glyph-name="grave" unicode="`" horiz-adv-x="350" 
d="M98 686h58l40 -97h-44z" />
    <glyph glyph-name="a" unicode="a" horiz-adv-x="493" 
d="M116.5 4.5c-27 13.667 -47.502 31.999 -61.502 54.999s-21 49.5 -21 79.5c0 48.667 18.333 87 55 115s83.667 42 141 42c28.667 0 55.334 -3.16699 80.001 -9.5s50 -17.833 76 -34.5v57c0 42.667 -14.333 76.834 -43 102.501s-64.667 38.5 -108 38.5
c-29.333 0 -56.833 -6.66699 -82.5 -20s-43.5 -28 -53.5 -44l-40 31c12.667 20 35.167 38.167 67.5 54.5s68.5 24.5 108.5 24.5c64 0 113.833 -16.833 149.5 -50.5s53.5 -79.5 53.5 -137.5v-308h-52v73h-25c-16 -27.333 -37.167 -49 -63.5 -65s-56.166 -24 -89.499 -24
c-34 0 -64.5 6.83301 -91.5 20.5zM299.998 52.999c26 16 46.834 37.5 62.501 64.5s23.5 59.167 23.5 96.5c-21.333 14.667 -43.833 25.5 -67.5 32.5s-48.834 10.5 -75.501 10.5c-48.667 0 -86 -11 -112 -33s-39 -50.667 -39 -86c0 -32.667 12 -59 36 -79s53.333 -30 88 -30
c30 0 58 8 84 24z" />
    <glyph glyph-name="b" unicode="b" horiz-adv-x="562" 
d="M206.5 8.5c-28.333 16.333 -50.833 38.5 -67.5 66.5h-24v-75h-52v686h56v-196l-5 -86h26c16 28.667 38.167 51.167 66.5 67.5s60.166 24.5 95.499 24.5c42.667 0 81 -11 115 -33s60.667 -52.5 80 -91.5s29 -82.833 29 -131.5c0 -49.333 -9.66699 -93.333 -29 -132
s-46 -69 -80 -91s-72.333 -33 -115 -33c-35.333 0 -67.166 8.16699 -95.499 24.5zM380.5 57c27.667 17.333 49.5 41.833 65.5 73.5s24 68.167 24 109.5s-8 77.833 -24 109.5s-37.833 56.167 -65.5 73.5s-56.834 26 -87.501 26c-31.333 0 -60.666 -8.66699 -87.999 -26
s-49.166 -41.833 -65.499 -73.5s-24.5 -68.167 -24.5 -109.5s8.16699 -77.833 24.5 -109.5s38.166 -56.167 65.499 -73.5s56.666 -26 87.999 -26c30.667 0 59.834 8.66699 87.501 26z" />
    <glyph glyph-name="c" unicode="c" horiz-adv-x="501" 
d="M150.5 17.5c-36.333 22.333 -64.502 52.8359 -84.502 91.5029s-30 82.334 -30 131.001s10 92.5 30 131.5s48.167 69.5 84.5 91.5s77.5 33 123.5 33c50.667 0 93.334 -12 128.001 -36s57.334 -51.333 68.001 -82l-50 -20c-10 24.667 -28.333 46 -55 64
s-58.334 27 -95.001 27c-32 0 -61.667 -8.83301 -89 -26.5s-49.333 -42.334 -66 -74.001s-25 -67.834 -25 -108.501s8.33301 -76.834 25 -108.501s38.667 -56.334 66 -74.001s57 -26.5 89 -26.5c37.333 0 69.833 9.16699 97.5 27.5s46.5 39.5 56.5 63.5l48 -20
c-11.333 -30 -34.666 -57.167 -69.999 -81.5s-78 -36.5 -128 -36.5c-46 0 -87.167 11.167 -123.5 33.5z" />
    <glyph glyph-name="d" unicode="d" horiz-adv-x="562" 
d="M145 17c-34 22 -60.667 52.333 -80 91s-29 82.667 -29 132c0 48.667 9.66699 92.5 29 131.5s46 69.5 80 91.5s72.333 33 115 33c35.333 0 67 -8.16699 95 -24.5s50.667 -38.833 68 -67.5h25l-5 86v196h56v-686h-52v75h-24c-17.333 -28 -40 -50.167 -68 -66.5
s-59.667 -24.5 -95 -24.5c-42.667 0 -81 11 -115 33zM357 57c27.333 17.333 49.166 41.833 65.499 73.5s24.5 68.167 24.5 109.5s-8.16699 77.833 -24.5 109.5s-38.166 56.167 -65.499 73.5s-56.666 26 -87.999 26c-30.667 0 -59.834 -8.66699 -87.501 -26
s-49.667 -42 -66 -74s-24.5 -68.333 -24.5 -109s8.16699 -77 24.5 -109s38.333 -56.667 66 -74s56.834 -26 87.501 -26c31.333 0 60.666 8.66699 87.999 26z" />
    <glyph glyph-name="e" unicode="e" horiz-adv-x="523" 
d="M148.5 17c-35.667 22 -63.335 52.333 -83.002 91s-29.5 82.334 -29.5 131.001c0 46.667 9.33301 89.667 28 129s45.167 70.5 79.5 93.5s74.166 34.5 119.499 34.5c46.667 0 86.834 -10.5 120.501 -31.5s59.334 -50 77.001 -87s26.5 -79.5 26.5 -127.5l-1 -11h-396
c2.66699 -52 12.834 -92.333 30.501 -121s40 -50.334 67 -65.001s55.5 -22 85.5 -22c70 0 120.667 29.333 152 88l46 -23c-14.667 -29.333 -39.5 -55.333 -74.5 -78s-77.167 -34 -126.5 -34c-45.333 0 -85.833 11 -121.5 33zM427.999 279
c-2 34 -8.66602 62.668 -19.999 86.001s-29.333 43.166 -54 59.499s-55 24.5 -91 24.5c-42.667 0 -78.834 -14 -108.501 -42s-50.167 -70.667 -61.5 -128h335z" />
    <glyph glyph-name="f" unicode="f" horiz-adv-x="346" 
d="M119 433l-91.001 -0.00195312v47h91v70c0 29.333 6.5 54.833 19.5 76.5s30.5 38.334 52.5 50.001s46.667 17.5 74 17.5c26 0 45.667 -2.33301 59 -7v-51c2 -1.33301 -3 -0.166016 -15 3.50098s-25.667 5.5 -41 5.5c-25.333 0 -47.166 -9.33301 -65.499 -28
s-27.5 -44 -27.5 -76v-61h128v-47h-128v-433h-56v433z" />
    <glyph glyph-name="g" unicode="g" horiz-adv-x="557" 
d="M130 -193c-35.333 26 -57.668 53.001 -67.001 81.001l51 21c8.66699 -22.667 26.834 -44 54.501 -64s60.5 -30 98.5 -30c54.667 0 97.5 16.833 128.5 50.5s46.5 80.5 46.5 140.5v72h-24c-18 -28.667 -40.833 -50.5 -68.5 -65.5s-59.167 -22.5 -94.5 -22.5
c-40.667 0 -77.667 10.667 -111 32s-59.666 51.166 -78.999 89.499s-29 82.166 -29 131.499c0 48.667 9.66699 92.334 29 131.001s45.666 68.667 78.999 90s70.333 32 111 32c35.333 0 66.833 -7.5 94.5 -22.5s50.5 -37.167 68.5 -66.5h24v73h52v-475
c0 -78 -20.667 -137 -62 -177s-96.333 -60 -165 -60c-56 0 -101.667 13 -137 39zM354.998 62.001c26.667 16.667 47.834 40.499 63.501 71.499s23.5 67.5 23.5 109.5c0 42.667 -7.83301 79.5 -23.5 110.5s-36.834 54.667 -63.501 71s-56 24.5 -88 24.5
s-61.5 -8.33301 -88.5 -25s-48.333 -40.5 -64 -71.5s-23.5 -67.5 -23.5 -109.5s7.83301 -78.667 23.5 -110s37 -55.166 64 -71.499s56.5 -24.5 88.5 -24.5s61.333 8.33301 88 25z" />
    <glyph glyph-name="h" unicode="h" horiz-adv-x="526" 
d="M63 686h56.002v-196l-5 -85h26c15.333 28.667 36.666 51 63.999 67s57.333 24 90 24c56.667 0 99.667 -16.667 129 -50s44 -78 44 -134v-312h-56v299c0 50 -12.667 87.5 -38 112.5s-58 37.5 -98 37.5c-29.333 0 -55.833 -8.83301 -79.5 -26.5
s-42.334 -40.167 -56.001 -67.5s-20.5 -56 -20.5 -86v-269h-56v686z" />
    <glyph glyph-name="i" unicode="i" horiz-adv-x="196" 
d="M65.5 617.5c-9 9 -13.5 19.833 -13.5 32.5c0 13.333 4.5 24.333 13.5 33s19.833 13 32.5 13c13.333 0 24.333 -4.33301 33 -13s13 -19.667 13 -33c0 -12.667 -4.33301 -23.5 -13 -32.5s-19.667 -13.5 -33 -13.5c-12.667 0 -23.5 4.5 -32.5 13.5zM71 480h55v-480h-55v480z
" />
    <glyph glyph-name="j" unicode="j" horiz-adv-x="207" 
d="M76.5 617.5c-9 9 -13.5 19.833 -13.5 32.5c0 13.333 4.5 24.333 13.5 33s19.833 13 32.5 13c13.333 0 24.333 -4.33301 33 -13s13 -19.667 13 -33c0 -12.667 -4.33301 -23.5 -13 -32.5s-19.667 -13.5 -33 -13.5c-12.667 0 -23.5 4.5 -32.5 13.5zM-17 -223v43
c-8.66699 5.33301 -8.16699 6.83301 1.5 4.5s18.167 -3.5 25.5 -3.5c25.333 0 43.5 8.16699 54.5 24.5s16.5 38.833 16.5 67.5v567h56v-567c0 -47.333 -10.833 -82.333 -32.5 -105s-52.167 -34 -91.5 -34c-14.667 0 -24.667 1 -30 3z" />
    <glyph glyph-name="k" unicode="k" horiz-adv-x="467" 
d="M63 686h56v-470l252 264h70l-182 -189l194 -291h-68l-165 253l-101 -105v-148h-56v686z" />
    <glyph glyph-name="l" unicode="l" horiz-adv-x="181" 
d="M63 690l55 21v-711h-55v690z" />
    <glyph glyph-name="m" unicode="m" horiz-adv-x="830" 
d="M63 480l51.999 0.000976562v-75h25c15.333 28.667 36.333 51 63 67s54.667 24 84 24c34.667 0 64.167 -8.16699 88.5 -24.5s45.166 -46.833 62.499 -91.5c25.333 44 51.5 74.333 78.5 91s58.5 25 94.5 25c53.333 0 93.166 -16.167 119.499 -48.5s39.5 -77.5 39.5 -135.5
v-312h-55v299c0 51.333 -10.667 89.166 -32 113.499s-52.333 36.5 -93 36.5c-28 0 -53.167 -8.16699 -75.5 -24.5s-39.666 -38 -51.999 -65s-18.5 -55.833 -18.5 -86.5v-273h-55v298c0 52 -10.667 90.167 -32 114.5s-52.333 36.5 -93 36.5
c-27.333 0 -52.166 -8.33301 -74.499 -25s-39.666 -38.667 -51.999 -66s-18.5 -56.333 -18.5 -87v-271h-56v480z" />
    <glyph glyph-name="n" unicode="n" horiz-adv-x="523" 
d="M63 480h51.999v-75h25c15.333 28 36.833 50.167 64.5 66.5s57.167 24.5 88.5 24.5c56 0 98.5 -16.333 127.5 -49s43.5 -77.667 43.5 -135v-312h-56v299c0 51.333 -12.5 89.166 -37.5 113.499s-58.167 36.5 -99.5 36.5c-29.333 0 -55.666 -8.5 -78.999 -25.5
s-41.333 -39.167 -54 -66.5s-19 -55.666 -19 -84.999v-272h-56v480z" />
    <glyph glyph-name="o" unicode="o" horiz-adv-x="556" 
d="M153 18c-36.667 22.667 -65.334 53.5 -86.001 92.5s-31 82.167 -31 129.5s10.333 90.5 31 129.5s49.334 69.833 86.001 92.5s78.334 34 125.001 34s88.334 -11.333 125.001 -34s65.334 -53.5 86.001 -92.5s31 -82.167 31 -129.5s-10.333 -90.5 -31 -129.5
s-49.334 -69.833 -86.001 -92.5s-78.334 -34 -125.001 -34s-88.334 11.333 -125.001 34zM369.5 56.5c28.333 17 51.166 41.333 68.499 73s26 68.5 26 110.5s-8.66699 78.833 -26 110.5s-40.166 56 -68.499 73s-58.833 25.5 -91.5 25.5s-63.334 -8.5 -92.001 -25.5
s-51.667 -41.333 -69 -73s-26 -68.5 -26 -110.5s8.66699 -78.833 26 -110.5s40.333 -56 69 -73s59.334 -25.5 92.001 -25.5s63.167 8.5 91.5 25.5z" />
    <glyph glyph-name="p" unicode="p" horiz-adv-x="558" 
d="M59 480h52v-76h25c16 28.667 38.167 51.167 66.5 67.5s60.166 24.5 95.499 24.5c42.667 0 81 -11 115 -33s60.667 -52.5 80 -91.5s29 -82.833 29 -131.5c0 -49.333 -9.66699 -93.333 -29 -132s-46 -69 -80 -91s-72.333 -33 -115 -33
c-35.333 0 -67.166 8.16699 -95.499 24.5s-50.833 38.5 -67.5 66.5h-25l5 -85v-206h-56v696zM376.5 57c27.667 17.333 49.5 41.833 65.5 73.5s24 68.167 24 109.5s-8 77.833 -24 109.5s-37.833 56.167 -65.5 73.5s-56.834 26 -87.501 26
c-31.333 0 -60.666 -8.66699 -87.999 -26s-49.166 -41.833 -65.499 -73.5s-24.5 -68.167 -24.5 -109.5s8.16699 -77.833 24.5 -109.5s38.166 -56.167 65.499 -73.5s56.666 -26 87.999 -26c30.667 0 59.834 8.66699 87.501 26z" />
    <glyph glyph-name="q" unicode="q" horiz-adv-x="558" 
d="M443 -10l5 85h-25c-17.333 -28 -40 -50.167 -68 -66.5s-59.667 -24.5 -95 -24.5c-42.667 0 -81 11 -115 33s-60.667 52.333 -80 91s-29 82.667 -29 132c0 48.667 9.66699 92.5 29 131.5s46 69.5 80 91.5s72.333 33 115 33c35.333 0 67 -8.16699 95 -24.5
s50.667 -38.833 68 -67.5h24v76h52v-696h-56v206zM357 57c27.333 17.333 49.166 41.833 65.499 73.5s24.5 68.167 24.5 109.5s-8.16699 77.833 -24.5 109.5s-38.166 56.167 -65.499 73.5s-56.666 26 -87.999 26c-30.667 0 -59.834 -8.66699 -87.501 -26s-49.667 -42 -66 -74
s-24.5 -68.333 -24.5 -109s8.16699 -77 24.5 -109s38.333 -56.667 66 -74s56.834 -26 87.501 -26c31.333 0 60.666 8.66699 87.999 26z" />
    <glyph glyph-name="r" unicode="r" horiz-adv-x="341" 
d="M63 480l52 0.000976562v-82h27c10.667 31.333 28.667 55.333 54 72s52.333 25 81 25c20.667 0 35.667 -1.66699 45 -5v-59c-9.33301 5.33301 -28.333 8 -57 8c-26.667 0 -51.167 -7.83301 -73.5 -23.5s-40 -36.334 -53 -62.001s-19.5 -53.5 -19.5 -83.5v-270h-56v480z
" />
    <glyph glyph-name="s" unicode="s" horiz-adv-x="431" 
d="M91.5 20c-33.667 24 -55.498 49.999 -65.498 77.999l49 23c10 -24.667 28.333 -46.167 55 -64.5s56 -27.5 88 -27.5c33.333 0 62.833 7.5 88.5 22.5s38.5 37.5 38.5 67.5c0 26.667 -10.333 47.5 -31 62.5s-50.334 27.5 -89.001 37.5l-60 16
c-38 9.33301 -68.5 24.833 -91.5 46.5s-34.5 49.167 -34.5 82.5c0 26 7.66699 49 23 69s36.5 35.5 63.5 46.5s56.167 16.5 87.5 16.5c41.333 0 77.833 -9 109.5 -27s52.167 -38 61.5 -60l-48 -23c-20.667 42.667 -62 64 -124 64c-29.333 0 -56 -7.66699 -80 -23
s-36 -35.666 -36 -60.999c0 -23.333 8.5 -42 25.5 -56s40.5 -25 70.5 -33l72 -19c46.667 -12 81.167 -29.167 103.5 -51.5s33.5 -49.5 33.5 -81.5c0 -28 -7.83301 -52.667 -23.5 -74s-37.5 -37.833 -65.5 -49.5s-59.333 -17.5 -94 -17.5c-50.667 0 -92.834 12 -126.501 36z
" />
    <glyph glyph-name="t" unicode="t" horiz-adv-x="332" 
d="M188.5 1c-15.667 6 -28.833 14 -39.5 24c-22.667 22 -34 53.333 -34 94v314h-87v47h87v144h56v-144h122v-47h-122v-293c0 -31.333 6 -55.333 18 -72c15.333 -18 37 -27 65 -27c22.667 0 36.334 1.66699 41.001 5v-46c-4 -2 -10.333 -3.83301 -19 -5.5
s-20.667 -2.5 -36 -2.5c-18.667 0 -35.834 3 -51.501 9z" />
    <glyph glyph-name="u" unicode="u" horiz-adv-x="523" 
d="M102.5 33.5c-29 33 -43.499 79.834 -43.499 140.501v306h56v-293c0 -52.667 12.167 -91.834 36.5 -117.501s56.166 -38.5 95.499 -38.5c31.333 0 58.833 8.5 82.5 25.5s42 38.833 55 65.5s19.5 55 19.5 85v273h56v-480h-52v74h-25c-15.333 -28 -36.833 -50 -64.5 -66
s-57.167 -24 -88.5 -24c-56 0 -98.5 16.5 -127.5 49.5z" />
    <glyph glyph-name="v" unicode="v" horiz-adv-x="460" 
d="M7 480h59l154 -410h20l156 410h57l-191 -480h-66z" />
    <glyph glyph-name="w" unicode="w" horiz-adv-x="719" 
d="M7 480h57l118 -403h20l126 403h65l126 -402h20l118 402h55l-151 -480h-64l-139 438l-137 -438h-64z" />
    <glyph glyph-name="x" unicode="x" horiz-adv-x="421" 
d="M178 244l-161 236h59l135 -200l131 200h63l-164 -236l167 -244h-62l-136 207l-135 -207h-62z" />
    <glyph glyph-name="y" unicode="y" horiz-adv-x="460" 
d="M207 17l-199 463h59l156 -379h20l150 379h59l-294 -696h-56z" />
    <glyph glyph-name="z" unicode="z" horiz-adv-x="449" 
d="M37 53l310 380h-301v47h358v-53l-310 -380h318v-47h-375v53z" />
    <glyph glyph-name="braceleft" unicode="{" horiz-adv-x="283" 
d="M136.5 -84c-26.333 26.667 -39.5 62.666 -39.5 107.999v175c0 31.333 -8.16699 55.833 -24.5 73.5s-32.833 26.5 -49.5 26.5v40c16.667 0 33.167 8.83301 49.5 26.5s24.5 42.167 24.5 73.5v175c0 45.333 13.167 81.333 39.5 108s62.5 40 108.5 40h7v-40h-6
c-30 0 -54.333 -10.167 -73 -30.5s-28 -47.166 -28 -80.499v-175c0 -28.667 -4.83301 -51 -14.5 -67s-27.5 -28.333 -53.5 -37v-26c26 -8.66699 43.833 -20.834 53.5 -36.501s14.5 -38.167 14.5 -67.5v-175c0 -33.333 9.33301 -60.166 28 -80.499s43 -30.5 73 -30.5h6v-40
h-7c-46 0 -82.167 13.333 -108.5 40z" />
    <glyph glyph-name="bar" unicode="|" horiz-adv-x="207" 
d="M80 762h47v-882h-47v882z" />
    <glyph glyph-name="braceright" unicode="}" horiz-adv-x="283" 
d="M31 -84l6 0.000976562c29.333 0 53.666 10.167 72.999 30.5s29 47.166 29 80.499v175c0 29.333 4.66699 51.833 14 67.5s27 27.834 53 36.501v26c-26 8.66699 -43.667 21 -53 37s-14 38.333 -14 67v175c0 33.333 -9.66699 60.166 -29 80.499s-43.666 30.5 -72.999 30.5
h-6v40h7c46 0 82.167 -13.333 108.5 -40s39.5 -62.667 39.5 -108v-175c0 -31.333 8.16699 -55.833 24.5 -73.5s32.833 -26.5 49.5 -26.5v-40c-16.667 0 -33.167 -8.83301 -49.5 -26.5s-24.5 -42.167 -24.5 -73.5v-175c0 -45.333 -13.167 -81.333 -39.5 -108
s-62.5 -40 -108.5 -40h-7v40z" />
    <glyph glyph-name="asciitilde" unicode="~" horiz-adv-x="506" 
d="M316 245c-18 6 -40.6699 15 -68.0029 27c-25.333 10.667 -46 18.667 -62 24s-30.333 8 -43 8c-20 0 -36 -7 -48 -21s-18.667 -25.333 -20 -34h-38c0 13.333 5 28.833 15 46.5s23 31.167 39 40.5s32.667 14 50 14c15.333 0 31.833 -3 49.5 -9s40.834 -15 69.501 -27
c24.667 -10.667 44.834 -18.667 60.501 -24s29.834 -8 42.501 -8c20 0 36 7 48 21s18.667 25.333 20 34h38c0 -13.333 -5.16699 -28.833 -15.5 -46.5s-23.333 -31.167 -39 -40.5s-32.5 -14 -50.5 -14c-14 0 -30 3 -48 9z" />
    <glyph glyph-name="uni00A0" unicode="&#xa0;" horiz-adv-x="232" 
 />
    <glyph glyph-name="exclamdown" unicode="&#xa1;" horiz-adv-x="208" 
d="M69 412c-9.33301 9.33301 -14 21 -14 35s4.66699 25.667 14 35s21 14 35 14s25.667 -4.66699 35 -14s14 -21 14 -35s-4.66699 -25.667 -14 -35s-21 -14 -35 -14s-25.667 4.66699 -35 14zM77 12l9 262h36l9 -262v-228h-54v228z" />
    <glyph glyph-name="cent" unicode="&#xa2;" horiz-adv-x="496" 
d="M408.5 127c-29 -23.333 -68.833 -38.002 -119.5 -44.002v-83h-40v83c-47.333 6.66699 -86.166 21.167 -116.499 43.5s-54 50.666 -71 84.999s-25.5 72.833 -25.5 115.5s8.5 81.334 25.5 116.001s40.667 63.167 71 85.5s69.166 36.5 116.499 42.5v83h40v-83
c50.667 -6 90 -20.5 118 -43.5s47 -47.167 57 -72.5l-49 -20c-18.667 46 -60.667 76.333 -126 91v-398c39.333 8.66699 69 21.834 89 39.501s34 34.834 42 51.501l47 -20c-10 -24.667 -29.5 -48.667 -58.5 -72zM130.5 199.998c27 -35.333 66.5 -59.335 118.5 -72.002v398
c-52 -12.667 -91.5 -36.667 -118.5 -72s-40.5 -77.666 -40.5 -126.999s13.5 -91.666 40.5 -126.999z" />
    <glyph glyph-name="sterling" unicode="&#xa3;" horiz-adv-x="491" 
d="M471 88c-22 -58.667 -68.3379 -88.002 -139.005 -88.002h-294v48c29.333 13.333 53.333 35 72 65s28 62.333 28 97c0 6 -1.33301 19 -4 39h-95v41h79c-8.66699 17.333 -18 34.666 -28 51.999c-17.333 28.667 -30.166 53.5 -38.499 74.5s-12.5 44.833 -12.5 71.5
c0 32 7.83301 62 23.5 90s37.834 50.333 66.501 67s61.667 25 99 25c49.333 0 89.166 -13.167 119.499 -39.5s49.833 -52.166 58.5 -77.499l-49 -21c-6 18 -20 37 -42 57s-51 30 -87 30c-41.333 0 -74.166 -13.167 -98.499 -39.5s-36.5 -56.833 -36.5 -91.5
c0 -24.667 4.33301 -47.167 13 -67.5s21.334 -44.5 38.001 -72.5c2.66699 -4.66699 7.16699 -12 13.5 -22s12.5 -22 18.5 -36h133v-41h-118v-26c0 -26 -5.16699 -51.667 -15.5 -77s-28.833 -51.666 -55.5 -78.999l22 -16h190c28.667 0 50.834 5.83301 66.501 17.5
s25.834 23.834 30.501 36.501z" />
    <glyph glyph-name="currency" unicode="&#xa4;" horiz-adv-x="569" 
d="M68 128l58.001 56c-28 43.333 -42 85.333 -42 126c0 41.333 14 83.333 42 126l-58 57l29 29l58 -56c41.333 32 84.666 48 129.999 48c44.667 0 87.667 -16 129 -48l58 56l29 -29l-57 -56c27.333 -42.667 41 -85 41 -127c0 -41.333 -13.667 -83.333 -41 -126l57 -56
l-29 -29l-58 56c-23.333 -18.667 -45.333 -31.5 -66 -38.5s-41.667 -10.5 -63 -10.5c-44.667 0 -88 16.333 -130 49l-58 -56zM361.001 171.5c23.333 14.333 41.833 33.833 55.5 58.5s20.5 51.334 20.5 80.001s-6.83301 55.334 -20.5 80.001s-32.167 44.167 -55.5 58.5
s-48.666 21.5 -75.999 21.5c-28 0 -53.667 -7.16699 -77 -21.5s-41.833 -33.833 -55.5 -58.5s-20.5 -51.334 -20.5 -80.001s6.83301 -55.334 20.5 -80.001s32.167 -44.167 55.5 -58.5s49 -21.5 77 -21.5c27.333 0 52.666 7.16699 75.999 21.5z" />
    <glyph glyph-name="yen" unicode="&#xa5;" horiz-adv-x="518" 
d="M234 169h-171v40h171v115h-171v40h138l-186 290h62l135 -225l38 -64h22l37 64l133 225h61l-183 -290h135v-40h-167v-115h167v-40h-167v-169h-54v169z" />
    <glyph glyph-name="brokenbar" unicode="&#xa6;" horiz-adv-x="207" 
d="M80 726h47v-350h-47v350zM80 262h47v-382h-47v382z" />
    <glyph glyph-name="section" unicode="&#xa7;" horiz-adv-x="513" 
d="M465 -57c0 -36 -9.83398 -67.1631 -29.501 -93.4961s-45.334 -46.5 -77.001 -60.5s-64.834 -21 -99.501 -21c-48.667 0 -93 15.5 -133 46.5s-66 70.833 -78 119.5l51 21c9.33301 -34 28 -65.167 56 -93.5s62.667 -42.5 104 -42.5c40.667 0 75.667 11.5 105 34.5
s44 52.167 44 87.5c0 38.667 -14.167 69.5 -42.5 92.5s-72.833 43.833 -133.5 62.5c-56.667 18 -98.167 40.333 -124.5 67s-39.5 59.667 -39.5 99c0 24.667 6.83301 48 20.5 70s40.167 44.667 79.5 68c-68 40.667 -102 88.667 -102 144c0 25.333 7.33301 50.166 22 74.499
s36.334 44.333 65.001 60s62.667 23.5 102 23.5c32.667 0 62.334 -7 89.001 -21s48.334 -31.333 65.001 -52s27 -36.667 31 -48l-50 -21c-5.33301 16 -20 35.167 -44 57.5s-53.667 33.5 -89 33.5c-25.333 0 -48.333 -4.83301 -69 -14.5s-36.834 -22.834 -48.501 -39.501
s-17.5 -34.334 -17.5 -53.001c0 -29.333 11.333 -53 34 -71s56.667 -34.667 102 -50c68 -21.333 119.5 -46.5 154.5 -75.5s52.5 -69.833 52.5 -122.5c0 -26 -5.66699 -50.333 -17 -73s-31.666 -44.334 -60.999 -65.001c52 -42 78 -90 78 -144zM156.999 193.004
c22 -18 55.666 -34.3311 100.999 -48.998c28 -8.66699 57.667 -20 89 -34c21.333 14.667 37 32 47 52s15 39.667 15 59c0 39.333 -14.167 70.166 -42.5 92.499s-73.166 43.166 -134.499 62.499l-11 4c-30.667 -9.33301 -54.5 -25 -71.5 -47s-25.5 -44.667 -25.5 -68
c0 -30 11 -54 33 -72z" />
    <glyph glyph-name="dieresis" unicode="&#xa8;" horiz-adv-x="362" 
d="M71.5 617c-7.66699 8 -11.5 17.001 -11.5 27.001c0 11.333 3.83301 20.666 11.5 27.999s16.834 11 27.501 11c11.333 0 20.5 -3.66699 27.5 -11s10.5 -16.666 10.5 -27.999c0 -10.667 -3.5 -19.834 -10.5 -27.501s-16.167 -11.5 -27.5 -11.5
c-10.667 0 -19.834 4 -27.501 12zM236 617.001c-8 8 -12.001 17.001 -12.001 27.001c0 11.333 3.83301 20.666 11.5 27.999s16.834 11 27.501 11c11.333 0 20.666 -3.66699 27.999 -11s11 -16.666 11 -27.999c0 -10.667 -3.66699 -19.834 -11 -27.501
s-16.666 -11.5 -27.999 -11.5c-10 0 -19 4 -27 12z" />
    <glyph glyph-name="copyright" unicode="&#xa9;" horiz-adv-x="500" 
d="M142.5 301c-33 19.333 -59.167 45.5 -78.5 78.5s-29 68.833 -29 107.5s9.66699 74.5 29 107.5s45.5 59.167 78.5 78.5s68.833 29 107.5 29s74.5 -9.66699 107.5 -29s59.167 -45.5 78.5 -78.5s29 -68.833 29 -107.5s-9.66699 -74.5 -29 -107.5s-45.5 -59.167 -78.5 -78.5
s-68.833 -29 -107.5 -29s-74.5 9.66699 -107.5 29zM350 315c30.667 18 55 42.333 73 73s27 63.667 27 99c0 36 -9 69.333 -27 100s-42.333 54.834 -73 72.501s-64 26.5 -100 26.5c-35.333 0 -68.333 -8.83301 -99 -26.5s-55 -41.834 -73 -72.501s-27 -64 -27 -100
c0 -35.333 9 -68.333 27 -99s42.333 -55 73 -73s63.667 -27 99 -27c36 0 69.333 9 100 27zM180.5 413.5c-19.667 20.333 -29.501 44.833 -29.501 73.5c0 29.333 9.83301 54 29.5 74s44.167 30 73.5 30c16 0 29.833 -2.83301 41.5 -8.5s19.5 -10.5 23.5 -14.5l-8 -7
c-2 2 -8.16699 5.5 -18.5 10.5s-23.166 7.5 -38.499 7.5c-24 0 -44.833 -9 -62.5 -27s-26.5 -39.667 -26.5 -65s8.83301 -47 26.5 -65s38.5 -27 62.5 -27c30 0 51.333 8.66699 64 26l9 -8c-14.667 -20 -39 -30 -73 -30c-29.333 0 -53.833 10.167 -73.5 30.5z" />
    <glyph glyph-name="ordfeminine" unicode="&#xaa;" horiz-adv-x="444" 
d="M115.5 289c-23 11.333 -41.165 26.998 -54.498 46.998s-20 42.667 -20 68c0 40.667 16.5 72.834 49.5 96.501s74.5 35.5 124.5 35.5c24.667 0 47.5 -3 68.5 -9s44.833 -16.667 71.5 -32v42c0 38 -12.5 68 -37.5 90s-55.5 33 -91.5 33
c-28.667 0 -52.834 -5.16699 -72.501 -15.5s-33.5 -22.5 -41.5 -36.5l-46 22c7.33301 14.667 24.5 30.334 51.5 47.001s62.167 25 105.5 25c34 0 64.667 -6.66699 92 -20s48.833 -32.5 64.5 -57.5s23.5 -55.5 23.5 -91.5v-247h-48v66h-28
c-14.667 -26 -33.334 -45.833 -56.001 -59.5s-49 -20.5 -79 -20.5c-28 0 -53.5 5.66699 -76.5 17zM276.502 330.998c23 12.667 41.832 29.833 56.499 51.5s22 48.5 22 80.5c-4 4.66699 -10.5 10 -19.5 16s-23.167 11.667 -42.5 17s-39.666 8 -60.999 8
c-44 0 -77.833 -9.5 -101.5 -28.5s-35.5 -44.167 -35.5 -75.5c0 -28.667 11 -50.5 33 -65.5s47.333 -22.5 76 -22.5c25.333 0 49.5 6.33301 72.5 19z" />
    <glyph glyph-name="guillemotleft" unicode="&#xab;" horiz-adv-x="548" 
d="M37 256l181 196l28 -26l-161 -170l161 -170l-28 -26zM237 256l181 196l28 -26l-161 -170l161 -170l-28 -26z" />
    <glyph glyph-name="logicalnot" unicode="&#xac;" horiz-adv-x="543" 
d="M418 312h-363v40h401v-247h-38v207z" />
    <glyph glyph-name="uni00AD" unicode="&#xad;" horiz-adv-x="441" 
d="M62 315h287v-40h-287v40z" />
    <glyph glyph-name="registered" unicode="&#xae;" horiz-adv-x="500" 
d="M142.5 301c-33 19.333 -59.167 45.5 -78.5 78.5s-29 68.833 -29 107.5s9.66699 74.5 29 107.5s45.5 59.167 78.5 78.5s68.833 29 107.5 29s74.5 -9.66699 107.5 -29s59.167 -45.5 78.5 -78.5s29 -68.833 29 -107.5s-9.66699 -74.5 -29 -107.5s-45.5 -59.167 -78.5 -78.5
s-68.833 -29 -107.5 -29s-74.5 9.66699 -107.5 29zM350 315c30.667 18 55 42.333 73 73s27 63.667 27 99c0 36 -9 69.333 -27 100s-42.333 54.834 -73 72.501s-64 26.5 -100 26.5c-35.333 0 -68.333 -8.83301 -99 -26.5s-55 -41.834 -73 -72.501s-27 -64 -27 -100
c0 -35.333 9 -68.333 27 -99s42.333 -55 73 -73s63.667 -27 99 -27c36 0 69.333 9 100 27zM189 585h80c15.333 0 28.833 -5.5 40.5 -16.5s17.5 -24.5 17.5 -40.5c0 -12 -3.83301 -22.667 -11.5 -32s-18.167 -16 -31.5 -20l-14 -13l65 -92v18h-27l-56 85h-49v-85h-14v196z
M265 484c12 0 23 4 33 12s15 18.667 15 32c0 12 -4.5 22.5 -13.5 31.5s-20.167 13.5 -33.5 13.5h-63v-89h62z" />
    <glyph glyph-name="macron" unicode="&#xaf;" horiz-adv-x="369" 
d="M61 662h247v-36h-247v36z" />
    <glyph glyph-name="degree" unicode="&#xb0;" horiz-adv-x="293" 
d="M89 457.5c-18 10.333 -32.167 24.166 -42.5 41.499s-15.5 36.333 -15.5 57s5.16699 39.834 15.5 57.501s24.5 31.5 42.5 41.5s37.333 15 58 15s39.667 -5 57 -15s31.166 -23.833 41.499 -41.5s15.5 -36.834 15.5 -57.501s-5.16699 -39.667 -15.5 -57
s-24.166 -31.166 -41.499 -41.499s-36.333 -15.5 -57 -15.5s-40 5.16699 -58 15.5zM205 496c15.333 16.667 23 36.667 23 60s-7.66699 43.333 -23 60s-34.666 25 -57.999 25c-22.667 0 -42.167 -8.33301 -58.5 -25s-24.5 -36.667 -24.5 -60s8.16699 -43.333 24.5 -60
s35.833 -25 58.5 -25c23.333 0 42.666 8.33301 57.999 25z" />
    <glyph glyph-name="plusminus" unicode="&#xb1;" horiz-adv-x="514" 
d="M237 299h-182v40h182v157h40v-157h182v-40h-182v-157h-40v157zM55 40h404v-40h-404v40z" />
    <glyph glyph-name="uni00B2" unicode="&#xb2;" horiz-adv-x="302" 
d="M21 385l130.999 130.998c14.667 15.333 26.334 29.333 35.001 42s13 27.334 13 44.001c0 18 -6.83301 33 -20.5 45s-30.5 18 -50.5 18s-37.167 -6.33301 -51.5 -19s-22.5 -24.667 -24.5 -36l-32 13c4 17.333 16.333 33.5 37 48.5s44 22.5 70 22.5
c30 0 55.5 -8.5 76.5 -25.5s31.5 -39.167 31.5 -66.5c0 -17.333 -5.5 -34.166 -16.5 -50.499s-24.833 -32.833 -41.5 -49.5l-122 -123h182v-29h-217v35z" />
    <glyph glyph-name="uni00B3" unicode="&#xb3;" horiz-adv-x="322" 
d="M62 364c-22 14.667 -35.333 32.334 -40 53.001l32 12c3.33301 -14 13.166 -27.167 29.499 -39.5s34.5 -18.5 54.5 -18.5c20.667 0 39.167 6.83301 55.5 20.5s24.5 31.167 24.5 52.5c0 20.667 -7.83301 37.167 -23.5 49.5s-34.167 18.5 -55.5 18.5h-26v26h21
c20.667 0 37.667 6 51 18s20 27.667 20 47c0 18.667 -6.83301 33.667 -20.5 45s-29.5 17 -47.5 17c-36 0 -59.333 -13.333 -70 -40l-30 12c4.66699 12.667 15.834 25.334 33.501 38.001s39.834 19 66.501 19c31.333 0 56.666 -8.5 75.999 -25.5s29 -38.5 29 -64.5
c0 -25.333 -20 -51 -60 -77c48 -26.667 72 -54.334 72 -83.001c0 -30.667 -11.167 -55.334 -33.5 -74.001s-49.833 -28 -82.5 -28c-28.667 0 -54 7.33301 -76 22z" />
    <glyph glyph-name="acute" unicode="&#xb4;" horiz-adv-x="349" 
d="M195 686h57l-54 -97h-43z" />
    <glyph glyph-name="mu" unicode="&#xb5;" horiz-adv-x="553" 
d="M59 480l55.998 0.00195312v-290c0 -53.333 12.333 -93.166 37 -119.499s56.334 -39.5 95.001 -39.5c31.333 0 58.833 8.5 82.5 25.5s42 39.167 55 66.5s19.5 55.666 19.5 84.999v272h56v-480h-52v74h-25c-16 -28.667 -37.167 -50.834 -63.5 -66.501
s-56.166 -23.5 -89.499 -23.5c-18 0 -35 3.66699 -51 11s-31.333 18.666 -46 33.999h-23l5 -75v-170h-56v696z" />
    <glyph glyph-name="paragraph" unicode="&#xb6;" horiz-adv-x="584" 
d="M292 296l-59 0.00195312c-38 0 -73.167 8 -105.5 24s-57.833 38.667 -76.5 68s-28 63.666 -28 102.999s9.33301 73.666 28 102.999s44.167 52 76.5 68s67.5 24 105.5 24h273v-902h-48v851h-119v-851h-47v512z" />
    <glyph glyph-name="periodcentered" unicode="&#xb7;" horiz-adv-x="153" 
d="M42 274c-9.33301 9.33301 -14 21 -14 35s4.66699 25.667 14 35s21 14 35 14c13.333 0 24.666 -4.66699 33.999 -14s14 -21 14 -35s-4.66699 -25.667 -14 -35s-20.666 -14 -33.999 -14c-14 0 -25.667 4.66699 -35 14z" />
    <glyph glyph-name="cedilla" unicode="&#xb8;" horiz-adv-x="369" 
d="M98 -221c-14.667 10.667 -23.333 20 -26 28l22 10c0.666992 -2 6 -7.66699 16 -17s22.333 -14 37 -14c17.333 0 31.5 5.66699 42.5 17s16.5 25 16.5 41c0 16.667 -5.33301 30.834 -16 42.501s-25 17.5 -43 17.5c-18.667 0 -31.667 -4.66699 -39 -14l-21 10l26 70h20
l-24 -53c29.333 4.66699 45.333 7 48 7c21.333 0 39.333 -7.5 54 -22.5s22 -34.167 22 -57.5c0 -22.667 -8.16699 -41.834 -24.5 -57.501s-36.833 -23.5 -61.5 -23.5c-18 0 -34.333 5.33301 -49 16z" />
    <glyph glyph-name="uni00B9" unicode="&#xb9;" horiz-adv-x="239" 
d="M106 649l-65 -54l-18 25l82 66h36v-336h-35v299z" />
    <glyph glyph-name="ordmasculine" unicode="&#xba;" horiz-adv-x="485" 
d="M137 300c-31.333 18.667 -55.833 44.334 -73.5 77.001s-26.5 69.334 -26.5 110.001s8.83301 77.334 26.5 110.001s42.167 58.334 73.5 77.001s66.666 28 105.999 28s74.666 -9.33301 105.999 -28s55.833 -44.334 73.5 -77.001s26.5 -69.334 26.5 -110.001
s-8.83301 -77.334 -26.5 -110.001s-42.167 -58.334 -73.5 -77.001s-66.666 -28 -105.999 -28s-74.666 9.33301 -105.999 28zM318.5 338c23.667 14.667 42.667 35 57 61s21.5 55.333 21.5 88s-7.16699 62 -21.5 88s-33.333 46.333 -57 61s-48.834 22 -75.501 22
c-27.333 0 -52.833 -7.33301 -76.5 -22s-42.667 -35 -57 -61s-21.5 -55.333 -21.5 -88s7.16699 -62 21.5 -88s33.333 -46.333 57 -61s49.167 -22 76.5 -22c26.667 0 51.834 7.33301 75.501 22z" />
    <glyph glyph-name="guillemotright" unicode="&#xbb;" horiz-adv-x="548" 
d="M57 86l160 170l-160 170l28 26l181 -196l-181 -196zM257 86l160 170l-160 170l28 26l181 -196l-181 -196z" />
    <glyph glyph-name="onequarter" unicode="&#xbc;" horiz-adv-x="732" 
d="M131 649l-65 -54l-18 25l82 66h36v-336h-35v299zM100 17l449 670l28 -19l-449 -669zM562 74h-172v24l169 238h38v-236h49v-26h-49v-74h-35v74zM562 100v167h-27l-119 -167h146z" />
    <glyph glyph-name="onehalf" unicode="&#xbd;" horiz-adv-x="774" 
d="M131 649l-65 -54l-18 25l82 66h36v-336h-35v299zM92 17l449 670l28 -19l-449 -669zM467 35l130.999 130.998c14.667 15.333 26.334 29.333 35.001 42s13 27.334 13 44.001c0 18 -6.83301 33 -20.5 45s-30.5 18 -50.5 18s-37.167 -6.33301 -51.5 -19
s-22.5 -24.667 -24.5 -36l-32 13c4 17.333 16.333 33.5 37 48.5s44 22.5 70 22.5c30 0 55.5 -8.5 76.5 -25.5s31.5 -39.167 31.5 -66.5c0 -17.333 -5.5 -34.166 -16.5 -50.499s-24.833 -32.833 -41.5 -49.5l-122 -123h182v-29h-217v35z" />
    <glyph glyph-name="threequarters" unicode="&#xbe;" horiz-adv-x="825" 
d="M88 364c-22 14.667 -35.333 32.334 -40 53.001l32 12c3.33301 -14 13.166 -27.167 29.499 -39.5s34.5 -18.5 54.5 -18.5c20.667 0 39.167 6.83301 55.5 20.5s24.5 31.167 24.5 52.5c0 20.667 -7.83301 37.167 -23.5 49.5s-34.167 18.5 -55.5 18.5h-26v26h21
c20.667 0 37.667 6 51 18s20 27.667 20 47c0 18.667 -6.83301 33.667 -20.5 45s-29.5 17 -47.5 17c-36 0 -59.333 -13.333 -70 -40l-30 12c4.66699 12.667 15.834 25.334 33.501 38.001s39.834 19 66.501 19c31.333 0 56.666 -8.5 75.999 -25.5s29 -38.5 29 -64.5
c0 -25.333 -20 -51 -60 -77c48 -26.667 72 -54.334 72 -83.001c0 -30.667 -11.167 -55.334 -33.5 -74.001s-49.833 -28 -82.5 -28c-28.667 0 -54 7.33301 -76 22zM180 17l449 670l28 -19l-449 -669zM655 74h-172v24l169 238h38v-236h49v-26h-49v-74h-35v74zM655 100v167h-27
l-119 -167h146z" />
    <glyph glyph-name="questiondown" unicode="&#xbf;" horiz-adv-x="460" 
d="M201 412c-9.33301 9.33301 -14 21 -14 35s4.66699 25.667 14 35s21 14 35 14s25.667 -4.66699 35 -14s14 -21 14 -35s-4.66699 -25.667 -14 -35s-21 -14 -35 -14s-25.667 4.66699 -35 14zM136.5 -209.5c-28.333 15 -50.334 35.667 -66.001 62s-23.5 55.833 -23.5 88.5
c0 23.333 5 45 15 65s20.833 36.667 32.5 50s26.5 28.333 44.5 45c23.333 20.667 40.666 41 51.999 61s17 43.333 17 70v42h56v-48c0 -30.667 -5.66699 -56.334 -17 -77.001s-33 -45.334 -65 -74.001c-26.667 -25.333 -46.5 -47.166 -59.5 -65.499
s-19.5 -41.166 -19.5 -68.499c0 -36 11.833 -65.333 35.5 -88s55.834 -34 96.501 -34c37.333 0 67 10.667 89 32s36.333 42 43 62l51 -21c-9.33301 -27.333 -29.833 -54.833 -61.5 -82.5s-72.167 -41.5 -121.5 -41.5c-37.333 0 -70.166 7.5 -98.499 22.5z" />
    <glyph glyph-name="Agrave" unicode="&#xc0;" horiz-adv-x="670" 
d="M275 686h76l260 -686h-61l-72 197h-330l-72 -197h-61zM461 247l-104 278l-31 87h-26l-31 -87l-104 -278h296zM228 870h58l40 -97h-44z" />
    <glyph glyph-name="Aacute" unicode="&#xc1;" horiz-adv-x="670" 
d="M275 686h76l260 -686h-61l-72 197h-330l-72 -197h-61zM461 247l-104 278l-31 87h-26l-31 -87l-104 -278h296zM338 870h57l-54 -97h-43z" />
    <glyph glyph-name="Acircumflex" unicode="&#xc2;" horiz-adv-x="670" 
d="M275 686h76l260 -686h-61l-72 197h-330l-72 -197h-61zM461 247l-104 278l-31 87h-26l-31 -87l-104 -278h296zM210 779l80 91h61l80 -91h-46l-54 63h-22l-53 -63h-46z" />
    <glyph glyph-name="Atilde" unicode="&#xc3;" horiz-adv-x="670" 
d="M275 686h76l260 -686h-61l-72 197h-330l-72 -197h-61zM461 247l-104 278l-31 87h-26l-31 -87l-104 -278h296zM347.5 786.5c-10.333 4.33301 -23.502 11.168 -39.502 20.501c-22 13.333 -38 20 -48 20c-31.333 0 -48 -12.333 -50 -37h-41c0 12.667 4.5 26.167 13.5 40.5
s20.833 25.166 35.5 32.499s29 11 43 11c18 0 42 -9.33301 72 -28c22.667 -12.667 38.334 -19 47.001 -19c31.333 0 48 12.333 50 37h41c0 -22 -9.66699 -41.5 -29 -58.5s-40.666 -25.5 -63.999 -25.5c-10 0 -20.167 2.16699 -30.5 6.5z" />
    <glyph glyph-name="Adieresis" unicode="&#xc4;" horiz-adv-x="670" 
d="M275 686h76l260 -686h-61l-72 197h-330l-72 -197h-61zM461 247l-104 278l-31 87h-26l-31 -87l-104 -278h296zM210.5 801c-7.66699 8 -11.5 17.001 -11.5 27.001c0 11.333 3.83301 20.666 11.5 27.999s16.834 11 27.501 11c11.333 0 20.5 -3.66699 27.5 -11
s10.5 -16.666 10.5 -27.999c0 -10.667 -3.5 -19.834 -10.5 -27.501s-16.167 -11.5 -27.5 -11.5c-10.667 0 -19.834 4 -27.501 12zM375 801.001c-8 8 -12.001 17.001 -12.001 27.001c0 11.333 3.83301 20.666 11.5 27.999s16.834 11 27.501 11
c11.333 0 20.666 -3.66699 27.999 -11s11 -16.666 11 -27.999c0 -10.667 -3.66699 -19.834 -11 -27.501s-16.666 -11.5 -27.999 -11.5c-10 0 -19 4 -27 12z" />
    <glyph glyph-name="Aring" unicode="&#xc5;" horiz-adv-x="625" 
d="M610 0l-61 0.00195312l-72 197h-329l-72 -197h-61l252 664c-16 13.333 -27.167 26.166 -33.5 38.499s-9.5 25.166 -9.5 38.499c0 24.667 8.5 45.5 25.5 62.5s37.833 25.5 62.5 25.5s45.667 -8.5 63 -25.5s26 -37.833 26 -62.5c0 -13.333 -3 -26 -9 -38
s-17.333 -24.667 -34 -38zM271.5 782.502c-11.667 -11.667 -17.5 -25.5 -17.5 -41.5s5.83301 -29.833 17.5 -41.5s25.167 -17.5 40.5 -17.5c16 0 29.833 5.83301 41.5 17.5s17.5 25.5 17.5 41.5s-5.83301 29.833 -17.5 41.5s-25.5 17.5 -41.5 17.5
c-15.333 0 -28.833 -5.83301 -40.5 -17.5zM460 247.002l-103 278l-33 87h-25l-31 -87l-103 -278h295z" />
    <glyph glyph-name="AE" unicode="&#xc6;" horiz-adv-x="918" 
d="M420 686h441v-51h-329v-267h297v-50h-297v-267h329v-51h-384v197h-288l-118 -197h-64zM477 247v388h-28l-33 -57l-197 -331h258z" />
    <glyph glyph-name="Ccedilla" unicode="&#xc7;" horiz-adv-x="706" 
d="M558 18c-46 -22 -99.332 -33.3291 -159.999 -33.9961l-30 -67c29.333 4.66699 45.333 7 48 7c21.333 0 39.333 -7.5 54 -22.5s22 -34.167 22 -57.5c0 -22.667 -8.16699 -41.834 -24.5 -57.501s-36.833 -23.5 -61.5 -23.5c-18 0 -34.333 5.33301 -49 16
s-23.334 20 -26.001 28l22 10c0.666992 -2 6 -7.66699 16 -17s22.333 -14 37 -14c17.333 0 31.5 5.66699 42.5 17s16.5 25 16.5 41c0 16.667 -5.33301 30.834 -16 42.501s-25 17.5 -43 17.5c-18.667 0 -31.667 -4.66699 -39 -14l-21 10l32 84
c-73.333 8 -133.666 28.333 -180.999 61s-84.5 75 -111.5 127s-40.5 109 -40.5 171c0 67.333 15.5 128.333 46.5 183s73.667 97.667 128 129s114.833 47 181.5 47c51.333 0 98.166 -9.5 140.499 -28.5s75.833 -43.167 100.5 -72.5l-39 -38c-22 26 -50.167 47.167 -84.5 63.5
s-73.5 24.5 -117.5 24.5c-54.667 0 -104.834 -12.833 -150.501 -38.5s-82 -61.834 -109 -108.501s-40.5 -100.334 -40.5 -161.001s13.5 -114.334 40.5 -161.001s63.333 -82.834 109 -108.501s95.834 -38.5 150.501 -38.5c91.333 0 165.333 33.333 222 100l41 -39
c-24.667 -30 -60 -56 -106 -78z" />
    <glyph glyph-name="Egrave" unicode="&#xc8;" horiz-adv-x="551" 
d="M80 686h384v-51h-329v-267h297v-50h-297v-267h329v-51h-384v686zM180 870h58l40 -97h-44z" />
    <glyph glyph-name="Eacute" unicode="&#xc9;" horiz-adv-x="551" 
d="M80 686h384v-51h-329v-267h297v-50h-297v-267h329v-51h-384v686zM290 870h57l-54 -97h-43z" />
    <glyph glyph-name="Ecircumflex" unicode="&#xca;" horiz-adv-x="551" 
d="M80 686h384v-51h-329v-267h297v-50h-297v-267h329v-51h-384v686zM162 779l80 91h61l80 -91h-46l-54 63h-22l-53 -63h-46z" />
    <glyph glyph-name="Edieresis" unicode="&#xcb;" horiz-adv-x="551" 
d="M80 686h384v-51h-329v-267h297v-50h-297v-267h329v-51h-384v686zM162.5 801c-7.66699 8 -11.5 17.001 -11.5 27.001c0 11.333 3.83301 20.666 11.5 27.999s16.834 11 27.501 11c11.333 0 20.5 -3.66699 27.5 -11s10.5 -16.666 10.5 -27.999
c0 -10.667 -3.5 -19.834 -10.5 -27.501s-16.167 -11.5 -27.5 -11.5c-10.667 0 -19.834 4 -27.501 12zM327 801.001c-8 8 -12.001 17.001 -12.001 27.001c0 11.333 3.83301 20.666 11.5 27.999s16.834 11 27.501 11c11.333 0 20.666 -3.66699 27.999 -11
s11 -16.666 11 -27.999c0 -10.667 -3.66699 -19.834 -11 -27.501s-16.666 -11.5 -27.999 -11.5c-10 0 -19 4 -27 12z" />
    <glyph glyph-name="Igrave" unicode="&#xcc;" horiz-adv-x="245" 
d="M80 686h55v-686h-55v686zM15 870h58l40 -97h-44z" />
    <glyph glyph-name="Iacute" unicode="&#xcd;" horiz-adv-x="245" 
d="M80 686h55v-686h-55v686zM125 870h57l-54 -97h-43z" />
    <glyph glyph-name="Icircumflex" unicode="&#xce;" horiz-adv-x="245" 
d="M80 686h55v-686h-55v686zM-3 779l80 91h61l80 -91h-46l-54 63h-22l-53 -63h-46z" />
    <glyph glyph-name="Idieresis" unicode="&#xcf;" horiz-adv-x="215" 
d="M13.5 801.5c-7.66699 7.66699 -11.5 16.834 -11.5 27.501c0 11.333 3.83301 20.666 11.5 27.999s16.834 11 27.501 11c11.333 0 20.666 -3.66699 27.999 -11s11 -16.666 11 -27.999c0 -10.667 -3.66699 -19.834 -11 -27.501s-16.666 -11.5 -27.999 -11.5
c-10.667 0 -19.834 3.83301 -27.501 11.5zM146.5 801.5c-7.66699 7.66699 -11.5 16.834 -11.5 27.501c0 11.333 3.83301 20.666 11.5 27.999s16.834 11 27.501 11c11.333 0 20.5 -3.66699 27.5 -11s10.5 -16.666 10.5 -27.999c0 -10.667 -3.5 -19.834 -10.5 -27.501
s-16.167 -11.5 -27.5 -11.5c-10.667 0 -19.834 3.83301 -27.501 11.5zM80 686h55v-686h-55v686z" />
    <glyph glyph-name="Eth" unicode="&#xd0;" horiz-adv-x="702" 
d="M109 322h-76v40h76v324h201c70.667 0 132.167 -14.5 184.5 -43.5s92.5 -69.333 120.5 -121s42 -111.167 42 -178.5s-14 -126.833 -42 -178.5s-68.167 -92 -120.5 -121s-113.833 -43.5 -184.5 -43.5h-201v322zM310 51c88.667 0 159.334 25.833 212.001 77.5
s79 123.167 79 214.5s-26.333 162.833 -79 214.5s-123.334 77.5 -212.001 77.5h-147v-273h204v-40h-204v-271h147z" />
    <glyph glyph-name="Ntilde" unicode="&#xd1;" horiz-adv-x="708" 
d="M80 686h81l359 -570h27l-4 153v417h55v-686h-65l-375 597h-27l4 -153v-444h-55v686zM366.5 786.5c-10.333 4.33301 -23.502 11.168 -39.502 20.501c-22 13.333 -38 20 -48 20c-31.333 0 -48 -12.333 -50 -37h-41c0 12.667 4.5 26.167 13.5 40.5
s20.833 25.166 35.5 32.499s29 11 43 11c18 0 42 -9.33301 72 -28c22.667 -12.667 38.334 -19 47.001 -19c31.333 0 48 12.333 50 37h41c0 -22 -9.66699 -41.5 -29 -58.5s-40.666 -25.5 -63.999 -25.5c-10 0 -20.167 2.16699 -30.5 6.5z" />
    <glyph glyph-name="Ograve" unicode="&#xd2;" horiz-adv-x="824" 
d="M217.5 32c-53.667 32 -95.834 75.5 -126.501 130.5s-46 115.167 -46 180.5s15.333 125.5 46 180.5s72.834 98.5 126.501 130.5s113.5 48 179.5 48s125.833 -16 179.5 -48s95.834 -75.5 126.501 -130.5s46 -115.167 46 -180.5s-15.333 -125.5 -46 -180.5
s-72.834 -98.5 -126.501 -130.5s-113.5 -48 -179.5 -48s-125.833 16 -179.5 48zM546 74.5c45.333 26.333 81.166 62.833 107.499 109.5s39.5 99.667 39.5 159s-13.167 112.333 -39.5 159s-62.166 83.167 -107.499 109.5s-95 39.5 -149 39.5s-103.667 -13.167 -149 -39.5
s-81.166 -62.833 -107.499 -109.5s-39.5 -99.667 -39.5 -159s13.167 -112.333 39.5 -159s62.166 -83.167 107.499 -109.5s95 -39.5 149 -39.5s103.667 13.167 149 39.5zM305 870h58l40 -97h-44z" />
    <glyph glyph-name="Oacute" unicode="&#xd3;" horiz-adv-x="824" 
d="M217.5 32c-53.667 32 -95.834 75.5 -126.501 130.5s-46 115.167 -46 180.5s15.333 125.5 46 180.5s72.834 98.5 126.501 130.5s113.5 48 179.5 48s125.833 -16 179.5 -48s95.834 -75.5 126.501 -130.5s46 -115.167 46 -180.5s-15.333 -125.5 -46 -180.5
s-72.834 -98.5 -126.501 -130.5s-113.5 -48 -179.5 -48s-125.833 16 -179.5 48zM546 74.5c45.333 26.333 81.166 62.833 107.499 109.5s39.5 99.667 39.5 159s-13.167 112.333 -39.5 159s-62.166 83.167 -107.499 109.5s-95 39.5 -149 39.5s-103.667 -13.167 -149 -39.5
s-81.166 -62.833 -107.499 -109.5s-39.5 -99.667 -39.5 -159s13.167 -112.333 39.5 -159s62.166 -83.167 107.499 -109.5s95 -39.5 149 -39.5s103.667 13.167 149 39.5zM415 870h57l-54 -97h-43z" />
    <glyph glyph-name="Ocircumflex" unicode="&#xd4;" horiz-adv-x="824" 
d="M217.5 32c-53.667 32 -95.834 75.5 -126.501 130.5s-46 115.167 -46 180.5s15.333 125.5 46 180.5s72.834 98.5 126.501 130.5s113.5 48 179.5 48s125.833 -16 179.5 -48s95.834 -75.5 126.501 -130.5s46 -115.167 46 -180.5s-15.333 -125.5 -46 -180.5
s-72.834 -98.5 -126.501 -130.5s-113.5 -48 -179.5 -48s-125.833 16 -179.5 48zM546 74.5c45.333 26.333 81.166 62.833 107.499 109.5s39.5 99.667 39.5 159s-13.167 112.333 -39.5 159s-62.166 83.167 -107.499 109.5s-95 39.5 -149 39.5s-103.667 -13.167 -149 -39.5
s-81.166 -62.833 -107.499 -109.5s-39.5 -99.667 -39.5 -159s13.167 -112.333 39.5 -159s62.166 -83.167 107.499 -109.5s95 -39.5 149 -39.5s103.667 13.167 149 39.5zM287 779l80 91h61l80 -91h-46l-54 63h-22l-53 -63h-46z" />
    <glyph glyph-name="Otilde" unicode="&#xd5;" horiz-adv-x="824" 
d="M217.5 32c-53.667 32 -95.834 75.5 -126.501 130.5s-46 115.167 -46 180.5s15.333 125.5 46 180.5s72.834 98.5 126.501 130.5s113.5 48 179.5 48s125.833 -16 179.5 -48s95.834 -75.5 126.501 -130.5s46 -115.167 46 -180.5s-15.333 -125.5 -46 -180.5
s-72.834 -98.5 -126.501 -130.5s-113.5 -48 -179.5 -48s-125.833 16 -179.5 48zM546 74.5c45.333 26.333 81.166 62.833 107.499 109.5s39.5 99.667 39.5 159s-13.167 112.333 -39.5 159s-62.166 83.167 -107.499 109.5s-95 39.5 -149 39.5s-103.667 -13.167 -149 -39.5
s-81.166 -62.833 -107.499 -109.5s-39.5 -99.667 -39.5 -159s13.167 -112.333 39.5 -159s62.166 -83.167 107.499 -109.5s95 -39.5 149 -39.5s103.667 13.167 149 39.5zM424.5 786.5c-10.333 4.33301 -23.502 11.168 -39.502 20.501c-22 13.333 -38 20 -48 20
c-31.333 0 -48 -12.333 -50 -37h-41c0 12.667 4.5 26.167 13.5 40.5s20.833 25.166 35.5 32.499s29 11 43 11c18 0 42 -9.33301 72 -28c22.667 -12.667 38.334 -19 47.001 -19c31.333 0 48 12.333 50 37h41c0 -22 -9.66699 -41.5 -29 -58.5s-40.666 -25.5 -63.999 -25.5
c-10 0 -20.167 2.16699 -30.5 6.5z" />
    <glyph glyph-name="Odieresis" unicode="&#xd6;" horiz-adv-x="824" 
d="M217.5 32c-53.667 32 -95.834 75.5 -126.501 130.5s-46 115.167 -46 180.5s15.333 125.5 46 180.5s72.834 98.5 126.501 130.5s113.5 48 179.5 48s125.833 -16 179.5 -48s95.834 -75.5 126.501 -130.5s46 -115.167 46 -180.5s-15.333 -125.5 -46 -180.5
s-72.834 -98.5 -126.501 -130.5s-113.5 -48 -179.5 -48s-125.833 16 -179.5 48zM546 74.5c45.333 26.333 81.166 62.833 107.499 109.5s39.5 99.667 39.5 159s-13.167 112.333 -39.5 159s-62.166 83.167 -107.499 109.5s-95 39.5 -149 39.5s-103.667 -13.167 -149 -39.5
s-81.166 -62.833 -107.499 -109.5s-39.5 -99.667 -39.5 -159s13.167 -112.333 39.5 -159s62.166 -83.167 107.499 -109.5s95 -39.5 149 -39.5s103.667 13.167 149 39.5zM287.5 801c-7.66699 8 -11.5 17.001 -11.5 27.001c0 11.333 3.83301 20.666 11.5 27.999
s16.834 11 27.501 11c11.333 0 20.5 -3.66699 27.5 -11s10.5 -16.666 10.5 -27.999c0 -10.667 -3.5 -19.834 -10.5 -27.501s-16.167 -11.5 -27.5 -11.5c-10.667 0 -19.834 4 -27.501 12zM452 801.001c-8 8 -12.001 17.001 -12.001 27.001
c0 11.333 3.83301 20.666 11.5 27.999s16.834 11 27.501 11c11.333 0 20.666 -3.66699 27.999 -11s11 -16.666 11 -27.999c0 -10.667 -3.66699 -19.834 -11 -27.501s-16.666 -11.5 -27.999 -11.5c-10 0 -19 4 -27 12z" />
    <glyph glyph-name="multiply" unicode="&#xd7;" horiz-adv-x="504" 
d="M66 101l159 155l-159 155l26 26l160 -156l160 156l26 -26l-161 -155l161 -155l-26 -26l-160 156l-160 -156z" />
    <glyph glyph-name="Oslash" unicode="&#xd8;" horiz-adv-x="795" 
d="M714 504c24 -49.333 35.999 -103 35.999 -161c0 -66 -15.333 -126.333 -46 -181s-73 -98 -127 -130s-114 -48 -180 -48c-58 0 -115.333 14.667 -172 44l-37 -58l-32 21l36 58c-50 38.667 -87 82.667 -111 132s-36 103.333 -36 162c0 65.333 15.333 125.5 46 180.5
s72.834 98.5 126.501 130.5s113.5 48 179.5 48c58 0 115.667 -15 173 -45l38 60l33 -22l-37 -59c49.333 -38.667 86 -82.667 110 -132zM128.999 208.5c18.667 -41 49 -79.5 91 -115.5l324 521c-52 24.667 -101 37 -147 37c-54 0 -103.5 -13.167 -148.5 -39.5
s-80.833 -63 -107.5 -110s-40 -99.833 -40 -158.5c0 -48.667 9.33301 -93.5 28 -134.5zM545.999 74.5c45.333 26.333 81.167 62.832 107.5 109.499s39.5 99.667 39.5 159c0 48.667 -9.16699 93.334 -27.5 134.001s-47.833 79 -88.5 115l-326 -520
c52 -24.667 100.667 -37 146 -37c54 0 103.667 13.167 149 39.5z" />
    <glyph glyph-name="Ugrave" unicode="&#xd9;" horiz-adv-x="653" 
d="M181.5 17.5c-37.667 22.333 -66.8311 53.5 -87.498 93.5s-31 86.333 -31 139v436h55v-440c0 -61.333 16.667 -111.833 50 -151.5s81 -59.5 143 -59.5s109.833 19.667 143.5 59s50.5 90 50.5 152v440h55v-436c0 -53.333 -9.83301 -100 -29.5 -140s-48.334 -71 -86.001 -93
s-82.167 -33 -133.5 -33c-48.667 0 -91.834 11.167 -129.501 33.5zM219.003 870h58l40 -97h-44z" />
    <glyph glyph-name="Uacute" unicode="&#xda;" horiz-adv-x="653" 
d="M181.5 17.5c-37.667 22.333 -66.8311 53.5 -87.498 93.5s-31 86.333 -31 139v436h55v-440c0 -61.333 16.667 -111.833 50 -151.5s81 -59.5 143 -59.5s109.833 19.667 143.5 59s50.5 90 50.5 152v440h55v-436c0 -53.333 -9.83301 -100 -29.5 -140s-48.334 -71 -86.001 -93
s-82.167 -33 -133.5 -33c-48.667 0 -91.834 11.167 -129.501 33.5zM329.003 870h57l-54 -97h-43z" />
    <glyph glyph-name="Ucircumflex" unicode="&#xdb;" horiz-adv-x="653" 
d="M181.5 17.5c-37.667 22.333 -66.8311 53.5 -87.498 93.5s-31 86.333 -31 139v436h55v-440c0 -61.333 16.667 -111.833 50 -151.5s81 -59.5 143 -59.5s109.833 19.667 143.5 59s50.5 90 50.5 152v440h55v-436c0 -53.333 -9.83301 -100 -29.5 -140s-48.334 -71 -86.001 -93
s-82.167 -33 -133.5 -33c-48.667 0 -91.834 11.167 -129.501 33.5zM201.003 779l80 91h61l80 -91h-46l-54 63h-22l-53 -63h-46z" />
    <glyph glyph-name="Udieresis" unicode="&#xdc;" horiz-adv-x="653" 
d="M181.5 17.5c-37.667 22.333 -66.8311 53.5 -87.498 93.5s-31 86.333 -31 139v436h55v-440c0 -61.333 16.667 -111.833 50 -151.5s81 -59.5 143 -59.5s109.833 19.667 143.5 59s50.5 90 50.5 152v440h55v-436c0 -53.333 -9.83301 -100 -29.5 -140s-48.334 -71 -86.001 -93
s-82.167 -33 -133.5 -33c-48.667 0 -91.834 11.167 -129.501 33.5zM201.503 801c-7.66699 8 -11.5 17.001 -11.5 27.001c0 11.333 3.83301 20.666 11.5 27.999s16.834 11 27.501 11c11.333 0 20.5 -3.66699 27.5 -11s10.5 -16.666 10.5 -27.999
c0 -10.667 -3.5 -19.834 -10.5 -27.501s-16.167 -11.5 -27.5 -11.5c-10.667 0 -19.834 4 -27.501 12zM366.003 801.001c-8 8 -12.001 17.001 -12.001 27.001c0 11.333 3.83301 20.666 11.5 27.999s16.834 11 27.501 11c11.333 0 20.666 -3.66699 27.999 -11
s11 -16.666 11 -27.999c0 -10.667 -3.66699 -19.834 -11 -27.501s-16.666 -11.5 -27.999 -11.5c-10 0 -19 4 -27 12z" />
    <glyph glyph-name="Yacute" unicode="&#xdd;" horiz-adv-x="595" 
d="M245 320l-230 366h64l183 -300h20l180 300h64l-226 -366v-320h-55v320zM300 870h57l-54 -97h-43z" />
    <glyph glyph-name="Thorn" unicode="&#xde;" horiz-adv-x="546" 
d="M80 686h55v-123h171c37.333 0 71.833 -8.33301 103.5 -25s57 -40 76 -70s28.5 -64 28.5 -102s-9.5 -72 -28.5 -102s-44.333 -53.333 -76 -70s-66.167 -25 -103.5 -25h-171v-169h-55v686zM308 220c29.333 0 55.333 7 78 21s40.334 32.167 53.001 54.5s19 45.833 19 70.5
s-6.33301 48.167 -19 70.5s-30.334 40.5 -53.001 54.5s-48.667 21 -78 21h-173v-292h173z" />
    <glyph glyph-name="germandbls" unicode="&#xdf;" horiz-adv-x="533" 
d="M245 -6l0.000976562 51.002c8.66699 -1.33301 22 -2 40 -2c42.667 0 78.5 14.5 107.5 43.5s43.5 64.833 43.5 107.5c0 28 -7.5 53.5 -22.5 76.5s-34.5 41 -58.5 54s-50 19.5 -78 19.5h-24v48h13c42 0 75.667 12.333 101 37s38 56.667 38 96
c0 37.333 -13 67.666 -39 90.999s-57.333 35 -94 35c-42 0 -75.167 -13.667 -99.5 -41s-36.5 -63.666 -36.5 -108.999v-501h-57v501c0 38.667 7.5 73.167 22.5 103.5s37 54.166 66 71.499s63.833 26 104.5 26c36.667 0 69.5 -7.66699 98.5 -23s51.5 -36.333 67.5 -63
s24 -57 24 -91c0 -64.667 -29 -112 -87 -142v-23c38 -15.333 67.167 -36.833 87.5 -64.5s30.5 -61.5 30.5 -101.5c0 -38.667 -8.83301 -73.334 -26.5 -104.001s-42.334 -54.667 -74.001 -72s-67.5 -26 -107.5 -26c-18.667 0 -32 0.666992 -40 2z" />
    <glyph glyph-name="agrave" unicode="&#xe0;" horiz-adv-x="523" 
d="M116.5 4.5c-27 13.667 -47.502 31.999 -61.502 54.999s-21 49.5 -21 79.5c0 48.667 18.333 87 55 115s83.667 42 141 42c28.667 0 55.334 -3.16699 80.001 -9.5s50 -17.833 76 -34.5v57c0 42.667 -14.333 76.834 -43 102.501s-64.667 38.5 -108 38.5
c-29.333 0 -56.833 -6.66699 -82.5 -20s-43.5 -28 -53.5 -44l-40 31c12.667 20 35.167 38.167 67.5 54.5s68.5 24.5 108.5 24.5c64 0 113.833 -16.833 149.5 -50.5s53.5 -79.5 53.5 -137.5v-308h-52v73h-25c-16 -27.333 -37.167 -49 -63.5 -65s-56.166 -24 -89.499 -24
c-34 0 -64.5 6.83301 -91.5 20.5zM299.998 52.999c26 16 46.834 37.5 62.501 64.5s23.5 59.167 23.5 96.5c-21.333 14.667 -43.833 25.5 -67.5 32.5s-48.834 10.5 -75.501 10.5c-48.667 0 -86 -11 -112 -33s-39 -50.667 -39 -86c0 -32.667 12 -59 36 -79s53.333 -30 88 -30
c30 0 58 8 84 24zM148.999 705.999h59l39 -97h-45z" />
    <glyph glyph-name="aacute" unicode="&#xe1;" horiz-adv-x="523" 
d="M116.5 4.5c-27 13.667 -47.502 31.999 -61.502 54.999s-21 49.5 -21 79.5c0 48.667 18.333 87 55 115s83.667 42 141 42c28.667 0 55.334 -3.16699 80.001 -9.5s50 -17.833 76 -34.5v57c0 42.667 -14.333 76.834 -43 102.501s-64.667 38.5 -108 38.5
c-29.333 0 -56.833 -6.66699 -82.5 -20s-43.5 -28 -53.5 -44l-40 31c12.667 20 35.167 38.167 67.5 54.5s68.5 24.5 108.5 24.5c64 0 113.833 -16.833 149.5 -50.5s53.5 -79.5 53.5 -137.5v-308h-52v73h-25c-16 -27.333 -37.167 -49 -63.5 -65s-56.166 -24 -89.499 -24
c-34 0 -64.5 6.83301 -91.5 20.5zM299.998 52.999c26 16 46.834 37.5 62.501 64.5s23.5 59.167 23.5 96.5c-21.333 14.667 -43.833 25.5 -67.5 32.5s-48.834 10.5 -75.501 10.5c-48.667 0 -86 -11 -112 -33s-39 -50.667 -39 -86c0 -32.667 12 -59 36 -79s53.333 -30 88 -30
c30 0 58 8 84 24zM256.999 705.999h57l-53 -97h-43z" />
    <glyph glyph-name="acircumflex" unicode="&#xe2;" horiz-adv-x="523" 
d="M116.5 4.5c-27 13.667 -47.502 31.999 -61.502 54.999s-21 49.5 -21 79.5c0 48.667 18.333 87 55 115s83.667 42 141 42c28.667 0 55.334 -3.16699 80.001 -9.5s50 -17.833 76 -34.5v57c0 42.667 -14.333 76.834 -43 102.501s-64.667 38.5 -108 38.5
c-29.333 0 -56.833 -6.66699 -82.5 -20s-43.5 -28 -53.5 -44l-40 31c12.667 20 35.167 38.167 67.5 54.5s68.5 24.5 108.5 24.5c64 0 113.833 -16.833 149.5 -50.5s53.5 -79.5 53.5 -137.5v-308h-52v73h-25c-16 -27.333 -37.167 -49 -63.5 -65s-56.166 -24 -89.499 -24
c-34 0 -64.5 6.83301 -91.5 20.5zM299.998 52.999c26 16 46.834 37.5 62.501 64.5s23.5 59.167 23.5 96.5c-21.333 14.667 -43.833 25.5 -67.5 32.5s-48.834 10.5 -75.501 10.5c-48.667 0 -86 -11 -112 -33s-39 -50.667 -39 -86c0 -32.667 12 -59 36 -79s53.333 -30 88 -30
c30 0 58 8 84 24zM131.999 613.999l78 92h61l78 -92h-46l-53 64h-20l-52 -64h-46z" />
    <glyph glyph-name="atilde" unicode="&#xe3;" horiz-adv-x="523" 
d="M116.5 4.5c-27 13.667 -47.502 31.999 -61.502 54.999s-21 49.5 -21 79.5c0 48.667 18.333 87 55 115s83.667 42 141 42c28.667 0 55.334 -3.16699 80.001 -9.5s50 -17.833 76 -34.5v57c0 42.667 -14.333 76.834 -43 102.501s-64.667 38.5 -108 38.5
c-29.333 0 -56.833 -6.66699 -82.5 -20s-43.5 -28 -53.5 -44l-40 31c12.667 20 35.167 38.167 67.5 54.5s68.5 24.5 108.5 24.5c64 0 113.833 -16.833 149.5 -50.5s53.5 -79.5 53.5 -137.5v-308h-52v73h-25c-16 -27.333 -37.167 -49 -63.5 -65s-56.166 -24 -89.499 -24
c-34 0 -64.5 6.83301 -91.5 20.5zM299.998 52.999c26 16 46.834 37.5 62.501 64.5s23.5 59.167 23.5 96.5c-21.333 14.667 -43.833 25.5 -67.5 32.5s-48.834 10.5 -75.501 10.5c-48.667 0 -86 -11 -112 -33s-39 -50.667 -39 -86c0 -32.667 12 -59 36 -79s53.333 -30 88 -30
c30 0 58 8 84 24zM265.999 622.499c-10 4.33301 -23.002 11.167 -39.002 20.5c-21.333 13.333 -36.666 20 -45.999 20c-29.333 0 -45 -12.333 -47 -37h-42c0 22 9.33301 41.333 28 58s39.334 25 62.001 25c18 0 41.667 -9.33301 71 -28c22 -12.667 37 -19 45 -19
c30 0 46 12.333 48 37h42c0 -22 -9.33301 -41.333 -28 -58s-40 -25 -64 -25c-10 0 -20 2.16699 -30 6.5z" />
    <glyph glyph-name="adieresis" unicode="&#xe4;" horiz-adv-x="523" 
d="M116.5 4.5c-27 13.667 -47.502 31.999 -61.502 54.999s-21 49.5 -21 79.5c0 48.667 18.333 87 55 115s83.667 42 141 42c28.667 0 55.334 -3.16699 80.001 -9.5s50 -17.833 76 -34.5v57c0 42.667 -14.333 76.834 -43 102.501s-64.667 38.5 -108 38.5
c-29.333 0 -56.833 -6.66699 -82.5 -20s-43.5 -28 -53.5 -44l-40 31c12.667 20 35.167 38.167 67.5 54.5s68.5 24.5 108.5 24.5c64 0 113.833 -16.833 149.5 -50.5s53.5 -79.5 53.5 -137.5v-308h-52v73h-25c-16 -27.333 -37.167 -49 -63.5 -65s-56.166 -24 -89.499 -24
c-34 0 -64.5 6.83301 -91.5 20.5zM299.998 52.999c26 16 46.834 37.5 62.501 64.5s23.5 59.167 23.5 96.5c-21.333 14.667 -43.833 25.5 -67.5 32.5s-48.834 10.5 -75.501 10.5c-48.667 0 -86 -11 -112 -33s-39 -50.667 -39 -86c0 -32.667 12 -59 36 -79s53.333 -30 88 -30
c30 0 58 8 84 24zM132.499 636.499c-7.66699 7.66699 -11.5 16.834 -11.5 27.501c0 11.333 3.83301 20.5 11.5 27.5s16.834 10.5 27.501 10.5c11.333 0 20.5 -3.5 27.5 -10.5s10.5 -16.167 10.5 -27.5c0 -10.667 -3.5 -19.834 -10.5 -27.501s-16.167 -11.5 -27.5 -11.5
c-10.667 0 -19.834 3.83301 -27.501 11.5zM292.999 636.499c-8 7.66699 -12.001 16.834 -12.001 27.501c0 11.333 3.83301 20.5 11.5 27.5s16.834 10.5 27.501 10.5c11.333 0 20.666 -3.5 27.999 -10.5s11 -16.167 11 -27.5c0 -10.667 -3.66699 -19.834 -11 -27.501
s-16.666 -11.5 -27.999 -11.5c-10 0 -19 3.83301 -27 11.5z" />
    <glyph glyph-name="aring" unicode="&#xe5;" horiz-adv-x="523" 
d="M116.5 4.5c-27 13.667 -47.502 31.999 -61.502 54.999s-21 49.5 -21 79.5c0 48.667 18.333 87 55 115s83.667 42 141 42c28.667 0 55.334 -3.16699 80.001 -9.5s50 -17.833 76 -34.5v57c0 42.667 -14.333 76.834 -43 102.501s-64.667 38.5 -108 38.5
c-29.333 0 -56.833 -6.66699 -82.5 -20s-43.5 -28 -53.5 -44l-40 31c12.667 20 35.167 38.167 67.5 54.5s68.5 24.5 108.5 24.5c64 0 113.833 -16.833 149.5 -50.5s53.5 -79.5 53.5 -137.5v-308h-52v73h-25c-16 -27.333 -37.167 -49 -63.5 -65s-56.166 -24 -89.499 -24
c-34 0 -64.5 6.83301 -91.5 20.5zM299.998 52.999c26 16 46.834 37.5 62.501 64.5s23.5 59.167 23.5 96.5c-21.333 14.667 -43.833 25.5 -67.5 32.5s-48.834 10.5 -75.501 10.5c-48.667 0 -86 -11 -112 -33s-39 -50.667 -39 -86c0 -32.667 12 -59 36 -79s53.333 -30 88 -30
c30 0 58 8 84 24zM177.999 613.999c-16.667 17.333 -25 38.333 -25 63s8.33301 45.5 25 62.5s37.334 25.5 62.001 25.5s45.5 -8.5 62.5 -25.5s25.5 -37.833 25.5 -62.5s-8.5 -45.667 -25.5 -63s-37.833 -26 -62.5 -26s-45.334 8.66699 -62.001 26zM281.999 632.499
c11.333 12.333 17 27.166 17 44.499s-5.83301 32 -17.5 44s-25.5 18 -41.5 18s-30 -6.16699 -42 -18.5s-18 -26.833 -18 -43.5c0 -17.333 6 -32.166 18 -44.499s26 -18.5 42 -18.5c16.667 0 30.667 6.16699 42 18.5z" />
    <glyph glyph-name="ae" unicode="&#xe6;" horiz-adv-x="871" 
d="M116.5 4.5c-27 13.667 -47.502 31.998 -61.502 54.998s-21 49.5 -21 79.5c0 48.667 18.333 87 55 115s83.667 42 141 42c28.667 0 55.334 -3.16699 80.001 -9.5s50 -17.833 76 -34.5v57c0 42.667 -13.667 76.834 -41 102.501s-62.333 38.5 -105 38.5
c-28.667 0 -54.167 -7.16699 -76.5 -21.5s-37.833 -30.166 -46.5 -47.499l-47 24c10 22.667 30.5 43.5 61.5 62.5s66.5 28.5 106.5 28.5c42.667 0 79 -8.16699 109 -24.5s55.667 -46.166 77 -89.499c28 42.667 56.667 72.167 86 88.5s62.666 24.5 99.999 24.5
c46.667 0 86.834 -10.333 120.501 -31s59.5 -49.5 77.5 -86.5s27 -79.5 27 -127.5l-1 -11h-396c2.66699 -52 12.834 -92.333 30.501 -121s40 -50.334 67 -65.001s55.5 -22 85.5 -22c70 0 120.667 29.333 152 88l46 -23c-14.667 -29.333 -39.5 -55.333 -74.5 -78
s-77.5 -34 -127.5 -34c-45.333 0 -84.833 10.833 -118.5 32.5s-63.167 58.5 -88.5 110.5c-52.667 -95.333 -120 -143 -202 -143c-34 0 -64.5 6.83301 -91.5 20.5zM774.998 278.998c-2 34 -8.66602 62.667 -19.999 86s-29.166 43 -53.499 59s-54.833 24 -91.5 24
c-42.667 0 -78.834 -13.833 -108.501 -41.5s-49.834 -70.167 -60.501 -127.5h334zM299.999 52.998c26 16 46.8311 37.5 62.498 64.5s23.5 59.167 23.5 96.5c-19.333 14 -41.166 24.667 -65.499 32s-50.166 11 -77.499 11c-48.667 0 -86 -11 -112 -33s-39 -50.667 -39 -86
c0 -32.667 12 -59 36 -79s53.333 -30 88 -30c30 0 58 8 84 24z" />
    <glyph glyph-name="ccedilla" unicode="&#xe7;" horiz-adv-x="501" 
d="M403.5 21.5c-34.333 -24.333 -79.1719 -36.8301 -134.505 -37.4971l-30 -67c28 4.66699 43.333 7 46 7c21.333 0 39.166 -7.5 53.499 -22.5s21.5 -34.167 21.5 -57.5c0 -22.667 -8 -41.834 -24 -57.501s-36.333 -23.5 -61 -23.5c-17.333 0 -33.333 5.33301 -48 16
s-23.334 20 -26.001 28l24 11c0.666992 -2.66699 5.83398 -8.66699 15.501 -18s21.167 -14 34.5 -14c16.667 0 30.334 5.66699 41.001 17s16 25 16 41c0 16.667 -5.16699 30.834 -15.5 42.501s-24.166 17.5 -41.499 17.5s-29.666 -4.66699 -36.999 -14l-22 10l30 85
c-49.333 8 -88.666 23.667 -117.999 47s-52 52.833 -68 88.5s-24 75.5 -24 119.5c0 48.667 10 92.5 30 131.5s48.167 69.5 84.5 91.5s77.5 33 123.5 33c50.667 0 93.334 -12 128.001 -36s57.334 -51.333 68.001 -82l-50 -20c-10 24.667 -28.333 46 -55 64
s-58.334 27 -95.001 27c-32 0 -61.667 -8.83301 -89 -26.5s-49.333 -42.334 -66 -74.001s-25 -67.834 -25 -108.501s8.33301 -76.834 25 -108.501s38.667 -56.334 66 -74.001s57 -26.5 89 -26.5c37.333 0 69.833 9.16699 97.5 27.5s46.5 39.5 56.5 63.5l48 -20
c-11.333 -29.333 -34.166 -56.166 -68.499 -80.499z" />
    <glyph glyph-name="egrave" unicode="&#xe8;" horiz-adv-x="553" 
d="M148.5 17c-35.667 22 -63.335 52.333 -83.002 91s-29.5 82.334 -29.5 131.001c0 46.667 9.33301 89.667 28 129s45.167 70.5 79.5 93.5s74.166 34.5 119.499 34.5c46.667 0 86.834 -10.5 120.501 -31.5s59.334 -50 77.001 -87s26.5 -79.5 26.5 -127.5l-1 -11h-396
c2.66699 -52 12.834 -92.333 30.501 -121s40 -50.334 67 -65.001s55.5 -22 85.5 -22c70 0 120.667 29.333 152 88l46 -23c-14.667 -29.333 -39.5 -55.333 -74.5 -78s-77.167 -34 -126.5 -34c-45.333 0 -85.833 11 -121.5 33zM427.999 279
c-2 34 -8.66602 62.668 -19.999 86.001s-29.333 43.166 -54 59.499s-55 24.5 -91 24.5c-42.667 0 -78.834 -14 -108.501 -42s-50.167 -70.667 -61.5 -128h335zM173 706.001h59l39 -97h-45z" />
    <glyph glyph-name="eacute" unicode="&#xe9;" horiz-adv-x="553" 
d="M148.5 17c-35.667 22 -63.335 52.333 -83.002 91s-29.5 82.334 -29.5 131.001c0 46.667 9.33301 89.667 28 129s45.167 70.5 79.5 93.5s74.166 34.5 119.499 34.5c46.667 0 86.834 -10.5 120.501 -31.5s59.334 -50 77.001 -87s26.5 -79.5 26.5 -127.5l-1 -11h-396
c2.66699 -52 12.834 -92.333 30.501 -121s40 -50.334 67 -65.001s55.5 -22 85.5 -22c70 0 120.667 29.333 152 88l46 -23c-14.667 -29.333 -39.5 -55.333 -74.5 -78s-77.167 -34 -126.5 -34c-45.333 0 -85.833 11 -121.5 33zM427.999 279
c-2 34 -8.66602 62.668 -19.999 86.001s-29.333 43.166 -54 59.499s-55 24.5 -91 24.5c-42.667 0 -78.834 -14 -108.501 -42s-50.167 -70.667 -61.5 -128h335zM281 706.001h57l-53 -97h-43z" />
    <glyph glyph-name="ecircumflex" unicode="&#xea;" horiz-adv-x="553" 
d="M148.5 17c-35.667 22 -63.335 52.333 -83.002 91s-29.5 82.334 -29.5 131.001c0 46.667 9.33301 89.667 28 129s45.167 70.5 79.5 93.5s74.166 34.5 119.499 34.5c46.667 0 86.834 -10.5 120.501 -31.5s59.334 -50 77.001 -87s26.5 -79.5 26.5 -127.5l-1 -11h-396
c2.66699 -52 12.834 -92.333 30.501 -121s40 -50.334 67 -65.001s55.5 -22 85.5 -22c70 0 120.667 29.333 152 88l46 -23c-14.667 -29.333 -39.5 -55.333 -74.5 -78s-77.167 -34 -126.5 -34c-45.333 0 -85.833 11 -121.5 33zM427.999 279
c-2 34 -8.66602 62.668 -19.999 86.001s-29.333 43.166 -54 59.499s-55 24.5 -91 24.5c-42.667 0 -78.834 -14 -108.501 -42s-50.167 -70.667 -61.5 -128h335zM156 614.001l78 92h61l78 -92h-46l-53 64h-20l-52 -64h-46z" />
    <glyph glyph-name="edieresis" unicode="&#xeb;" horiz-adv-x="553" 
d="M148.5 17c-35.667 22 -63.335 52.333 -83.002 91s-29.5 82.334 -29.5 131.001c0 46.667 9.33301 89.667 28 129s45.167 70.5 79.5 93.5s74.166 34.5 119.499 34.5c46.667 0 86.834 -10.5 120.501 -31.5s59.334 -50 77.001 -87s26.5 -79.5 26.5 -127.5l-1 -11h-396
c2.66699 -52 12.834 -92.333 30.501 -121s40 -50.334 67 -65.001s55.5 -22 85.5 -22c70 0 120.667 29.333 152 88l46 -23c-14.667 -29.333 -39.5 -55.333 -74.5 -78s-77.167 -34 -126.5 -34c-45.333 0 -85.833 11 -121.5 33zM427.999 279
c-2 34 -8.66602 62.668 -19.999 86.001s-29.333 43.166 -54 59.499s-55 24.5 -91 24.5c-42.667 0 -78.834 -14 -108.501 -42s-50.167 -70.667 -61.5 -128h335zM156.5 636.501c-7.66699 7.66699 -11.5 16.834 -11.5 27.501c0 11.333 3.83301 20.5 11.5 27.5
s16.834 10.5 27.501 10.5c11.333 0 20.5 -3.5 27.5 -10.5s10.5 -16.167 10.5 -27.5c0 -10.667 -3.5 -19.834 -10.5 -27.501s-16.167 -11.5 -27.5 -11.5c-10.667 0 -19.834 3.83301 -27.501 11.5zM317 636.501c-8 7.66699 -12.001 16.834 -12.001 27.501
c0 11.333 3.83301 20.5 11.5 27.5s16.834 10.5 27.501 10.5c11.333 0 20.666 -3.5 27.999 -10.5s11 -16.167 11 -27.5c0 -10.667 -3.66699 -19.834 -11 -27.501s-16.666 -11.5 -27.999 -11.5c-10 0 -19 3.83301 -27 11.5z" />
    <glyph glyph-name="igrave" unicode="&#xec;" horiz-adv-x="226" 
d="M69 480h56v-480h-56v480zM7 706h58l39 -97h-45z" />
    <glyph glyph-name="iacute" unicode="&#xed;" horiz-adv-x="227" 
d="M71 480h56v-480h-56v480zM116 706h58l-53 -97h-44z" />
    <glyph glyph-name="icircumflex" unicode="&#xee;" horiz-adv-x="223" 
d="M69 480h55v-480h-55v480zM-11 614l78 92h61l78 -92h-46l-53 64h-20l-52 -64h-46z" />
    <glyph glyph-name="idieresis" unicode="&#xef;" horiz-adv-x="192" 
d="M4 636.5c-7.33301 7.66699 -11 16.834 -11 27.501c0 11.333 3.66699 20.5 11 27.5s16.666 10.5 27.999 10.5s20.5 -3.5 27.5 -10.5s10.5 -16.167 10.5 -27.5c0 -10.667 -3.5 -19.834 -10.5 -27.501s-16.167 -11.5 -27.5 -11.5s-20.666 3.83301 -27.999 11.5zM133.5 636.5
c-7.66699 7.66699 -11.5 16.834 -11.5 27.501c0 11.333 3.83301 20.5 11.5 27.5s16.834 10.5 27.501 10.5c12 0 21.333 -3.5 28 -10.5s10 -16.167 10 -27.5c0 -10.667 -3.33301 -19.834 -10 -27.501s-16 -11.5 -28 -11.5c-10.667 0 -19.834 3.83301 -27.501 11.5zM69 480h54
v-480h-54v480z" />
    <glyph glyph-name="eth" unicode="&#xf0;" horiz-adv-x="548" 
d="M158.5 17c-35 22 -62.499 51.3311 -82.499 87.998s-30 76.667 -30 120c0 44.667 10.167 85 30.5 121s47.5 64.167 81.5 84.5s70.333 30.5 109 30.5c29.333 0 54.5 -5.16699 75.5 -15.5s39.5 -24.833 55.5 -43.5l25 15c-14.667 37.333 -30.167 66.833 -46.5 88.5
s-38.5 43.5 -66.5 65.5l-120 -54l-13 35l100 46c-56 30.667 -98.333 49.334 -127 56.001l17 43c55.333 -16.667 107.666 -42.667 156.999 -78l93 43l14 -35l-74 -33c54 -52 91.667 -106.333 113 -163s32 -118.667 32 -186c0 -51.333 -9.5 -96.666 -28.5 -135.999
s-45.833 -70 -80.5 -92s-74.667 -33 -120 -33c-41.333 0 -79.5 11 -114.5 33zM359.501 58.998c26.333 16 47.1689 38.5 62.502 67.5s23 61.5 23 97.5s-7.66699 68.333 -23 97s-36 51.167 -62 67.5s-54.333 24.5 -85 24.5c-31.333 0 -60.333 -8 -87 -24
s-47.667 -38.5 -63 -67.5s-23 -61.5 -23 -97.5s7.66699 -68.5 23 -97.5s36.166 -51.5 62.499 -67.5s54.833 -24 85.5 -24c31.333 0 60.166 8 86.499 24z" />
    <glyph glyph-name="ntilde" unicode="&#xf1;" horiz-adv-x="553" 
d="M63 480h51.999v-75h25c15.333 28 36.833 50.167 64.5 66.5s57.167 24.5 88.5 24.5c56 0 98.5 -16.333 127.5 -49s43.5 -77.667 43.5 -135v-312h-56v299c0 51.333 -12.5 89.166 -37.5 113.499s-58.167 36.5 -99.5 36.5c-29.333 0 -55.666 -8.5 -78.999 -25.5
s-41.333 -39.167 -54 -66.5s-19 -55.666 -19 -84.999v-272h-56v480zM299.999 622.5c-10 4.33301 -23 11.167 -39 20.5c-21.333 13.333 -36.666 20 -45.999 20c-30 0 -46 -12.333 -48 -37h-41c0 22 9.16699 41.333 27.5 58s39.166 25 62.499 25c18 0 41.667 -9.33301 71 -28
c22 -12.667 37 -19 45 -19c30 0 46 12.333 48 37h42c0 -22 -9.33301 -41.333 -28 -58s-40 -25 -64 -25c-10 0 -20 2.16699 -30 6.5z" />
    <glyph glyph-name="ograve" unicode="&#xf2;" horiz-adv-x="586" 
d="M153 18c-36.667 22.667 -65.334 53.5 -86.001 92.5s-31 82.167 -31 129.5s10.333 90.5 31 129.5s49.334 69.833 86.001 92.5s78.334 34 125.001 34s88.334 -11.333 125.001 -34s65.334 -53.5 86.001 -92.5s31 -82.167 31 -129.5s-10.333 -90.5 -31 -129.5
s-49.334 -69.833 -86.001 -92.5s-78.334 -34 -125.001 -34s-88.334 11.333 -125.001 34zM369.5 56.5c28.333 17 51.166 41.333 68.499 73s26 68.5 26 110.5s-8.66699 78.833 -26 110.5s-40.166 56 -68.499 73s-58.833 25.5 -91.5 25.5s-63.334 -8.5 -92.001 -25.5
s-51.667 -41.333 -69 -73s-26 -68.5 -26 -110.5s8.66699 -78.833 26 -110.5s40.333 -56 69 -73s59.334 -25.5 92.001 -25.5s63.167 8.5 91.5 25.5zM187 706h59l39 -97h-45z" />
    <glyph glyph-name="oacute" unicode="&#xf3;" horiz-adv-x="586" 
d="M153 18c-36.667 22.667 -65.334 53.5 -86.001 92.5s-31 82.167 -31 129.5s10.333 90.5 31 129.5s49.334 69.833 86.001 92.5s78.334 34 125.001 34s88.334 -11.333 125.001 -34s65.334 -53.5 86.001 -92.5s31 -82.167 31 -129.5s-10.333 -90.5 -31 -129.5
s-49.334 -69.833 -86.001 -92.5s-78.334 -34 -125.001 -34s-88.334 11.333 -125.001 34zM369.5 56.5c28.333 17 51.166 41.333 68.499 73s26 68.5 26 110.5s-8.66699 78.833 -26 110.5s-40.166 56 -68.499 73s-58.833 25.5 -91.5 25.5s-63.334 -8.5 -92.001 -25.5
s-51.667 -41.333 -69 -73s-26 -68.5 -26 -110.5s8.66699 -78.833 26 -110.5s40.333 -56 69 -73s59.334 -25.5 92.001 -25.5s63.167 8.5 91.5 25.5zM295 706h57l-53 -97h-43z" />
    <glyph glyph-name="ocircumflex" unicode="&#xf4;" horiz-adv-x="586" 
d="M153 18c-36.667 22.667 -65.334 53.5 -86.001 92.5s-31 82.167 -31 129.5s10.333 90.5 31 129.5s49.334 69.833 86.001 92.5s78.334 34 125.001 34s88.334 -11.333 125.001 -34s65.334 -53.5 86.001 -92.5s31 -82.167 31 -129.5s-10.333 -90.5 -31 -129.5
s-49.334 -69.833 -86.001 -92.5s-78.334 -34 -125.001 -34s-88.334 11.333 -125.001 34zM369.5 56.5c28.333 17 51.166 41.333 68.499 73s26 68.5 26 110.5s-8.66699 78.833 -26 110.5s-40.166 56 -68.499 73s-58.833 25.5 -91.5 25.5s-63.334 -8.5 -92.001 -25.5
s-51.667 -41.333 -69 -73s-26 -68.5 -26 -110.5s8.66699 -78.833 26 -110.5s40.333 -56 69 -73s59.334 -25.5 92.001 -25.5s63.167 8.5 91.5 25.5zM170 614l78 92h61l78 -92h-46l-53 64h-20l-52 -64h-46z" />
    <glyph glyph-name="otilde" unicode="&#xf5;" horiz-adv-x="586" 
d="M153 18c-36.667 22.667 -65.334 53.5 -86.001 92.5s-31 82.167 -31 129.5s10.333 90.5 31 129.5s49.334 69.833 86.001 92.5s78.334 34 125.001 34s88.334 -11.333 125.001 -34s65.334 -53.5 86.001 -92.5s31 -82.167 31 -129.5s-10.333 -90.5 -31 -129.5
s-49.334 -69.833 -86.001 -92.5s-78.334 -34 -125.001 -34s-88.334 11.333 -125.001 34zM369.5 56.5c28.333 17 51.166 41.333 68.499 73s26 68.5 26 110.5s-8.66699 78.833 -26 110.5s-40.166 56 -68.499 73s-58.833 25.5 -91.5 25.5s-63.334 -8.5 -92.001 -25.5
s-51.667 -41.333 -69 -73s-26 -68.5 -26 -110.5s8.66699 -78.833 26 -110.5s40.333 -56 69 -73s59.334 -25.5 92.001 -25.5s63.167 8.5 91.5 25.5zM304.5 622.5c-10.333 4.33301 -23.501 11.167 -39.501 20.5c-20.667 13.333 -35.667 20 -45 20c-30 0 -46 -12.333 -48 -37
h-42c0 22 9.33301 41.333 28 58s39.334 25 62.001 25c18 0 42 -9.33301 72 -28c21.333 -12.667 36.333 -19 45 -19c29.333 0 45 12.333 47 37h42c0 -22 -9.33301 -41.333 -28 -58s-39.667 -25 -63 -25c-10 0 -20.167 2.16699 -30.5 6.5z" />
    <glyph glyph-name="odieresis" unicode="&#xf6;" horiz-adv-x="586" 
d="M153 18c-36.667 22.667 -65.334 53.5 -86.001 92.5s-31 82.167 -31 129.5s10.333 90.5 31 129.5s49.334 69.833 86.001 92.5s78.334 34 125.001 34s88.334 -11.333 125.001 -34s65.334 -53.5 86.001 -92.5s31 -82.167 31 -129.5s-10.333 -90.5 -31 -129.5
s-49.334 -69.833 -86.001 -92.5s-78.334 -34 -125.001 -34s-88.334 11.333 -125.001 34zM369.5 56.5c28.333 17 51.166 41.333 68.499 73s26 68.5 26 110.5s-8.66699 78.833 -26 110.5s-40.166 56 -68.499 73s-58.833 25.5 -91.5 25.5s-63.334 -8.5 -92.001 -25.5
s-51.667 -41.333 -69 -73s-26 -68.5 -26 -110.5s8.66699 -78.833 26 -110.5s40.333 -56 69 -73s59.334 -25.5 92.001 -25.5s63.167 8.5 91.5 25.5zM170.5 636.5c-7.66699 7.66699 -11.5 16.834 -11.5 27.501c0 11.333 3.83301 20.5 11.5 27.5s16.834 10.5 27.501 10.5
c11.333 0 20.5 -3.5 27.5 -10.5s10.5 -16.167 10.5 -27.5c0 -10.667 -3.5 -19.834 -10.5 -27.501s-16.167 -11.5 -27.5 -11.5c-10.667 0 -19.834 3.83301 -27.501 11.5zM331 636.5c-8 7.66699 -12.001 16.834 -12.001 27.501c0 11.333 3.83301 20.5 11.5 27.5
s16.834 10.5 27.501 10.5c11.333 0 20.666 -3.5 27.999 -10.5s11 -16.167 11 -27.5c0 -10.667 -3.66699 -19.834 -11 -27.501s-16.666 -11.5 -27.999 -11.5c-10 0 -19 3.83301 -27 11.5z" />
    <glyph glyph-name="divide" unicode="&#xf7;" horiz-adv-x="514" 
d="M222 409c-9.33301 9.33301 -14 20.666 -14 33.999c0 14 4.66699 25.667 14 35s21 14 35 14s25.667 -4.66699 35 -14s14 -21 14 -35c0 -13.333 -4.66699 -24.666 -14 -33.999s-21 -14 -35 -14s-25.667 4.66699 -35 14zM55 276h404v-40h-404v40zM222 34
c-9.33301 9.33301 -14 21 -14 35c0 13.333 4.66699 24.666 14 33.999s21 14 35 14s25.667 -4.66699 35 -14s14 -20.666 14 -33.999c0 -14 -4.66699 -25.667 -14 -35s-21 -14 -35 -14s-25.667 4.66699 -35 14z" />
    <glyph glyph-name="oslash" unicode="&#xf8;" horiz-adv-x="556" 
d="M497.5 352c15 -34.667 22.5 -71.998 22.5 -111.998c0 -47.333 -10.333 -90.5 -31 -129.5s-49.334 -69.833 -86.001 -92.5s-78.334 -34 -125.001 -34c-38.667 0 -77.667 9.66699 -117 29l-25 -41l-29 17l26 42c-34.667 29.333 -59.5 61.166 -74.5 95.499
s-22.5 72.166 -22.5 113.499c0 47.333 10.333 90.5 31 129.5s49.334 69.833 86.001 92.5s78.334 34 125.001 34c39.333 0 78.333 -10 117 -30l27 43l28 -18l-26 -43c34 -29.333 58.5 -61.333 73.5 -96zM105.5 154.502c9.66699 -25.667 27.501 -52.167 53.501 -79.5l212 348
c-35.333 17.333 -66.333 26 -93 26c-32.667 0 -63.334 -8.5 -92.001 -25.5s-51.667 -41.333 -69 -73s-26 -68.5 -26 -110.5c0 -31.333 4.83301 -59.833 14.5 -85.5zM369.501 56.502c28.333 17 51.167 41.333 68.5 73s26 68.5 26 110.5c0 61.333 -22 116 -66 164l-212 -348
c34 -16.667 64.667 -25 92 -25c32.667 0 63.167 8.5 91.5 25.5z" />
    <glyph glyph-name="ugrave" unicode="&#xf9;" horiz-adv-x="553" 
d="M102.5 33.5c-29 33 -43.499 79.834 -43.499 140.501v306h56v-293c0 -52.667 12.167 -91.834 36.5 -117.501s56.166 -38.5 95.499 -38.5c31.333 0 58.833 8.5 82.5 25.5s42 38.833 55 65.5s19.5 55 19.5 85v273h56v-480h-52v74h-25c-15.333 -28 -36.833 -50 -64.5 -66
s-57.167 -24 -88.5 -24c-56 0 -98.5 16.5 -127.5 49.5zM168.001 706.001h59l39 -97h-45z" />
    <glyph glyph-name="uacute" unicode="&#xfa;" horiz-adv-x="553" 
d="M102.5 33.5c-29 33 -43.499 79.834 -43.499 140.501v306h56v-293c0 -52.667 12.167 -91.834 36.5 -117.501s56.166 -38.5 95.499 -38.5c31.333 0 58.833 8.5 82.5 25.5s42 38.833 55 65.5s19.5 55 19.5 85v273h56v-480h-52v74h-25c-15.333 -28 -36.833 -50 -64.5 -66
s-57.167 -24 -88.5 -24c-56 0 -98.5 16.5 -127.5 49.5zM276.001 706.001h57l-53 -97h-43z" />
    <glyph glyph-name="ucircumflex" unicode="&#xfb;" horiz-adv-x="553" 
d="M102.5 33.5c-29 33 -43.499 79.834 -43.499 140.501v306h56v-293c0 -52.667 12.167 -91.834 36.5 -117.501s56.166 -38.5 95.499 -38.5c31.333 0 58.833 8.5 82.5 25.5s42 38.833 55 65.5s19.5 55 19.5 85v273h56v-480h-52v74h-25c-15.333 -28 -36.833 -50 -64.5 -66
s-57.167 -24 -88.5 -24c-56 0 -98.5 16.5 -127.5 49.5zM151.001 614.001l78 92h61l78 -92h-46l-53 64h-20l-52 -64h-46z" />
    <glyph glyph-name="udieresis" unicode="&#xfc;" horiz-adv-x="553" 
d="M102.5 33.5c-29 33 -43.499 79.834 -43.499 140.501v306h56v-293c0 -52.667 12.167 -91.834 36.5 -117.501s56.166 -38.5 95.499 -38.5c31.333 0 58.833 8.5 82.5 25.5s42 38.833 55 65.5s19.5 55 19.5 85v273h56v-480h-52v74h-25c-15.333 -28 -36.833 -50 -64.5 -66
s-57.167 -24 -88.5 -24c-56 0 -98.5 16.5 -127.5 49.5zM151.501 636.501c-7.66699 7.66699 -11.5 16.834 -11.5 27.501c0 11.333 3.83301 20.5 11.5 27.5s16.834 10.5 27.501 10.5c11.333 0 20.5 -3.5 27.5 -10.5s10.5 -16.167 10.5 -27.5
c0 -10.667 -3.5 -19.834 -10.5 -27.501s-16.167 -11.5 -27.5 -11.5c-10.667 0 -19.834 3.83301 -27.501 11.5zM312.001 636.501c-8 7.66699 -12.001 16.834 -12.001 27.501c0 11.333 3.83301 20.5 11.5 27.5s16.834 10.5 27.501 10.5c11.333 0 20.666 -3.5 27.999 -10.5
s11 -16.167 11 -27.5c0 -10.667 -3.66699 -19.834 -11 -27.501s-16.666 -11.5 -27.999 -11.5c-10 0 -19 3.83301 -27 11.5z" />
    <glyph glyph-name="yacute" unicode="&#xfd;" horiz-adv-x="506" 
d="M207 17l-199 463h59l156 -379h20l150 379h59l-294 -696h-56zM254 706h58l-53 -97h-44z" />
    <glyph glyph-name="thorn" unicode="&#xfe;" horiz-adv-x="559" 
d="M60 686h56v-199l-5 -83h25c17.333 28.667 40 51.167 68 67.5s59.667 24.5 95 24.5c42.667 0 81 -11 115 -33s60.667 -52.5 80 -91.5s29 -82.833 29 -131.5c0 -49.333 -9.66699 -93.333 -29 -132s-46 -69 -80 -91s-72.333 -33 -115 -33c-35.333 0 -67 8.16699 -95 24.5
s-50.667 38.5 -68 66.5h-25l5 -83v-208h-56v902zM377.5 57c27.667 17.333 49.667 42 66 74s24.5 68.333 24.5 109s-8.16699 77 -24.5 109s-38.333 56.667 -66 74s-56.834 26 -87.501 26c-31.333 0 -60.666 -8.66699 -87.999 -26s-49.166 -41.833 -65.499 -73.5
s-24.5 -68.167 -24.5 -109.5s8.16699 -77.833 24.5 -109.5s38.166 -56.167 65.499 -73.5s56.666 -26 87.999 -26c30.667 0 59.834 8.66699 87.501 26z" />
    <glyph glyph-name="ydieresis" unicode="&#xff;" horiz-adv-x="506" 
d="M207 17l-199 463h59l156 -379h20l150 379h59l-294 -696h-56zM130.5 636.5c-7.66699 7.66699 -11.5 16.834 -11.5 27.501c0 11.333 3.83301 20.5 11.5 27.5s16.834 10.5 27.501 10.5c11.333 0 20.5 -3.5 27.5 -10.5s10.5 -16.167 10.5 -27.5
c0 -10.667 -3.5 -19.834 -10.5 -27.501s-16.167 -11.5 -27.5 -11.5c-10.667 0 -19.834 3.83301 -27.501 11.5zM290.5 636.5c-7.66699 7.66699 -11.498 16.834 -11.498 27.501c0 11.333 3.66699 20.5 11 27.5s16.666 10.5 27.999 10.5s20.666 -3.5 27.999 -10.5
s11 -16.167 11 -27.5c0 -10.667 -3.66699 -19.834 -11 -27.501s-16.666 -11.5 -27.999 -11.5c-10.667 0 -19.834 3.83301 -27.501 11.5z" />
    <glyph glyph-name="Amacron" unicode="&#x100;" horiz-adv-x="670" 
d="M275 686h76l260 -686h-61l-72 197h-330l-72 -197h-61zM461 247l-104 278l-31 87h-26l-31 -87l-104 -278h296zM197 846h247v-36h-247v36z" />
    <glyph glyph-name="amacron" unicode="&#x101;" horiz-adv-x="523" 
d="M116.5 4.5c-27 13.667 -47.502 31.999 -61.502 54.999s-21 49.5 -21 79.5c0 48.667 18.333 87 55 115s83.667 42 141 42c28.667 0 55.334 -3.16699 80.001 -9.5s50 -17.833 76 -34.5v57c0 42.667 -14.333 76.834 -43 102.501s-64.667 38.5 -108 38.5
c-29.333 0 -56.833 -6.66699 -82.5 -20s-43.5 -28 -53.5 -44l-40 31c12.667 20 35.167 38.167 67.5 54.5s68.5 24.5 108.5 24.5c64 0 113.833 -16.833 149.5 -50.5s53.5 -79.5 53.5 -137.5v-308h-52v73h-25c-16 -27.333 -37.167 -49 -63.5 -65s-56.166 -24 -89.499 -24
c-34 0 -64.5 6.83301 -91.5 20.5zM299.998 52.999c26 16 46.834 37.5 62.501 64.5s23.5 59.167 23.5 96.5c-21.333 14.667 -43.833 25.5 -67.5 32.5s-48.834 10.5 -75.501 10.5c-48.667 0 -86 -11 -112 -33s-39 -50.667 -39 -86c0 -32.667 12 -59 36 -79s53.333 -30 88 -30
c30 0 58 8 84 24zM118.999 681.999h243v-37h-243v37z" />
    <glyph glyph-name="Abreve" unicode="&#x102;" horiz-adv-x="670" 
d="M275 686h76l260 -686h-61l-72 197h-330l-72 -197h-61zM461 247l-104 278l-31 87h-26l-31 -87l-104 -278h296zM266 786.5c-17.333 9.66699 -31.333 22.834 -42 39.501s-16 30 -16 40h39c0 -10.667 6.66699 -23.334 20 -38.001s31.333 -22 54 -22
c21.333 0 38.666 7.33301 51.999 22s20 27.334 20 38.001h38c0 -10 -5.16699 -23.333 -15.5 -40s-24 -29.834 -41 -39.501s-34.833 -14.5 -53.5 -14.5c-19.333 0 -37.666 4.83301 -54.999 14.5z" />
    <glyph glyph-name="abreve" unicode="&#x103;" horiz-adv-x="523" 
d="M116.5 4.5c-27 13.667 -47.502 31.999 -61.502 54.999s-21 49.5 -21 79.5c0 48.667 18.333 87 55 115s83.667 42 141 42c28.667 0 55.334 -3.16699 80.001 -9.5s50 -17.833 76 -34.5v57c0 42.667 -14.333 76.834 -43 102.501s-64.667 38.5 -108 38.5
c-29.333 0 -56.833 -6.66699 -82.5 -20s-43.5 -28 -53.5 -44l-40 31c12.667 20 35.167 38.167 67.5 54.5s68.5 24.5 108.5 24.5c64 0 113.833 -16.833 149.5 -50.5s53.5 -79.5 53.5 -137.5v-308h-52v73h-25c-16 -27.333 -37.167 -49 -63.5 -65s-56.166 -24 -89.499 -24
c-34 0 -64.5 6.83301 -91.5 20.5zM299.998 52.999c26 16 46.834 37.5 62.501 64.5s23.5 59.167 23.5 96.5c-21.333 14.667 -43.833 25.5 -67.5 32.5s-48.834 10.5 -75.501 10.5c-48.667 0 -86 -11 -112 -33s-39 -50.667 -39 -86c0 -32.667 12 -59 36 -79s53.333 -30 88 -30
c30 0 58 8 84 24zM186.499 621.499c-17 9.66699 -30.666 22.834 -40.999 39.501s-15.5 30.334 -15.5 41.001h40c0 -10.667 6.33301 -23.5 19 -38.5s30 -22.5 52 -22.5c20 0 36.5 7.5 49.5 22.5s19.5 27.833 19.5 38.5h39c0 -10.667 -5 -24.334 -15 -41.001
s-23.333 -29.834 -40 -39.501s-34.334 -14.5 -53.001 -14.5c-19.333 0 -37.5 4.83301 -54.5 14.5z" />
    <glyph glyph-name="Aogonek" unicode="&#x104;" horiz-adv-x="633" 
d="M528 -195c-18.667 19.333 -28.001 43.334 -28.001 72.001c0 35.333 19.333 69.666 58 102.999l-80 217h-330l-72 -197h-61l260 686h76l264 -696c-19.333 -14.667 -35.666 -30.334 -48.999 -47.001s-20 -36 -20 -58c0 -19.333 5.83301 -35.666 17.5 -48.999
s27.5 -20 47.5 -20h25v-37c-4 -2 -14.667 -3 -32 -3c-32 0 -57.333 9.66699 -76 29zM460.999 247.001l-104 278l-31 87h-26l-31 -87l-104 -278h296z" />
    <glyph glyph-name="aogonek" unicode="&#x105;" horiz-adv-x="493" 
d="M347.5 -196c-18.333 18.667 -27.501 41.665 -27.501 68.998c0 22 5.83301 41.333 17.5 58s27.834 32 48.501 46v96h-25c-15.333 -27.333 -36.333 -49 -63 -65s-56.667 -24 -90 -24c-34 0 -64.5 6.83301 -91.5 20.5s-47.5 32 -61.5 55s-21 49.5 -21 79.5
c0 48.667 18.333 87 55 115s83.667 42 141 42c29.333 0 56.166 -3.16699 80.499 -9.5s49.5 -17.833 75.5 -34.5v57c0 42.667 -14.333 76.834 -43 102.501s-64.667 38.5 -108 38.5c-29.333 0 -56.833 -6.66699 -82.5 -20s-43.5 -28 -53.5 -44l-40 31
c12.667 20 35.167 38.167 67.5 54.5s68.5 24.5 108.5 24.5c64 0 113.833 -16.833 149.5 -50.5s53.5 -79.5 53.5 -137.5v-316c-20 -16 -36.833 -32.333 -50.5 -49s-20.5 -36 -20.5 -58c0 -19.333 5.83301 -35.666 17.5 -48.999s26.834 -20 45.501 -20c15.333 0 24 1 26 3v-40
c-4.66699 -2 -15.667 -3 -33 -3c-32 0 -57.167 9.33301 -75.5 28zM299.999 52.998c26 16 46.834 37.5 62.501 64.5s23.5 59.167 23.5 96.5c-21.333 14.667 -43.833 25.5 -67.5 32.5s-48.834 10.5 -75.501 10.5c-48 0 -85.167 -11 -111.5 -33s-39.5 -50.667 -39.5 -86
c0 -32.667 12 -59 36 -79s53.333 -30 88 -30c30 0 58 8 84 24z" />
    <glyph glyph-name="Cacute" unicode="&#x106;" horiz-adv-x="741" 
d="M219.5 31c-54.333 31.333 -96.999 74.3369 -127.999 129.004s-46.5 115.667 -46.5 183s15.5 128.333 46.5 183s73.667 97.667 128 129s114.833 47 181.5 47c51.333 0 98.166 -9.5 140.499 -28.5s75.833 -43.167 100.5 -72.5l-39 -38c-22 26 -50.167 47.167 -84.5 63.5
s-73.5 24.5 -117.5 24.5c-54.667 0 -104.834 -12.833 -150.501 -38.5s-82 -61.834 -109 -108.501s-40.5 -100.334 -40.5 -161.001s13.5 -114.334 40.5 -161.001s63.333 -82.834 109 -108.501s95.834 -38.5 150.501 -38.5c91.333 0 165.333 33.333 222 100l41 -39
c-25.333 -30.667 -61.5 -57 -108.5 -79s-98.5 -33 -154.5 -33c-66.667 0 -127.167 15.667 -181.5 47zM411.001 870.004h57l-54 -97h-43z" />
    <glyph glyph-name="cacute" unicode="&#x107;" horiz-adv-x="536" 
d="M150.5 17.5c-36.333 22.333 -64.502 52.8359 -84.502 91.5029s-30 82.334 -30 131.001s10 92.5 30 131.5s48.167 69.5 84.5 91.5s77.5 33 123.5 33c50.667 0 93.334 -12 128.001 -36s57.334 -51.333 68.001 -82l-50 -20c-10 24.667 -28.333 46 -55 64
s-58.334 27 -95.001 27c-32 0 -61.667 -8.83301 -89 -26.5s-49.333 -42.334 -66 -74.001s-25 -67.834 -25 -108.501s8.33301 -76.834 25 -108.501s38.667 -56.334 66 -74.001s57 -26.5 89 -26.5c37.333 0 69.833 9.16699 97.5 27.5s46.5 39.5 56.5 63.5l48 -20
c-11.333 -30 -34.666 -57.167 -69.999 -81.5s-78 -36.5 -128 -36.5c-46 0 -87.167 11.167 -123.5 33.5zM287.998 706.003h58l-53 -97h-44z" />
    <glyph glyph-name="Ccircumflex" unicode="&#x108;" horiz-adv-x="741" 
d="M219.5 31c-54.333 31.333 -96.999 74.3369 -127.999 129.004s-46.5 115.667 -46.5 183s15.5 128.333 46.5 183s73.667 97.667 128 129s114.833 47 181.5 47c51.333 0 98.166 -9.5 140.499 -28.5s75.833 -43.167 100.5 -72.5l-39 -38c-22 26 -50.167 47.167 -84.5 63.5
s-73.5 24.5 -117.5 24.5c-54.667 0 -104.834 -12.833 -150.501 -38.5s-82 -61.834 -109 -108.501s-40.5 -100.334 -40.5 -161.001s13.5 -114.334 40.5 -161.001s63.333 -82.834 109 -108.501s95.834 -38.5 150.501 -38.5c91.333 0 165.333 33.333 222 100l41 -39
c-25.333 -30.667 -61.5 -57 -108.5 -79s-98.5 -33 -154.5 -33c-66.667 0 -127.167 15.667 -181.5 47zM283.001 779.004l80 91h61l80 -91h-46l-54 63h-22l-53 -63h-46z" />
    <glyph glyph-name="ccircumflex" unicode="&#x109;" horiz-adv-x="536" 
d="M150.5 17.5c-36.333 22.333 -64.502 52.8359 -84.502 91.5029s-30 82.334 -30 131.001s10 92.5 30 131.5s48.167 69.5 84.5 91.5s77.5 33 123.5 33c50.667 0 93.334 -12 128.001 -36s57.334 -51.333 68.001 -82l-50 -20c-10 24.667 -28.333 46 -55 64
s-58.334 27 -95.001 27c-32 0 -61.667 -8.83301 -89 -26.5s-49.333 -42.334 -66 -74.001s-25 -67.834 -25 -108.501s8.33301 -76.834 25 -108.501s38.667 -56.334 66 -74.001s57 -26.5 89 -26.5c37.333 0 69.833 9.16699 97.5 27.5s46.5 39.5 56.5 63.5l48 -20
c-11.333 -30 -34.666 -57.167 -69.999 -81.5s-78 -36.5 -128 -36.5c-46 0 -87.167 11.167 -123.5 33.5zM163.998 614.003l78 92h61l78 -92h-47l-52 64h-20l-52 -64h-46z" />
    <glyph glyph-name="Cdotaccent" unicode="&#x10a;" horiz-adv-x="741" 
d="M219.5 31c-54.333 31.333 -96.999 74.3369 -127.999 129.004s-46.5 115.667 -46.5 183s15.5 128.333 46.5 183s73.667 97.667 128 129s114.833 47 181.5 47c51.333 0 98.166 -9.5 140.499 -28.5s75.833 -43.167 100.5 -72.5l-39 -38c-22 26 -50.167 47.167 -84.5 63.5
s-73.5 24.5 -117.5 24.5c-54.667 0 -104.834 -12.833 -150.501 -38.5s-82 -61.834 -109 -108.501s-40.5 -100.334 -40.5 -161.001s13.5 -114.334 40.5 -161.001s63.333 -82.834 109 -108.501s95.834 -38.5 150.501 -38.5c91.333 0 165.333 33.333 222 100l41 -39
c-25.333 -30.667 -61.5 -57 -108.5 -79s-98.5 -33 -154.5 -33c-66.667 0 -127.167 15.667 -181.5 47zM369.501 817.504c-7 7 -10.5 14.833 -10.5 23.5c0 9.33301 3.5 17.333 10.5 24s14.833 10 23.5 10c10.667 0 19.167 -3.16699 25.5 -9.5s9.5 -14.5 9.5 -24.5
c0 -9.33301 -3.33301 -17.333 -10 -24s-15 -10 -25 -10c-8.66699 0 -16.5 3.5 -23.5 10.5z" />
    <glyph glyph-name="cdotaccent" unicode="&#x10b;" horiz-adv-x="536" 
d="M150.5 17.5c-36.333 22.333 -64.502 52.8359 -84.502 91.5029s-30 82.334 -30 131.001s10 92.5 30 131.5s48.167 69.5 84.5 91.5s77.5 33 123.5 33c50.667 0 93.334 -12 128.001 -36s57.334 -51.333 68.001 -82l-50 -20c-10 24.667 -28.333 46 -55 64
s-58.334 27 -95.001 27c-32 0 -61.667 -8.83301 -89 -26.5s-49.333 -42.334 -66 -74.001s-25 -67.834 -25 -108.501s8.33301 -76.834 25 -108.501s38.667 -56.334 66 -74.001s57 -26.5 89 -26.5c37.333 0 69.833 9.16699 97.5 27.5s46.5 39.5 56.5 63.5l48 -20
c-11.333 -30 -34.666 -57.167 -69.999 -81.5s-78 -36.5 -128 -36.5c-46 0 -87.167 11.167 -123.5 33.5zM243.998 636.503c-7.33301 7.66699 -11 16.834 -11 27.501c0 11.333 3.66699 20.5 11 27.5s16.666 10.5 27.999 10.5s20.5 -3.5 27.5 -10.5s10.5 -16.167 10.5 -27.5
c0 -10.667 -3.5 -19.834 -10.5 -27.501s-16.167 -11.5 -27.5 -11.5s-20.666 3.83301 -27.999 11.5z" />
    <glyph glyph-name="Ccaron" unicode="&#x10c;" horiz-adv-x="741" 
d="M219.5 31c-54.333 31.333 -96.999 74.3369 -127.999 129.004s-46.5 115.667 -46.5 183s15.5 128.333 46.5 183s73.667 97.667 128 129s114.833 47 181.5 47c51.333 0 98.166 -9.5 140.499 -28.5s75.833 -43.167 100.5 -72.5l-39 -38c-22 26 -50.167 47.167 -84.5 63.5
s-73.5 24.5 -117.5 24.5c-54.667 0 -104.834 -12.833 -150.501 -38.5s-82 -61.834 -109 -108.501s-40.5 -100.334 -40.5 -161.001s13.5 -114.334 40.5 -161.001s63.333 -82.834 109 -108.501s95.834 -38.5 150.501 -38.5c91.333 0 165.333 33.333 222 100l41 -39
c-25.333 -30.667 -61.5 -57 -108.5 -79s-98.5 -33 -154.5 -33c-66.667 0 -127.167 15.667 -181.5 47zM283.001 870.004h46l53 -63h22l54 63h46l-80 -91h-61z" />
    <glyph glyph-name="ccaron" unicode="&#x10d;" horiz-adv-x="536" 
d="M150.5 17.5c-36.333 22.333 -64.502 52.8359 -84.502 91.5029s-30 82.334 -30 131.001s10 92.5 30 131.5s48.167 69.5 84.5 91.5s77.5 33 123.5 33c50.667 0 93.334 -12 128.001 -36s57.334 -51.333 68.001 -82l-50 -20c-10 24.667 -28.333 46 -55 64
s-58.334 27 -95.001 27c-32 0 -61.667 -8.83301 -89 -26.5s-49.333 -42.334 -66 -74.001s-25 -67.834 -25 -108.501s8.33301 -76.834 25 -108.501s38.667 -56.334 66 -74.001s57 -26.5 89 -26.5c37.333 0 69.833 9.16699 97.5 27.5s46.5 39.5 56.5 63.5l48 -20
c-11.333 -30 -34.666 -57.167 -69.999 -81.5s-78 -36.5 -128 -36.5c-46 0 -87.167 11.167 -123.5 33.5zM163.998 706.003h46l52 -64h20l52 64h47l-78 -92h-61z" />
    <glyph glyph-name="Dcaron" unicode="&#x10e;" horiz-adv-x="703" 
d="M80 686h201c70.667 0 132.167 -14.5 184.5 -43.5s92.5 -69.333 120.5 -121s42 -111.167 42 -178.5s-14 -126.833 -42 -178.5s-68.167 -92 -120.5 -121s-113.833 -43.5 -184.5 -43.5h-201v686zM281 51c88.667 0 159.334 25.833 212.001 77.5s79 123.167 79 214.5
s-26.333 162.833 -79 214.5s-123.334 77.5 -212.001 77.5h-146v-584h146zM193 870h46l53 -63h22l54 63h46l-80 -91h-61z" />
    <glyph glyph-name="dcaron" unicode="&#x10f;" horiz-adv-x="667" 
d="M145 17c-34 22 -60.667 52.333 -80 91s-29 82.667 -29 132c0 48.667 9.66699 92.5 29 131.5s46 69.5 80 91.5s72.333 33 115 33c35.333 0 67 -8.16699 95 -24.5s50.667 -38.833 68 -67.5h25l-5 86v196h56v-686h-52v75h-24c-17.333 -28 -40 -50.167 -68 -66.5
s-59.667 -24.5 -95 -24.5c-42.667 0 -81 11 -115 33zM357 57c27.333 17.333 49.166 41.833 65.499 73.5s24.5 68.167 24.5 109.5s-8.16699 77.833 -24.5 109.5s-38.166 56.167 -65.499 73.5s-56.666 26 -87.999 26c-30.667 0 -59.834 -8.66699 -87.501 -26
s-49.667 -42 -66 -74s-24.5 -68.333 -24.5 -109s8.16699 -77 24.5 -109s38.333 -56.667 66 -74s56.834 -26 87.501 -26c31.333 0 60.666 8.66699 87.999 26zM592 686h59l-24 -159h-35v159z" />
    <glyph glyph-name="Dcroat" unicode="&#x110;" horiz-adv-x="675" 
d="M82 339h-81v36h81v311h201c70.667 0 132.167 -14.5 184.5 -43.5s92.5 -69.333 120.5 -121s42 -111.167 42 -178.5s-14 -126.833 -42 -178.5s-68.167 -92 -120.5 -121s-113.833 -43.5 -184.5 -43.5h-201v339zM283 51c88.667 0 159.334 25.833 212.001 77.5
s79 123.167 79 214.5s-26.333 162.833 -79 214.5s-123.334 77.5 -212.001 77.5h-146v-260h184v-36h-184v-288h146z" />
    <glyph glyph-name="dcroat" unicode="&#x111;" horiz-adv-x="560" 
d="M561 583h-62v-583h-52v75h-24c-17.333 -28 -40 -50.167 -68 -66.5s-59.667 -24.5 -95 -24.5c-42.667 0 -81 11 -115 33s-60.667 52.333 -80 91s-29 82.667 -29 132c0 48.667 9.66699 92.5 29 131.5s46 69.5 80 91.5s72.333 33 115 33c35.333 0 67 -8.16699 95 -24.5
s50.667 -38.833 68 -67.5h25l-5 83v96h-150v37h150v66h56v-66h62v-37zM356.5 57c27 17.333 48.833 41.833 65.5 73.5s25 68.167 25 109.5s-8.33301 77.833 -25 109.5s-38.5 56.167 -65.5 73.5s-56.167 26 -87.5 26s-60.666 -8.66699 -87.999 -26s-49.333 -42 -66 -74
s-25 -68.333 -25 -109s8.33301 -77 25 -109s38.667 -56.667 66 -74s56.666 -26 87.999 -26s60.5 8.66699 87.5 26z" />
    <glyph glyph-name="Emacron" unicode="&#x112;" horiz-adv-x="551" 
d="M80 686h384v-51h-329v-267h297v-50h-297v-267h329v-51h-384v686zM149 846h247v-36h-247v36z" />
    <glyph glyph-name="emacron" unicode="&#x113;" horiz-adv-x="553" 
d="M148.5 17c-35.667 22 -63.335 52.333 -83.002 91s-29.5 82.334 -29.5 131.001c0 46.667 9.33301 89.667 28 129s45.167 70.5 79.5 93.5s74.166 34.5 119.499 34.5c46.667 0 86.834 -10.5 120.501 -31.5s59.334 -50 77.001 -87s26.5 -79.5 26.5 -127.5l-1 -11h-396
c2.66699 -52 12.834 -92.333 30.501 -121s40 -50.334 67 -65.001s55.5 -22 85.5 -22c70 0 120.667 29.333 152 88l46 -23c-14.667 -29.333 -39.5 -55.333 -74.5 -78s-77.167 -34 -126.5 -34c-45.333 0 -85.833 11 -121.5 33zM427.999 279
c-2 34 -8.66602 62.668 -19.999 86.001s-29.333 43.166 -54 59.499s-55 24.5 -91 24.5c-42.667 0 -78.834 -14 -108.501 -42s-50.167 -70.667 -61.5 -128h335zM143 682.001h243v-37h-243v37z" />
    <glyph glyph-name="Ebreve" unicode="&#x114;" horiz-adv-x="551" 
d="M80 686h384v-51h-329v-267h297v-50h-297v-267h329v-51h-384v686zM218 786.5c-17.333 9.66699 -31.333 22.834 -42 39.501s-16 30 -16 40h39c0 -10.667 6.66699 -23.334 20 -38.001s31.333 -22 54 -22c21.333 0 38.666 7.33301 51.999 22s20 27.334 20 38.001h38
c0 -10 -5.16699 -23.333 -15.5 -40s-24 -29.834 -41 -39.501s-34.833 -14.5 -53.5 -14.5c-19.333 0 -37.666 4.83301 -54.999 14.5z" />
    <glyph glyph-name="ebreve" unicode="&#x115;" horiz-adv-x="553" 
d="M148.5 17c-35.667 22 -63.335 52.333 -83.002 91s-29.5 82.334 -29.5 131.001c0 46.667 9.33301 89.667 28 129s45.167 70.5 79.5 93.5s74.166 34.5 119.499 34.5c46.667 0 86.834 -10.5 120.501 -31.5s59.334 -50 77.001 -87s26.5 -79.5 26.5 -127.5l-1 -11h-396
c2.66699 -52 12.834 -92.333 30.501 -121s40 -50.334 67 -65.001s55.5 -22 85.5 -22c70 0 120.667 29.333 152 88l46 -23c-14.667 -29.333 -39.5 -55.333 -74.5 -78s-77.167 -34 -126.5 -34c-45.333 0 -85.833 11 -121.5 33zM427.999 279
c-2 34 -8.66602 62.668 -19.999 86.001s-29.333 43.166 -54 59.499s-55 24.5 -91 24.5c-42.667 0 -78.834 -14 -108.501 -42s-50.167 -70.667 -61.5 -128h335zM210.5 621.501c-17 9.66699 -30.666 22.834 -40.999 39.501s-15.5 30.334 -15.5 41.001h40
c0 -10.667 6.5 -23.5 19.5 -38.5s30.167 -22.5 51.5 -22.5c20 0 36.5 7.5 49.5 22.5s19.5 27.833 19.5 38.5h39c0 -10.667 -5 -24.334 -15 -41.001s-23.333 -29.834 -40 -39.501s-34.334 -14.5 -53.001 -14.5c-19.333 0 -37.5 4.83301 -54.5 14.5z" />
    <glyph glyph-name="Edotaccent" unicode="&#x116;" horiz-adv-x="551" 
d="M80 686h384v-51h-329v-267h297v-50h-297v-267h329v-51h-384v686zM248.5 817.5c-7 7 -10.5 14.833 -10.5 23.5c0 9.33301 3.5 17.333 10.5 24s14.833 10 23.5 10c10.667 0 19.167 -3.16699 25.5 -9.5s9.5 -14.5 9.5 -24.5c0 -9.33301 -3.33301 -17.333 -10 -24
s-15 -10 -25 -10c-8.66699 0 -16.5 3.5 -23.5 10.5z" />
    <glyph glyph-name="edotaccent" unicode="&#x117;" horiz-adv-x="553" 
d="M148.5 17c-35.667 22 -63.335 52.333 -83.002 91s-29.5 82.334 -29.5 131.001c0 46.667 9.33301 89.667 28 129s45.167 70.5 79.5 93.5s74.166 34.5 119.499 34.5c46.667 0 86.834 -10.5 120.501 -31.5s59.334 -50 77.001 -87s26.5 -79.5 26.5 -127.5l-1 -11h-396
c2.66699 -52 12.834 -92.333 30.501 -121s40 -50.334 67 -65.001s55.5 -22 85.5 -22c70 0 120.667 29.333 152 88l46 -23c-14.667 -29.333 -39.5 -55.333 -74.5 -78s-77.167 -34 -126.5 -34c-45.333 0 -85.833 11 -121.5 33zM427.999 279
c-2 34 -8.66602 62.668 -19.999 86.001s-29.333 43.166 -54 59.499s-55 24.5 -91 24.5c-42.667 0 -78.834 -14 -108.501 -42s-50.167 -70.667 -61.5 -128h335zM236.5 636.501c-7.66699 7.66699 -11.5 16.834 -11.5 27.501c0 11.333 3.83301 20.5 11.5 27.5
s16.834 10.5 27.501 10.5c11.333 0 20.5 -3.5 27.5 -10.5s10.5 -16.167 10.5 -27.5c0 -10.667 -3.5 -19.834 -10.5 -27.501s-16.167 -11.5 -27.5 -11.5c-10.667 0 -19.834 3.83301 -27.501 11.5z" />
    <glyph glyph-name="Eogonek" unicode="&#x118;" horiz-adv-x="521" 
d="M374 -196.5c-18.667 18.333 -28.001 41.499 -28.001 69.499c0 21.333 5.66699 40.333 17 57s37.333 40 78 70h-361v686h384v-51h-329v-267h297v-50h-297v-267h329v-59c-21.333 -16 -38.666 -32.333 -51.999 -49s-20 -36 -20 -58c0 -19.333 5.83301 -35.666 17.5 -48.999
s27.5 -20 47.5 -20h25v-37c-4 -2 -14.667 -3 -32 -3c-32 0 -57.333 9.16699 -76 27.5z" />
    <glyph glyph-name="eogonek" unicode="&#x119;" horiz-adv-x="523" 
d="M272.5 -196.5c-18.333 18.333 -27.501 41.5 -27.501 69.5c0 30.667 22.333 67.667 67 111h-42c-45.333 0 -85.833 11 -121.5 33s-63.334 52.333 -83.001 91s-29.5 82.334 -29.5 131.001c0 46.667 9.33301 89.667 28 129s45.167 70.5 79.5 93.5s74.166 34.5 119.499 34.5
c46.667 0 86.834 -10.5 120.501 -31.5s59.334 -50 77.001 -87s26.5 -79.5 26.5 -127.5l-1 -11h-396c2.66699 -52 12.834 -92.333 30.501 -121s40 -50.334 67 -65.001s55.5 -22 85.5 -22c70 0 120.667 29.333 152 88l46 -23c-13.333 -25.333 -41 -53 -83 -83
c-34.667 -24.667 -59.5 -46.334 -74.5 -65.001s-22.5 -39.667 -22.5 -63c0 -19.333 5.83301 -35.666 17.5 -48.999s27.167 -20 46.5 -20c14.667 0 23 1 25 3v-40c-4 -2 -14.667 -3 -32 -3c-32 0 -57.167 9.16699 -75.5 27.5zM427.999 279
c-2 34 -8.66602 62.668 -19.999 86.001s-29.333 43.166 -54 59.499s-55 24.5 -91 24.5c-42.667 0 -78.834 -14 -108.501 -42s-50.167 -70.667 -61.5 -128h335z" />
    <glyph glyph-name="Ecaron" unicode="&#x11a;" horiz-adv-x="551" 
d="M80 686h384v-51h-329v-267h297v-50h-297v-267h329v-51h-384v686zM162 870h46l53 -63h22l54 63h46l-80 -91h-61z" />
    <glyph glyph-name="ecaron" unicode="&#x11b;" horiz-adv-x="553" 
d="M148.5 17c-35.667 22 -63.335 52.333 -83.002 91s-29.5 82.334 -29.5 131.001c0 46.667 9.33301 89.667 28 129s45.167 70.5 79.5 93.5s74.166 34.5 119.499 34.5c46.667 0 86.834 -10.5 120.501 -31.5s59.334 -50 77.001 -87s26.5 -79.5 26.5 -127.5l-1 -11h-396
c2.66699 -52 12.834 -92.333 30.501 -121s40 -50.334 67 -65.001s55.5 -22 85.5 -22c70 0 120.667 29.333 152 88l46 -23c-14.667 -29.333 -39.5 -55.333 -74.5 -78s-77.167 -34 -126.5 -34c-45.333 0 -85.833 11 -121.5 33zM427.999 279
c-2 34 -8.66602 62.668 -19.999 86.001s-29.333 43.166 -54 59.499s-55 24.5 -91 24.5c-42.667 0 -78.834 -14 -108.501 -42s-50.167 -70.667 -61.5 -128h335zM156 706.001h46l52 -64h20l53 64h46l-78 -92h-61z" />
    <glyph glyph-name="Gcircumflex" unicode="&#x11c;" horiz-adv-x="813" 
d="M222.5 31c-54.333 31.333 -97.5 74.5029 -129.5 129.503s-48 115.833 -48 182.5s16 127.5 48 182.5s75.167 98.167 129.5 129.5s113.833 47 178.5 47c50.667 0 98.167 -9 142.5 -27s77.833 -39.333 100.5 -64l-39 -40c-18 21.333 -45.667 40 -83 56s-77.333 24 -120 24
c-52.667 0 -102.167 -12.833 -148.5 -38.5s-83.333 -61.834 -111 -108.501s-41.5 -100.334 -41.5 -161.001s13.833 -114.334 41.5 -161.001s64.667 -82.834 111 -108.501s95.833 -38.5 148.5 -38.5c50 0 92.167 8 126.5 24s63.833 37 88.5 63
c18.667 20 33.667 43.833 45 71.5s18.666 63.834 21.999 108.501h-266v49h316c2 -9.33301 3 -21.666 3 -36.999c0 -42.667 -6.66699 -83.834 -20 -123.501s-34.666 -74.5 -63.999 -104.5c-63.333 -68 -147.333 -102 -252 -102c-64.667 0 -124.167 15.667 -178.5 47z
M291 779.003l80 91h61l80 -91h-46l-54 63h-22l-53 -63h-46z" />
    <glyph glyph-name="gcircumflex" unicode="&#x11d;" horiz-adv-x="587" 
d="M130 -193c-35.333 26 -57.668 53.001 -67.001 81.001l51 21c8.66699 -22.667 26.834 -44 54.501 -64s60.5 -30 98.5 -30c54.667 0 97.5 16.833 128.5 50.5s46.5 80.5 46.5 140.5v72h-24c-18 -28.667 -40.833 -50.5 -68.5 -65.5s-59.167 -22.5 -94.5 -22.5
c-40.667 0 -77.667 10.667 -111 32s-59.666 51.166 -78.999 89.499s-29 82.166 -29 131.499c0 48.667 9.66699 92.334 29 131.001s45.666 68.667 78.999 90s70.333 32 111 32c35.333 0 66.833 -7.5 94.5 -22.5s50.5 -37.167 68.5 -66.5h24v73h52v-475
c0 -78 -20.667 -137 -62 -177s-96.333 -60 -165 -60c-56 0 -101.667 13 -137 39zM354.998 62.001c26.667 16.667 47.834 40.499 63.501 71.499s23.5 67.5 23.5 109.5c0 42.667 -7.83301 79.5 -23.5 110.5s-36.834 54.667 -63.501 71s-56 24.5 -88 24.5
s-61.5 -8.33301 -88.5 -25s-48.333 -40.5 -64 -71.5s-23.5 -67.5 -23.5 -109.5s7.83301 -78.667 23.5 -110s37 -55.166 64 -71.499s56.5 -24.5 88.5 -24.5s61.333 8.33301 88 25zM168.998 614l78 92h61l78 -92h-47l-52 64h-20l-52 -64h-46z" />
    <glyph glyph-name="Gbreve" unicode="&#x11e;" horiz-adv-x="813" 
d="M222.5 31c-54.333 31.333 -97.5 74.5029 -129.5 129.503s-48 115.833 -48 182.5s16 127.5 48 182.5s75.167 98.167 129.5 129.5s113.833 47 178.5 47c50.667 0 98.167 -9 142.5 -27s77.833 -39.333 100.5 -64l-39 -40c-18 21.333 -45.667 40 -83 56s-77.333 24 -120 24
c-52.667 0 -102.167 -12.833 -148.5 -38.5s-83.333 -61.834 -111 -108.501s-41.5 -100.334 -41.5 -161.001s13.833 -114.334 41.5 -161.001s64.667 -82.834 111 -108.501s95.833 -38.5 148.5 -38.5c50 0 92.167 8 126.5 24s63.833 37 88.5 63
c18.667 20 33.667 43.833 45 71.5s18.666 63.834 21.999 108.501h-266v49h316c2 -9.33301 3 -21.666 3 -36.999c0 -42.667 -6.66699 -83.834 -20 -123.501s-34.666 -74.5 -63.999 -104.5c-63.333 -68 -147.333 -102 -252 -102c-64.667 0 -124.167 15.667 -178.5 47z
M347 786.503c-17.333 9.66699 -31.333 22.834 -42 39.501s-16 30 -16 40h39c0 -10.667 6.66699 -23.334 20 -38.001s31.333 -22 54 -22c21.333 0 38.666 7.33301 51.999 22s20 27.334 20 38.001h38c0 -10 -5.16699 -23.333 -15.5 -40s-24 -29.834 -41 -39.501
s-34.833 -14.5 -53.5 -14.5c-19.333 0 -37.666 4.83301 -54.999 14.5z" />
    <glyph glyph-name="gbreve" unicode="&#x11f;" horiz-adv-x="587" 
d="M130 -193c-35.333 26 -57.668 53.001 -67.001 81.001l51 21c8.66699 -22.667 26.834 -44 54.501 -64s60.5 -30 98.5 -30c54.667 0 97.5 16.833 128.5 50.5s46.5 80.5 46.5 140.5v72h-24c-18 -28.667 -40.833 -50.5 -68.5 -65.5s-59.167 -22.5 -94.5 -22.5
c-40.667 0 -77.667 10.667 -111 32s-59.666 51.166 -78.999 89.499s-29 82.166 -29 131.499c0 48.667 9.66699 92.334 29 131.001s45.666 68.667 78.999 90s70.333 32 111 32c35.333 0 66.833 -7.5 94.5 -22.5s50.5 -37.167 68.5 -66.5h24v73h52v-475
c0 -78 -20.667 -137 -62 -177s-96.333 -60 -165 -60c-56 0 -101.667 13 -137 39zM354.998 62.001c26.667 16.667 47.834 40.499 63.501 71.499s23.5 67.5 23.5 109.5c0 42.667 -7.83301 79.5 -23.5 110.5s-36.834 54.667 -63.501 71s-56 24.5 -88 24.5
s-61.5 -8.33301 -88.5 -25s-48.333 -40.5 -64 -71.5s-23.5 -67.5 -23.5 -109.5s7.83301 -78.667 23.5 -110s37 -55.166 64 -71.499s56.5 -24.5 88.5 -24.5s61.333 8.33301 88 25zM223.498 621.5c-17 9.66699 -30.667 22.834 -41 39.501s-15.5 30.334 -15.5 41.001h40
c0 -10.667 6.33301 -23.5 19 -38.5s30 -22.5 52 -22.5c20 0 36.5 7.5 49.5 22.5s19.5 27.833 19.5 38.5h39c0 -10.667 -5 -24.334 -15 -41.001s-23.5 -29.834 -40.5 -39.501s-34.5 -14.5 -52.5 -14.5c-19.333 0 -37.5 4.83301 -54.5 14.5z" />
    <glyph glyph-name="Gdotaccent" unicode="&#x120;" horiz-adv-x="813" 
d="M222.5 31c-54.333 31.333 -97.5 74.5029 -129.5 129.503s-48 115.833 -48 182.5s16 127.5 48 182.5s75.167 98.167 129.5 129.5s113.833 47 178.5 47c50.667 0 98.167 -9 142.5 -27s77.833 -39.333 100.5 -64l-39 -40c-18 21.333 -45.667 40 -83 56s-77.333 24 -120 24
c-52.667 0 -102.167 -12.833 -148.5 -38.5s-83.333 -61.834 -111 -108.501s-41.5 -100.334 -41.5 -161.001s13.833 -114.334 41.5 -161.001s64.667 -82.834 111 -108.501s95.833 -38.5 148.5 -38.5c50 0 92.167 8 126.5 24s63.833 37 88.5 63
c18.667 20 33.667 43.833 45 71.5s18.666 63.834 21.999 108.501h-266v49h316c2 -9.33301 3 -21.666 3 -36.999c0 -42.667 -6.66699 -83.834 -20 -123.501s-34.666 -74.5 -63.999 -104.5c-63.333 -68 -147.333 -102 -252 -102c-64.667 0 -124.167 15.667 -178.5 47z
M377.5 817.503c-7 7 -10.5 14.833 -10.5 23.5c0 9.33301 3.5 17.333 10.5 24s14.833 10 23.5 10c10.667 0 19.167 -3.16699 25.5 -9.5s9.5 -14.5 9.5 -24.5c0 -9.33301 -3.33301 -17.333 -10 -24s-15 -10 -25 -10c-8.66699 0 -16.5 3.5 -23.5 10.5z" />
    <glyph glyph-name="gdotaccent" unicode="&#x121;" horiz-adv-x="587" 
d="M130 -193c-35.333 26 -57.668 53.001 -67.001 81.001l51 21c8.66699 -22.667 26.834 -44 54.501 -64s60.5 -30 98.5 -30c54.667 0 97.5 16.833 128.5 50.5s46.5 80.5 46.5 140.5v72h-24c-18 -28.667 -40.833 -50.5 -68.5 -65.5s-59.167 -22.5 -94.5 -22.5
c-40.667 0 -77.667 10.667 -111 32s-59.666 51.166 -78.999 89.499s-29 82.166 -29 131.499c0 48.667 9.66699 92.334 29 131.001s45.666 68.667 78.999 90s70.333 32 111 32c35.333 0 66.833 -7.5 94.5 -22.5s50.5 -37.167 68.5 -66.5h24v73h52v-475
c0 -78 -20.667 -137 -62 -177s-96.333 -60 -165 -60c-56 0 -101.667 13 -137 39zM354.998 62.001c26.667 16.667 47.834 40.499 63.501 71.499s23.5 67.5 23.5 109.5c0 42.667 -7.83301 79.5 -23.5 110.5s-36.834 54.667 -63.501 71s-56 24.5 -88 24.5
s-61.5 -8.33301 -88.5 -25s-48.333 -40.5 -64 -71.5s-23.5 -67.5 -23.5 -109.5s7.83301 -78.667 23.5 -110s37 -55.166 64 -71.499s56.5 -24.5 88.5 -24.5s61.333 8.33301 88 25zM248.998 636.5c-7.33301 7.66699 -11 16.834 -11 27.501c0 11.333 3.66699 20.5 11 27.5
s16.666 10.5 27.999 10.5s20.5 -3.5 27.5 -10.5s10.5 -16.167 10.5 -27.5c0 -10.667 -3.5 -19.834 -10.5 -27.501s-16.167 -11.5 -27.5 -11.5s-20.666 3.83301 -27.999 11.5z" />
    <glyph glyph-name="uni0122" unicode="&#x122;" horiz-adv-x="813" 
d="M222.5 31c-54.333 31.333 -97.5 74.5029 -129.5 129.503s-48 115.833 -48 182.5s16 127.5 48 182.5s75.167 98.167 129.5 129.5s113.833 47 178.5 47c50.667 0 98.167 -9 142.5 -27s77.833 -39.333 100.5 -64l-39 -40c-18 21.333 -45.667 40 -83 56s-77.333 24 -120 24
c-52.667 0 -102.167 -12.833 -148.5 -38.5s-83.333 -61.834 -111 -108.501s-41.5 -100.334 -41.5 -161.001s13.833 -114.334 41.5 -161.001s64.667 -82.834 111 -108.501s95.833 -38.5 148.5 -38.5c50 0 92.167 8 126.5 24s63.833 37 88.5 63
c18.667 20 33.667 43.833 45 71.5s18.666 63.834 21.999 108.501h-266v49h316c2 -9.33301 3 -21.666 3 -36.999c0 -42.667 -6.66699 -83.834 -20 -123.501s-34.666 -74.5 -63.999 -104.5c-63.333 -68 -147.333 -102 -252 -102c-64.667 0 -124.167 15.667 -178.5 47z
M358 -222.997l43.999 63c-23.333 4.66699 -37.666 10.5 -42.999 17.5s-8 15.167 -8 24.5c0 10 3.83301 19.167 11.5 27.5s17.5 12.5 29.5 12.5c12.667 0 22.667 -4 30 -12s11 -18.333 11 -31c0 -10 -3.33301 -21.667 -10 -35l-52 -76z" />
    <glyph glyph-name="uni0123" unicode="&#x123;" horiz-adv-x="587" 
d="M130 -193c-35.333 26 -57.668 53.001 -67.001 81.001l51 21c8.66699 -22.667 26.834 -44 54.501 -64s60.5 -30 98.5 -30c54.667 0 97.5 16.833 128.5 50.5s46.5 80.5 46.5 140.5v72h-24c-18 -28.667 -40.833 -50.5 -68.5 -65.5s-59.167 -22.5 -94.5 -22.5
c-40.667 0 -77.667 10.667 -111 32s-59.666 51.166 -78.999 89.499s-29 82.166 -29 131.499c0 48.667 9.66699 92.334 29 131.001s45.666 68.667 78.999 90s70.333 32 111 32c35.333 0 66.833 -7.5 94.5 -22.5s50.5 -37.167 68.5 -66.5h24v73h52v-475
c0 -78 -20.667 -137 -62 -177s-96.333 -60 -165 -60c-56 0 -101.667 13 -137 39zM354.998 62.001c26.667 16.667 47.834 40.499 63.501 71.499s23.5 67.5 23.5 109.5c0 42.667 -7.83301 79.5 -23.5 110.5s-36.834 54.667 -63.501 71s-56 24.5 -88 24.5
s-61.5 -8.33301 -88.5 -25s-48.333 -40.5 -64 -71.5s-23.5 -67.5 -23.5 -109.5s7.83301 -78.667 23.5 -110s37 -55.166 64 -71.499s56.5 -24.5 88.5 -24.5s61.333 8.33301 88 25zM308.998 737l-43 -63c22.667 -4.66699 36.667 -10.5 42 -17.5s8 -15.167 8 -24.5
c0 -10 -3.83301 -19.167 -11.5 -27.5s-17.5 -12.5 -29.5 -12.5c-13.333 0 -23.5 4 -30.5 12s-10.5 18.333 -10.5 31c0 10 3 21.667 9 35l52 77z" />
    <glyph glyph-name="Hcircumflex" unicode="&#x124;" horiz-adv-x="698" 
d="M80 686h55v-309h398v309h55v-686h-55v326h-398v-326h-55v686zM224 779l80 91h61l80 -91h-46l-54 63h-22l-53 -63h-46z" />
    <glyph glyph-name="hcircumflex" unicode="&#x125;" horiz-adv-x="554" 
d="M61 686h55.999v-196l-5 -85h26c14.667 28.667 35.834 51 63.501 67s57.834 24 90.501 24c56.667 0 99.667 -16.667 129 -50s44 -78 44 -134v-312h-56v299c0 50 -12.833 87.5 -38.5 112.5s-58.167 37.5 -97.5 37.5c-29.333 0 -55.833 -8.83301 -79.5 -26.5
s-42.334 -40.167 -56.001 -67.5s-20.5 -56 -20.5 -86v-269h-56v686zM-21.001 778l78 92h61l78 -92h-46l-53 64h-19l-52 -64h-47z" />
    <glyph glyph-name="Hbar" unicode="&#x126;" horiz-adv-x="668" 
d="M652 509h-64v-509h-54v326h-399v-326h-55v509h-64v36h64v141h55v-141h399v141h54v-141h64v-36zM534 509h-399v-133h399v133z" />
    <glyph glyph-name="hbar" unicode="&#x127;" horiz-adv-x="524" 
d="M421 446c29.333 -33.333 44.001 -78 44.001 -134v-312h-56v299c0 50 -12.667 87.5 -38 112.5s-58 37.5 -98 37.5c-28.667 0 -55 -8.83301 -79 -26.5s-42.833 -40.167 -56.5 -67.5s-20.5 -56 -20.5 -86v-269h-56v583h-62v37h62v66h56v-66h149v-37h-149v-93l-5 -85h26
c15.333 28.667 36.666 51 63.999 67s57.333 24 90 24c56.667 0 99.667 -16.667 129 -50z" />
    <glyph glyph-name="Itilde" unicode="&#x128;" horiz-adv-x="245" 
d="M80 686h55v-686h-55v686zM134.5 786.5c-10.333 4.33301 -23.502 11.168 -39.502 20.501c-22 13.333 -38 20 -48 20c-31.333 0 -48 -12.333 -50 -37h-41c0 12.667 4.5 26.167 13.5 40.5s20.833 25.166 35.5 32.499s29 11 43 11c18 0 42 -9.33301 72 -28
c22.667 -12.667 38.334 -19 47.001 -19c31.333 0 48 12.333 50 37h41c0 -22 -9.66699 -41.5 -29 -58.5s-40.666 -25.5 -63.999 -25.5c-10 0 -20.167 2.16699 -30.5 6.5z" />
    <glyph glyph-name="itilde" unicode="&#x129;" horiz-adv-x="221" 
d="M68 480h55v-480h-55v480zM122.5 622.5c-10.333 4.33301 -23.501 11.167 -39.501 20.5c-20.667 13.333 -35.667 20 -45 20c-30 0 -46 -12.333 -48 -37h-42c0 22 9.33301 41.333 28 58s39.334 25 62.001 25c18 0 42 -9.33301 72 -28c21.333 -12.667 36.333 -19 45 -19
c29.333 0 45 12.333 47 37h42c0 -22 -9.33301 -41.333 -28 -58s-39.667 -25 -63 -25c-10 0 -20.167 2.16699 -30.5 6.5z" />
    <glyph glyph-name="Imacron" unicode="&#x12a;" horiz-adv-x="215" 
d="M-1 846h216v-36h-216v36zM81 686h55v-686h-55v686z" />
    <glyph glyph-name="imacron" unicode="&#x12b;" horiz-adv-x="223" 
d="M69 480h55v-480h-55v480zM-24 682h243v-37h-243v37z" />
    <glyph glyph-name="Ibreve" unicode="&#x12c;" horiz-adv-x="245" 
d="M80 686h55v-686h-55v686zM53 786.5c-17.333 9.66699 -31.333 22.834 -42 39.501s-16 30 -16 40h39c0 -10.667 6.66699 -23.334 20 -38.001s31.333 -22 54 -22c21.333 0 38.666 7.33301 51.999 22s20 27.334 20 38.001h38c0 -10 -5.16699 -23.333 -15.5 -40
s-24 -29.834 -41 -39.501s-34.833 -14.5 -53.5 -14.5c-19.333 0 -37.666 4.83301 -54.999 14.5z" />
    <glyph glyph-name="ibreve" unicode="&#x12d;" horiz-adv-x="223" 
d="M69 480h55v-480h-55v480zM43.5 621.5c-17 9.66699 -30.666 22.834 -40.999 39.501s-15.5 30.334 -15.5 41.001h40c0 -10.667 6.5 -23.5 19.5 -38.5s30.167 -22.5 51.5 -22.5c20 0 36.5 7.5 49.5 22.5s19.5 27.833 19.5 38.5h39c0 -10.667 -5 -24.334 -15 -41.001
s-23.333 -29.834 -40 -39.501s-34.334 -14.5 -53.001 -14.5c-19.333 0 -37.5 4.83301 -54.5 14.5z" />
    <glyph glyph-name="Iogonek" unicode="&#x12e;" horiz-adv-x="212" 
d="M43 -196c-18.667 18.667 -28.001 41.666 -28.001 68.999c0 37.333 21.333 72.333 64 105v708h54v-694c-21.333 -16 -38.666 -32.333 -51.999 -49s-20 -36 -20 -58c0 -19.333 5.83301 -35.666 17.5 -48.999s27.5 -20 47.5 -20h25v-37c-4 -2 -14.667 -3 -32 -3
c-32 0 -57.333 9.33301 -76 28z" />
    <glyph glyph-name="iogonek" unicode="&#x12f;" horiz-adv-x="194" 
d="M64 617.5c-8.66699 9 -13 19.833 -13 32.5c0 13.333 4.33301 24.333 13 33s19.334 13 32.001 13c14 0 25.167 -4.33301 33.5 -13s12.5 -19.667 12.5 -33c0 -12.667 -4.16699 -23.5 -12.5 -32.5s-19.5 -13.5 -33.5 -13.5c-12.667 0 -23.334 4.5 -32.001 13.5zM34.5 -196
c-18.333 18.667 -27.501 41.666 -27.501 68.999c0 37.333 20.667 72.333 62 105v502h55v-488c-20.667 -16 -37.5 -32.333 -50.5 -49s-19.5 -36 -19.5 -58c0 -19.333 5.5 -35.666 16.5 -48.999s26.167 -20 45.5 -20h25v-37c-4 -2 -14.667 -3 -32 -3
c-31.333 0 -56.166 9.33301 -74.499 28z" />
    <glyph glyph-name="Idotaccent" unicode="&#x130;" horiz-adv-x="245" 
d="M80 686h55v-686h-55v686zM83.5 817.5c-7 7 -10.5 14.833 -10.5 23.5c0 9.33301 3.5 17.333 10.5 24s14.833 10 23.5 10c10.667 0 19.167 -3.16699 25.5 -9.5s9.5 -14.5 9.5 -24.5c0 -9.33301 -3.33301 -17.333 -10 -24s-15 -10 -25 -10c-8.66699 0 -16.5 3.5 -23.5 10.5z
" />
    <glyph glyph-name="dotlessi" unicode="&#x131;" horiz-adv-x="197" 
d="M71 480h55v-480h-55v480z" />
    <glyph glyph-name="Jcircumflex" unicode="&#x134;" horiz-adv-x="530" 
d="M100 24.5c-36.667 27 -61.332 60.832 -73.999 101.499l52 22c23.333 -75.333 73.666 -113 150.999 -113c44 0 79.167 15.167 105.5 45.5s39.5 69.833 39.5 118.5v487h55v-480c0 -47.333 -8.5 -87.666 -25.5 -120.999s-40.5 -58.5 -70.5 -75.5s-64.667 -25.5 -104 -25.5
c-49.333 0 -92.333 13.5 -129 40.5zM295.002 778.999l80 91h61l80 -91h-46l-54 63h-22l-53 -63h-46z" />
    <glyph glyph-name="jcircumflex" unicode="&#x135;" horiz-adv-x="222" 
d="M-17 -223v43c-8.66699 5.33301 -8.16699 6.83301 1.5 4.5s18.167 -3.5 25.5 -3.5c24.667 0 42.667 8.16699 54 24.5s17 38.833 17 67.5v567h56v-567c0 -47.333 -10.833 -82.333 -32.5 -105s-52.167 -34 -91.5 -34c-14.667 0 -24.667 1 -30 3zM-12 614l78 92h61l78 -92
h-47l-52 64h-20l-52 -64h-46z" />
    <glyph glyph-name="uni0136" unicode="&#x136;" horiz-adv-x="626" 
d="M80 686h55v-377h26l322 377h72l-254 -294l277 -392h-69l-245 350l-129 -149v-201h-55v686zM264 -223l43.999 63c-23.333 4.66699 -37.666 10.5 -42.999 17.5s-8 15.167 -8 24.5c0 10 3.83301 19.167 11.5 27.5s17.5 12.5 29.5 12.5c12.667 0 22.667 -4 30 -12
s11 -18.333 11 -31c0 -10 -3.33301 -21.667 -10 -35l-52 -76z" />
    <glyph glyph-name="uni0137" unicode="&#x137;" horiz-adv-x="497" 
d="M63 686h56v-470l252 264h70l-182 -189l194 -291h-68l-165 253l-101 -105v-148h-56v686zM209 -223l43 63c-22.667 4.66699 -36.667 10.5 -42 17.5s-8 15.167 -8 24.5c0 10 3.83301 19.167 11.5 27.5s17.5 12.5 29.5 12.5c13.333 0 23.5 -4 30.5 -12s10.5 -18.333 10.5 -31
c0 -10 -3 -21.667 -9 -35l-52 -77z" />
    <glyph glyph-name="kgreenlandic" unicode="&#x138;" horiz-adv-x="480" 
d="M63 480h55v-223v-8v-249h-55v480zM146 253l206 227h68l-214 -227l225 -253h-67z" />
    <glyph glyph-name="Lacute" unicode="&#x139;" horiz-adv-x="509" 
d="M80 686h55v-635h313v-51h-368v686zM125 870h57l-54 -97h-43z" />
    <glyph glyph-name="lacute" unicode="&#x13a;" horiz-adv-x="211" 
d="M63 690l56 21v-711h-56v690zM107 870h58l-53 -97h-44z" />
    <glyph glyph-name="uni013B" unicode="&#x13b;" horiz-adv-x="509" 
d="M80 686h55v-635h313v-51h-368v686zM230 -223l43.999 63c-23.333 4.66699 -37.666 10.5 -42.999 17.5s-8 15.167 -8 24.5c0 10 3.83301 19.167 11.5 27.5s17.5 12.5 29.5 12.5c12.667 0 22.667 -4 30 -12s11 -18.333 11 -31c0 -10 -3.33301 -21.667 -10 -35l-52 -76z" />
    <glyph glyph-name="uni013C" unicode="&#x13c;" horiz-adv-x="211" 
d="M63 690l55 21v-711h-55v690zM56 -223l43 63c-22.667 4.66699 -36.667 10.5 -42 17.5s-8 15.167 -8 24.5c0 10 3.83301 19.167 11.5 27.5s17.5 12.5 29.5 12.5c12.667 0 22.667 -4 30 -12s11 -18.333 11 -31c0 -10 -3.33301 -21.667 -10 -35l-51 -77z" />
    <glyph glyph-name="Lcaron" unicode="&#x13d;" horiz-adv-x="509" 
d="M80 686h55v-635h313v-51h-368v686zM317 686h59l-25 -159h-34v159z" />
    <glyph glyph-name="lcaron" unicode="&#x13e;" horiz-adv-x="302" 
d="M63 690l55 21v-711h-55v690zM211 686h59l-24 -159h-35v159z" />
    <glyph glyph-name="Ldot" unicode="&#x13f;" horiz-adv-x="509" 
d="M80 686h55v-635h313v-51h-368v686zM281 294c-9.33301 9.33301 -14 21 -14 35s4.66699 25.667 14 35s21 14 35 14c13.333 0 24.666 -4.66699 33.999 -14s14 -21 14 -35s-4.66699 -25.667 -14 -35s-20.666 -14 -33.999 -14c-14 0 -25.667 4.66699 -35 14z" />
    <glyph glyph-name="Lslash" unicode="&#x141;" horiz-adv-x="546" 
d="M148 293l-76 -46l-22 36l98 62v341h54v-301l141 87l23 -37l-164 -102v-282h314v-51h-368v293z" />
    <glyph glyph-name="lslash" unicode="&#x142;" horiz-adv-x="321" 
d="M130 328l-69 -51l-25 35l94 71v303h55v-267l83 63l26 -36l-109 -81v-365h-55v328z" />
    <glyph glyph-name="Nacute" unicode="&#x143;" horiz-adv-x="708" 
d="M80 686h81l359 -570h27l-4 153v417h55v-686h-65l-375 597h-27l4 -153v-444h-55v686zM357 870h57l-54 -97h-43z" />
    <glyph glyph-name="nacute" unicode="&#x144;" horiz-adv-x="553" 
d="M63 480h51.999v-75h25c15.333 28 36.833 50.167 64.5 66.5s57.167 24.5 88.5 24.5c56 0 98.5 -16.333 127.5 -49s43.5 -77.667 43.5 -135v-312h-56v299c0 51.333 -12.5 89.166 -37.5 113.499s-58.167 36.5 -99.5 36.5c-29.333 0 -55.666 -8.5 -78.999 -25.5
s-41.333 -39.167 -54 -66.5s-19 -55.666 -19 -84.999v-272h-56v480zM289.999 706h58l-53 -97h-44z" />
    <glyph glyph-name="uni0145" unicode="&#x145;" horiz-adv-x="708" 
d="M80 686h81l359 -570h27l-4 153v417h55v-686h-65l-375 597h-27l4 -153v-444h-55v686zM305 -223l43.999 63c-23.333 4.66699 -37.666 10.5 -42.999 17.5s-8 15.167 -8 24.5c0 10 3.83301 19.167 11.5 27.5s17.5 12.5 29.5 12.5c12.667 0 22.667 -4 30 -12
s11 -18.333 11 -31c0 -10 -3.33301 -21.667 -10 -35l-52 -76z" />
    <glyph glyph-name="uni0146" unicode="&#x146;" horiz-adv-x="553" 
d="M63 480h51.999v-75h25c15.333 28 36.833 50.167 64.5 66.5s57.167 24.5 88.5 24.5c56 0 98.5 -16.333 127.5 -49s43.5 -77.667 43.5 -135v-312h-56v299c0 51.333 -12.5 89.166 -37.5 113.499s-58.167 36.5 -99.5 36.5c-29.333 0 -55.666 -8.5 -78.999 -25.5
s-41.333 -39.167 -54 -66.5s-19 -55.666 -19 -84.999v-272h-56v480zM229.999 -223l43 63c-22.667 4.66699 -36.667 10.5 -42 17.5s-8 15.167 -8 24.5c0 10 3.83301 19.167 11.5 27.5s17.5 12.5 29.5 12.5c12.667 0 22.667 -4 30 -12s11 -18.333 11 -31
c0 -10 -3.33301 -21.667 -10 -35l-51 -77z" />
    <glyph glyph-name="Ncaron" unicode="&#x147;" horiz-adv-x="708" 
d="M80 686h81l359 -570h27l-4 153v417h55v-686h-65l-375 597h-27l4 -153v-444h-55v686zM229 870h46l53 -63h22l54 63h46l-80 -91h-61z" />
    <glyph glyph-name="ncaron" unicode="&#x148;" horiz-adv-x="553" 
d="M63 480h51.999v-75h25c15.333 28 36.833 50.167 64.5 66.5s57.167 24.5 88.5 24.5c56 0 98.5 -16.333 127.5 -49s43.5 -77.667 43.5 -135v-312h-56v299c0 51.333 -12.5 89.166 -37.5 113.499s-58.167 36.5 -99.5 36.5c-29.333 0 -55.666 -8.5 -78.999 -25.5
s-41.333 -39.167 -54 -66.5s-19 -55.666 -19 -84.999v-272h-56v480zM165.999 706h46l52 -64h20l52 64h47l-78 -92h-61z" />
    <glyph glyph-name="Eng" unicode="&#x14a;" horiz-adv-x="678" 
d="M444 -224v46c0.666992 -0.666992 9.33398 -1 26.001 -1c26 0 44.667 8.16699 56 24.5s17 38.833 17 67.5v79l-385 605h-27l4 -153v-444h-55v686h81l359 -570h27l-4 153v417h55v-773c0 -47.333 -10.833 -82.333 -32.5 -105s-52.834 -34 -93.501 -34
c-14.667 0 -24 0.666992 -28 2z" />
    <glyph glyph-name="eng" unicode="&#x14b;" horiz-adv-x="523" 
d="M310 -223l-0.000976562 43c-8.66699 5.33301 -8 6.83301 2 4.5s18.667 -3.5 26 -3.5c24.667 0 42.5 8.16699 53.5 24.5s16.5 38.833 16.5 67.5v386c0 51.333 -12.5 89.166 -37.5 113.499s-58.167 36.5 -99.5 36.5c-29.333 0 -55.666 -8.5 -78.999 -25.5
s-41.333 -39.167 -54 -66.5s-19 -55.666 -19 -84.999v-272h-56v480h52v-75h25c15.333 28 36.833 50.167 64.5 66.5s57.167 24.5 88.5 24.5c56 0 98.5 -16.333 127.5 -49s43.5 -77.667 43.5 -135v-399c0 -47.333 -10.667 -82.333 -32 -105s-52 -34 -92 -34
c-13.333 0 -23.333 1 -30 3z" />
    <glyph glyph-name="Omacron" unicode="&#x14c;" horiz-adv-x="824" 
d="M217.5 32c-53.667 32 -95.834 75.5 -126.501 130.5s-46 115.167 -46 180.5s15.333 125.5 46 180.5s72.834 98.5 126.501 130.5s113.5 48 179.5 48s125.833 -16 179.5 -48s95.834 -75.5 126.501 -130.5s46 -115.167 46 -180.5s-15.333 -125.5 -46 -180.5
s-72.834 -98.5 -126.501 -130.5s-113.5 -48 -179.5 -48s-125.833 16 -179.5 48zM546 74.5c45.333 26.333 81.166 62.833 107.499 109.5s39.5 99.667 39.5 159s-13.167 112.333 -39.5 159s-62.166 83.167 -107.499 109.5s-95 39.5 -149 39.5s-103.667 -13.167 -149 -39.5
s-81.166 -62.833 -107.499 -109.5s-39.5 -99.667 -39.5 -159s13.167 -112.333 39.5 -159s62.166 -83.167 107.499 -109.5s95 -39.5 149 -39.5s103.667 13.167 149 39.5zM274 846h247v-36h-247v36z" />
    <glyph glyph-name="omacron" unicode="&#x14d;" horiz-adv-x="586" 
d="M153 18c-36.667 22.667 -65.334 53.5 -86.001 92.5s-31 82.167 -31 129.5s10.333 90.5 31 129.5s49.334 69.833 86.001 92.5s78.334 34 125.001 34s88.334 -11.333 125.001 -34s65.334 -53.5 86.001 -92.5s31 -82.167 31 -129.5s-10.333 -90.5 -31 -129.5
s-49.334 -69.833 -86.001 -92.5s-78.334 -34 -125.001 -34s-88.334 11.333 -125.001 34zM369.5 56.5c28.333 17 51.166 41.333 68.499 73s26 68.5 26 110.5s-8.66699 78.833 -26 110.5s-40.166 56 -68.499 73s-58.833 25.5 -91.5 25.5s-63.334 -8.5 -92.001 -25.5
s-51.667 -41.333 -69 -73s-26 -68.5 -26 -110.5s8.66699 -78.833 26 -110.5s40.333 -56 69 -73s59.334 -25.5 92.001 -25.5s63.167 8.5 91.5 25.5zM157 682h243v-37h-243v37z" />
    <glyph glyph-name="Obreve" unicode="&#x14e;" horiz-adv-x="824" 
d="M217.5 32c-53.667 32 -95.834 75.5 -126.501 130.5s-46 115.167 -46 180.5s15.333 125.5 46 180.5s72.834 98.5 126.501 130.5s113.5 48 179.5 48s125.833 -16 179.5 -48s95.834 -75.5 126.501 -130.5s46 -115.167 46 -180.5s-15.333 -125.5 -46 -180.5
s-72.834 -98.5 -126.501 -130.5s-113.5 -48 -179.5 -48s-125.833 16 -179.5 48zM546 74.5c45.333 26.333 81.166 62.833 107.499 109.5s39.5 99.667 39.5 159s-13.167 112.333 -39.5 159s-62.166 83.167 -107.499 109.5s-95 39.5 -149 39.5s-103.667 -13.167 -149 -39.5
s-81.166 -62.833 -107.499 -109.5s-39.5 -99.667 -39.5 -159s13.167 -112.333 39.5 -159s62.166 -83.167 107.499 -109.5s95 -39.5 149 -39.5s103.667 13.167 149 39.5zM343 786.5c-17.333 9.66699 -31.333 22.834 -42 39.501s-16 30 -16 40h39
c0 -10.667 6.66699 -23.334 20 -38.001s31.333 -22 54 -22c21.333 0 38.666 7.33301 51.999 22s20 27.334 20 38.001h38c0 -10 -5.16699 -23.333 -15.5 -40s-24 -29.834 -41 -39.501s-34.833 -14.5 -53.5 -14.5c-19.333 0 -37.666 4.83301 -54.999 14.5z" />
    <glyph glyph-name="obreve" unicode="&#x14f;" horiz-adv-x="586" 
d="M153 18c-36.667 22.667 -65.334 53.5 -86.001 92.5s-31 82.167 -31 129.5s10.333 90.5 31 129.5s49.334 69.833 86.001 92.5s78.334 34 125.001 34s88.334 -11.333 125.001 -34s65.334 -53.5 86.001 -92.5s31 -82.167 31 -129.5s-10.333 -90.5 -31 -129.5
s-49.334 -69.833 -86.001 -92.5s-78.334 -34 -125.001 -34s-88.334 11.333 -125.001 34zM369.5 56.5c28.333 17 51.166 41.333 68.499 73s26 68.5 26 110.5s-8.66699 78.833 -26 110.5s-40.166 56 -68.499 73s-58.833 25.5 -91.5 25.5s-63.334 -8.5 -92.001 -25.5
s-51.667 -41.333 -69 -73s-26 -68.5 -26 -110.5s8.66699 -78.833 26 -110.5s40.333 -56 69 -73s59.334 -25.5 92.001 -25.5s63.167 8.5 91.5 25.5zM224.5 621.5c-17 9.66699 -30.666 22.834 -40.999 39.501s-15.5 30.334 -15.5 41.001h40c0 -10.667 6.5 -23.5 19.5 -38.5
s30.167 -22.5 51.5 -22.5c20 0 36.5 7.5 49.5 22.5s19.5 27.833 19.5 38.5h39c0 -10.667 -5 -24.334 -15 -41.001s-23.333 -29.834 -40 -39.501s-34.334 -14.5 -53.001 -14.5c-19.333 0 -37.5 4.83301 -54.5 14.5z" />
    <glyph glyph-name="Ohungarumlaut" unicode="&#x150;" horiz-adv-x="824" 
d="M217.5 32c-53.667 32 -95.834 75.5 -126.501 130.5s-46 115.167 -46 180.5s15.333 125.5 46 180.5s72.834 98.5 126.501 130.5s113.5 48 179.5 48s125.833 -16 179.5 -48s95.834 -75.5 126.501 -130.5s46 -115.167 46 -180.5s-15.333 -125.5 -46 -180.5
s-72.834 -98.5 -126.501 -130.5s-113.5 -48 -179.5 -48s-125.833 16 -179.5 48zM546 74.5c45.333 26.333 81.166 62.833 107.499 109.5s39.5 99.667 39.5 159s-13.167 112.333 -39.5 159s-62.166 83.167 -107.499 109.5s-95 39.5 -149 39.5s-103.667 -13.167 -149 -39.5
s-81.166 -62.833 -107.499 -109.5s-39.5 -99.667 -39.5 -159s13.167 -112.333 39.5 -159s62.166 -83.167 107.499 -109.5s95 -39.5 149 -39.5s103.667 13.167 149 39.5zM352 870h57l-54 -97h-43zM479 870h57l-54 -97h-43z" />
    <glyph glyph-name="ohungarumlaut" unicode="&#x151;" horiz-adv-x="586" 
d="M153 18c-36.667 22.667 -65.334 53.5 -86.001 92.5s-31 82.167 -31 129.5s10.333 90.5 31 129.5s49.334 69.833 86.001 92.5s78.334 34 125.001 34s88.334 -11.333 125.001 -34s65.334 -53.5 86.001 -92.5s31 -82.167 31 -129.5s-10.333 -90.5 -31 -129.5
s-49.334 -69.833 -86.001 -92.5s-78.334 -34 -125.001 -34s-88.334 11.333 -125.001 34zM369.5 56.5c28.333 17 51.166 41.333 68.499 73s26 68.5 26 110.5s-8.66699 78.833 -26 110.5s-40.166 56 -68.499 73s-58.833 25.5 -91.5 25.5s-63.334 -8.5 -92.001 -25.5
s-51.667 -41.333 -69 -73s-26 -68.5 -26 -110.5s8.66699 -78.833 26 -110.5s40.333 -56 69 -73s59.334 -25.5 92.001 -25.5s63.167 8.5 91.5 25.5zM218 706h57l-53 -97h-43zM373 706h57l-53 -97h-43z" />
    <glyph glyph-name="OE" unicode="&#x152;" horiz-adv-x="1135" 
d="M217.5 32c-53.667 32 -95.834 75.332 -126.501 129.999s-46 115 -46 181c0 65.333 15.333 125.5 46 180.5s72.834 98.5 126.501 130.5s113.5 48 179.5 48c56.667 0 108.167 -11.667 154.5 -35s93.5 -68 141.5 -134v153h385v-51h-330v-267h298v-50h-298v-267h330v-51h-385
v152c-48 -65.333 -95.167 -109.666 -141.5 -132.999s-97.833 -35 -154.5 -35c-66 0 -125.833 16 -179.5 48zM546 74.499c45.333 26.333 81.166 62.833 107.499 109.5s39.5 99.667 39.5 159s-13.167 112.333 -39.5 159s-62.166 83.167 -107.499 109.5s-95 39.5 -149 39.5
s-103.5 -13.167 -148.5 -39.5s-80.833 -63 -107.5 -110s-40 -99.833 -40 -158.5s13.333 -111.5 40 -158.5s62.5 -83.667 107.5 -110s94.5 -39.5 148.5 -39.5s103.667 13.167 149 39.5z" />
    <glyph glyph-name="oe" unicode="&#x153;" horiz-adv-x="953" 
d="M153 18c-36.667 22.667 -65.3369 53.501 -86.0039 92.501s-31 82.167 -31 129.5s10.333 90.5 31 129.5s49.334 69.833 86.001 92.5s78.334 34 125.001 34c44.667 0 84.5 -10.5 119.5 -31.5s66.5 -57.167 94.5 -108.5c26.667 51.333 56.334 87.5 89.001 108.5
s69.667 31.5 111 31.5c46.667 0 86.834 -10.5 120.501 -31.5s59.5 -50 77.5 -87s27 -79.5 27 -127.5l-1 -11h-396c2.66699 -52 12.834 -92.333 30.501 -121s40 -50.334 67 -65.001s55.5 -22 85.5 -22c70 0 120.667 29.333 152 88l46 -23
c-14.667 -29.333 -39.5 -55.333 -74.5 -78s-77.5 -34 -127.5 -34c-43.333 0 -82 10.333 -116 31s-64.667 57.334 -92 110.001c-27.333 -52.667 -58.5 -89.334 -93.5 -110.001s-74.833 -31 -119.5 -31c-46.667 0 -88.334 11.333 -125.001 34zM369.997 56.501
c28.667 17 51.5 41.333 68.5 73s25.5 68.5 25.5 110.5s-8.5 78.833 -25.5 110.5s-39.833 56 -68.5 73s-59.334 25.5 -92.001 25.5s-63.334 -8.5 -92.001 -25.5s-51.667 -41.333 -69 -73s-26 -68.5 -26 -110.5s8.66699 -78.833 26 -110.5s40.333 -56 69 -73
s59.334 -25.5 92.001 -25.5s63.334 8.5 92.001 25.5zM856.997 279.001c-2 34 -8.66797 62.668 -20.001 86.001s-29.166 43.166 -53.499 59.499s-54.833 24.5 -91.5 24.5c-42 0 -78 -14 -108 -42s-50.333 -70.667 -61 -128h334z" />
    <glyph glyph-name="Racute" unicode="&#x154;" horiz-adv-x="586" 
d="M80 686l226.999 0.000976562c36.667 0 70.834 -8.33301 102.501 -25s57 -40 76 -70s28.5 -64 28.5 -102c0 -30.667 -7 -59.334 -21 -86.001s-33.167 -49 -57.5 -67s-53.5 -30.667 -87.5 -38l-11 -16l205 -298v16h-77l-195 292h-135v-292h-55v686zM301.999 341.001
c27.333 0 52.833 6.33203 76.5 18.999s42.834 30.334 57.501 53.001s22 48 22 76c0 24.667 -6.33301 48.167 -19 70.5s-30.334 40.5 -53.001 54.5s-48.667 21 -78 21h-173v-294h167zM282.999 870h57l-54 -97h-43z" />
    <glyph glyph-name="racute" unicode="&#x155;" horiz-adv-x="371" 
d="M63 480l52 0.000976562v-82h27c10.667 31.333 28.667 55.333 54 72s52.333 25 81 25c20.667 0 35.667 -1.66699 45 -5v-59c-9.33301 5.33301 -28.333 8 -57 8c-26.667 0 -51.167 -7.83301 -73.5 -23.5s-40 -36.334 -53 -62.001s-19.5 -53.5 -19.5 -83.5v-270h-56v480z
M204 706.001h57l-53 -97h-43z" />
    <glyph glyph-name="uni0156" unicode="&#x156;" horiz-adv-x="586" 
d="M80 686l226.999 0.000976562c36.667 0 70.834 -8.33301 102.501 -25s57 -40 76 -70s28.5 -64 28.5 -102c0 -30.667 -7 -59.334 -21 -86.001s-33.167 -49 -57.5 -67s-53.5 -30.667 -87.5 -38l-11 -16l205 -298v16h-77l-195 292h-135v-292h-55v686zM301.999 341.001
c27.333 0 52.833 6.33203 76.5 18.999s42.834 30.334 57.501 53.001s22 48 22 76c0 24.667 -6.33301 48.167 -19 70.5s-30.334 40.5 -53.001 54.5s-48.667 21 -78 21h-173v-294h167zM243.999 -223l43.999 63c-23.333 4.66699 -37.666 10.5 -42.999 17.5s-8 15.167 -8 24.5
c0 10 3.83301 19.167 11.5 27.5s17.5 12.5 29.5 12.5c12.667 0 22.667 -4 30 -12s11 -18.333 11 -31c0 -10 -3.33301 -21.667 -10 -35l-52 -76z" />
    <glyph glyph-name="uni0157" unicode="&#x157;" horiz-adv-x="371" 
d="M63 480l52 0.000976562v-82h27c10.667 31.333 28.667 55.333 54 72s52.333 25 81 25c20.667 0 35.667 -1.66699 45 -5v-59c-10 5.33301 -29 8 -57 8c-26.667 0 -51.167 -7.83301 -73.5 -23.5s-40 -36.334 -53 -62.001s-19.5 -53.5 -19.5 -83.5v-270h-56v480zM57 -222.999
l42 63c-22.667 4.66699 -36.667 10.5 -42 17.5s-8 15.167 -8 24.5c0 10 3.83301 19.167 11.5 27.5s17.5 12.5 29.5 12.5c13.333 0 23.5 -4 30.5 -12s10.5 -18.333 10.5 -31c0 -10 -3 -21.667 -9 -35l-52 -77z" />
    <glyph glyph-name="Rcaron" unicode="&#x158;" horiz-adv-x="586" 
d="M80 686l226.999 0.000976562c36.667 0 70.834 -8.33301 102.501 -25s57 -40 76 -70s28.5 -64 28.5 -102c0 -30.667 -7 -59.334 -21 -86.001s-33.167 -49 -57.5 -67s-53.5 -30.667 -87.5 -38l-11 -16l205 -298v16h-77l-195 292h-135v-292h-55v686zM301.999 341.001
c27.333 0 52.833 6.33203 76.5 18.999s42.834 30.334 57.501 53.001s22 48 22 76c0 24.667 -6.33301 48.167 -19 70.5s-30.334 40.5 -53.001 54.5s-48.667 21 -78 21h-173v-294h167zM154.999 870h46l53 -63h22l54 63h46l-80 -91h-61z" />
    <glyph glyph-name="rcaron" unicode="&#x159;" horiz-adv-x="371" 
d="M63 480l52 0.000976562v-82h27c10.667 31.333 28.667 55.333 54 72s52.333 25 81 25c20.667 0 35.667 -1.66699 45 -5v-59c-9.33301 5.33301 -28.333 8 -57 8c-26.667 0 -51.167 -7.83301 -73.5 -23.5s-40 -36.334 -53 -62.001s-19.5 -53.5 -19.5 -83.5v-270h-56v480z
M79 706.001h47l51 -64h20l53 64h46l-78 -92h-61z" />
    <glyph glyph-name="Sacute" unicode="&#x15a;" horiz-adv-x="562" 
d="M163.5 5c-31.667 14 -59.668 34.6699 -84.001 62.0029s-40.833 56.333 -49.5 87l53 22c9.33301 -34.667 30.5 -66.834 63.5 -96.501s72.167 -44.5 117.5 -44.5c44.667 0 83 12.5 115 37.5s48 59.167 48 102.5c0 38 -13.333 68.833 -40 92.5s-68.667 45.167 -126 64.5
l-45 16c-48.667 17.333 -87.834 39.666 -117.501 66.999s-44.5 64.666 -44.5 111.999c0 31.333 8.5 60.333 25.5 87s41.167 48 72.5 64s66.333 24 105 24s72.334 -7.16699 101.001 -21.5s51.667 -31.666 69 -51.999s27.666 -36.166 30.999 -47.499l-50 -22
c-5.33301 17.333 -21.166 37 -47.499 59s-60.5 33 -102.5 33c-40 0 -74.667 -11.667 -104 -35s-44 -53 -44 -89c0 -32.667 12.333 -58.834 37 -78.501s60 -37.5 106 -53.5l47 -16c58.667 -21.333 103.834 -47.333 135.501 -78s47.5 -72.334 47.5 -125.001
c0 -42.667 -10.833 -78.5 -32.5 -107.5s-49.5 -50.333 -83.5 -64s-69 -20.5 -105 -20.5c-34 0 -66.833 7 -98.5 21zM277.999 870.003h57l-54 -97h-43z" />
    <glyph glyph-name="sacute" unicode="&#x15b;" horiz-adv-x="465" 
d="M91.5 20c-33.667 24 -55.498 49.999 -65.498 77.999l49 23c10 -24.667 28.333 -46.167 55 -64.5s56 -27.5 88 -27.5c33.333 0 62.833 7.5 88.5 22.5s38.5 37.5 38.5 67.5c0 26.667 -10.333 47.5 -31 62.5s-50.334 27.5 -89.001 37.5l-60 16
c-38 9.33301 -68.5 24.833 -91.5 46.5s-34.5 49.167 -34.5 82.5c0 26 7.66699 49 23 69s36.5 35.5 63.5 46.5s56.167 16.5 87.5 16.5c41.333 0 77.833 -9 109.5 -27s52.167 -38 61.5 -60l-48 -23c-20.667 42.667 -62 64 -124 64c-29.333 0 -56 -7.66699 -80 -23
s-36 -35.666 -36 -60.999c0 -23.333 8.5 -42 25.5 -56s40.5 -25 70.5 -33l72 -19c46.667 -12 81.167 -29.167 103.5 -51.5s33.5 -49.5 33.5 -81.5c0 -28 -7.83301 -52.667 -23.5 -74s-37.5 -37.833 -65.5 -49.5s-59.333 -17.5 -94 -17.5c-50.667 0 -92.834 12 -126.501 36z
M234.002 705.999h57l-53 -97h-43z" />
    <glyph glyph-name="Scircumflex" unicode="&#x15c;" horiz-adv-x="562" 
d="M163.5 5c-31.667 14 -59.668 34.6699 -84.001 62.0029s-40.833 56.333 -49.5 87l53 22c9.33301 -34.667 30.5 -66.834 63.5 -96.501s72.167 -44.5 117.5 -44.5c44.667 0 83 12.5 115 37.5s48 59.167 48 102.5c0 38 -13.333 68.833 -40 92.5s-68.667 45.167 -126 64.5
l-45 16c-48.667 17.333 -87.834 39.666 -117.501 66.999s-44.5 64.666 -44.5 111.999c0 31.333 8.5 60.333 25.5 87s41.167 48 72.5 64s66.333 24 105 24s72.334 -7.16699 101.001 -21.5s51.667 -31.666 69 -51.999s27.666 -36.166 30.999 -47.499l-50 -22
c-5.33301 17.333 -21.166 37 -47.499 59s-60.5 33 -102.5 33c-40 0 -74.667 -11.667 -104 -35s-44 -53 -44 -89c0 -32.667 12.333 -58.834 37 -78.501s60 -37.5 106 -53.5l47 -16c58.667 -21.333 103.834 -47.333 135.501 -78s47.5 -72.334 47.5 -125.001
c0 -42.667 -10.833 -78.5 -32.5 -107.5s-49.5 -50.333 -83.5 -64s-69 -20.5 -105 -20.5c-34 0 -66.833 7 -98.5 21zM149.999 779.003l80 91h61l80 -91h-46l-54 63h-22l-53 -63h-46z" />
    <glyph glyph-name="scircumflex" unicode="&#x15d;" horiz-adv-x="465" 
d="M91.5 20c-33.667 24 -55.498 49.999 -65.498 77.999l49 23c10 -24.667 28.333 -46.167 55 -64.5s56 -27.5 88 -27.5c33.333 0 62.833 7.5 88.5 22.5s38.5 37.5 38.5 67.5c0 26.667 -10.333 47.5 -31 62.5s-50.334 27.5 -89.001 37.5l-60 16
c-38 9.33301 -68.5 24.833 -91.5 46.5s-34.5 49.167 -34.5 82.5c0 26 7.66699 49 23 69s36.5 35.5 63.5 46.5s56.167 16.5 87.5 16.5c41.333 0 77.833 -9 109.5 -27s52.167 -38 61.5 -60l-48 -23c-20.667 42.667 -62 64 -124 64c-29.333 0 -56 -7.66699 -80 -23
s-36 -35.666 -36 -60.999c0 -23.333 8.5 -42 25.5 -56s40.5 -25 70.5 -33l72 -19c46.667 -12 81.167 -29.167 103.5 -51.5s33.5 -49.5 33.5 -81.5c0 -28 -7.83301 -52.667 -23.5 -74s-37.5 -37.833 -65.5 -49.5s-59.333 -17.5 -94 -17.5c-50.667 0 -92.834 12 -126.501 36z
M109.002 613.999l78 92h61l78 -92h-46l-53 64h-20l-52 -64h-46z" />
    <glyph glyph-name="Scedilla" unicode="&#x15e;" horiz-adv-x="529" 
d="M454.5 74.5c-19 -27.667 -43.833 -48.8301 -74.5 -63.4971s-66 -23.667 -106 -27l-30 -67c29.333 4.66699 45.333 7 48 7c21.333 0 39.333 -7.5 54 -22.5s22 -34.167 22 -57.5c0 -22.667 -8.16699 -41.834 -24.5 -57.501s-36.833 -23.5 -61.5 -23.5
c-18 0 -34.333 5.33301 -49 16s-23.334 20 -26.001 28l22 10c0.666992 -2 6 -7.66699 16 -17s22.333 -14 37 -14c17.333 0 31.5 5.66699 42.5 17s16.5 25 16.5 41c0 16.667 -5.33301 30.834 -16 42.501s-25 17.5 -43 17.5c-18.667 0 -31.667 -4.66699 -39 -14l-21 10l32 84
c-60.667 6.66699 -110 25.667 -148 57s-63.333 69 -76 113l53 22c9.33301 -34.667 30.5 -66.834 63.5 -96.501s72.167 -44.5 117.5 -44.5c44.667 0 83 12.5 115 37.5s48 59.167 48 102.5c0 38 -13.333 68.833 -40 92.5s-68.667 45.167 -126 64.5l-45 16
c-48.667 17.333 -87.834 39.666 -117.501 66.999s-44.5 64.666 -44.5 111.999c0 31.333 8.5 60.333 25.5 87s41.167 48 72.5 64s66.333 24 105 24s72.334 -7.16699 101.001 -21.5s51.667 -31.666 69 -51.999s27.666 -36.166 30.999 -47.499l-50 -22
c-5.33301 17.333 -21.166 37 -47.499 59s-60.5 33 -102.5 33c-40 0 -74.667 -11.667 -104 -35s-44 -53 -44 -89c0 -32.667 12.333 -58.834 37 -78.501s60 -37.5 106 -53.5l47 -16c58.667 -21.333 103.834 -47.333 135.501 -78s47.5 -72.334 47.5 -125.001
c0 -40 -9.5 -73.833 -28.5 -101.5z" />
    <glyph glyph-name="scedilla" unicode="&#x15f;" horiz-adv-x="431" 
d="M355.5 28c-30.333 -25.333 -72.1689 -40.002 -125.502 -44.002l-30 -67c28 4.66699 43.333 7 46 7c21.333 0 39.166 -7.5 53.499 -22.5s21.5 -34.167 21.5 -57.5c0 -22.667 -8 -41.834 -24 -57.501s-36.333 -23.5 -61 -23.5c-18 0 -34.167 5.33301 -48.5 16
s-22.833 20 -25.5 28l24 11c0.666992 -2.66699 5.83398 -8.66699 15.501 -18s21.167 -14 34.5 -14c16.667 0 30.334 5.66699 41.001 17s16 25 16 41c0 16.667 -5.16699 30.834 -15.5 42.501s-24.166 17.5 -41.499 17.5s-29.666 -4.66699 -36.999 -14l-22 10l31 84
c-54.667 5.33301 -96.5 19.5 -125.5 42.5s-47.833 46.833 -56.5 71.5l49 23c10 -24.667 28.333 -46.167 55 -64.5s56 -27.5 88 -27.5c33.333 0 62.833 7.5 88.5 22.5s38.5 37.5 38.5 67.5c0 26.667 -10.333 47.5 -31 62.5s-50.334 27.5 -89.001 37.5l-60 16
c-38 9.33301 -68.5 24.833 -91.5 46.5s-34.5 49.167 -34.5 82.5c0 26 7.66699 49 23 69s36.5 35.5 63.5 46.5s56.167 16.5 87.5 16.5c41.333 0 77.833 -9 109.5 -27s52.167 -38 61.5 -60l-48 -23c-20.667 42.667 -62 64 -124 64c-29.333 0 -56 -7.66699 -80 -23
s-36 -35.666 -36 -60.999c0 -23.333 8.5 -42 25.5 -56s40.5 -25 70.5 -33l72 -19c46.667 -12 81.167 -29.167 103.5 -51.5s33.5 -49.5 33.5 -81.5c0 -39.333 -15.167 -71.666 -45.5 -96.999z" />
    <glyph glyph-name="Scaron" unicode="&#x160;" horiz-adv-x="562" 
d="M163.5 5c-31.667 14 -59.668 34.6699 -84.001 62.0029s-40.833 56.333 -49.5 87l53 22c9.33301 -34.667 30.5 -66.834 63.5 -96.501s72.167 -44.5 117.5 -44.5c44.667 0 83 12.5 115 37.5s48 59.167 48 102.5c0 38 -13.333 68.833 -40 92.5s-68.667 45.167 -126 64.5
l-45 16c-48.667 17.333 -87.834 39.666 -117.501 66.999s-44.5 64.666 -44.5 111.999c0 31.333 8.5 60.333 25.5 87s41.167 48 72.5 64s66.333 24 105 24s72.334 -7.16699 101.001 -21.5s51.667 -31.666 69 -51.999s27.666 -36.166 30.999 -47.499l-50 -22
c-5.33301 17.333 -21.166 37 -47.499 59s-60.5 33 -102.5 33c-40 0 -74.667 -11.667 -104 -35s-44 -53 -44 -89c0 -32.667 12.333 -58.834 37 -78.501s60 -37.5 106 -53.5l47 -16c58.667 -21.333 103.834 -47.333 135.501 -78s47.5 -72.334 47.5 -125.001
c0 -42.667 -10.833 -78.5 -32.5 -107.5s-49.5 -50.333 -83.5 -64s-69 -20.5 -105 -20.5c-34 0 -66.833 7 -98.5 21zM149.999 870.003h46l53 -63h22l54 63h46l-80 -91h-61z" />
    <glyph glyph-name="scaron" unicode="&#x161;" horiz-adv-x="465" 
d="M91.5 20c-33.667 24 -55.498 49.999 -65.498 77.999l49 23c10 -24.667 28.333 -46.167 55 -64.5s56 -27.5 88 -27.5c33.333 0 62.833 7.5 88.5 22.5s38.5 37.5 38.5 67.5c0 26.667 -10.333 47.5 -31 62.5s-50.334 27.5 -89.001 37.5l-60 16
c-38 9.33301 -68.5 24.833 -91.5 46.5s-34.5 49.167 -34.5 82.5c0 26 7.66699 49 23 69s36.5 35.5 63.5 46.5s56.167 16.5 87.5 16.5c41.333 0 77.833 -9 109.5 -27s52.167 -38 61.5 -60l-48 -23c-20.667 42.667 -62 64 -124 64c-29.333 0 -56 -7.66699 -80 -23
s-36 -35.666 -36 -60.999c0 -23.333 8.5 -42 25.5 -56s40.5 -25 70.5 -33l72 -19c46.667 -12 81.167 -29.167 103.5 -51.5s33.5 -49.5 33.5 -81.5c0 -28 -7.83301 -52.667 -23.5 -74s-37.5 -37.833 -65.5 -49.5s-59.333 -17.5 -94 -17.5c-50.667 0 -92.834 12 -126.501 36z
M109.002 705.999h46l52 -64h20l53 64h46l-78 -92h-61z" />
    <glyph glyph-name="uni0162" unicode="&#x162;" horiz-adv-x="509" 
d="M221 -221c-14.667 10.667 -23.334 20.001 -26.001 28.001l22 10c0.666992 -2.66699 6 -8.5 16 -17.5s22.333 -13.5 37 -13.5c16.667 0 30.667 5.66699 42 17s17 25 17 41s-5.5 30 -16.5 42s-25.167 18 -42.5 18c-18.667 0 -31.667 -4.66699 -39 -14l-21 10l36 100h-19
v635h-201v51h456v-51h-200v-635h-13l-38 -84c28 5.33301 44.333 8 49 8c20.667 0 38.334 -7.5 53.001 -22.5s22 -34.167 22 -57.5c0 -22.667 -8 -41.834 -24 -57.501s-36.333 -23.5 -61 -23.5c-18 0 -34.333 5.33301 -49 16z" />
    <glyph glyph-name="uni0163" unicode="&#x163;" horiz-adv-x="332" 
d="M207 -5l-37.002 -78.998c28.667 5.33301 44.334 8 47.001 8c20.667 0 38.167 -7.5 52.5 -22.5s21.5 -34.167 21.5 -57.5c0 -22.667 -7.83301 -41.834 -23.5 -57.501s-35.834 -23.5 -60.501 -23.5c-18 0 -34.167 5.33301 -48.5 16s-22.833 20 -25.5 28l23 11
c0.666992 -2.66699 5.83398 -8.83398 15.501 -18.501s21.5 -14.5 35.5 -14.5c16.667 0 30.167 5.83301 40.5 17.5s15.5 25.5 15.5 41.5c0 16.667 -5.16699 30.834 -15.5 42.501s-23.833 17.5 -40.5 17.5c-18 0 -30.667 -4.66699 -38 -14l-22 10l41 100
c-18 9.33301 -31 17.666 -39 24.999c-22.667 22 -34 53.333 -34 94v314h-87v47h87v144h56v-144h122v-47h-122v-293c0 -31.333 6 -55.333 18 -72c15.333 -18 37 -27 65 -27c22.667 0 36.334 1.66699 41.001 5v-46c-4 -2 -10.333 -3.83301 -19 -5.5s-20.667 -2.5 -36 -2.5
c-6 0 -17 1 -33 3z" />
    <glyph glyph-name="Tcaron" unicode="&#x164;" horiz-adv-x="538" 
d="M227 635h-201v51h456v-51h-200v-635h-55v635zM144 870h46l53 -63h22l54 63h46l-80 -91h-61z" />
    <glyph glyph-name="tcaron" unicode="&#x165;" horiz-adv-x="320" 
d="M261 686h52l-18 -112h-34v112zM188 1c-16 6 -29.333 14 -40 24c-22.667 22 -34 53.333 -34 94v314h-86v47h86v144h56v-144h122v-47h-122v-293c0 -31.333 6.33301 -55.333 19 -72c15.333 -18 36.666 -27 63.999 -27c22.667 0 36.334 1.66699 41.001 5v-46
c-3.33301 -2 -9.5 -3.83301 -18.5 -5.5s-21.167 -2.5 -36.5 -2.5c-18 0 -35 3 -51 9z" />
    <glyph glyph-name="Tbar" unicode="&#x166;" horiz-adv-x="509" 
d="M282 635v-258h130v-36h-130v-341h-55v341h-130v36h130v258h-201v51h456v-51h-200z" />
    <glyph glyph-name="tbar" unicode="&#x167;" horiz-adv-x="332" 
d="M295 46l0.000976562 -46c-4 -2 -10.333 -3.83301 -19 -5.5s-20.667 -2.5 -36 -2.5c-18.667 0 -35.834 3 -51.501 9s-28.834 14 -39.501 24c-22.667 22 -34 53.333 -34 94v115h-87v47h87v152h-87v47h87v144h56v-144h122v-47h-122v-152h122v-47h-122v-94
c0 -31.333 6 -55.333 18 -72c15.333 -18 37 -27 65 -27c22.667 0 36.334 1.66699 41.001 5z" />
    <glyph glyph-name="Utilde" unicode="&#x168;" horiz-adv-x="653" 
d="M181.5 17.5c-37.667 22.333 -66.8311 53.5 -87.498 93.5s-31 86.333 -31 139v436h55v-440c0 -61.333 16.667 -111.833 50 -151.5s81 -59.5 143 -59.5s109.833 19.667 143.5 59s50.5 90 50.5 152v440h55v-436c0 -53.333 -9.83301 -100 -29.5 -140s-48.334 -71 -86.001 -93
s-82.167 -33 -133.5 -33c-48.667 0 -91.834 11.167 -129.501 33.5zM338.503 786.5c-10.333 4.33301 -23.502 11.168 -39.502 20.501c-22 13.333 -38 20 -48 20c-31.333 0 -48 -12.333 -50 -37h-41c0 12.667 4.5 26.167 13.5 40.5s20.833 25.166 35.5 32.499s29 11 43 11
c18 0 42 -9.33301 72 -28c22.667 -12.667 38.334 -19 47.001 -19c31.333 0 48 12.333 50 37h41c0 -22 -9.66699 -41.5 -29 -58.5s-40.666 -25.5 -63.999 -25.5c-10 0 -20.167 2.16699 -30.5 6.5z" />
    <glyph glyph-name="utilde" unicode="&#x169;" horiz-adv-x="553" 
d="M102.5 33.5c-29 33 -43.499 79.834 -43.499 140.501v306h56v-293c0 -52.667 12.167 -91.834 36.5 -117.501s56.166 -38.5 95.499 -38.5c31.333 0 58.833 8.5 82.5 25.5s42 38.833 55 65.5s19.5 55 19.5 85v273h56v-480h-52v74h-25c-15.333 -28 -36.833 -50 -64.5 -66
s-57.167 -24 -88.5 -24c-56 0 -98.5 16.5 -127.5 49.5zM285.501 622.501c-10.333 4.33301 -23.501 11.167 -39.501 20.5c-20.667 13.333 -35.667 20 -45 20c-30 0 -46 -12.333 -48 -37h-42c0 22 9.33301 41.333 28 58s39.334 25 62.001 25c18 0 42 -9.33301 72 -28
c21.333 -12.667 36.333 -19 45 -19c29.333 0 45 12.333 47 37h42c0 -22 -9.33301 -41.333 -28 -58s-39.667 -25 -63 -25c-10 0 -20.167 2.16699 -30.5 6.5z" />
    <glyph glyph-name="Umacron" unicode="&#x16a;" horiz-adv-x="653" 
d="M181.5 17.5c-37.667 22.333 -66.8311 53.5 -87.498 93.5s-31 86.333 -31 139v436h55v-440c0 -61.333 16.667 -111.833 50 -151.5s81 -59.5 143 -59.5s109.833 19.667 143.5 59s50.5 90 50.5 152v440h55v-436c0 -53.333 -9.83301 -100 -29.5 -140s-48.334 -71 -86.001 -93
s-82.167 -33 -133.5 -33c-48.667 0 -91.834 11.167 -129.501 33.5zM188.003 846h247v-36h-247v36z" />
    <glyph glyph-name="umacron" unicode="&#x16b;" horiz-adv-x="553" 
d="M102.5 33.5c-29 33 -43.499 79.834 -43.499 140.501v306h56v-293c0 -52.667 12.167 -91.834 36.5 -117.501s56.166 -38.5 95.499 -38.5c31.333 0 58.833 8.5 82.5 25.5s42 38.833 55 65.5s19.5 55 19.5 85v273h56v-480h-52v74h-25c-15.333 -28 -36.833 -50 -64.5 -66
s-57.167 -24 -88.5 -24c-56 0 -98.5 16.5 -127.5 49.5zM138.001 682.001h243v-37h-243v37z" />
    <glyph glyph-name="Ubreve" unicode="&#x16c;" horiz-adv-x="653" 
d="M181.5 17.5c-37.667 22.333 -66.8311 53.5 -87.498 93.5s-31 86.333 -31 139v436h55v-440c0 -61.333 16.667 -111.833 50 -151.5s81 -59.5 143 -59.5s109.833 19.667 143.5 59s50.5 90 50.5 152v440h55v-436c0 -53.333 -9.83301 -100 -29.5 -140s-48.334 -71 -86.001 -93
s-82.167 -33 -133.5 -33c-48.667 0 -91.834 11.167 -129.501 33.5zM257.003 786.5c-17.333 9.66699 -31.333 22.834 -42 39.501s-16 30 -16 40h39c0 -10.667 6.66699 -23.334 20 -38.001s31.333 -22 54 -22c21.333 0 38.666 7.33301 51.999 22s20 27.334 20 38.001h38
c0 -10 -5.16699 -23.333 -15.5 -40s-24 -29.834 -41 -39.501s-34.833 -14.5 -53.5 -14.5c-19.333 0 -37.666 4.83301 -54.999 14.5z" />
    <glyph glyph-name="ubreve" unicode="&#x16d;" horiz-adv-x="553" 
d="M102.5 33.5c-29 33 -43.499 79.834 -43.499 140.501v306h56v-293c0 -52.667 12.167 -91.834 36.5 -117.501s56.166 -38.5 95.499 -38.5c31.333 0 58.833 8.5 82.5 25.5s42 38.833 55 65.5s19.5 55 19.5 85v273h56v-480h-52v74h-25c-15.333 -28 -36.833 -50 -64.5 -66
s-57.167 -24 -88.5 -24c-56 0 -98.5 16.5 -127.5 49.5zM205.501 621.501c-17 9.66699 -30.666 22.834 -40.999 39.501s-15.5 30.334 -15.5 41.001h40c0 -10.667 6.5 -23.5 19.5 -38.5s30.167 -22.5 51.5 -22.5c20 0 36.5 7.5 49.5 22.5s19.5 27.833 19.5 38.5h39
c0 -10.667 -5 -24.334 -15 -41.001s-23.333 -29.834 -40 -39.501s-34.334 -14.5 -53.001 -14.5c-19.333 0 -37.5 4.83301 -54.5 14.5z" />
    <glyph glyph-name="Uring" unicode="&#x16e;" horiz-adv-x="653" 
d="M181.5 17.5c-37.667 22.333 -66.8311 53.5 -87.498 93.5s-31 86.333 -31 139v436h55v-440c0 -61.333 16.667 -111.833 50 -151.5s81 -59.5 143 -59.5s109.833 19.667 143.5 59s50.5 90 50.5 152v440h55v-436c0 -53.333 -9.83301 -100 -29.5 -140s-48.334 -71 -86.001 -93
s-82.167 -33 -133.5 -33c-48.667 0 -91.834 11.167 -129.501 33.5zM248.503 778.5c-17 17 -25.5 37.833 -25.5 62.5c0 25.333 8.5 46.333 25.5 63s37.833 25 62.5 25s45.667 -8.5 63 -25.5s26 -37.833 26 -62.5s-8.66699 -45.5 -26 -62.5s-38.333 -25.5 -63 -25.5
s-45.5 8.5 -62.5 25.5zM354.503 796.5c12.333 12.333 18.5 27.168 18.5 44.501s-6 32 -18 44s-26.667 18 -44 18c-16.667 0 -31.167 -6.16699 -43.5 -18.5s-18.5 -26.833 -18.5 -43.5s6.16699 -31.334 18.5 -44.001s26.833 -19 43.5 -19s31.167 6.16699 43.5 18.5z" />
    <glyph glyph-name="uring" unicode="&#x16f;" horiz-adv-x="553" 
d="M102.5 33.5c-29 33 -43.499 79.834 -43.499 140.501v306h56v-293c0 -52.667 12.167 -91.834 36.5 -117.501s56.166 -38.5 95.499 -38.5c31.333 0 58.833 8.5 82.5 25.5s42 38.833 55 65.5s19.5 55 19.5 85v273h56v-480h-52v74h-25c-15.333 -28 -36.833 -50 -64.5 -66
s-57.167 -24 -88.5 -24c-56 0 -98.5 16.5 -127.5 49.5zM197.001 614.001c-16.667 17.333 -25 38.333 -25 63s8.33301 45.5 25 62.5s37.334 25.5 62.001 25.5s45.5 -8.5 62.5 -25.5s25.5 -37.833 25.5 -62.5s-8.5 -45.667 -25.5 -63s-37.833 -26 -62.5 -26
s-45.334 8.66699 -62.001 26zM301.001 632.501c11.333 12.333 17 27.166 17 44.499s-5.83301 32 -17.5 44s-25.5 18 -41.5 18s-29.833 -6.16699 -41.5 -18.5s-17.5 -26.833 -17.5 -43.5c0 -17.333 5.83301 -32.166 17.5 -44.499s25.5 -18.5 41.5 -18.5
c16.667 0 30.667 6.16699 42 18.5z" />
    <glyph glyph-name="Uhungarumlaut" unicode="&#x170;" horiz-adv-x="653" 
d="M181.5 17.5c-37.667 22.333 -66.8311 53.5 -87.498 93.5s-31 86.333 -31 139v436h55v-440c0 -61.333 16.667 -111.833 50 -151.5s81 -59.5 143 -59.5s109.833 19.667 143.5 59s50.5 90 50.5 152v440h55v-436c0 -53.333 -9.83301 -100 -29.5 -140s-48.334 -71 -86.001 -93
s-82.167 -33 -133.5 -33c-48.667 0 -91.834 11.167 -129.501 33.5zM266.003 870h57l-54 -97h-43zM393.003 870h57l-54 -97h-43z" />
    <glyph glyph-name="uhungarumlaut" unicode="&#x171;" horiz-adv-x="553" 
d="M102.5 33.5c-29 33 -43.499 79.834 -43.499 140.501v306h56v-293c0 -52.667 12.167 -91.834 36.5 -117.501s56.166 -38.5 95.499 -38.5c31.333 0 58.833 8.5 82.5 25.5s42 38.833 55 65.5s19.5 55 19.5 85v273h56v-480h-52v74h-25c-15.333 -28 -36.833 -50 -64.5 -66
s-57.167 -24 -88.5 -24c-56 0 -98.5 16.5 -127.5 49.5zM199.001 706.001h57l-53 -97h-43zM354.001 706.001h57l-53 -97h-43z" />
    <glyph glyph-name="Uogonek" unicode="&#x172;" horiz-adv-x="631" 
d="M329 -196.5c-18.667 18.333 -27.998 41.499 -27.998 69.499c0 17.333 4.33301 33.333 13 48s34.667 38.667 78 72c-41.333 -6 -67 -9 -77 -9c-48.667 0 -91.834 11.167 -129.501 33.5s-66.834 53.5 -87.501 93.5s-31 86.333 -31 139v436h55v-440
c0 -61.333 16.667 -111.833 50 -151.5s81 -59.5 143 -59.5s109.833 19.667 143.5 59s50.5 90 50.5 152v440h55v-436c0 -49.333 -8.83301 -93.333 -26.5 -132s-42.167 -69 -73.5 -91c-78.667 -52.667 -118 -100 -118 -142c0 -19.333 6 -35.666 18 -48.999s28 -20 48 -20
c16 0 24.333 0.333008 25 1v-38c-4 -2 -14.667 -3 -32 -3c-32 0 -57.333 9.16699 -76 27.5z" />
    <glyph glyph-name="uogonek" unicode="&#x173;" horiz-adv-x="523" 
d="M369.5 -196c-18.333 18.667 -27.5029 41.667 -27.5029 69c0 21.333 5.83301 40.5 17.5 57.5s27.834 32.5 48.501 46.5v97h-25c-14.667 -28 -36 -50 -64 -66s-57.667 -24 -89 -24c-56 0 -98.5 16.5 -127.5 49.5s-43.5 79.833 -43.5 140.5v306h56v-293
c0 -52.667 12.167 -91.834 36.5 -117.501s56.5 -38.5 96.5 -38.5c30.667 0 57.834 8.5 81.501 25.5s42 38.833 55 65.5s19.5 55 19.5 85v273h56v-488c-20 -16 -36.833 -32.333 -50.5 -49s-20.5 -36 -20.5 -58c0 -19.333 5.83301 -35.666 17.5 -48.999s26.834 -20 45.501 -20
c15.333 0 24 1 26 3v-40c-4.66699 -2 -15.667 -3 -33 -3c-32 0 -57.167 9.33301 -75.5 28z" />
    <glyph glyph-name="Wcircumflex" unicode="&#x174;" horiz-adv-x="944" 
d="M17 686h62l127 -515l15 -60h27l18 60l157 515h66l150 -515l18 -60h27l141 575h62l-184 -686h-66l-149 507l-19 67h-26l-20 -67l-155 -507h-66zM351 779l80 91h61l80 -91h-46l-54 63h-22l-53 -63h-46z" />
    <glyph glyph-name="wcircumflex" unicode="&#x175;" horiz-adv-x="761" 
d="M7 480h57l118 -403h20l126 403h65l126 -402h20l118 402h55l-151 -480h-64l-139 438l-137 -438h-64zM258 614l78 92h61l78 -92h-47l-52 64h-20l-52 -64h-46z" />
    <glyph glyph-name="Ycircumflex" unicode="&#x176;" horiz-adv-x="595" 
d="M245 320l-230 366h64l183 -300h20l180 300h64l-226 -366v-320h-55v320zM172 779l80 91h61l80 -91h-46l-54 63h-22l-53 -63h-46z" />
    <glyph glyph-name="ycircumflex" unicode="&#x177;" horiz-adv-x="506" 
d="M207 17l-199 463h59l156 -379h20l150 379h59l-294 -696h-56zM130 614l78 92h61l78 -92h-47l-52 64h-20l-52 -64h-46z" />
    <glyph glyph-name="Ydieresis" unicode="&#x178;" horiz-adv-x="595" 
d="M245 320l-230 366h64l183 -300h20l180 300h64l-226 -366v-320h-55v320zM172.5 801c-7.66699 8 -11.5 17.001 -11.5 27.001c0 11.333 3.83301 20.666 11.5 27.999s16.834 11 27.501 11c11.333 0 20.5 -3.66699 27.5 -11s10.5 -16.666 10.5 -27.999
c0 -10.667 -3.5 -19.834 -10.5 -27.501s-16.167 -11.5 -27.5 -11.5c-10.667 0 -19.834 4 -27.501 12zM337 801.001c-8 8 -12.001 17.001 -12.001 27.001c0 11.333 3.83301 20.666 11.5 27.999s16.834 11 27.501 11c11.333 0 20.666 -3.66699 27.999 -11
s11 -16.666 11 -27.999c0 -10.667 -3.66699 -19.834 -11 -27.501s-16.666 -11.5 -27.999 -11.5c-10 0 -19 4 -27 12z" />
    <glyph glyph-name="Zacute" unicode="&#x179;" horiz-adv-x="572" 
d="M38 69l400 566h-384v51h438v-69l-400 -566h404v-51h-458v69zM291 870h57l-54 -97h-43z" />
    <glyph glyph-name="zacute" unicode="&#x17a;" horiz-adv-x="479" 
d="M37 53l310 380h-301v47h358v-53l-310 -380h318v-47h-375v53zM242 706h57l-53 -97h-43z" />
    <glyph glyph-name="Zdotaccent" unicode="&#x17b;" horiz-adv-x="572" 
d="M38 69l400 566h-384v51h438v-69l-400 -566h404v-51h-458v69zM249.5 817.5c-7 7 -10.5 14.833 -10.5 23.5c0 9.33301 3.5 17.333 10.5 24s14.833 10 23.5 10c10.667 0 19.167 -3.16699 25.5 -9.5s9.5 -14.5 9.5 -24.5c0 -9.33301 -3.33301 -17.333 -10 -24
s-15 -10 -25 -10c-8.66699 0 -16.5 3.5 -23.5 10.5z" />
    <glyph glyph-name="zdotaccent" unicode="&#x17c;" horiz-adv-x="479" 
d="M37 53l310 380h-301v47h358v-53l-310 -380h318v-47h-375v53zM197.5 636.5c-7.66699 7.66699 -11.5 16.834 -11.5 27.501c0 11.333 3.83301 20.5 11.5 27.5s16.834 10.5 27.501 10.5c11.333 0 20.5 -3.5 27.5 -10.5s10.5 -16.167 10.5 -27.5
c0 -10.667 -3.5 -19.834 -10.5 -27.501s-16.167 -11.5 -27.5 -11.5c-10.667 0 -19.834 3.83301 -27.501 11.5z" />
    <glyph glyph-name="Zcaron" unicode="&#x17d;" horiz-adv-x="572" 
d="M38 69l400 566h-384v51h438v-69l-400 -566h404v-51h-458v69zM163 870h46l53 -63h22l54 63h46l-80 -91h-61z" />
    <glyph glyph-name="zcaron" unicode="&#x17e;" horiz-adv-x="479" 
d="M37 53l310 380h-301v47h358v-53l-310 -380h318v-47h-375v53zM117 706h46l52 -64h20l53 64h46l-78 -92h-61z" />
    <glyph glyph-name="florin" unicode="&#x192;" horiz-adv-x="535" 
d="M396 623c-16.667 -13.333 -28.001 -32.668 -34.001 -58.001l-37 -192h129v-48h-138l-83 -424c-7.33301 -36 -23 -65.167 -47 -87.5s-53.667 -33.5 -89 -33.5c-18.667 0 -33.667 2 -45 6v49c10.667 -5.33301 26 -8 46 -8c21.333 0 39.5 7.33301 54.5 22
s25.167 34.334 30.5 59.001l80 417h-106v48h115l39 197c6.66699 36 23 65 49 87s58 33 96 33c13.333 0 23.333 -0.666992 30 -2s11.334 -2.33301 14.001 -3v-47c-5.33301 3.33301 -20 5 -44 5c-23.333 0 -43.333 -6.66699 -60 -20z" />
    <glyph glyph-name="Ohorn" unicode="&#x1a0;" horiz-adv-x="794" 
d="M217.5 32c-53.667 32 -95.833 75.5 -126.5 130.5s-46 115.167 -46 180.5s15.333 125.5 46 180.5s72.834 98.5 126.501 130.5s113.5 48 179.5 48c23.333 0 46 -1 68 -3s36 -3.33301 42 -4c46 -6 94.667 -9 146 -9c23.333 0 40.166 4.5 50.499 13.5s15.5 22.833 15.5 41.5
v53h38v-53c0 -31.333 -7.16699 -54 -21.5 -68s-37.166 -21 -68.499 -21c-16.667 0 -40 2.66699 -70 8v-30c52.667 -34.667 91.167 -76.5 115.5 -125.5s36.5 -102.833 36.5 -161.5c0 -65.333 -15.333 -125.5 -46 -180.5s-72.834 -98.5 -126.501 -130.5s-113.5 -48 -179.5 -48
s-125.833 16 -179.5 48zM546.001 74.5c45.333 26.333 81.166 62.833 107.499 109.5s39.5 99.667 39.5 159s-13.167 112.333 -39.5 159s-62.166 83.167 -107.499 109.5s-95 39.5 -149 39.5s-103.667 -13.167 -149 -39.5s-81.166 -62.833 -107.499 -109.5
s-39.5 -99.667 -39.5 -159s13.167 -112.333 39.5 -159s62.166 -83.167 107.499 -109.5s95 -39.5 149 -39.5s103.667 13.167 149 39.5z" />
    <glyph glyph-name="ohorn" unicode="&#x1a1;" horiz-adv-x="556" 
d="M153 18c-36.667 22.667 -65.333 53.5 -86 92.5s-31 82.167 -31 129.5s10.333 90.5 31 129.5s49.334 69.833 86.001 92.5s78.334 34 125.001 34c22 0 46.667 -2.66699 74 -8c29.333 -5.33301 53 -8 71 -8c25.333 0 43.666 4.5 54.999 13.5s17 22.833 17 41.5v53h39v-53
c0 -26.667 -5.33301 -47.167 -16 -61.5s-26 -21.5 -46 -21.5c-5.33301 0 -16.333 2.66699 -33 8v-31c54 -48.667 81 -111.667 81 -189c0 -47.333 -10.167 -90.5 -30.5 -129.5s-49 -69.833 -86 -92.5s-78.833 -34 -125.5 -34s-88.334 11.333 -125.001 34zM370.001 56.5
c28.667 17 51.5 41.333 68.5 73s25.5 68.5 25.5 110.5s-8.5 78.833 -25.5 110.5s-39.833 56 -68.5 73s-59.334 25.5 -92.001 25.5s-63.334 -8.5 -92.001 -25.5s-51.667 -41.333 -69 -73s-26 -68.5 -26 -110.5s8.66699 -78.833 26 -110.5s40.333 -56 69 -73
s59.334 -25.5 92.001 -25.5s63.334 8.5 92.001 25.5z" />
    <glyph glyph-name="Uhorn" unicode="&#x1af;" horiz-adv-x="643" 
d="M181.5 17.5c-37.667 22.333 -66.832 53.5 -87.499 93.5s-31 86.333 -31 139v436h55v-440c0 -61.333 16.667 -111.833 50 -151.5s81 -59.5 143 -59.5s109.833 19.667 143.5 59s50.5 90 50.5 152v440h81c34.667 0 52 18.333 52 55v53h38v-53
c0 -31.333 -7.16699 -54 -21.5 -68s-37.166 -21 -68.499 -21h-26v-402c0 -53.333 -9.83301 -100 -29.5 -140s-48.334 -71 -86.001 -93s-82.167 -33 -133.5 -33c-48.667 0 -91.834 11.167 -129.501 33.5z" />
    <glyph glyph-name="uhorn" unicode="&#x1b0;" horiz-adv-x="560" 
d="M102.5 33.5c-29 33 -43.499 79.834 -43.499 140.501v306h55v-293c0 -52.667 12.167 -91.834 36.5 -117.501s56.5 -38.5 96.5 -38.5c30.667 0 58 8.5 82 25.5s42.5 38.833 55.5 65.5s19.5 55 19.5 85v273h80c32.667 0 49 18.333 49 55v53h39v-53c0 -31.333 -7 -54 -21 -68
s-36.333 -21 -67 -21h-25v-446h-51v74h-26c-14.667 -28 -35.834 -50 -63.501 -66s-57.5 -24 -89.5 -24c-55.333 0 -97.5 16.5 -126.5 49.5z" />
    <glyph glyph-name="uni01CD" unicode="&#x1cd;" horiz-adv-x="670" 
d="M275 686h76l260 -686h-61l-72 197h-330l-72 -197h-61zM461 247l-104 278l-31 87h-26l-31 -87l-104 -278h296zM210 870h46l53 -63h22l54 63h46l-80 -91h-61z" />
    <glyph glyph-name="Aringacute" unicode="&#x1fa;" horiz-adv-x="625" 
d="M610 0l-61 0.000976562l-72 197h-329l-72 -197h-61l252 664c-16 13.333 -27.167 26.166 -33.5 38.499s-9.5 25.166 -9.5 38.499c0 20 5.66699 37.5 17 52.5s28.333 26.167 51 33.5l32 75h50l-38 -74c24.667 -12 41.667 -25.167 51 -39.5s14 -30.166 14 -47.499
c0 -13.333 -3 -26 -9 -38s-17.333 -24.667 -34 -38zM353.5 699.501c11.667 11.667 17.5 25.5 17.5 41.5s-5.83301 29.833 -17.5 41.5s-25.5 17.5 -41.5 17.5c-15.333 0 -28.833 -5.83301 -40.5 -17.5s-17.5 -25.5 -17.5 -41.5s5.83301 -29.833 17.5 -41.5
s25.167 -17.5 40.5 -17.5c16 0 29.833 5.83301 41.5 17.5zM460 247.001l-103 278l-33 87h-25l-31 -87l-103 -278h295z" />
    <glyph glyph-name="aringacute" unicode="&#x1fb;" horiz-adv-x="493" 
d="M252 889h57l-41 -75h-47zM178 614c-16.667 17.333 -25 38.333 -25 63s8.33301 45.5 25 62.5s37.334 25.5 62.001 25.5s45.5 -8.5 62.5 -25.5s25.5 -37.833 25.5 -62.5s-8.5 -45.667 -25.5 -63s-37.833 -26 -62.5 -26s-45.334 8.66699 -62.001 26zM282 632.5
c11.333 12.333 17 27.166 17 44.499s-5.66699 32 -17 44s-25.333 18 -42 18c-16 0 -30 -6.16699 -42 -18.5s-18 -26.833 -18 -43.5c0 -17.333 6 -32.166 18 -44.499s26 -18.5 42 -18.5c16.667 0 30.667 6.16699 42 18.5zM116.5 4.5
c-27 13.667 -47.502 31.999 -61.502 54.999s-21 49.5 -21 79.5c0 48.667 18.333 87 55 115s83.667 42 141 42c28.667 0 55.334 -3.16699 80.001 -9.5s50 -17.833 76 -34.5v57c0 42.667 -14.333 76.834 -43 102.501s-64.667 38.5 -108 38.5
c-29.333 0 -56.833 -6.66699 -82.5 -20s-43.5 -28 -53.5 -44l-40 31c12.667 20 35.167 38.167 67.5 54.5s68.5 24.5 108.5 24.5c64 0 113.833 -16.833 149.5 -50.5s53.5 -79.5 53.5 -137.5v-308h-52v73h-25c-16 -27.333 -37.167 -49 -63.5 -65s-56.166 -24 -89.499 -24
c-34 0 -64.5 6.83301 -91.5 20.5zM299.998 52.999c26 16 46.834 37.5 62.501 64.5s23.5 59.167 23.5 96.5c-21.333 14.667 -43.833 25.5 -67.5 32.5s-48.834 10.5 -75.501 10.5c-48.667 0 -86 -11 -112 -33s-39 -50.667 -39 -86c0 -32.667 12 -59 36 -79s53.333 -30 88 -30
c30 0 58 8 84 24z" />
    <glyph glyph-name="AEacute" unicode="&#x1fc;" horiz-adv-x="960" 
d="M420 686h441v-51h-329v-267h297v-50h-297v-267h329v-51h-384v197h-288l-118 -197h-64zM477 247v388h-28l-33 -57l-197 -331h258zM669 870h57l-54 -97h-43z" />
    <glyph glyph-name="aeacute" unicode="&#x1fd;" horiz-adv-x="901" 
d="M116.5 4.5c-27 13.667 -47.502 31.998 -61.502 54.998s-21 49.5 -21 79.5c0 48.667 18.333 87 55 115s83.667 42 141 42c28.667 0 55.334 -3.16699 80.001 -9.5s50 -17.833 76 -34.5v57c0 42.667 -13.667 76.834 -41 102.501s-62.333 38.5 -105 38.5
c-28.667 0 -54.167 -7.16699 -76.5 -21.5s-37.833 -30.166 -46.5 -47.499l-47 24c10 22.667 30.5 43.5 61.5 62.5s66.5 28.5 106.5 28.5c42.667 0 79 -8.16699 109 -24.5s55.667 -46.166 77 -89.499c28 42.667 56.667 72.167 86 88.5s62.666 24.5 99.999 24.5
c46.667 0 86.834 -10.333 120.501 -31s59.5 -49.5 77.5 -86.5s27 -79.5 27 -127.5l-1 -11h-396c2.66699 -52 12.834 -92.333 30.501 -121s40 -50.334 67 -65.001s55.5 -22 85.5 -22c70 0 120.667 29.333 152 88l46 -23c-14.667 -29.333 -39.5 -55.333 -74.5 -78
s-77.5 -34 -127.5 -34c-45.333 0 -84.833 10.833 -118.5 32.5s-63.167 58.5 -88.5 110.5c-52.667 -95.333 -120 -143 -202 -143c-34 0 -64.5 6.83301 -91.5 20.5zM774.998 278.998c-2 34 -8.66602 62.667 -19.999 86s-29.166 43 -53.499 59s-54.833 24 -91.5 24
c-42.667 0 -78.834 -13.833 -108.501 -41.5s-49.834 -70.167 -60.501 -127.5h334zM299.999 52.998c26 16 46.8311 37.5 62.498 64.5s23.5 59.167 23.5 96.5c-19.333 14 -41.166 24.667 -65.499 32s-50.166 11 -77.499 11c-48.667 0 -86 -11 -112 -33s-39 -50.667 -39 -86
c0 -32.667 12 -59 36 -79s53.333 -30 88 -30c30 0 58 8 84 24zM442.997 705.998h57l-52 -97h-44z" />
    <glyph glyph-name="Oslashacute" unicode="&#x1fe;" horiz-adv-x="825" 
d="M714 504c24 -49.333 35.999 -103 35.999 -161c0 -66 -15.333 -126.333 -46 -181s-73 -98 -127 -130s-114 -48 -180 -48c-58 0 -115.333 14.667 -172 44l-37 -58l-32 21l36 58c-50 38.667 -87 82.667 -111 132s-36 103.333 -36 162c0 65.333 15.333 125.5 46 180.5
s72.834 98.5 126.501 130.5s113.5 48 179.5 48c58 0 115.667 -15 173 -45l38 60l33 -22l-37 -59c49.333 -38.667 86 -82.667 110 -132zM128.999 208.5c18.667 -41 49 -79.5 91 -115.5l324 521c-52 24.667 -101 37 -147 37c-54 0 -103.5 -13.167 -148.5 -39.5
s-80.833 -63 -107.5 -110s-40 -99.833 -40 -158.5c0 -48.667 9.33301 -93.5 28 -134.5zM545.999 74.5c45.333 26.333 81.167 62.832 107.5 109.499s39.5 99.667 39.5 159c0 48.667 -9.16699 93.334 -27.5 134.001s-47.833 79 -88.5 115l-326 -520
c52 -24.667 100.667 -37 146 -37c54 0 103.667 13.167 149 39.5zM415 869.999h57l-54 -97h-43z" />
    <glyph glyph-name="oslashacute" unicode="&#x1ff;" horiz-adv-x="586" 
d="M497.5 352c15 -34.667 22.5 -71.998 22.5 -111.998c0 -47.333 -10.333 -90.5 -31 -129.5s-49.334 -69.833 -86.001 -92.5s-78.334 -34 -125.001 -34c-38.667 0 -77.667 9.66699 -117 29l-25 -41l-29 17l26 42c-34.667 29.333 -59.5 61.166 -74.5 95.499
s-22.5 72.166 -22.5 113.499c0 47.333 10.333 90.5 31 129.5s49.334 69.833 86.001 92.5s78.334 34 125.001 34c39.333 0 78.333 -10 117 -30l27 43l28 -18l-26 -43c34 -29.333 58.5 -61.333 73.5 -96zM105.5 154.502c9.66699 -25.667 27.501 -52.167 53.501 -79.5l212 348
c-35.333 17.333 -66.333 26 -93 26c-32.667 0 -63.334 -8.5 -92.001 -25.5s-51.667 -41.333 -69 -73s-26 -68.5 -26 -110.5c0 -31.333 4.83301 -59.833 14.5 -85.5zM369.501 56.502c28.333 17 51.167 41.333 68.5 73s26 68.5 26 110.5c0 61.333 -22 116 -66 164l-212 -348
c34 -16.667 64.667 -25 92 -25c32.667 0 63.167 8.5 91.5 25.5zM295.002 706.002h57l-53 -97h-43z" />
    <glyph glyph-name="uni0218" unicode="&#x218;" horiz-adv-x="562" 
d="M163.5 5c-31.667 14 -59.668 34.6699 -84.001 62.0029s-40.833 56.333 -49.5 87l53 22c9.33301 -34.667 30.5 -66.834 63.5 -96.501s72.167 -44.5 117.5 -44.5c44.667 0 83 12.5 115 37.5s48 59.167 48 102.5c0 38 -13.333 68.833 -40 92.5s-68.667 45.167 -126 64.5
l-45 16c-48.667 17.333 -87.834 39.666 -117.501 66.999s-44.5 64.666 -44.5 111.999c0 31.333 8.5 60.333 25.5 87s41.167 48 72.5 64s66.333 24 105 24s72.334 -7.16699 101.001 -21.5s51.667 -31.666 69 -51.999s27.666 -36.166 30.999 -47.499l-50 -22
c-5.33301 17.333 -21.166 37 -47.499 59s-60.5 33 -102.5 33c-40 0 -74.667 -11.667 -104 -35s-44 -53 -44 -89c0 -32.667 12.333 -58.834 37 -78.501s60 -37.5 106 -53.5l47 -16c58.667 -21.333 103.834 -47.333 135.501 -78s47.5 -72.334 47.5 -125.001
c0 -42.667 -10.833 -78.5 -32.5 -107.5s-49.5 -50.333 -83.5 -64s-69 -20.5 -105 -20.5c-34 0 -66.833 7 -98.5 21zM232.999 -222.997l43.999 63c-23.333 4.66699 -37.666 10.5 -42.999 17.5s-8 15.167 -8 24.5c0 10 3.83301 19.167 11.5 27.5s17.5 12.5 29.5 12.5
c12.667 0 22.667 -4 30 -12s11 -18.333 11 -31c0 -10 -3.33301 -21.667 -10 -35l-52 -76z" />
    <glyph glyph-name="uni0219" unicode="&#x219;" horiz-adv-x="465" 
d="M91.5 20c-33.667 24 -55.498 49.999 -65.498 77.999l49 23c10 -24.667 28.333 -46.167 55 -64.5s56 -27.5 88 -27.5c33.333 0 62.833 7.5 88.5 22.5s38.5 37.5 38.5 67.5c0 26.667 -10.333 47.5 -31 62.5s-50.334 27.5 -89.001 37.5l-60 16
c-38 9.33301 -68.5 24.833 -91.5 46.5s-34.5 49.167 -34.5 82.5c0 26 7.66699 49 23 69s36.5 35.5 63.5 46.5s56.167 16.5 87.5 16.5c41.333 0 77.833 -9 109.5 -27s52.167 -38 61.5 -60l-48 -23c-20.667 42.667 -62 64 -124 64c-29.333 0 -56 -7.66699 -80 -23
s-36 -35.666 -36 -60.999c0 -23.333 8.5 -42 25.5 -56s40.5 -25 70.5 -33l72 -19c46.667 -12 81.167 -29.167 103.5 -51.5s33.5 -49.5 33.5 -81.5c0 -28 -7.83301 -52.667 -23.5 -74s-37.5 -37.833 -65.5 -49.5s-59.333 -17.5 -94 -17.5c-50.667 0 -92.834 12 -126.501 36z
M189.002 -223.001l43 63c-23.333 4.66699 -37.5 10.5 -42.5 17.5s-7.5 15.167 -7.5 24.5c0 10 3.66699 19.167 11 27.5s17.333 12.5 30 12.5s22.667 -4 30 -12s11 -18.333 11 -31c0 -10 -3.33301 -21.667 -10 -35l-51 -77z" />
    <glyph glyph-name="uni021A" unicode="&#x21a;" horiz-adv-x="538" 
d="M227 635h-201v51h456v-51h-200v-635h-55v635zM220 -223l43.999 63c-23.333 4.66699 -37.666 10.5 -42.999 17.5s-8 15.167 -8 24.5c0 10 3.83301 19.167 11.5 27.5s17.5 12.5 29.5 12.5c12.667 0 22.667 -4 30 -12s11 -18.333 11 -31c0 -10 -3.33301 -21.667 -10 -35
l-52 -76z" />
    <glyph glyph-name="uni021B" unicode="&#x21b;" horiz-adv-x="362" 
d="M188.5 1c-15.667 6 -28.833 14 -39.5 24c-22.667 22 -34 53.333 -34 94v314h-87v47h87v144h56v-144h122v-47h-122v-293c0 -31.333 6 -55.333 18 -72c15.333 -18 37 -27 65 -27c22.667 0 36.334 1.66699 41.001 5v-46c-4 -2 -10.333 -3.83301 -19 -5.5
s-20.667 -2.5 -36 -2.5c-18.667 0 -35.834 3 -51.501 9zM182.001 -223l43 63c-23.333 4.66699 -37.5 10.5 -42.5 17.5s-7.5 15.167 -7.5 24.5c0 10 3.66699 19.167 11 27.5s17.333 12.5 30 12.5s22.667 -4 30 -12s11 -18.333 11 -31c0 -10 -3.33301 -21.667 -10 -35l-51 -77
z" />
    <glyph glyph-name="uni0237" unicode="&#x237;" horiz-adv-x="207" 
d="M-17 -223v43c-8.66699 5.33301 -8.16699 6.83301 1.5 4.5s18.167 -3.5 25.5 -3.5c24.667 0 42.667 8.16699 54 24.5s17 38.833 17 67.5v567h56v-567c0 -47.333 -10.833 -82.333 -32.5 -105s-52.167 -34 -91.5 -34c-14.667 0 -24.667 1 -30 3z" />
    <glyph glyph-name="uni0259" unicode="&#x259;" horiz-adv-x="523" 
d="M374.5 463c35.667 -22 63.335 -52.333 83.002 -91s29.5 -82.334 29.5 -131.001c0 -46.667 -9.33301 -89.667 -28 -129s-45.167 -70.5 -79.5 -93.5s-74.166 -34.5 -119.499 -34.5c-46.667 0 -86.834 10.5 -120.501 31.5s-59.334 50 -77.001 87s-26.5 79.5 -26.5 127.5
l1 11h396c-2.66699 52 -12.834 92.333 -30.501 121s-40 50.334 -67 65.001s-55.5 22 -85.5 22c-70 0 -120.667 -29.333 -152 -88l-46 23c14.667 29.333 39.5 55.333 74.5 78s77.167 34 126.5 34c45.333 0 85.833 -11 121.5 -33zM95.001 201
c2 -34 8.66602 -62.668 19.999 -86.001s29.333 -43.166 54 -59.499s55 -24.5 91 -24.5c42.667 0 78.834 14 108.501 42s50.167 70.667 61.5 128h-335z" />
    <glyph glyph-name="circumflex" unicode="&#x2c6;" horiz-adv-x="365" 
d="M72 595l80 91h61l80 -91h-46l-54 63h-22l-53 -63h-46z" />
    <glyph glyph-name="caron" unicode="&#x2c7;" horiz-adv-x="365" 
d="M72 686h46l53 -63h22l54 63h46l-80 -91h-61z" />
    <glyph glyph-name="breve" unicode="&#x2d8;" horiz-adv-x="369" 
d="M131 602.5c-17.333 9.66699 -31.333 22.834 -42 39.501s-16 30 -16 40h39c0 -10.667 6.66699 -23.334 20 -38.001s31.333 -22 54 -22c21.333 0 38.666 7.33301 51.999 22s20 27.334 20 38.001h38c0 -10 -5.16699 -23.333 -15.5 -40s-24 -29.834 -41 -39.501
s-34.833 -14.5 -53.5 -14.5c-19.333 0 -37.666 4.83301 -54.999 14.5z" />
    <glyph glyph-name="dotaccent" unicode="&#x2d9;" horiz-adv-x="197" 
d="M71.5 617c-7.66699 8 -11.5 17.001 -11.5 27.001c0 11.333 3.83301 20.666 11.5 27.999s16.834 11 27.501 11c11.333 0 20.5 -3.66699 27.5 -11s10.5 -16.666 10.5 -27.999c0 -10.667 -3.5 -19.834 -10.5 -27.501s-16.167 -11.5 -27.5 -11.5
c-10.667 0 -19.834 4 -27.501 12z" />
    <glyph glyph-name="ring" unicode="&#x2da;" horiz-adv-x="372" 
d="M123.5 594.5c-17 17 -25.5 37.833 -25.5 62.5c0 25.333 8.5 46.333 25.5 63s37.833 25 62.5 25s45.667 -8.5 63 -25.5s26 -37.833 26 -62.5s-8.66699 -45.5 -26 -62.5s-38.333 -25.5 -63 -25.5s-45.5 8.5 -62.5 25.5zM229.5 612.5c12.333 12.333 18.5 27.168 18.5 44.501
s-6 32 -18 44s-26.667 18 -44 18c-16.667 0 -31.167 -6.16699 -43.5 -18.5s-18.5 -26.833 -18.5 -43.5s6.16699 -31.334 18.5 -44.001s26.833 -19 43.5 -19s31.167 6.16699 43.5 18.5z" />
    <glyph glyph-name="ogonek" unicode="&#x2db;" horiz-adv-x="371" 
d="M118 -196.5c-18.667 18.333 -28 41.499 -28 69.499c0 38 17.667 70.333 53 97h36c-1.33301 -1.33301 -9 -10.333 -23 -27s-21 -36 -21 -58c0 -19.333 6 -35.666 18 -48.999s28 -20 48 -20c16 0 24.333 0.333008 25 1v-38c-4 -2 -14.667 -3 -32 -3
c-32 0 -57.333 9.16699 -76 27.5z" />
    <glyph glyph-name="tilde" unicode="&#x2dc;" horiz-adv-x="368" 
d="M211.5 602.5c-10.333 4.33301 -23.502 11.168 -39.502 20.501c-22 13.333 -38 20 -48 20c-31.333 0 -48 -12.333 -50 -37h-41c0 12.667 4.5 26.167 13.5 40.5s20.833 25.166 35.5 32.499s29 11 43 11c18 0 42 -9.33301 72 -28c22.667 -12.667 38.334 -19 47.001 -19
c31.333 0 48 12.333 50 37h41c0 -22 -9.66699 -41.5 -29 -58.5s-40.666 -25.5 -63.999 -25.5c-10 0 -20.167 2.16699 -30.5 6.5z" />
    <glyph glyph-name="hungarumlaut" unicode="&#x2dd;" horiz-adv-x="389" 
d="M114 686h57l-54 -97h-43zM273 686h57l-54 -97h-43z" />
    <glyph glyph-name="gravecomb" unicode="&#x300;" 
d="M-299 706h58l40 -97h-44z" />
    <glyph glyph-name="acutecomb" unicode="&#x301;" 
d="M-202 706h57l-54 -97h-43z" />
    <glyph glyph-name="uni0302" unicode="&#x302;" 
d="M-323 614l80 92h61l80 -92h-46l-54 64h-22l-53 -64h-46z" />
    <glyph glyph-name="tildecomb" unicode="&#x303;" 
d="M-186.5 622.5c-10.333 4.33301 -23.501 11.167 -39.501 20.5c-22 13.333 -38 20 -48 20c-31.333 0 -48 -12.333 -50 -37h-41c0 22 9.5 41.333 28.5 58s40.167 25 63.5 25c18 0 42 -9.33301 72 -28c22.667 -12.667 38.334 -19 47.001 -19c31.333 0 48 12.333 50 37h41
c0 -22 -9.5 -41.333 -28.5 -58s-40.5 -25 -64.5 -25c-10 0 -20.167 2.16699 -30.5 6.5z" />
    <glyph glyph-name="uni0304" unicode="&#x304;" 
d="M-338 682h247v-37h-247v37z" />
    <glyph glyph-name="uni0306" unicode="&#x306;" 
d="M-268 621.5c-17.333 9.66699 -31.333 22.834 -42 39.501s-16 30.334 -16 41.001h39c0 -10.667 6.66699 -23.5 20 -38.5s31.333 -22.5 54 -22.5c21.333 0 38.666 7.5 51.999 22.5s20 27.833 20 38.5h38c0 -10.667 -5.16699 -24.334 -15.5 -41.001s-24 -29.834 -41 -39.501
s-34.833 -14.5 -53.5 -14.5c-19.333 0 -37.666 4.83301 -54.999 14.5z" />
    <glyph glyph-name="uni0307" unicode="&#x307;" 
d="M-155.5 636.5c-7.66699 7.66699 -11.5 16.834 -11.5 27.501c0 11.333 3.83301 20.5 11.5 27.5s16.834 10.5 27.501 10.5c11.333 0 20.5 -3.5 27.5 -10.5s10.5 -16.167 10.5 -27.5c0 -10.667 -3.5 -19.834 -10.5 -27.501s-16.167 -11.5 -27.5 -11.5
c-10.667 0 -19.834 3.83301 -27.501 11.5z" />
    </font>
</defs>
</svg>
