<svg xmlns="http://www.w3.org/2000/svg" width="29" height="29" viewBox="0 0 29 29">
  <g id="Vector_Smart_Object" data-name="Vector Smart Object" transform="translate(-885 -2281)">
    <g id="Vector_Smart_Object-2" data-name="Vector Smart Object" transform="translate(885 2281)">
      <path id="Path_3296" data-name="Path 3296" d="M20.983,17.09H6.563a.9.9,0,0,1-.9-.9v-5.38a.9.9,0,0,1,.9-.9H23.9a.9.9,0,0,1,.9.9V13.5A.9.9,0,0,1,23,13.5V11.71H7.46V15.3H20.983a.9.9,0,1,1,0,1.793Z" transform="translate(-0.884 -1.547)" fill="#06f"/>
      <path id="Path_3297" data-name="Path 3297" d="M17.419,22.321H6.634a.9.9,0,1,1,0-1.793H17.419a.9.9,0,1,1,0,1.793Z" transform="translate(-0.895 -3.203)" fill="#06f"/>
      <path id="Path_3298" data-name="Path 3298" d="M13.856,26.571H6.634a.9.9,0,1,1,0-1.793h7.222a.9.9,0,1,1,0,1.793Z" transform="translate(-0.895 -3.866)" fill="#06f"/>
      <path id="Path_3299" data-name="Path 3299" d="M17.581,31.276a.9.9,0,0,1-.882-1.053l.634-3.593a.908.908,0,0,1,.249-.478l8.878-8.876a2.4,2.4,0,0,1,1.191-.7,1.663,1.663,0,0,1,1.557.489l1.479,1.479a2.1,2.1,0,0,1,0,2.959L21.809,30.38a.892.892,0,0,1-.478.249l-3.593.634a.984.984,0,0,1-.157.013Zm3.594-1.53h0ZM19.049,27.22l-.362,2.053,2.053-.362,8.677-8.678a.3.3,0,0,0,0-.423l-1.468-1.468c-.012.023-.1.08-.222.2Z" transform="translate(-2.603 -2.58)" fill="#06f"/>
      <path id="Path_3300" data-name="Path 3300" d="M11.753,26.3H3.288A3.291,3.291,0,0,1,0,23.016V3.288A3.291,3.291,0,0,1,3.288,0H25.407A3.291,3.291,0,0,1,28.7,3.288V12A.9.9,0,0,1,26.9,12V3.288a1.5,1.5,0,0,0-1.495-1.495H3.288A1.5,1.5,0,0,0,1.793,3.288V23.016A1.5,1.5,0,0,0,3.288,24.51h8.465a.9.9,0,0,1,0,1.793Z" fill="#06f"/>
      <path id="Path_3301" data-name="Path 3301" d="M27.8,6.752H.9a.9.9,0,1,1,0-1.793H27.8a.9.9,0,1,1,0,1.793Z" transform="translate(0 -0.774)" fill="#06f"/>
    </g>
    <path id="Color_Overlay" data-name="Color Overlay" d="M14.5,28.734a.905.905,0,0,1-.251-.8l.64-3.631a.916.916,0,0,1,.251-.484l8.972-8.971a2.426,2.426,0,0,1,1.2-.706,1.678,1.678,0,0,1,1.573.494l1.495,1.495a2.117,2.117,0,0,1,0,2.991L19.409,28.1a.908.908,0,0,1-.483.25l-3.631.64a.932.932,0,0,1-.159.014A.9.9,0,0,1,14.5,28.734Zm4.285-1.281h-.012ZM25.389,16.13,16.62,24.9l-.366,2.075,2.075-.366L27.1,17.84a.3.3,0,0,0,0-.428l-1.484-1.484C25.6,15.951,25.511,16.009,25.389,16.13ZM3.323,26.584A3.326,3.326,0,0,1,0,23.26V3.323A3.326,3.326,0,0,1,3.323,0H25.677A3.326,3.326,0,0,1,29,3.323v8.809a.906.906,0,0,1-1.812,0V6.041H1.812V23.26a1.512,1.512,0,0,0,1.511,1.51h8.555a.907.907,0,0,1,0,1.813ZM1.812,3.323v.906H27.188V3.323a1.513,1.513,0,0,0-1.511-1.511H3.323A1.513,1.513,0,0,0,1.812,3.323ZM5.8,22.946a.906.906,0,1,1,0-1.812h7.3a.906.906,0,0,1,0,1.812Zm0-3.625a.906.906,0,1,1,0-1.812H16.7a.906.906,0,0,1,0,1.813ZM5.74,15.708a.907.907,0,0,1-.907-.906V9.364a.907.907,0,0,1,.907-.907H23.26a.907.907,0,0,1,.907.907v2.719a.907.907,0,0,1-1.813,0V10.271H6.646V13.9H20.312a.906.906,0,1,1,0,1.812Z" transform="translate(885 2281)" fill="#06f"/>
  </g>
</svg>
