<svg id="Vector_Smart_Object" data-name="Vector Smart Object" xmlns="http://www.w3.org/2000/svg" width="22.281" height="29.251" viewBox="0 0 22.281 29.251">
  <g id="Vector_Smart_Object-2" data-name="Vector Smart Object" transform="translate(0 0)">
    <g id="Group_4556" data-name="Group 4556" transform="translate(0)">
      <path id="Path_3276" data-name="Path 3276" d="M26.508,1.714H19.652V0h-8.57V1.714H4.227V29.251H26.508Zm-13.711,0h5.142V3.428H12.8Zm12,25.823H5.941V3.428h5.142V5.142h8.57V3.428h5.142Z" transform="translate(-4.227)"/>
      <path id="Path_3277" data-name="Path 3277" d="M18.778,8.384h6.856V10.1H18.778Z" transform="translate(-6.78 -1.471)"/>
      <path id="Path_3278" data-name="Path 3278" d="M18.778,12.542h3.428v1.714H18.778Z" transform="translate(-6.78 -2.201)"/>
      <path id="Path_3279" data-name="Path 3279" d="M18.778,16.7h6.856v1.714H18.778Z" transform="translate(-6.78 -2.931)"/>
      <path id="Path_3280" data-name="Path 3280" d="M18.778,20.857h3.428v1.714H18.778Z" transform="translate(-6.78 -3.66)"/>
      <path id="Path_3281" data-name="Path 3281" d="M18.778,25.014h6.856v1.714H18.778Z" transform="translate(-6.78 -4.39)"/>
      <path id="Path_3282" data-name="Path 3282" d="M18.778,29.172h3.428v1.714H18.778Z" transform="translate(-6.78 -5.12)"/>
      <path id="Path_3283" data-name="Path 3283" d="M8.384,13.526h5.142V8.384H8.384ZM10.1,10.1h1.714v1.714H10.1Z" transform="translate(-4.956 -1.471)"/>
      <path id="Path_3284" data-name="Path 3284" d="M8.384,21.841h5.142V16.7H8.384ZM10.1,18.413h1.714v1.714H10.1Z" transform="translate(-4.956 -2.931)"/>
      <path id="Path_3285" data-name="Path 3285" d="M8.384,30.156h5.142V25.014H8.384ZM10.1,26.728h1.714v1.714H10.1Z" transform="translate(-4.956 -4.39)"/>
    </g>
  </g>
  <path id="Color_Overlay" data-name="Color Overlay" d="M0,29.251V1.714H6.855V0h8.57V1.714h6.856V29.251Zm1.714-1.714H20.567V3.427H15.425V5.142H6.855V3.427H1.714ZM8.569,3.427h5.142V1.714H8.569ZM12,25.766V24.052h3.428v1.714Zm-8.569,0V20.624H8.569v5.142Zm1.714-1.714H6.855V22.338H5.142ZM12,22.338V20.624h6.856v1.714Zm0-3.428V17.2h3.428V18.91Zm-8.569,0V13.769H8.569V18.91ZM5.142,17.2H6.855V15.482H5.142ZM12,15.482V13.769h6.856v1.714Zm0-3.428V10.34h3.428v1.714Zm-8.569,0V6.913H8.569v5.142ZM5.142,10.34H6.855V8.626H5.142ZM12,8.626V6.913h6.856V8.626Z" fill="#06f"/>
</svg>
