<svg xmlns="http://www.w3.org/2000/svg" width="39.607" height="40" viewBox="0 0 39.607 40">
  <g id="recruitment" transform="translate(-2.512)">
    <g id="Group_23598" data-name="Group 23598" transform="translate(2.512 0)">
      <path id="Path_11392" data-name="Path 11392" d="M327.192,194.709h-10.1a.586.586,0,0,0,0,1.172h10.1a.586.586,0,1,0,0-1.172Z" transform="translate(-291.972 -179.497)" fill="#06f"/>
      <path id="Path_11393" data-name="Path 11393" d="M327.192,239.922h-10.1a.586.586,0,0,0,0,1.172h10.1a.586.586,0,1,0,0-1.172Z" transform="translate(-291.972 -221.178)" fill="#06f"/>
      <path id="Path_11394" data-name="Path 11394" d="M327.778,285.721a.586.586,0,0,0-.586-.586h-10.1a.586.586,0,0,0,0,1.172h10.1A.586.586,0,0,0,327.778,285.721Z" transform="translate(-291.972 -262.859)" fill="#06f"/>
      <path id="Path_11395" data-name="Path 11395" d="M317.089,330.348a.586.586,0,0,0,0,1.172h5.052a.586.586,0,1,0,0-1.172Z" transform="translate(-291.972 -304.54)" fill="#06f"/>
      <path id="Path_11396" data-name="Path 11396" d="M41.27,6.89,35.23.849A2.9,2.9,0,0,0,33.18,0H13.3a2.9,2.9,0,0,0-2.9,2.9v6a.586.586,0,0,0,1.172,0v-6A1.729,1.729,0,0,1,13.3,1.172H33.18a1.724,1.724,0,0,1,.372.04V6.548a2.022,2.022,0,0,0,2.02,2.02h5.335a1.727,1.727,0,0,1,.041.372V37.1a1.729,1.729,0,0,1-1.727,1.727H31.35a2.641,2.641,0,0,0-.328-3.33l-5.327-5.327a1.368,1.368,0,0,0-1.437-.315l-1.147-1.147A11.369,11.369,0,1,0,20.5,31.316l1.147,1.147a1.368,1.368,0,0,0,.316,1.437l4.927,4.928H13.3A1.729,1.729,0,0,1,11.575,37.1V35.223a.586.586,0,0,0-1.172,0V37.1A2.9,2.9,0,0,0,13.3,40H39.221a2.9,2.9,0,0,0,2.9-2.9V8.94a2.9,2.9,0,0,0-.849-2.05ZM6.665,29.29a10.2,10.2,0,1,1,15.212-.89,10.346,10.346,0,0,1-1.684,1.684A10.2,10.2,0,0,1,6.665,29.29Zm14.761,1.288a11.53,11.53,0,0,0,.948-.948l.965.965-.951.951-.965-.965,0,0Zm6.7,7.822-5.327-5.327a.2.2,0,0,1,0-.277l.008-.008h0L24.59,31a.2.2,0,0,1,.277,0l5.327,5.327A1.465,1.465,0,0,1,28.121,38.4Zm6.6-31.851V2l5.4,5.4H35.572A.849.849,0,0,1,34.724,6.548Z" transform="translate(-2.512 0)" fill="#06f"/>
      <path id="Path_11397" data-name="Path 11397" d="M163.339,48.663H151.715a1.262,1.262,0,0,0-1.26,1.26v2.246a1.262,1.262,0,0,0,1.26,1.26h11.624a1.262,1.262,0,0,0,1.26-1.26V49.923A1.262,1.262,0,0,0,163.339,48.663Zm.088,3.506a.088.088,0,0,1-.088.088H151.715a.088.088,0,0,1-.088-.088V49.923a.088.088,0,0,1,.088-.088h11.624a.088.088,0,0,1,.088.088v2.245Z" transform="translate(-138.897 -44.861)" fill="#06f"/>
      <path id="Path_11398" data-name="Path 11398" d="M48.919,182.495a9.031,9.031,0,1,0-15.313-7.759.586.586,0,0,0,1.158.177,7.859,7.859,0,1,1,13.683,6.371,2.534,2.534,0,0,0-1.268-1.2,11.414,11.414,0,0,0-2.627-.6l0-.74a3.438,3.438,0,0,0,1.361-2.228,1.04,1.04,0,0,0,.639-.965c-.005-.776,0-2.063,0-2.813a1.439,1.439,0,0,0-1.193-1.416,1.438,1.438,0,0,0-1.409-1.158H41.116a2.647,2.647,0,0,0-2.644,2.644v2.753a1.035,1.035,0,0,0,.632.952,3.446,3.446,0,0,0,1.3,2.181l0,.807a11.415,11.415,0,0,0-2.622.619,2.471,2.471,0,0,0-1.19,1.134,7.8,7.8,0,0,1-1.8-3.792.586.586,0,0,0-1.154.2,9.032,9.032,0,0,0,15.283,4.831Zm-7.8-11.158h2.828a.265.265,0,0,1,.264.264.874.874,0,0,0,.873.873h.029a.265.265,0,0,1,.264.264v.314l-.708-.066a3.266,3.266,0,0,0-2,.464,2.073,2.073,0,0,1-1.083.305H39.643v-.946A1.474,1.474,0,0,1,41.116,171.337Zm-1.472,4.1v-.51h1.943a3.244,3.244,0,0,0,1.695-.478,2.086,2.086,0,0,1,1.276-.3l.818.077c0,.361,0,.837,0,1.205a.727.727,0,0,0-.6.673,2.276,2.276,0,0,1-4.542,0A.733.733,0,0,0,39.643,175.438Zm2.866,3.979a3.444,3.444,0,0,0,.872-.112v.327a1,1,0,0,0,.1.426,1.79,1.79,0,0,1-1,.306h-.005a1.79,1.79,0,0,1-.991-.3,1,1,0,0,0,.094-.427v-.35A3.434,3.434,0,0,0,42.509,179.416Zm-5,2.738a1.327,1.327,0,0,1,.754-.964,9.345,9.345,0,0,1,2.133-.5,2.954,2.954,0,0,0,2.077.847h.009a2.954,2.954,0,0,0,2.086-.865,9.342,9.342,0,0,1,2.137.485,1.337,1.337,0,0,1,.809,1.031,7.873,7.873,0,0,1-10.006-.032Z" transform="translate(-31.171 -154.029)" fill="#06f"/>
    </g>
  </g>
</svg>
