<svg xmlns="http://www.w3.org/2000/svg" xmlns:xlink="http://www.w3.org/1999/xlink" width="89.044" height="79" viewBox="0 0 89.044 79">
  <defs>
    <clipPath id="clip-path">
      <rect id="crop" width="89.044" height="79" transform="translate(27.245)" fill="none"/>
    </clipPath>
  </defs>
  <g id="Vector_Smart_Object" data-name="Vector Smart Object" transform="translate(-27.245)" clip-path="url(#clip-path)">
    <g id="Background_Complete" data-name="Background Complete">
      <g id="Group_8823" data-name="Group 8823">
        <g id="Group_8819" data-name="Group 8819">
          <g id="Group_8818" data-name="Group 8818">
            <path id="Path_4936" data-name="Path 4936" d="M130.651,71.2s0-.08,0-.233,0-.379,0-.674c0-.592-.005-1.46-.01-2.575,0-2.228-.012-5.44-.02-9.383l.038.035-24.218.01h0l.049-.045c0,4.553,0,8.9,0,12.865l-.046-.042,17.42.021,5,.012,1.334.005.345,0,.119,0-.113,0-.34,0-1.325.005-4.992.012-17.45.02h-.046V71.2c0-3.961,0-8.312,0-12.865v-.045h.051l24.218.01h.038v.035c-.008,3.952-.015,7.171-.02,9.4,0,1.111-.007,1.977-.01,2.567,0,.292,0,.515,0,.667S130.651,71.2,130.651,71.2Z" fill="#e0e0e0"/>
          </g>
        </g>
        <g id="Group_8821" data-name="Group 8821">
          <g id="Group_8820" data-name="Group 8820">
            <path id="Path_4937" data-name="Path 4937" d="M130.661,59.9c0,.025-5.417.045-12.1.045s-12.1-.02-12.1-.045,5.416-.045,12.1-.045S130.661,59.87,130.661,59.9Z" fill="#e0e0e0"/>
          </g>
        </g>
        <g id="Group_8822" data-name="Group 8822">
          <rect id="Rectangle_436" data-name="Rectangle 436" width="7.481" height="6.869" transform="translate(108.529 62.017)" fill="#f5f5f5"/>
        </g>
      </g>
      <g id="Group_8841" data-name="Group 8841">
        <g id="Group_8824" data-name="Group 8824">
          <ellipse id="Ellipse_339" data-name="Ellipse 339" cx="10.066" cy="9.241" rx="10.066" ry="9.241" transform="translate(46.382 0.956) rotate(-45)" fill="#f5f5f5"/>
        </g>
        <g id="Group_8826" data-name="Group 8826">
          <g id="Group_8825" data-name="Group 8825">
            <path id="Path_4938" data-name="Path 4938" d="M65.187,1.241a2.235,2.235,0,0,1-.356.022l-.978.018c-.83.01-1.987.018-3.292.019H60.5V1.241c0-.192,0-.394,0-.6,0-1.339.007-2.55.019-3.428.008-.423.015-.773.021-1.039a2.147,2.147,0,0,1,.025-.381,2.117,2.117,0,0,1,.025.381c.005.266.012.616.021,1.039.012.877.019,2.089.019,3.428,0,.205,0,.407,0,.6l-.065-.059c1.306,0,2.462.009,3.292.02l.978.018A2.183,2.183,0,0,1,65.187,1.241Z" fill="#e0e0e0"/>
          </g>
        </g>
        <g id="Group_8828" data-name="Group 8828">
          <g id="Group_8827" data-name="Group 8827">
            <path id="Path_4939" data-name="Path 4939" d="M69.431,1.161a5.606,5.606,0,0,1-1.153.06,5.6,5.6,0,0,1-1.153-.06,11.148,11.148,0,0,1,2.306,0Z" fill="#e0e0e0"/>
          </g>
        </g>
        <g id="Group_8830" data-name="Group 8830">
          <g id="Group_8829" data-name="Group 8829">
            <path id="Path_4940" data-name="Path 4940" d="M53.443,1.019a5,5,0,0,1-1.089.06,5,5,0,0,1-1.089-.06A5,5,0,0,1,52.354.96,5,5,0,0,1,53.443,1.019Z" fill="#e0e0e0"/>
          </g>
        </g>
        <g id="Group_8832" data-name="Group 8832">
          <g id="Group_8831" data-name="Group 8831">
            <path id="Path_4941" data-name="Path 4941" d="M54.574,3.991a4.648,4.648,0,0,1-.823.685,4.8,4.8,0,0,1-.9.592,4.648,4.648,0,0,1,.823-.685A4.826,4.826,0,0,1,54.574,3.991Z" fill="#e0e0e0"/>
          </g>
        </g>
        <g id="Group_8834" data-name="Group 8834">
          <g id="Group_8833" data-name="Group 8833">
            <path id="Path_4942" data-name="Path 4942" d="M57.363,6.289a6.668,6.668,0,0,1-.56.891,6.724,6.724,0,0,1-.594.872,3.239,3.239,0,0,1,.483-.934A3.41,3.41,0,0,1,57.363,6.289Z" fill="#e0e0e0"/>
          </g>
        </g>
        <g id="Group_8836" data-name="Group 8836">
          <g id="Group_8835" data-name="Group 8835">
            <path id="Path_4943" data-name="Path 4943" d="M60.591,9.253a4.355,4.355,0,0,1-.065-1.059,4.352,4.352,0,0,1,.065-1.058,4.352,4.352,0,0,1,.065,1.058A4.355,4.355,0,0,1,60.591,9.253Z" fill="#e0e0e0"/>
          </g>
        </g>
        <g id="Group_8838" data-name="Group 8838">
          <g id="Group_8837" data-name="Group 8837">
            <path id="Path_4944" data-name="Path 4944" d="M65.561,7.842a3.412,3.412,0,0,1-.951-.6,3.191,3.191,0,0,1-.775-.783,10.453,10.453,0,0,1,.861.693A10.391,10.391,0,0,1,65.561,7.842Z" fill="#e0e0e0"/>
          </g>
        </g>
        <g id="Group_8840" data-name="Group 8840">
          <g id="Group_8839" data-name="Group 8839">
            <path id="Path_4945" data-name="Path 4945" d="M67.894,5.536a3.95,3.95,0,0,1-.764-.616,3.765,3.765,0,0,1-.671-.7,3.951,3.951,0,0,1,.763.616A3.773,3.773,0,0,1,67.894,5.536Z" fill="#e0e0e0"/>
          </g>
        </g>
      </g>
      <g id="Group_8844" data-name="Group 8844" opacity="0.8">
        <g id="Group_8843" data-name="Group 8843">
          <g id="Group_8842" data-name="Group 8842">
            <path id="Path_4946" data-name="Path 4946" d="M115.366-3.778a6.7,6.7,0,0,1,1.448.937l1.547-.506,1.454,2.107L118.657-.171a5.665,5.665,0,0,1,.3,1.6l1.483.647-.6,2.434-1.642,0a6.132,6.132,0,0,1-1.02,1.329l.551,1.421-2.3,1.335-1.164-1.064a7.191,7.191,0,0,1-1.746.279l-.7,1.361-2.652-.546,0-1.507a6.671,6.671,0,0,1-1.448-.937l-1.548.506-1.454-2.108,1.159-1.068a5.68,5.68,0,0,1-.3-1.6L104.1,1.268l.595-2.434,1.642,0a6.133,6.133,0,0,1,1.02-1.33L106.8-3.919l2.3-1.335,1.164,1.064a7.2,7.2,0,0,1,1.746-.279l.7-1.361,2.651.546,0,1.507ZM113.028-.913a2.928,2.928,0,0,0-3.482,2.026,2.682,2.682,0,0,0,2.206,3.2,2.928,2.928,0,0,0,3.482-2.026A2.681,2.681,0,0,0,113.028-.913Z" fill="#ebebeb" fill-rule="evenodd"/>
          </g>
        </g>
      </g>
      <g id="Group_8845" data-name="Group 8845">
        <path id="Path_4947" data-name="Path 4947" d="M37.443,17.637h17.2s-1.522-2.542-5.95-2.172c-4.229.353-4.444-1.25-6.6-1.448S38.16,15.333,37.443,17.637Z" fill="#f5f5f5"/>
      </g>
      <g id="Group_8846" data-name="Group 8846">
        <path id="Path_4948" data-name="Path 4948" d="M74.678,46.354H88.6S87.372,44.3,83.788,44.6c-3.424.286-3.6-1.012-5.338-1.172A3.717,3.717,0,0,0,74.678,46.354Z" fill="#f5f5f5"/>
      </g>
    </g>
    <g id="Floor">
      <g id="Group_8847" data-name="Group 8847">
        <path id="Path_4949" data-name="Path 4949" d="M134.3,77.9c0,.031-23.967.056-53.524.056s-53.529-.025-53.529-.056,23.962-.056,53.529-.056S134.3,77.871,134.3,77.9Z" fill="#263238"/>
      </g>
    </g>
    <g id="Screens">
      <g id="Group_8870" data-name="Group 8870">
        <g id="Group_8851" data-name="Group 8851">
          <g id="Group_8848" data-name="Group 8848">
            <rect id="Rectangle_437" data-name="Rectangle 437" width="33.79" height="20.771" transform="translate(94.706 13.909)" fill="#fff"/>
          </g>
          <g id="Group_8850" data-name="Group 8850">
            <g id="Group_8849" data-name="Group 8849">
              <path id="Path_4950" data-name="Path 4950" d="M128.5,34.68s0-.13-.005-.378l-.005-1.1c0-.961-.007-2.372-.012-4.177-.006-3.609-.015-8.8-.025-15.12l.048.044-33.787.011h0l.06-.056c0,7.4,0,14.436,0,20.771l-.056-.051,24.343.025,6.955.014,1.85.006.478,0c.107,0,.164,0,.164,0l-.157,0-.471,0-1.839.006-6.942.014-24.38.025h-.055V34.68c0-6.335,0-13.371-.005-20.771v-.056h.063l33.787.011h.048v.044c-.011,6.336-.019,11.532-.026,15.147-.005,1.8-.009,3.208-.012,4.168,0,.476,0,.84-.005,1.087S128.5,34.68,128.5,34.68Z" fill="#276ef1"/>
            </g>
          </g>
        </g>
        <g id="Group_8853" data-name="Group 8853">
          <g id="Group_8852" data-name="Group 8852">
            <path id="Path_4951" data-name="Path 4951" d="M94.706,15.763c0-.031,7.558-.056,16.88-.056s16.882.025,16.882.056-7.557.056-16.882.056S94.706,15.793,94.706,15.763Z" fill="#276ef1"/>
          </g>
        </g>
        <g id="Group_8857" data-name="Group 8857">
          <g id="Group_8854" data-name="Group 8854" opacity="0.3">
            <path id="Path_4952" data-name="Path 4952" d="M96.039,14.827a.272.272,0,1,1-.271-.249A.261.261,0,0,1,96.039,14.827Z" fill="#276ef1"/>
          </g>
          <g id="Group_8855" data-name="Group 8855" opacity="0.3">
            <path id="Path_4953" data-name="Path 4953" d="M96.967,14.827a.272.272,0,1,1-.271-.249A.261.261,0,0,1,96.967,14.827Z" fill="#276ef1"/>
          </g>
          <g id="Group_8856" data-name="Group 8856" opacity="0.3">
            <path id="Path_4954" data-name="Path 4954" d="M97.882,14.827a.272.272,0,1,1-.271-.249A.26.26,0,0,1,97.882,14.827Z" fill="#276ef1"/>
          </g>
        </g>
        <g id="Group_8858" data-name="Group 8858" opacity="0.3">
          <rect id="Rectangle_438" data-name="Rectangle 438" width="9.013" height="8.275" transform="translate(97.611 17.929)" fill="#276ef1"/>
        </g>
        <g id="Group_8860" data-name="Group 8860">
          <g id="Group_8859" data-name="Group 8859">
            <path id="Path_4955" data-name="Path 4955" d="M123.862,20.268c0,.031-3.515.056-7.851.056s-7.851-.025-7.851-.056,3.515-.056,7.851-.056S123.862,20.237,123.862,20.268Z" fill="#276ef1"/>
          </g>
        </g>
        <g id="Group_8862" data-name="Group 8862">
          <g id="Group_8861" data-name="Group 8861">
            <path id="Path_4956" data-name="Path 4956" d="M123.862,21.805c0,.031-3.515.056-7.851.056s-7.851-.025-7.851-.056,3.515-.056,7.851-.056S123.862,21.775,123.862,21.805Z" fill="#276ef1"/>
          </g>
        </g>
        <g id="Group_8864" data-name="Group 8864">
          <g id="Group_8863" data-name="Group 8863">
            <path id="Path_4957" data-name="Path 4957" d="M123.862,23.343c0,.031-3.515.056-7.851.056s-7.851-.025-7.851-.056,3.515-.056,7.851-.056S123.862,23.312,123.862,23.343Z" fill="#276ef1"/>
          </g>
        </g>
        <g id="Group_8866" data-name="Group 8866">
          <g id="Group_8865" data-name="Group 8865">
            <path id="Path_4958" data-name="Path 4958" d="M117.44,24.881a2.3,2.3,0,0,1-.365.022l-.995.018c-.84.01-2,.016-3.281.016s-2.442-.006-3.281-.016l-.994-.018a2.294,2.294,0,0,1-.365-.022,2.293,2.293,0,0,1,.365-.022l.994-.018c.84-.01,2-.016,3.281-.016s2.441.006,3.281.016l.995.018A2.3,2.3,0,0,1,117.44,24.881Z" fill="#276ef1"/>
          </g>
        </g>
        <g id="Group_8867" data-name="Group 8867" opacity="0.3">
          <rect id="Rectangle_439" data-name="Rectangle 439" width="4.236" height="3.889" transform="translate(98.175 28.994)" fill="#276ef1"/>
        </g>
        <g id="Group_8868" data-name="Group 8868" opacity="0.3">
          <rect id="Rectangle_440" data-name="Rectangle 440" width="4.236" height="3.889" transform="translate(105.857 28.994)" fill="#276ef1"/>
        </g>
        <g id="Group_8869" data-name="Group 8869" opacity="0.3">
          <rect id="Rectangle_441" data-name="Rectangle 441" width="4.236" height="3.889" transform="translate(113.539 28.994)" fill="#276ef1"/>
        </g>
      </g>
      <g id="Group_8889" data-name="Group 8889">
        <g id="Group_8874" data-name="Group 8874">
          <g id="Group_8871" data-name="Group 8871">
            <rect id="Rectangle_442" data-name="Rectangle 442" width="30.101" height="11.225" transform="translate(32.91 21.392)" fill="#fff"/>
          </g>
          <g id="Group_8873" data-name="Group 8873">
            <g id="Group_8872" data-name="Group 8872">
              <path id="Path_4959" data-name="Path 4959" d="M63.011,32.617s0-.069,0-.2,0-.328,0-.582c0-.512,0-1.265-.008-2.234,0-1.937-.01-4.74-.018-8.208l.033.031-30.1.013h0l.047-.044c0,3.931,0,7.725,0,11.225l-.046-.042,21.581.02,6.261.012,1.676.005.434,0,.149,0-.144,0-.428,0-1.666.005-6.25.012-21.613.02h-.046v-.042c0-3.5,0-7.294,0-11.225v-.044h.05l30.1.013h.033v.031c-.008,3.476-.014,6.285-.018,8.227,0,.966-.007,1.717-.008,2.227,0,.252,0,.445,0,.577S63.011,32.617,63.011,32.617Z" fill="#276ef1"/>
            </g>
          </g>
        </g>
        <g id="Group_8876" data-name="Group 8876">
          <g id="Group_8875" data-name="Group 8875">
            <path id="Path_4960" data-name="Path 4960" d="M32.94,22.905c0-.024,6.728-.044,15.026-.044s15.027.02,15.027.044-6.727.044-15.027.044S32.94,22.93,32.94,22.905Z" fill="#276ef1"/>
          </g>
        </g>
        <g id="Group_8880" data-name="Group 8880">
          <g id="Group_8877" data-name="Group 8877" opacity="0.3">
            <path id="Path_4961" data-name="Path 4961" d="M34.2,22.229a.219.219,0,1,1-.218-.2A.21.21,0,0,1,34.2,22.229Z" fill="#276ef1"/>
          </g>
          <g id="Group_8878" data-name="Group 8878" opacity="0.3">
            <path id="Path_4962" data-name="Path 4962" d="M34.949,22.229a.219.219,0,1,1-.218-.2A.21.21,0,0,1,34.949,22.229Z" fill="#276ef1"/>
          </g>
          <g id="Group_8879" data-name="Group 8879" opacity="0.3">
            <path id="Path_4963" data-name="Path 4963" d="M35.687,22.229a.219.219,0,1,1-.219-.2A.21.21,0,0,1,35.687,22.229Z" fill="#276ef1"/>
          </g>
        </g>
        <g id="Group_8881" data-name="Group 8881" opacity="0.3">
          <rect id="Rectangle_443" data-name="Rectangle 443" width="7.271" height="6.675" transform="translate(35.468 24.73)" fill="#276ef1"/>
        </g>
        <g id="Group_8888" data-name="Group 8888">
          <g id="Group_8883" data-name="Group 8883">
            <g id="Group_8882" data-name="Group 8882">
              <path id="Path_4964" data-name="Path 4964" d="M60.928,26.519c0,.024-3.741.044-8.355.044s-8.356-.02-8.356-.044,3.741-.044,8.356-.044S60.928,26.495,60.928,26.519Z" fill="#276ef1"/>
            </g>
          </g>
          <g id="Group_8885" data-name="Group 8885">
            <g id="Group_8884" data-name="Group 8884">
              <path id="Path_4965" data-name="Path 4965" d="M60.928,27.878c0,.024-3.741.044-8.355.044s-8.356-.019-8.356-.044,3.741-.044,8.356-.044S60.928,27.854,60.928,27.878Z" fill="#276ef1"/>
            </g>
          </g>
          <g id="Group_8887" data-name="Group 8887">
            <g id="Group_8886" data-name="Group 8886">
              <path id="Path_4966" data-name="Path 4966" d="M54.974,29.238a.514.514,0,0,1-.109.009l-.313.008-1.153.014-3.8.013-3.8-.013-1.153-.014-.313-.008a.516.516,0,0,1-.109-.009.523.523,0,0,1,.109-.009l.313-.008,1.153-.014,3.8-.013,3.8.013,1.153.014.313.008A.521.521,0,0,1,54.974,29.238Z" fill="#276ef1"/>
            </g>
          </g>
        </g>
      </g>
    </g>
    <g id="Rocket">
      <path id="Path_4967" data-name="Path 4967" d="M85.129,7.286a1.7,1.7,0,0,0-1.7.187,8.474,8.474,0,0,1-1.5.934c-1.062.379-2.453-.07-3.278.651-.524.458-.577,1.209-.977,1.761-.674.931-2.291,1.281-2.43,2.391A1.46,1.46,0,0,0,76.4,14.661a2.669,2.669,0,0,0,2.024-.371,9.489,9.489,0,0,1,2.021-1.311c.8-.245,1.8-.04,2.432-.556s.54-1.464.995-2.122a4.487,4.487,0,0,1,.966-.866,1.72,1.72,0,0,0,.725-1.019c.057-.412-.127-1.114-.435-1.13" fill="#f5f5f5"/>
      <g id="Group_8934" data-name="Group 8934">
        <g id="Group_8890" data-name="Group 8890">
          <path id="Path_4968" data-name="Path 4968" d="M72.024,52.65c.029-.016.123.07.211.193s.137.236.109.254-.122-.069-.21-.193S72,52.666,72.024,52.65Z" fill="#263238"/>
        </g>
        <g id="Group_8891" data-name="Group 8891">
          <path id="Path_4969" data-name="Path 4969" d="M71.027,50.724a1.327,1.327,0,0,1,.277.473,1.256,1.256,0,0,1,.165.515c-.03.013-.154-.2-.277-.473A1.234,1.234,0,0,1,71.027,50.724Z" fill="#263238"/>
        </g>
        <g id="Group_8892" data-name="Group 8892">
          <path id="Path_4970" data-name="Path 4970" d="M70.487,48.648a1.271,1.271,0,0,1,.166.515,1.24,1.24,0,0,1,.047.536,1.248,1.248,0,0,1-.166-.515A1.216,1.216,0,0,1,70.487,48.648Z" fill="#263238"/>
        </g>
        <g id="Group_8893" data-name="Group 8893">
          <path id="Path_4971" data-name="Path 4971" d="M70.406,46.515a2.38,2.38,0,0,1-.016,1.068,2.389,2.389,0,0,1,.016-1.068Z" fill="#263238"/>
        </g>
        <g id="Group_8894" data-name="Group 8894">
          <path id="Path_4972" data-name="Path 4972" d="M70.782,44.409a1.247,1.247,0,0,1-.063.534,1.275,1.275,0,0,1-.182.511,1.215,1.215,0,0,1,.064-.534A1.25,1.25,0,0,1,70.782,44.409Z" fill="#263238"/>
        </g>
        <g id="Group_8895" data-name="Group 8895">
          <path id="Path_4973" data-name="Path 4973" d="M71.618,42.419a1.27,1.27,0,0,1-.183.51,1.341,1.341,0,0,1-.293.465,1.237,1.237,0,0,1,.183-.51C71.457,42.613,71.589,42.4,71.618,42.419Z" fill="#263238"/>
        </g>
        <g id="Group_8896" data-name="Group 8896">
          <path id="Path_4974" data-name="Path 4974" d="M72.9,40.64c.026.019-.107.226-.3.462a1.513,1.513,0,0,1-.394.4c-.031-.019.1-.225.3-.463S72.874,40.62,72.9,40.64Z" fill="#263238"/>
        </g>
        <g id="Group_8897" data-name="Group 8897">
          <path id="Path_4975" data-name="Path 4975" d="M74.463,39.058c.024.022-.136.212-.357.425s-.421.369-.445.349.135-.211.357-.425S74.44,39.036,74.463,39.058Z" fill="#263238"/>
        </g>
        <g id="Group_8898" data-name="Group 8898">
          <path id="Path_4976" data-name="Path 4976" d="M76.1,37.54c.024.021-.139.209-.365.419s-.428.363-.452.341.14-.209.365-.419A1.444,1.444,0,0,1,76.1,37.54Z" fill="#263238"/>
        </g>
        <g id="Group_8899" data-name="Group 8899">
          <path id="Path_4977" data-name="Path 4977" d="M77.63,35.93c.027.018-.117.219-.322.448s-.391.4-.416.378.119-.221.322-.448S77.6,35.911,77.63,35.93Z" fill="#263238"/>
        </g>
        <g id="Group_8900" data-name="Group 8900">
          <path id="Path_4978" data-name="Path 4978" d="M78.817,34.1a1.082,1.082,0,0,1-.2.508c-.149.265-.31.457-.338.441a1.492,1.492,0,0,1,.23-.492C78.661,34.294,78.785,34.085,78.817,34.1Z" fill="#263238"/>
        </g>
        <g id="Group_8901" data-name="Group 8901">
          <path id="Path_4979" data-name="Path 4979" d="M79.383,32.033a1.037,1.037,0,0,1-.013.539,1.067,1.067,0,0,1-.178.514,1.507,1.507,0,0,1,.059-.532A1.528,1.528,0,0,1,79.383,32.033Z" fill="#263238"/>
        </g>
        <g id="Group_8902" data-name="Group 8902">
          <path id="Path_4980" data-name="Path 4980" d="M79.21,29.911a1.063,1.063,0,0,1,.172.515,1.039,1.039,0,0,1,.006.539,1.53,1.53,0,0,1-.126-.522A1.511,1.511,0,0,1,79.21,29.911Z" fill="#263238"/>
        </g>
        <g id="Group_8903" data-name="Group 8903">
          <path id="Path_4981" data-name="Path 4981" d="M78.3,27.958c.027-.017.2.169.351.432a1.048,1.048,0,0,1,.2.507c-.032.012-.155-.2-.305-.455S78.268,27.975,78.3,27.958Z" fill="#263238"/>
        </g>
        <g id="Group_8904" data-name="Group 8904">
          <path id="Path_4982" data-name="Path 4982" d="M76.673,26.442a1.228,1.228,0,0,1,.5.28c.25.191.413.384.389.4a1.885,1.885,0,0,1-.467-.319C76.855,26.62,76.655,26.469,76.673,26.442Z" fill="#263238"/>
        </g>
        <g id="Group_8905" data-name="Group 8905">
          <path id="Path_4983" data-name="Path 4983" d="M74.559,25.576a1.3,1.3,0,0,1,.578.1,1.236,1.236,0,0,1,.522.248,1.96,1.96,0,0,1-.561-.143A1.928,1.928,0,0,1,74.559,25.576Z" fill="#263238"/>
        </g>
        <g id="Group_8906" data-name="Group 8906">
          <path id="Path_4984" data-name="Path 4984" d="M72.248,25.479a1.255,1.255,0,0,1,.576-.111,1.277,1.277,0,0,1,.585.054,2.056,2.056,0,0,1-.579.057A2.084,2.084,0,0,1,72.248,25.479Z" fill="#263238"/>
        </g>
        <g id="Group_8907" data-name="Group 8907">
          <path id="Path_4985" data-name="Path 4985" d="M70.1,26.264c-.019-.024.18-.186.468-.327a1.227,1.227,0,0,1,.556-.177,2,2,0,0,1-.5.275A2.026,2.026,0,0,1,70.1,26.264Z" fill="#263238"/>
        </g>
        <g id="Group_8908" data-name="Group 8908">
          <path id="Path_4986" data-name="Path 4986" d="M68.506,27.8c-.028-.015.085-.236.285-.472s.4-.392.427-.371-.137.208-.332.439S68.535,27.815,68.506,27.8Z" fill="#263238"/>
        </g>
        <g id="Group_8909" data-name="Group 8909">
          <path id="Path_4987" data-name="Path 4987" d="M67.722,29.794a.968.968,0,0,1,.045-.539,1.026,1.026,0,0,1,.227-.5,1.668,1.668,0,0,1-.11.524A1.73,1.73,0,0,1,67.722,29.794Z" fill="#263238"/>
        </g>
        <g id="Group_8910" data-name="Group 8910">
          <path id="Path_4988" data-name="Path 4988" d="M68,31.9a1.03,1.03,0,0,1-.227-.5.973.973,0,0,1-.047-.538,1.717,1.717,0,0,1,.165.512A1.65,1.65,0,0,1,68,31.9Z" fill="#263238"/>
        </g>
        <g id="Group_8911" data-name="Group 8911">
          <path id="Path_4989" data-name="Path 4989" d="M69.178,33.726c-.025.02-.217-.147-.407-.389s-.3-.464-.271-.479.183.177.369.414S69.2,33.706,69.178,33.726Z" fill="#263238"/>
        </g>
        <g id="Group_8912" data-name="Group 8912">
          <path id="Path_4990" data-name="Path 4990" d="M70.891,35.166a1.319,1.319,0,0,1-.5-.281c-.252-.186-.427-.369-.4-.391a1.712,1.712,0,0,1,.48.3C70.714,34.983,70.91,35.14,70.891,35.166Z" fill="#263238"/>
        </g>
        <g id="Group_8913" data-name="Group 8913">
          <path id="Path_4991" data-name="Path 4991" d="M72.907,36.227a1.52,1.52,0,0,1-.546-.192,1.447,1.447,0,0,1-.491-.292,1.557,1.557,0,0,1,.546.193A1.481,1.481,0,0,1,72.907,36.227Z" fill="#263238"/>
        </g>
        <g id="Group_8914" data-name="Group 8914">
          <path id="Path_4992" data-name="Path 4992" d="M75.12,36.874a1.381,1.381,0,0,1-.583-.063,1.341,1.341,0,0,1-.544-.2,1.813,1.813,0,0,1,.574.094A1.79,1.79,0,0,1,75.12,36.874Z" fill="#263238"/>
        </g>
        <g id="Group_8915" data-name="Group 8915">
          <path id="Path_4993" data-name="Path 4993" d="M77.436,36.983a1.324,1.324,0,0,1-.58.086A1.34,1.34,0,0,1,76.274,37a1.9,1.9,0,0,1,.58-.046A1.929,1.929,0,0,1,77.436,36.983Z" fill="#263238"/>
        </g>
        <g id="Group_8916" data-name="Group 8916">
          <path id="Path_4994" data-name="Path 4994" d="M79.675,36.434a1.251,1.251,0,0,1-.518.253,1.313,1.313,0,0,1-.576.107,1.88,1.88,0,0,1,.535-.212A1.918,1.918,0,0,1,79.675,36.434Z" fill="#263238"/>
        </g>
        <g id="Group_8917" data-name="Group 8917">
          <path id="Path_4995" data-name="Path 4995" d="M81.615,35.268c.022.022-.154.2-.412.384a1.283,1.283,0,0,1-.511.266c-.018-.026.185-.175.437-.354A1.758,1.758,0,0,1,81.615,35.268Z" fill="#263238"/>
        </g>
        <g id="Group_8918" data-name="Group 8918">
          <path id="Path_4996" data-name="Path 4996" d="M83.129,33.652c.028.016-.091.233-.286.471s-.388.4-.413.383.125-.215.316-.45S83.1,33.635,83.129,33.652Z" fill="#263238"/>
        </g>
        <g id="Group_8919" data-name="Group 8919">
          <path id="Path_4997" data-name="Path 4997" d="M84.136,31.732a1.077,1.077,0,0,1-.144.523,1.147,1.147,0,0,1-.292.468,1.48,1.48,0,0,1,.179-.509A1.533,1.533,0,0,1,84.136,31.732Z" fill="#263238"/>
        </g>
        <g id="Group_8920" data-name="Group 8920">
          <path id="Path_4998" data-name="Path 4998" d="M84.587,29.64a1.085,1.085,0,0,1,0,.539,1.107,1.107,0,0,1-.155.52,1.41,1.41,0,0,1,.035-.534A1.433,1.433,0,0,1,84.587,29.64Z" fill="#263238"/>
        </g>
        <g id="Group_8921" data-name="Group 8921">
          <path id="Path_4999" data-name="Path 4999" d="M84.527,27.507a1.233,1.233,0,0,1,.105.528,1.213,1.213,0,0,1-.016.537,1.253,1.253,0,0,1-.105-.528A1.236,1.236,0,0,1,84.527,27.507Z" fill="#263238"/>
        </g>
        <g id="Group_8922" data-name="Group 8922">
          <path id="Path_5000" data-name="Path 5000" d="M84.022,25.423a1.266,1.266,0,0,1,.21.5,1.217,1.217,0,0,1,.094.53,1.288,1.288,0,0,1-.21-.5A1.25,1.25,0,0,1,84.022,25.423Z" fill="#263238"/>
        </g>
        <g id="Group_8923" data-name="Group 8923">
          <path id="Path_5001" data-name="Path 5001" d="M83.131,23.45c.029-.014.17.19.31.457a1.249,1.249,0,0,1,.18.512,1.324,1.324,0,0,1-.29-.465A1.278,1.278,0,0,1,83.131,23.45Z" fill="#263238"/>
        </g>
        <g id="Group_8924" data-name="Group 8924">
          <path id="Path_5002" data-name="Path 5002" d="M81.987,21.589c.029-.016.184.178.347.433s.271.474.242.489-.184-.179-.347-.433A1.273,1.273,0,0,1,81.987,21.589Z" fill="#263238"/>
        </g>
        <g id="Group_8925" data-name="Group 8925">
          <path id="Path_5003" data-name="Path 5003" d="M80.832,19.735c.03-.014.18.183.335.441a1.275,1.275,0,0,1,.229.494c-.029.015-.179-.182-.335-.441S80.8,19.749,80.832,19.735Z" fill="#263238"/>
        </g>
        <g id="Group_8926" data-name="Group 8926">
          <path id="Path_5004" data-name="Path 5004" d="M79.924,17.771a1.315,1.315,0,0,1,.26.481,1.251,1.251,0,0,1,.146.519,1.289,1.289,0,0,1-.26-.481A1.227,1.227,0,0,1,79.924,17.771Z" fill="#263238"/>
        </g>
        <g id="Group_8927" data-name="Group 8927">
          <path id="Path_5005" data-name="Path 5005" d="M79.528,15.671a1.45,1.45,0,0,1,.1.527,1.441,1.441,0,0,1,.02.535,1.088,1.088,0,0,1-.14-.523A1.074,1.074,0,0,1,79.528,15.671Z" fill="#263238"/>
        </g>
        <g id="Group_8928" data-name="Group 8928">
          <path id="Path_5006" data-name="Path 5006" d="M79.72,13.547a1.435,1.435,0,0,1-.042.534,1.451,1.451,0,0,1-.126.523,1.076,1.076,0,0,1,.007-.539A1.1,1.1,0,0,1,79.72,13.547Z" fill="#263238"/>
        </g>
        <g id="Group_8929" data-name="Group 8929">
          <path id="Path_5007" data-name="Path 5007" d="M80.478,11.532a1.474,1.474,0,0,1-.185.507,1.518,1.518,0,0,1-.263.478A1.087,1.087,0,0,1,80.181,12,1.153,1.153,0,0,1,80.478,11.532Z" fill="#263238"/>
        </g>
        <g id="Group_8930" data-name="Group 8930">
          <path id="Path_5008" data-name="Path 5008" d="M81.775,9.764c.025.021-.128.214-.323.445s-.361.416-.389.4.094-.232.293-.467S81.751,9.743,81.775,9.764Z" fill="#263238"/>
        </g>
        <g id="Group_8931" data-name="Group 8931">
          <path id="Path_5009" data-name="Path 5009" d="M83.521,8.358c.019.026-.182.178-.435.357a1.722,1.722,0,0,1-.487.3c-.022-.022.156-.2.413-.383A1.31,1.31,0,0,1,83.521,8.358Z" fill="#263238"/>
        </g>
        <g id="Group_8932" data-name="Group 8932">
          <path id="Path_5010" data-name="Path 5010" d="M85.591,7.392a1.745,1.745,0,0,1-.517.247,1.807,1.807,0,0,1-.551.176,1.284,1.284,0,0,1,.5-.278A1.359,1.359,0,0,1,85.591,7.392Z" fill="#263238"/>
        </g>
        <g id="Group_8933" data-name="Group 8933">
          <path id="Path_5011" data-name="Path 5011" d="M87.278,7c0,.03-.118.076-.275.1s-.29.024-.3-.006.116-.076.275-.1S87.273,6.97,87.278,7Z" fill="#263238"/>
        </g>
      </g>
      <g id="Group_8939" data-name="Group 8939">
        <path id="Path_5012" data-name="Path 5012" d="M92.024.713A8.165,8.165,0,0,1,98.536.08a6.089,6.089,0,0,1-2.721,5.158" fill="#276ef1"/>
        <path id="Path_5013" data-name="Path 5013" d="M83.413,6.022c.116.16,3.081,4.536,3.081,4.536l8.9-5.035a2.725,2.725,0,0,0,.869-4.138h0a3.3,3.3,0,0,0-4.24-.672Z" fill="#276ef1"/>
        <path id="Path_5014" data-name="Path 5014" d="M86.493,10.558l-.2,3.079s5.769-2.565,4.329-5.414Z" fill="#263238"/>
        <path id="Path_5015" data-name="Path 5015" d="M87.536,3.48S83.625,1.9,80.4,4.219l3.009,1.8Z" fill="#263238"/>
        <path id="Path_5016" data-name="Path 5016" d="M87.508,6.024l-5.567,3.2s.191.55.341.5c.125-.038,4.308-2.306,5.665-3.042a.367.367,0,0,0,.109-.576h0A.447.447,0,0,0,87.508,6.024Z" fill="#263238"/>
        <g id="Group_8936" data-name="Group 8936">
          <ellipse id="Ellipse_340" data-name="Ellipse 340" cx="1.782" cy="1.636" rx="1.782" ry="1.636" transform="matrix(0.229, -0.973, 0.973, 0.229, 90.493, 4.82)" fill="#fafafa"/>
          <g id="Group_8935" data-name="Group 8935">
            <path id="Path_5017" data-name="Path 5017" d="M94.418,3.6c-.014,0-.007-.146-.079-.394a1.631,1.631,0,0,0-.651-.875,1.813,1.813,0,0,0-.733-.293,1.891,1.891,0,0,0-.908.073,1.7,1.7,0,0,0-.8.554,1.475,1.475,0,0,0,0,1.87,1.7,1.7,0,0,0,.8.554,1.89,1.89,0,0,0,.908.073,1.815,1.815,0,0,0,.733-.293A1.63,1.63,0,0,0,94.339,4c.072-.248.065-.395.079-.394a.34.34,0,0,1,.006.105,1.183,1.183,0,0,1-.039.3,1.615,1.615,0,0,1-.645.927,1.879,1.879,0,0,1-.766.321,1.988,1.988,0,0,1-.965-.068,1.807,1.807,0,0,1-.857-.586,1.568,1.568,0,0,1,0-2,1.809,1.809,0,0,1,.857-.585,1.987,1.987,0,0,1,.964-.067,1.879,1.879,0,0,1,.766.321,1.615,1.615,0,0,1,.645.927,1.185,1.185,0,0,1,.039.3A.339.339,0,0,1,94.418,3.6Z" fill="#263238"/>
          </g>
        </g>
        <g id="Group_8937" data-name="Group 8937">
          <path id="Path_5018" data-name="Path 5018" d="M96.588,4.692c-.023,0-.05-.318-.186-.815a5.884,5.884,0,0,0-.31-.852,6.591,6.591,0,0,0-.557-.973,6.891,6.891,0,0,0-.737-.866,6.623,6.623,0,0,0-.719-.61C93.642.257,93.336.1,93.347.084a1,1,0,0,1,.222.1,2.549,2.549,0,0,1,.248.135c.093.057.2.117.315.2a5.894,5.894,0,0,1,.748.6,6.388,6.388,0,0,1,.757.877,6.089,6.089,0,0,1,.559.994,5.167,5.167,0,0,1,.29.873,3.421,3.421,0,0,1,.067.345,2.05,2.05,0,0,1,.032.263A.8.8,0,0,1,96.588,4.692Z" fill="#263238"/>
        </g>
        <g id="Group_8938" data-name="Group 8938">
          <path id="Path_5019" data-name="Path 5019" d="M96.108,4.928c-.023,0-.051-.323-.19-.829a6.048,6.048,0,0,0-.314-.867,6.789,6.789,0,0,0-.564-.991,7.051,7.051,0,0,0-.746-.884,6.743,6.743,0,0,0-.728-.624c-.443-.327-.753-.486-.741-.5a1.027,1.027,0,0,1,.225.1A2.586,2.586,0,0,1,93.3.466c.095.058.207.121.319.2a6.009,6.009,0,0,1,.756.616,6.534,6.534,0,0,1,.766.894,6.24,6.24,0,0,1,.566,1.012A5.305,5.305,0,0,1,96,4.081a3.569,3.569,0,0,1,.069.351A2.106,2.106,0,0,1,96.1,4.7.823.823,0,0,1,96.108,4.928Z" fill="#263238"/>
        </g>
      </g>
    </g>
    <g id="Plant">
      <g id="Group_8965" data-name="Group 8965">
        <g id="Group_8942" data-name="Group 8942">
          <g id="Group_8941" data-name="Group 8941">
            <g id="Group_8940" data-name="Group 8940">
              <path id="Path_5020" data-name="Path 5020" d="M41.662,72.808a2.121,2.121,0,0,1,.907-1.974,5.654,5.654,0,0,0,1.587-1.684c.5-1.124-.153-2.586.688-3.522.495-.55,1.376-.731,1.816-1.319a2.863,2.863,0,0,0,.4-1.054,10.493,10.493,0,0,1,2.936-4.975,8.681,8.681,0,0,1-1.169,4.8,5.88,5.88,0,0,0-.876,1.822c-.189,1.07.456,2.177.163,3.227-.335,1.2-1.812,2-1.889,3.236-.066,1.046.922,1.97.842,3.016a2.691,2.691,0,0,1-.515,1.238,4.6,4.6,0,0,1-4.153,2.22l-2.4.065Z" fill="#276ef1"/>
            </g>
          </g>
        </g>
        <g id="Group_8946" data-name="Group 8946" opacity="0.3">
          <g id="Group_8945" data-name="Group 8945">
            <g id="Group_8944" data-name="Group 8944">
              <g id="Group_8943" data-name="Group 8943">
                <path id="Path_5021" data-name="Path 5021" d="M41.662,72.808a2.121,2.121,0,0,1,.907-1.974,5.654,5.654,0,0,0,1.587-1.684c.5-1.124-.153-2.586.688-3.522.495-.55,1.376-.731,1.816-1.319a2.863,2.863,0,0,0,.4-1.054,10.493,10.493,0,0,1,2.936-4.975,8.681,8.681,0,0,1-1.169,4.8,5.88,5.88,0,0,0-.876,1.822c-.189,1.07.456,2.177.163,3.227-.335,1.2-1.812,2-1.889,3.236-.066,1.046.922,1.97.842,3.016a2.691,2.691,0,0,1-.515,1.238,4.6,4.6,0,0,1-4.153,2.22l-2.4.065Z"/>
              </g>
            </g>
          </g>
        </g>
        <g id="Group_8964" data-name="Group 8964">
          <g id="Group_8955" data-name="Group 8955">
            <g id="Group_8950" data-name="Group 8950">
              <g id="Group_8949" data-name="Group 8949">
                <g id="Group_8948" data-name="Group 8948">
                  <g id="Group_8947" data-name="Group 8947">
                    <path id="Path_5022" data-name="Path 5022" d="M39.5,77.964a2.085,2.085,0,0,1-.662-.017,4.3,4.3,0,0,1-.78-.184,3.4,3.4,0,0,1-.962-.49,1.249,1.249,0,0,1-.394-.488,2.114,2.114,0,0,1-.109-.66,5.892,5.892,0,0,0-.052-.714,1.874,1.874,0,0,0-.289-.711,5.283,5.283,0,0,1-.9-1.515,4.6,4.6,0,0,1,.077-1.934,3.784,3.784,0,0,0-.043-2.074c-.254-.692-.777-1.318-1.036-2.1a9.731,9.731,0,0,1-.18-2.466,3.05,3.05,0,0,0-.306-1.227c-.192-.392-.46-.762-.668-1.174a7.974,7.974,0,0,1-.6-2.7q-.081-.7-.164-1.411a6.381,6.381,0,0,0-.258-1.413,11.876,11.876,0,0,0-.567-1.369,4.3,4.3,0,0,1-.275-.715,6.6,6.6,0,0,1-.073-.76,8.213,8.213,0,0,1,.073-1.528c.068-.509.172-1.013.234-1.524,0-.03.008-.06.011-.088l.013-.1.1.046a3.648,3.648,0,0,1,1.288,1.01,5.28,5.28,0,0,1,.787,1.349A15.425,15.425,0,0,1,34.5,55.9a7.422,7.422,0,0,0,.971,2.675c.261.394.577.755.854,1.14a2.994,2.994,0,0,1,.589,1.261c.136.934-.429,1.752-.317,2.579a2.712,2.712,0,0,0,.431,1.148c.216.354.471.682.712,1.012a6.374,6.374,0,0,1,.639,1.022,3.012,3.012,0,0,1,.288,1.108c.054.745-.065,1.45-.01,2.117a4.582,4.582,0,0,0,.582,1.817c.287.544.608,1.037.876,1.515a7.439,7.439,0,0,1,.36.705,3.234,3.234,0,0,1,.207.7,4.047,4.047,0,0,1,.01,1.26,3.044,3.044,0,0,1-.7,1.6,1.593,1.593,0,0,1-.2.192.939.939,0,0,1-.159.122c-.09.06-.138.088-.138.088a2.955,2.955,0,0,0,.468-.42,3.052,3.052,0,0,0,.663-1.592,4.03,4.03,0,0,0-.023-1.242,3.188,3.188,0,0,0-.208-.682,7.5,7.5,0,0,0-.362-.7c-.27-.473-.594-.964-.888-1.512a4.661,4.661,0,0,1-.6-1.849c-.059-.681.057-1.389,0-2.116a2.91,2.91,0,0,0-.283-1.071,6.277,6.277,0,0,0-.632-1c-.241-.328-.5-.657-.721-1.019a2.825,2.825,0,0,1-.451-1.195c-.11-.881.451-1.7.312-2.573a2.874,2.874,0,0,0-.569-1.206c-.272-.378-.59-.739-.859-1.143a7.536,7.536,0,0,1-.994-2.719,15.376,15.376,0,0,0-.726-2.87,5.145,5.145,0,0,0-.766-1.314,3.5,3.5,0,0,0-1.234-.968l.111-.056-.011.089c-.064.516-.167,1.022-.235,1.525a8.09,8.09,0,0,0-.073,1.5,6.653,6.653,0,0,0,.069.737,4.21,4.21,0,0,0,.266.689,11.988,11.988,0,0,1,.571,1.384,6.5,6.5,0,0,1,.262,1.436q.082.713.162,1.412a7.877,7.877,0,0,0,.585,2.661c.2.4.468.772.665,1.176a3.167,3.167,0,0,1,.314,1.273,9.738,9.738,0,0,0,.167,2.44c.245.752.765,1.382,1.026,2.1a3.868,3.868,0,0,1,.038,2.125,4.538,4.538,0,0,0-.089,1.9,5.248,5.248,0,0,0,.876,1.5,1.943,1.943,0,0,1,.294.74,5.856,5.856,0,0,1,.046.723,2.073,2.073,0,0,0,.1.642,1.194,1.194,0,0,0,.37.466,3.383,3.383,0,0,0,.939.493,4.423,4.423,0,0,0,.769.2,3.321,3.321,0,0,0,.489.046C39.446,77.962,39.5,77.964,39.5,77.964Z" fill="#263238"/>
                  </g>
                </g>
              </g>
            </g>
            <g id="Group_8954" data-name="Group 8954">
              <g id="Group_8953" data-name="Group 8953">
                <g id="Group_8952" data-name="Group 8952">
                  <g id="Group_8951" data-name="Group 8951">
                    <path id="Path_5023" data-name="Path 5023" d="M32.067,51.921a.243.243,0,0,1,.023.067l.052.2c.046.174.1.437.19.765s.308.7.492,1.155a15.674,15.674,0,0,1,.562,1.569c.18.589.338,1.244.5,1.945a7.714,7.714,0,0,0,.756,2.16c.195.36.414.724.588,1.121a4.86,4.86,0,0,1,.338,1.268,23.709,23.709,0,0,0,.5,2.673L37.4,69.952l1.114,4.166.738,2.811.193.766.047.2a.245.245,0,0,1,.011.069.233.233,0,0,1-.026-.066l-.061-.2-.221-.76-.785-2.8-1.146-4.158-1.341-5.109a23.442,23.442,0,0,1-.5-2.684,4.743,4.743,0,0,0-.326-1.238c-.167-.388-.384-.75-.578-1.113a7.751,7.751,0,0,1-.754-2.193c-.16-.7-.312-1.355-.484-1.944a16.336,16.336,0,0,0-.537-1.567c-.174-.455-.383-.831-.469-1.169s-.125-.6-.162-.774l-.037-.2A.242.242,0,0,1,32.067,51.921Z" fill="#263238"/>
                  </g>
                </g>
              </g>
            </g>
          </g>
          <g id="Group_8963" data-name="Group 8963">
            <g id="Group_8958" data-name="Group 8958">
              <g id="Group_8957" data-name="Group 8957">
                <g id="Group_8956" data-name="Group 8956">
                  <path id="Path_5024" data-name="Path 5024" d="M39.079,77.969c-1.565-.865-2-3.469-1.335-5.031s1.82-2.987,2.007-4.655c.144-1.282-.306-2.6.027-3.854.45-1.69,2.258-2.992,2.248-4.732-.006-.976-.6-1.9-.551-2.873.066-1.2,1.072-2.14,1.7-3.19.958-1.608,1.032-3.515,1.368-5.322s1.1-3.74,2.85-4.62a16.054,16.054,0,0,1,.531,4.67c-.054.747-1.008,2.172-1.147,3.809-.083.978-.142,1.958-.214,2.937a8.728,8.728,0,0,1-.52,2.812,21.791,21.791,0,0,0-.967,2c-.407,1.325.108,2.765-.222,4.108-.28,1.138-1.144,2.113-1.327,3.268-.257,1.622.877,3.314.282,4.859-.3.767-.987,1.38-1.188,2.172-.155.615.006,1.267-.135,1.885-.227.995-2.3,1.757-3.406,1.69" fill="#276ef1"/>
                </g>
              </g>
            </g>
            <g id="Group_8962" data-name="Group 8962">
              <g id="Group_8961" data-name="Group 8961">
                <g id="Group_8960" data-name="Group 8960">
                  <g id="Group_8959" data-name="Group 8959">
                    <path id="Path_5025" data-name="Path 5025" d="M46.949,45.213a.373.373,0,0,1-.007.086l-.037.252c-.037.222-.08.547-.164.968s-.331.9-.524,1.472a20.139,20.139,0,0,0-.588,1.971c-.184.739-.339,1.557-.5,2.437a9.577,9.577,0,0,1-.822,2.754c-.223.46-.473.92-.662,1.41a5.893,5.893,0,0,0-.341,1.556,29.049,29.049,0,0,1-.481,3.356l-1.4,6.408-1.2,5.219L39.4,76.619l-.231.954-.064.247a.373.373,0,0,1-.027.083.36.36,0,0,1,.011-.086l.049-.25.2-.96.775-3.525,1.169-5.225,1.383-6.406a29.342,29.342,0,0,0,.483-3.345A6,6,0,0,1,43.5,56.52c.194-.5.448-.963.671-1.419A9.536,9.536,0,0,0,45,52.38c.168-.879.33-1.7.521-2.439a19.409,19.409,0,0,1,.613-1.974c.2-.576.451-1.047.547-1.459s.145-.742.192-.96l.052-.25A.365.365,0,0,1,46.949,45.213Z" fill="#263238"/>
                  </g>
                </g>
              </g>
            </g>
          </g>
        </g>
      </g>
    </g>
    <g id="Chart">
      <g id="Group_8967" data-name="Group 8967">
        <g id="Group_8966" data-name="Group 8966">
          <rect id="Rectangle_444" data-name="Rectangle 444" width="1.621" height="4.808" transform="translate(116.234 44.365)" fill="#276ef1"/>
        </g>
      </g>
    </g>
    <g id="Gears">
      <g id="Group_8976" data-name="Group 8976">
        <g id="Group_8971" data-name="Group 8971">
          <g id="Group_8970" data-name="Group 8970">
            <g id="Group_8969" data-name="Group 8969">
              <g id="Group_8968" data-name="Group 8968">
                <path id="Path_5026" data-name="Path 5026" d="M61.589,50.6a1.191,1.191,0,0,1,.348.1,1.414,1.414,0,0,1,.694.645,1.27,1.27,0,0,1,.142.623,1.308,1.308,0,0,1-.234.7,1.34,1.34,0,0,1-.284.3,1.438,1.438,0,0,1-.383.223,1.639,1.639,0,0,1-.938.085,1.546,1.546,0,0,1-.809-.445,1.3,1.3,0,0,1-.243-.352,1.222,1.222,0,0,1-.115-.385,1.283,1.283,0,0,1,.114-.723,1.384,1.384,0,0,1,.418-.508,1.554,1.554,0,0,1,.928-.311,1.2,1.2,0,0,1,.362.046c0,.01-.129-.023-.361-.016a1.548,1.548,0,0,0-.89.323,1.335,1.335,0,0,0-.392.491,1.229,1.229,0,0,0-.1.689,1.16,1.16,0,0,0,.112.364,1.232,1.232,0,0,0,.231.332,1.47,1.47,0,0,0,.765.419,1.561,1.561,0,0,0,.887-.079,1.374,1.374,0,0,0,.364-.21,1.278,1.278,0,0,0,.27-.285,1.252,1.252,0,0,0,.229-.662,1.229,1.229,0,0,0-.126-.6,1.41,1.41,0,0,0-.655-.641C61.716,50.632,61.586,50.612,61.589,50.6Z" fill="#263238"/>
              </g>
            </g>
          </g>
        </g>
        <g id="Group_8975" data-name="Group 8975">
          <g id="Group_8974" data-name="Group 8974">
            <g id="Group_8973" data-name="Group 8973">
              <g id="Group_8972" data-name="Group 8972">
                <path id="Path_5027" data-name="Path 5027" d="M62.771,49.155a.3.3,0,0,1,0-.047c0-.035,0-.083,0-.144,0-.132,0-.323-.009-.57l.01.012-1.342-.269.024-.011-.353.689-.007.012h-.015a3.633,3.633,0,0,0-.875.143l-.016,0-.012-.011-.59-.536.037,0-1.158.678.013-.036.28.718.007.018-.014.014a3.08,3.08,0,0,0-.509.666l-.01.018H58.2l-.83,0,.037-.027-.3,1.231-.021-.041.75.326.022.009v.022a2.847,2.847,0,0,0,.153.8l.007.022-.017.016-.586.541.006-.047.736,1.065-.05-.016.782-.256.024-.008.019.016a3.345,3.345,0,0,0,.722.467h0l.023.035h0v.38q0,.191,0,.38l-.033-.038,1.34.276-.047.021L61.3,55l.011-.021h.025a3.6,3.6,0,0,0,.871-.139l.024-.007.018.016.588.538-.05-.005,1.161-.674-.016.042-.277-.718-.008-.02L63.664,54a3.076,3.076,0,0,0,.511-.664l.01-.018h.852L65,53.339l.3-1.23.018.033-.749-.328-.017-.007v-.017a2.855,2.855,0,0,0-.15-.8l-.005-.015.012-.011L65,50.422l0,.028-.73-1.068.023.007-.784.251-.008,0-.006-.005a3.483,3.483,0,0,0-.533-.377l-.143-.079a.334.334,0,0,1-.047-.027.445.445,0,0,1,.05.021c.033.015.082.039.147.074a3.251,3.251,0,0,1,.544.37l-.014,0,.781-.26.014,0,.008.012.74,1.062.011.016-.014.013L64.454,51l.007-.026a2.887,2.887,0,0,1,.158.817l-.017-.024.751.325.023.01-.006.023-.3,1.231-.006.025h-.028l-.83,0,.032-.018a3.138,3.138,0,0,1-.521.68l.008-.035.279.718.01.027-.026.015-1.159.676-.027.016-.023-.021-.589-.537.041.009a3.688,3.688,0,0,1-.893.143l.036-.022-.356.689-.014.028-.033-.007-1.341-.276-.033-.007v-.791h0l.023.034h0a3.437,3.437,0,0,1-.741-.479l.043.008-.782.256-.032.01-.018-.026L57.356,53.4l-.018-.026.023-.022.586-.54-.01.038a2.914,2.914,0,0,1-.155-.82l.023.032-.749-.328-.029-.012.007-.028.3-1.23.007-.027h.86l-.032.018a3.142,3.142,0,0,1,.523-.679l-.007.033-.277-.719L58.4,49.07l.022-.013,1.162-.673.02-.012.017.016.587.539-.028-.006a3.676,3.676,0,0,1,.89-.139l-.021.013.359-.687.008-.014.017,0,1.339.283.01,0v.01c0,.245,0,.434-.006.565,0,.062,0,.11,0,.146A.3.3,0,0,1,62.771,49.155Z" fill="#263238"/>
              </g>
            </g>
          </g>
        </g>
      </g>
      <g id="Group_8983" data-name="Group 8983">
        <g id="Group_8979" data-name="Group 8979">
          <g id="Group_8978" data-name="Group 8978">
            <g id="Group_8977" data-name="Group 8977">
              <path id="Path_5028" data-name="Path 5028" d="M60.24,39.576a3.741,3.741,0,0,1,.809.523l.865-.283.813,1.178-.648.6a3.165,3.165,0,0,1,.17.9l.829.361-.333,1.36-.918,0a3.435,3.435,0,0,1-.57.743l.308.794-1.283.746-.651-.594a4.033,4.033,0,0,1-.976.156l-.394.761-1.482-.305,0-.842a3.728,3.728,0,0,1-.809-.524l-.865.283-.813-1.178.648-.6a3.174,3.174,0,0,1-.17-.9l-.829-.361.332-1.36.918,0a3.435,3.435,0,0,1,.57-.743l-.308-.794,1.283-.746.651.595a4.021,4.021,0,0,1,.975-.156l.394-.761,1.482.305,0,.843Zm-1.307,1.6a1.637,1.637,0,0,0-1.946,1.132A1.5,1.5,0,0,0,58.22,44.1a1.637,1.637,0,0,0,1.946-1.132A1.5,1.5,0,0,0,58.933,41.177Z" fill="#276ef1" fill-rule="evenodd"/>
            </g>
          </g>
        </g>
        <g id="Group_8982" data-name="Group 8982" opacity="0.8">
          <g id="Group_8981" data-name="Group 8981">
            <g id="Group_8980" data-name="Group 8980">
              <path id="Path_5029" data-name="Path 5029" d="M60.24,39.576a3.741,3.741,0,0,1,.809.523l.865-.283.813,1.178-.648.6a3.165,3.165,0,0,1,.17.9l.829.361-.333,1.36-.918,0a3.435,3.435,0,0,1-.57.743l.308.794-1.283.746-.651-.594a4.033,4.033,0,0,1-.976.156l-.394.761-1.482-.305,0-.842a3.728,3.728,0,0,1-.809-.524l-.865.283-.813-1.178.648-.6a3.174,3.174,0,0,1-.17-.9l-.829-.361.332-1.36.918,0a3.435,3.435,0,0,1,.57-.743l-.308-.794,1.283-.746.651.595a4.021,4.021,0,0,1,.975-.156l.394-.761,1.482.305,0,.843Zm-1.307,1.6a1.637,1.637,0,0,0-1.946,1.132A1.5,1.5,0,0,0,58.22,44.1a1.637,1.637,0,0,0,1.946-1.132A1.5,1.5,0,0,0,58.933,41.177Z" fill="#fff" fill-rule="evenodd"/>
            </g>
          </g>
        </g>
      </g>
      <g id="Group_8990" data-name="Group 8990">
        <g id="Group_8986" data-name="Group 8986">
          <g id="Group_8985" data-name="Group 8985">
            <g id="Group_8984" data-name="Group 8984">
              <path id="Path_5030" data-name="Path 5030" d="M54.881,47.591a2.185,2.185,0,0,1,.471.3l.5-.164.473.686-.377.348a1.851,1.851,0,0,1,.1.521l.483.211-.194.792h-.534a1.994,1.994,0,0,1-.332.433l.179.462-.747.435-.379-.346a2.344,2.344,0,0,1-.568.091l-.229.443-.863-.178v-.49a2.163,2.163,0,0,1-.471-.3l-.5.165-.473-.686.377-.348a1.854,1.854,0,0,1-.1-.521l-.482-.21.194-.792h.534a1.994,1.994,0,0,1,.332-.433l-.179-.462.747-.434.379.346a2.343,2.343,0,0,1,.568-.091l.229-.443.863.177v.49Zm-.761.932a.953.953,0,0,0-1.133.659.873.873,0,0,0,.718,1.04.953.953,0,0,0,1.133-.659A.872.872,0,0,0,54.121,48.523Z" fill="#276ef1" fill-rule="evenodd"/>
            </g>
          </g>
        </g>
        <g id="Group_8989" data-name="Group 8989" opacity="0.4">
          <g id="Group_8988" data-name="Group 8988">
            <g id="Group_8987" data-name="Group 8987">
              <path id="Path_5031" data-name="Path 5031" d="M54.881,47.591a2.185,2.185,0,0,1,.471.3l.5-.164.473.686-.377.348a1.851,1.851,0,0,1,.1.521l.483.211-.194.792h-.534a1.994,1.994,0,0,1-.332.433l.179.462-.747.435-.379-.346a2.344,2.344,0,0,1-.568.091l-.229.443-.863-.178v-.49a2.163,2.163,0,0,1-.471-.3l-.5.165-.473-.686.377-.348a1.854,1.854,0,0,1-.1-.521l-.482-.21.194-.792h.534a1.994,1.994,0,0,1,.332-.433l-.179-.462.747-.434.379.346a2.343,2.343,0,0,1,.568-.091l.229-.443.863.177v.49Zm-.761.932a.953.953,0,0,0-1.133.659.873.873,0,0,0,.718,1.04.953.953,0,0,0,1.133-.659A.872.872,0,0,0,54.121,48.523Z" fill="#fff" fill-rule="evenodd"/>
            </g>
          </g>
        </g>
      </g>
    </g>
    <g id="Character">
      <g id="Group_9151" data-name="Group 9151">
        <g id="Group_9073" data-name="Group 9073">
          <g id="Group_9070" data-name="Group 9070">
            <path id="Path_5032" data-name="Path 5032" d="M106.247,39.733a2.111,2.111,0,0,0,1.643-2.081,11.073,11.073,0,0,1-.178-1.243,3.95,3.95,0,0,1,.853-1.761,1.634,1.634,0,0,0,.179-1.834c-.267-.343-.739-.5-1.062-.8a3.083,3.083,0,0,1-.636-1.081,1.9,1.9,0,0,0-.78-.98.855.855,0,0,0-1.148.273" fill="#263238"/>
            <path id="Path_5033" data-name="Path 5033" d="M102.022,29.2a1.51,1.51,0,0,0,.487-2.022,2.713,2.713,0,0,0-1.993-1.2,4.011,4.011,0,0,0-3.272,1c-.45.425-.814.98-1.424,1.174a9.089,9.089,0,0,1-1.692.084,2.552,2.552,0,0,0-1.788,1.183,4.755,4.755,0,0,0-.636,2,2.866,2.866,0,0,1-.617,1.8,7.927,7.927,0,0,1-1.793.871,2.145,2.145,0,0,0-.729,3.078c.231.309.562.593.589.967.024.341-.216.646-.329.972a1.538,1.538,0,0,0,1.418,1.889c.484.026,1-.148,1.436.051s.591.674.867,1.036a2.188,2.188,0,0,0,2.526.6,2.427,2.427,0,0,1,1.088-.4c.394.024.705.334,1.094.4a1.435,1.435,0,0,0,1.293-.64,6.548,6.548,0,0,1,.9-1.156,5.44,5.44,0,0,1,1.859-.719,5.152,5.152,0,0,0,3.157-2.752,4.521,4.521,0,0,0-.195-3.993" fill="#263238"/>
            <g id="Group_9069" data-name="Group 9069">
              <g id="Group_9068" data-name="Group 9068">
                <g id="Group_9067" data-name="Group 9067">
                  <g id="Group_9066" data-name="Group 9066">
                    <g id="Group_9053" data-name="Group 9053">
                      <g id="Group_9052" data-name="Group 9052">
                        <g id="Group_9051" data-name="Group 9051">
                          <g id="Group_8996" data-name="Group 8996">
                            <g id="Group_8995" data-name="Group 8995">
                              <g id="Group_8994" data-name="Group 8994">
                                <g id="Group_8993" data-name="Group 8993">
                                  <g id="Group_8992" data-name="Group 8992">
                                    <g id="Group_8991" data-name="Group 8991">
                                      <path id="Path_5034" data-name="Path 5034" d="M103.553,30.04a1.057,1.057,0,0,1,.994,1.039h0l-.664,13.809c-.028,1.631-2.624,2.547-4.526,2.507h0c-1.921-.041-1.983-.906-2.007-2.457-.04-2.592-.037-3.565-.038-3.551A3.78,3.78,0,0,1,94.389,38.1a28.529,28.529,0,0,1-.024-5.754c.124-1.744,1.388-3.881,3.28-3.694Z" fill="#ffbe9d"/>
                                    </g>
                                  </g>
                                </g>
                              </g>
                            </g>
                          </g>
                          <g id="Group_9010" data-name="Group 9010">
                            <g id="Group_9002" data-name="Group 9002">
                              <g id="Group_9001" data-name="Group 9001">
                                <g id="Group_9000" data-name="Group 9000">
                                  <g id="Group_8999" data-name="Group 8999">
                                    <g id="Group_8998" data-name="Group 8998">
                                      <g id="Group_8997" data-name="Group 8997">
                                        <path id="Path_5035" data-name="Path 5035" d="M95.062,34.232a.388.388,0,0,0,.391.377.379.379,0,0,0,.419-.335.388.388,0,0,0-.39-.377A.379.379,0,0,0,95.062,34.232Z" fill="#263238"/>
                                      </g>
                                    </g>
                                  </g>
                                </g>
                              </g>
                            </g>
                            <g id="Group_9009" data-name="Group 9009">
                              <g id="Group_9008" data-name="Group 9008">
                                <g id="Group_9007" data-name="Group 9007">
                                  <g id="Group_9006" data-name="Group 9006">
                                    <g id="Group_9005" data-name="Group 9005">
                                      <g id="Group_9004" data-name="Group 9004">
                                        <g id="Group_9003" data-name="Group 9003">
                                          <path id="Path_5036" data-name="Path 5036" d="M94.922,33.584c.05.049.358-.16.8-.158s.757.2.8.154c.023-.022-.028-.11-.167-.2a1.184,1.184,0,0,0-.644-.184,1.137,1.137,0,0,0-.633.186C94.943,33.474,94.9,33.562,94.922,33.584Z" fill="#263238"/>
                                        </g>
                                      </g>
                                    </g>
                                  </g>
                                </g>
                              </g>
                            </g>
                          </g>
                          <g id="Group_9024" data-name="Group 9024">
                            <g id="Group_9016" data-name="Group 9016">
                              <g id="Group_9015" data-name="Group 9015">
                                <g id="Group_9014" data-name="Group 9014">
                                  <g id="Group_9013" data-name="Group 9013">
                                    <g id="Group_9012" data-name="Group 9012">
                                      <g id="Group_9011" data-name="Group 9011">
                                        <path id="Path_5037" data-name="Path 5037" d="M99.418,34.232a.388.388,0,0,0,.391.377.379.379,0,0,0,.419-.335.388.388,0,0,0-.39-.377A.379.379,0,0,0,99.418,34.232Z" fill="#263238"/>
                                      </g>
                                    </g>
                                  </g>
                                </g>
                              </g>
                            </g>
                            <g id="Group_9023" data-name="Group 9023">
                              <g id="Group_9022" data-name="Group 9022">
                                <g id="Group_9021" data-name="Group 9021">
                                  <g id="Group_9020" data-name="Group 9020">
                                    <g id="Group_9019" data-name="Group 9019">
                                      <g id="Group_9018" data-name="Group 9018">
                                        <g id="Group_9017" data-name="Group 9017">
                                          <path id="Path_5038" data-name="Path 5038" d="M99.218,33.668c.05.049.359-.16.8-.158s.757.2.8.154c.023-.022-.027-.11-.167-.2a1.183,1.183,0,0,0-.644-.184,1.137,1.137,0,0,0-.633.186C99.239,33.558,99.193,33.646,99.218,33.668Z" fill="#263238"/>
                                        </g>
                                      </g>
                                    </g>
                                  </g>
                                </g>
                              </g>
                            </g>
                          </g>
                          <g id="Group_9031" data-name="Group 9031">
                            <g id="Group_9030" data-name="Group 9030">
                              <g id="Group_9029" data-name="Group 9029">
                                <g id="Group_9028" data-name="Group 9028">
                                  <g id="Group_9027" data-name="Group 9027">
                                    <g id="Group_9026" data-name="Group 9026">
                                      <g id="Group_9025" data-name="Group 9025">
                                        <path id="Path_5039" data-name="Path 5039" d="M97.625,36.64a3.121,3.121,0,0,0-.71-.119c-.111-.011-.217-.031-.236-.1a.485.485,0,0,1,.075-.3l.332-.779a12.636,12.636,0,0,0,.746-2.039,12.9,12.9,0,0,0-.923,1.979l-.318.784a.549.549,0,0,0-.059.4.274.274,0,0,0,.183.15.829.829,0,0,0,.19.025A3.085,3.085,0,0,0,97.625,36.64Z" fill="#263238"/>
                                      </g>
                                    </g>
                                  </g>
                                </g>
                              </g>
                            </g>
                          </g>
                          <g id="Group_9037" data-name="Group 9037">
                            <g id="Group_9036" data-name="Group 9036">
                              <g id="Group_9035" data-name="Group 9035">
                                <g id="Group_9034" data-name="Group 9034">
                                  <g id="Group_9033" data-name="Group 9033">
                                    <g id="Group_9032" data-name="Group 9032">
                                      <path id="Path_5040" data-name="Path 5040" d="M97.312,41.387a8.651,8.651,0,0,0,4.243-1.03s-1.075,2.05-4.243,1.771Z" fill="#eb996e"/>
                                    </g>
                                  </g>
                                </g>
                              </g>
                            </g>
                          </g>
                          <g id="Group_9043" data-name="Group 9043">
                            <g id="Group_9042" data-name="Group 9042">
                              <g id="Group_9041" data-name="Group 9041">
                                <g id="Group_9040" data-name="Group 9040">
                                  <g id="Group_9039" data-name="Group 9039">
                                    <g id="Group_9038" data-name="Group 9038">
                                      <path id="Path_5041" data-name="Path 5041" d="M97.807,37.607a.821.821,0,0,1,.706-.267.739.739,0,0,1,.5.246.391.391,0,0,1,.033.478.56.56,0,0,1-.573.132,1.692,1.692,0,0,1-.558-.307.467.467,0,0,1-.124-.119.126.126,0,0,1,0-.149" fill="#276ef1"/>
                                    </g>
                                  </g>
                                </g>
                              </g>
                            </g>
                          </g>
                          <g id="Group_9050" data-name="Group 9050">
                            <g id="Group_9049" data-name="Group 9049">
                              <g id="Group_9048" data-name="Group 9048">
                                <g id="Group_9047" data-name="Group 9047">
                                  <g id="Group_9046" data-name="Group 9046">
                                    <g id="Group_9045" data-name="Group 9045">
                                      <g id="Group_9044" data-name="Group 9044">
                                        <path id="Path_5042" data-name="Path 5042" d="M98.91,36.92c-.071,0-.073.432-.48.74s-.912.259-.915.32c-.007.027.112.085.326.091a1.251,1.251,0,0,0,.764-.243.924.924,0,0,0,.372-.62C99,37.025,98.943,36.917,98.91,36.92Z" fill="#263238"/>
                                      </g>
                                    </g>
                                  </g>
                                </g>
                              </g>
                            </g>
                          </g>
                        </g>
                      </g>
                    </g>
                    <g id="Group_9059" data-name="Group 9059">
                      <g id="Group_9058" data-name="Group 9058">
                        <g id="Group_9057" data-name="Group 9057">
                          <g id="Group_9056" data-name="Group 9056">
                            <g id="Group_9055" data-name="Group 9055">
                              <g id="Group_9054" data-name="Group 9054">
                                <path id="Path_5043" data-name="Path 5043" d="M99.023,32.965c.043.109.479.058.992.116s.927.187,1,.089c.03-.047-.041-.149-.208-.256a1.758,1.758,0,0,0-.737-.239,1.8,1.8,0,0,0-.777.082C99.1,32.827,99,32.913,99.023,32.965Z" fill="#263238"/>
                              </g>
                            </g>
                          </g>
                        </g>
                      </g>
                    </g>
                    <g id="Group_9065" data-name="Group 9065">
                      <g id="Group_9064" data-name="Group 9064">
                        <g id="Group_9063" data-name="Group 9063">
                          <g id="Group_9062" data-name="Group 9062">
                            <g id="Group_9061" data-name="Group 9061">
                              <g id="Group_9060" data-name="Group 9060">
                                <path id="Path_5044" data-name="Path 5044" d="M95.086,32.423c.077.091.378,0,.74-.006s.668.063.739-.033c.031-.046-.017-.138-.151-.224a1.151,1.151,0,0,0-1.192.032C95.094,32.285,95.052,32.379,95.086,32.423Z" fill="#263238"/>
                              </g>
                            </g>
                          </g>
                        </g>
                      </g>
                    </g>
                  </g>
                </g>
              </g>
            </g>
            <path id="Path_5045" data-name="Path 5045" d="M101.474,29.094a3.3,3.3,0,0,1,2.51-.431,2.011,2.011,0,0,1,1.573,1.712c.019.514-.223,1.06.025,1.523.237.441.819.62,1.231.939a1.637,1.637,0,0,1,.437,2.1c-.346.583-1.073,1.01-1.134,1.668-.057.619.511,1.141.649,1.75a1.883,1.883,0,0,1-.833,1.812,6.781,6.781,0,0,1-2.029.928,3.423,3.423,0,0,1-1.738.251,1.687,1.687,0,0,1-1.3-1.364,2.114,2.114,0,0,1,.659-1.755c.407-.411.977-.761,1.075-1.3.152-.845-.945-1.54-.878-2.394a2.4,2.4,0,0,1,.655-1.167,1.3,1.3,0,0,0,.354-1.231c-.225-.537-.994-.678-1.459-1.072a1.235,1.235,0,0,1-.388-1.322,1.437,1.437,0,0,1,1.148-.9" fill="#263238"/>
            <path id="Path_5046" data-name="Path 5046" d="M101.815,28.439a1.955,1.955,0,0,1-.776,1.533,2.343,2.343,0,0,1-1.78.431c-.484-.081-1.014-.306-1.433-.069-.441.249-.459.858-.849,1.17-.558.445-1.446.027-2.155.22a2.861,2.861,0,0,0-1.253,1.033,1.56,1.56,0,0,1-1.455.639,5.446,5.446,0,0,1,.217-1.341,1.991,1.991,0,0,1,.829-1.092c.227-.136.49-.218.7-.374.454-.337.56-.923.84-1.393a2.392,2.392,0,0,1,1.809-1.1,14.227,14.227,0,0,0,1.872-.028c.449-.1.841-.371,1.3-.451a2.971,2.971,0,0,1,2.351,1.01" fill="#263238"/>
          </g>
          <g id="Group_9071" data-name="Group 9071">
            <path id="Path_5047" data-name="Path 5047" d="M107.6,35.388a.588.588,0,0,0,.07-.335.866.866,0,0,0-.637-.669,5.035,5.035,0,0,0-.7-.172,2.143,2.143,0,0,1-.788-.3.992.992,0,0,1-.41-.778,7.538,7.538,0,0,1,.049-.915,1.923,1.923,0,0,0-.025-.447.922.922,0,0,0-.187-.382,1.63,1.63,0,0,0-.762-.4,3.6,3.6,0,0,1-.777-.307,2.652,2.652,0,0,1-.572-.429,2.423,2.423,0,0,1-.559-.828,1.616,1.616,0,0,1-.081-.255.273.273,0,0,1-.014-.092c.011,0,.042.121.139.33a2.588,2.588,0,0,0,.577.79,2.925,2.925,0,0,0,1.322.694,1.719,1.719,0,0,1,.819.43,1.023,1.023,0,0,1,.213.429,2,2,0,0,1,.027.474,7.95,7.95,0,0,0-.051.9.891.891,0,0,0,.36.7,2.064,2.064,0,0,0,.743.29,4.827,4.827,0,0,1,.706.189,1.108,1.108,0,0,1,.491.338.734.734,0,0,1,.161.4.474.474,0,0,1-.057.264A.205.205,0,0,1,107.6,35.388Z" fill="#455a64"/>
          </g>
          <g id="Group_9072" data-name="Group 9072">
            <path id="Path_5048" data-name="Path 5048" d="M88.947,37.2a.2.2,0,0,1-.052-.022.339.339,0,0,1-.119-.11.547.547,0,0,1,.065-.574.806.806,0,0,1,.339-.3,4.6,4.6,0,0,1,.509-.2,1.613,1.613,0,0,0,.533-.277,1.02,1.02,0,0,0,.3-.552c.053-.218.069-.457.112-.7a1.473,1.473,0,0,1,.314-.733,14.939,14.939,0,0,1,1.424-1.1,1.987,1.987,0,0,0,.495-.77,4.933,4.933,0,0,0,.224-.931,3.871,3.871,0,0,1,.665-1.939,1.562,1.562,0,0,1,.955-.567,3.648,3.648,0,0,1,1.1.025,4.353,4.353,0,0,0,1.03.055,1.381,1.381,0,0,0,.842-.4c.432-.428.681-1,1.212-1.3a2.183,2.183,0,0,1,1.6-.2,1.757,1.757,0,0,1,1.053.751,1.715,1.715,0,0,1,.274.9,1.457,1.457,0,0,1-.1.581.959.959,0,0,1-.093.187c-.006,0,.028-.066.07-.193a1.53,1.53,0,0,0,.077-.573,1.7,1.7,0,0,0-1.3-1.574,2.092,2.092,0,0,0-1.523.2,2.14,2.14,0,0,0-.611.579,6.52,6.52,0,0,1-.574.713,1.557,1.557,0,0,1-.4.291,1.6,1.6,0,0,1-.5.143A4.446,4.446,0,0,1,95.8,28.56a3.539,3.539,0,0,0-1.063-.025,1.438,1.438,0,0,0-.882.525,2.6,2.6,0,0,0-.453.911,8.308,8.308,0,0,0-.192.977,4.992,4.992,0,0,1-.232.949,2.086,2.086,0,0,1-.524.807,15.968,15.968,0,0,0-1.424,1.086,1.4,1.4,0,0,0-.3.691c-.045.242-.063.482-.121.708a1.093,1.093,0,0,1-.335.585,1.679,1.679,0,0,1-.562.284,4.707,4.707,0,0,0-.506.186.767.767,0,0,0-.326.274.53.53,0,0,0-.084.541A.494.494,0,0,0,88.947,37.2Z" fill="#455a64"/>
          </g>
        </g>
        <g id="Group_9124" data-name="Group 9124">
          <path id="Path_5049" data-name="Path 5049" d="M81.176,57.218l5.617-.473s3.457-8.359,7.718-10.386l2.76,4.427L91.363,60.978H79.826Z" fill="#276ef1"/>
          <path id="Path_5050" data-name="Path 5050" d="M81.176,57.218l5.617-.473s3.457-8.359,7.718-10.386l2.76,4.427L91.363,60.978H79.826Z" opacity="0.3"/>
          <g id="Group_9074" data-name="Group 9074">
            <path id="Path_5051" data-name="Path 5051" d="M83.4,59.578a3.912,3.912,0,0,1,.473-.835,4.042,4.042,0,0,1,.577-.778,3.906,3.906,0,0,1-.474.835A4.027,4.027,0,0,1,83.4,59.578Z" fill="#fafafa"/>
          </g>
          <g id="Group_9075" data-name="Group 9075">
            <path id="Path_5052" data-name="Path 5052" d="M87.375,59.477a4.166,4.166,0,0,1-.686-.7,4,4,0,0,1-.592-.765,4.156,4.156,0,0,1,.686.7A4,4,0,0,1,87.375,59.477Z" fill="#fafafa"/>
          </g>
          <g id="Group_9076" data-name="Group 9076">
            <path id="Path_5053" data-name="Path 5053" d="M88.066,57.56a3.811,3.811,0,0,1,0-1.352,3.8,3.8,0,0,1,0,1.352Z" fill="#fafafa"/>
          </g>
          <g id="Group_9077" data-name="Group 9077">
            <path id="Path_5054" data-name="Path 5054" d="M86.089,60.55a1.615,1.615,0,0,1-.537-.256c-.278-.167-.489-.323-.471-.349a1.615,1.615,0,0,1,.537.256C85.9,60.368,86.107,60.524,86.089,60.55Z" fill="#fafafa"/>
          </g>
          <g id="Group_9078" data-name="Group 9078">
            <path id="Path_5055" data-name="Path 5055" d="M89.314,52.866a4.251,4.251,0,0,1-.388.931,4.4,4.4,0,0,1-.5.886,4.278,4.278,0,0,1,.388-.931A4.4,4.4,0,0,1,89.314,52.866Z" fill="#fafafa"/>
          </g>
          <g id="Group_9079" data-name="Group 9079">
            <path id="Path_5056" data-name="Path 5056" d="M91.591,49.479c.02.025-.181.2-.448.382a1.619,1.619,0,0,1-.522.293c-.02-.025.18-.2.448-.382A1.624,1.624,0,0,1,91.591,49.479Z" fill="#fafafa"/>
          </g>
          <path id="Path_5057" data-name="Path 5057" d="M99.993,60.318l2.9-10.742a3.994,3.994,0,0,1,4.569-2.718h0a3.7,3.7,0,0,1,3.227,4.156l-1.773,10.5a5.522,5.522,0,0,1-4.747,4.25l-2.3.33Z" fill="#276ef1"/>
          <g id="Group_9080" data-name="Group 9080">
            <path id="Path_5058" data-name="Path 5058" d="M109.123,46.164a2.694,2.694,0,0,0-1.034-.477,2.991,2.991,0,0,0-1.247.008,3.5,3.5,0,0,0-1.355.649,6.066,6.066,0,0,0-1.625,2.1c-.155.3-.273.55-.357.721a1.462,1.462,0,0,1-.142.261,1.358,1.358,0,0,1,.1-.278c.071-.176.177-.429.323-.737a7.819,7.819,0,0,1,.6-1.048,4.8,4.8,0,0,1,1.03-1.1,3.529,3.529,0,0,1,1.408-.663,3,3,0,0,1,1.293.016,2.287,2.287,0,0,1,.785.348,1.442,1.442,0,0,1,.176.146C109.108,46.141,109.126,46.161,109.123,46.164Z" fill="#263238"/>
          </g>
          <g id="Group_9081" data-name="Group 9081">
            <path id="Path_5059" data-name="Path 5059" d="M92.711,48.581a.548.548,0,0,1-.081.1l-.248.272c-.214.237-.52.583-.869,1.031a10.617,10.617,0,0,0-1.978,3.855,22.484,22.484,0,0,0-.493,4.271c-.029.551-.057,1-.083,1.3l-.034.354a.481.481,0,0,1-.02.123.486.486,0,0,1,0-.124l.011-.355c.011-.323.026-.765.044-1.305a20.566,20.566,0,0,1,.46-4.292,10.283,10.283,0,0,1,2.027-3.876c.36-.444.677-.784.9-1.013.112-.115.2-.2.266-.259A.528.528,0,0,1,92.711,48.581Z" fill="#263238"/>
          </g>
          <path id="Path_5060" data-name="Path 5060" d="M111.275,48.558c-.318-1.921-1.474-2.382-2.67-2.98a34.209,34.209,0,0,0-3.773-.975c-.143-.832-.4-2.321-.455-2.636-.079-.442-7.619.663-7.714.828-.063.11-.237,1.835-.347,2.984l-1.805.579-2.356,2.75-1.226,1.6a8.3,8.3,0,0,0-1.519,3.069,15.406,15.406,0,0,0-.338,3.72l-.364,7.052,15.775,4.1L105.7,61.5l4.07-5.086C110.121,54.357,111.666,50.919,111.275,48.558Z" fill="#276ef1"/>
          <g id="Group_9082" data-name="Group 9082">
            <path id="Path_5061" data-name="Path 5061" d="M97.812,46a2.083,2.083,0,0,1-.1-.489c-.049-.3-.109-.725-.168-1.19q-.041-.346-.078-.657a4.247,4.247,0,0,1-.042-.543.616.616,0,0,1,.112-.361c.061-.073.113-.092.116-.088s-.034.039-.076.11a.647.647,0,0,0-.067.338c0,.148.04.329.067.531l.088.656c.059.465.105.888.133,1.194A2.032,2.032,0,0,1,97.812,46Z" fill="#263238"/>
          </g>
          <g id="Group_9083" data-name="Group 9083">
            <path id="Path_5062" data-name="Path 5062" d="M99.823,45.565a1.576,1.576,0,0,1-.168-.448,6.6,6.6,0,0,1-.228-2.268,1.544,1.544,0,0,1,.076-.468c.037,0-.031.721.06,1.6S99.859,45.556,99.823,45.565Z" fill="#263238"/>
          </g>
          <g id="Group_9084" data-name="Group 9084">
            <path id="Path_5063" data-name="Path 5063" d="M103.566,45.066a6.614,6.614,0,0,0-.043-1.593,6.818,6.818,0,0,0-.544-1.513,1.432,1.432,0,0,1,.276.4,3.808,3.808,0,0,1,.387,1.092,3.7,3.7,0,0,1,.037,1.148A1.339,1.339,0,0,1,103.566,45.066Z" fill="#263238"/>
          </g>
          <g id="Group_9085" data-name="Group 9085">
            <path id="Path_5064" data-name="Path 5064" d="M92.855,51.347a4,4,0,0,1,.618-.9,4.2,4.2,0,0,1,.766-.8,6.908,6.908,0,0,1-.669.862A7,7,0,0,1,92.855,51.347Z" fill="#fafafa"/>
          </g>
          <g id="Group_9086" data-name="Group 9086">
            <path id="Path_5065" data-name="Path 5065" d="M96.408,48.693a3.621,3.621,0,0,1-.627-.662,3.487,3.487,0,0,1-.531-.729,3.612,3.612,0,0,1,.627.662A3.481,3.481,0,0,1,96.408,48.693Z" fill="#fafafa"/>
          </g>
          <g id="Group_9087" data-name="Group 9087">
            <path id="Path_5066" data-name="Path 5066" d="M100.121,47.026a6.619,6.619,0,0,1-.742.689,6.774,6.774,0,0,1-.77.663,3.3,3.3,0,0,1,.685-.743A3.5,3.5,0,0,1,100.121,47.026Z" fill="#fafafa"/>
          </g>
          <g id="Group_9088" data-name="Group 9088">
            <path id="Path_5067" data-name="Path 5067" d="M99.078,44.994a2.234,2.234,0,0,1-.58-.407,2.13,2.13,0,0,1-.5-.49,2.232,2.232,0,0,1,.58.407A2.127,2.127,0,0,1,99.078,44.994Z" fill="#fafafa"/>
          </g>
          <g id="Group_9089" data-name="Group 9089">
            <path id="Path_5068" data-name="Path 5068" d="M102.332,43.4a2.964,2.964,0,0,1-.783.211,3.034,3.034,0,0,1-.808.1,2.964,2.964,0,0,1,.783-.211A3.034,3.034,0,0,1,102.332,43.4Z" fill="#fafafa"/>
          </g>
          <g id="Group_9090" data-name="Group 9090">
            <path id="Path_5069" data-name="Path 5069" d="M102.983,48.13a4.656,4.656,0,0,1-.082-1.494,4.656,4.656,0,0,1,.082,1.494Z" fill="#fafafa"/>
          </g>
          <g id="Group_9091" data-name="Group 9091">
            <path id="Path_5070" data-name="Path 5070" d="M101.8,50.4a3.867,3.867,0,0,1-.407-.864,3.77,3.77,0,0,1-.294-.9,3.871,3.871,0,0,1,.407.864A3.764,3.764,0,0,1,101.8,50.4Z" fill="#fafafa"/>
          </g>
          <g id="Group_9092" data-name="Group 9092">
            <path id="Path_5071" data-name="Path 5071" d="M98.574,52.007a4.306,4.306,0,0,1-.448-.9,4.193,4.193,0,0,1-.334-.944,4.319,4.319,0,0,1,.447.9A4.212,4.212,0,0,1,98.574,52.007Z" fill="#fafafa"/>
          </g>
          <g id="Group_9093" data-name="Group 9093">
            <path id="Path_5072" data-name="Path 5072" d="M95.54,53.825a3.65,3.65,0,0,1-.261-.895,3.6,3.6,0,0,1-.143-.917,3.651,3.651,0,0,1,.261.895A3.6,3.6,0,0,1,95.54,53.825Z" fill="#fafafa"/>
          </g>
          <g id="Group_9094" data-name="Group 9094">
            <path id="Path_5073" data-name="Path 5073" d="M91.936,53.9a3.7,3.7,0,0,1-.487-.791,3.57,3.57,0,0,1-.378-.84,3.7,3.7,0,0,1,.487.791A3.567,3.567,0,0,1,91.936,53.9Z" fill="#fafafa"/>
          </g>
          <g id="Group_9095" data-name="Group 9095">
            <path id="Path_5074" data-name="Path 5074" d="M91.859,56.018a5.022,5.022,0,0,1-.945.49,5.154,5.154,0,0,1-1,.391,5.006,5.006,0,0,1,.945-.49A5.154,5.154,0,0,1,91.859,56.018Z" fill="#fafafa"/>
          </g>
          <g id="Group_9096" data-name="Group 9096">
            <path id="Path_5075" data-name="Path 5075" d="M91.9,59.375a2.3,2.3,0,0,1-.328-.777,2.219,2.219,0,0,1-.137-.824,4.3,4.3,0,0,1,.254.8A4.232,4.232,0,0,1,91.9,59.375Z" fill="#fafafa"/>
          </g>
          <g id="Group_9097" data-name="Group 9097">
            <path id="Path_5076" data-name="Path 5076" d="M91.158,61.733a3.936,3.936,0,0,1-.759-.563,3.777,3.777,0,0,1-.678-.645,3.955,3.955,0,0,1,.759.563A3.8,3.8,0,0,1,91.158,61.733Z" fill="#fafafa"/>
          </g>
          <g id="Group_9098" data-name="Group 9098">
            <path id="Path_5077" data-name="Path 5077" d="M95.907,60.124c.009.032-.525.172-1.148.424s-1.1.515-1.118.487a3.642,3.642,0,0,1,1.07-.589A3.854,3.854,0,0,1,95.907,60.124Z" fill="#fafafa"/>
          </g>
          <g id="Group_9099" data-name="Group 9099">
            <path id="Path_5078" data-name="Path 5078" d="M94.518,58.955a2.765,2.765,0,0,1-.342-.731,2.687,2.687,0,0,1-.227-.768,2.781,2.781,0,0,1,.341.731A2.7,2.7,0,0,1,94.518,58.955Z" fill="#fafafa"/>
          </g>
          <g id="Group_9100" data-name="Group 9100">
            <path id="Path_5079" data-name="Path 5079" d="M97.335,56.068A6.22,6.22,0,0,1,96.7,57.1a6.4,6.4,0,0,1-.739.972,6.209,6.209,0,0,1,.637-1.032A6.377,6.377,0,0,1,97.335,56.068Z" fill="#fafafa"/>
          </g>
          <g id="Group_9101" data-name="Group 9101">
            <path id="Path_5080" data-name="Path 5080" d="M100.361,56.345a4.478,4.478,0,0,1-.773-.97,4.256,4.256,0,0,1-.568-1.083,12.229,12.229,0,0,1,.672,1.025A12.178,12.178,0,0,1,100.361,56.345Z" fill="#fafafa"/>
          </g>
          <g id="Group_9102" data-name="Group 9102">
            <path id="Path_5081" data-name="Path 5081" d="M102.175,53.6a3.879,3.879,0,0,1-1.782.081,54.748,54.748,0,0,1,1.782-.081Z" fill="#fafafa"/>
          </g>
          <g id="Group_9103" data-name="Group 9103">
            <path id="Path_5082" data-name="Path 5082" d="M106.479,50.479a7.138,7.138,0,0,1-1.14.56,7.345,7.345,0,0,1-1.192.46,7.123,7.123,0,0,1,1.14-.56A7.329,7.329,0,0,1,106.479,50.479Z" fill="#fafafa"/>
          </g>
          <g id="Group_9104" data-name="Group 9104">
            <path id="Path_5083" data-name="Path 5083" d="M106.765,48.492a3.957,3.957,0,0,1,.408-.88,4.088,4.088,0,0,1,.516-.831,3.96,3.96,0,0,1-.408.88A4.09,4.09,0,0,1,106.765,48.492Z" fill="#fafafa"/>
          </g>
          <g id="Group_9105" data-name="Group 9105">
            <path id="Path_5084" data-name="Path 5084" d="M109.5,50.051a6.587,6.587,0,0,1-.354-.972,6.544,6.544,0,0,1-.313-.983,3.491,3.491,0,0,1,.428.95A3.371,3.371,0,0,1,109.5,50.051Z" fill="#fafafa"/>
          </g>
          <g id="Group_9106" data-name="Group 9106">
            <path id="Path_5085" data-name="Path 5085" d="M109.93,52.118a3.734,3.734,0,0,1-1.021.343,3.842,3.842,0,0,1-1.074.15,47.957,47.957,0,0,1,2.095-.493Z" fill="#fafafa"/>
          </g>
          <g id="Group_9107" data-name="Group 9107">
            <path id="Path_5086" data-name="Path 5086" d="M105.243,54.643c-.035-.007.065-.526.093-1.173s-.02-1.172.016-1.176a4.416,4.416,0,0,1-.109,2.349Z" fill="#fafafa"/>
          </g>
          <g id="Group_9108" data-name="Group 9108">
            <path id="Path_5087" data-name="Path 5087" d="M104.308,57.24a3.773,3.773,0,0,1-.851-.764,3.54,3.54,0,0,1-.661-.909,11.235,11.235,0,0,1,.754.838C103.965,56.866,104.332,57.217,104.308,57.24Z" fill="#fafafa"/>
          </g>
          <g id="Group_9109" data-name="Group 9109">
            <path id="Path_5088" data-name="Path 5088" d="M109.008,56.693a5,5,0,0,1-.97.432,5.137,5.137,0,0,1-1.017.329,5.028,5.028,0,0,1,.97-.432A5.159,5.159,0,0,1,109.008,56.693Z" fill="#fafafa"/>
          </g>
          <g id="Group_9110" data-name="Group 9110">
            <path id="Path_5089" data-name="Path 5089" d="M107.324,61.581a11.438,11.438,0,0,1,.026-2.349,11.436,11.436,0,0,1-.026,2.349Z" fill="#fafafa"/>
          </g>
          <g id="Group_9111" data-name="Group 9111">
            <path id="Path_5090" data-name="Path 5090" d="M103.716,61.3a4.214,4.214,0,0,1,.207-1.207,4.335,4.335,0,0,1,.438-1.154,12,12,0,0,1-.321,1.181A12.019,12.019,0,0,1,103.716,61.3Z" fill="#fafafa"/>
          </g>
          <g id="Group_9112" data-name="Group 9112">
            <path id="Path_5091" data-name="Path 5091" d="M103.882,62.584c0,.032-.578.083-1.285.191s-1.274.229-1.283.2a4.967,4.967,0,0,1,1.264-.308A5.052,5.052,0,0,1,103.882,62.584Z" fill="#fafafa"/>
          </g>
          <g id="Group_9113" data-name="Group 9113">
            <path id="Path_5092" data-name="Path 5092" d="M99.891,61.761a4.379,4.379,0,0,1,.69-.735,4.551,4.551,0,0,1,.777-.658,4.386,4.386,0,0,1-.69.735A4.531,4.531,0,0,1,99.891,61.761Z" fill="#fafafa"/>
          </g>
          <g id="Group_9114" data-name="Group 9114">
            <path id="Path_5093" data-name="Path 5093" d="M97.306,64.07a7.378,7.378,0,0,1-.314-.836,7.337,7.337,0,0,1-.325-.832,2.292,2.292,0,0,1,.439.8A2.173,2.173,0,0,1,97.306,64.07Z" fill="#fafafa"/>
          </g>
          <g id="Group_9115" data-name="Group 9115">
            <path id="Path_5094" data-name="Path 5094" d="M101.478,65.39a6.876,6.876,0,0,1-1.167-.415,6.72,6.72,0,0,1-1.118-.516,6.892,6.892,0,0,1,1.167.415A6.73,6.73,0,0,1,101.478,65.39Z" fill="#fafafa"/>
          </g>
          <g id="Group_9116" data-name="Group 9116">
            <path id="Path_5095" data-name="Path 5095" d="M94.205,65a2.767,2.767,0,0,1,.219-.781,2.835,2.835,0,0,1,.334-.746,2.767,2.767,0,0,1-.219.781A2.835,2.835,0,0,1,94.205,65Z" fill="#fafafa"/>
          </g>
          <g id="Group_9117" data-name="Group 9117">
            <path id="Path_5096" data-name="Path 5096" d="M99,65.747c-.007.032-.668-.066-1.49-.1s-1.492-.008-1.494-.041A7.878,7.878,0,0,1,99,65.747Z" fill="#fafafa"/>
          </g>
          <g id="Group_9118" data-name="Group 9118">
            <path id="Path_5097" data-name="Path 5097" d="M99.993,59.45a.232.232,0,0,1-.006-.084.732.732,0,0,1,.037-.242.54.54,0,0,1,.253-.318.875.875,0,0,1,.568-.086l-.047.025c.255-.819.661-2.015,1.068-3.356.381-1.255.638-2.411.819-3.249l.213-.993a2.19,2.19,0,0,1,.092-.362,2.194,2.194,0,0,1-.046.369c-.037.237-.1.578-.175,1a31.217,31.217,0,0,1-.786,3.264c-.408,1.344-.829,2.536-1.108,3.348l-.011.032-.037-.006a.813.813,0,0,0-.517.063.509.509,0,0,0-.244.281A2.734,2.734,0,0,0,99.993,59.45Z" fill="#263238"/>
          </g>
          <g id="Group_9119" data-name="Group 9119">
            <path id="Path_5098" data-name="Path 5098" d="M105.208,62.42c-.02.009-.163-.281-.459-.712a7.683,7.683,0,0,0-1.386-1.518,8.242,8.242,0,0,0-1.778-1.122c-.5-.229-.823-.332-.815-.351a1.013,1.013,0,0,1,.236.057,5.51,5.51,0,0,1,.617.224,7.366,7.366,0,0,1,1.822,1.111,6.813,6.813,0,0,1,1.378,1.559,4.673,4.673,0,0,1,.3.543A.809.809,0,0,1,105.208,62.42Z" fill="#263238"/>
          </g>
          <g id="Group_9120" data-name="Group 9120" opacity="0.2">
            <path id="Path_5099" data-name="Path 5099" d="M100.9,58.56a8.837,8.837,0,0,1,2.453.407,3.069,3.069,0,0,1,1.914,1.606.494.494,0,0,1-.043.555.462.462,0,0,1-.441.065,1.171,1.171,0,0,1-.385-.243c-.513-.435-1.044-.82-1.574-1.238a4.579,4.579,0,0,0-1.989-.955"/>
          </g>
          <g id="Group_9121" data-name="Group 9121">
            <path id="Path_5100" data-name="Path 5100" d="M99.224,57.2a1.1,1.1,0,0,1-.243.129,4.5,4.5,0,0,1-.716.248,5.265,5.265,0,0,1-2.507.026,4.962,4.962,0,0,1-2.176-1.143,4,4,0,0,1-.494-.536.985.985,0,0,1-.144-.221c.02-.013.231.3.7.7a5.184,5.184,0,0,0,2.148,1.092,5.487,5.487,0,0,0,2.454.006C98.863,57.357,99.214,57.178,99.224,57.2Z" fill="#263238"/>
          </g>
          <g id="Group_9122" data-name="Group 9122" opacity="0.2">
            <path id="Path_5101" data-name="Path 5101" d="M93.072,55.866a5.389,5.389,0,0,0,1.594,2.094,2.68,2.68,0,0,0,1.469.565,3.4,3.4,0,0,0,2.036-.935,6.024,6.024,0,0,1-5.1-1.724"/>
          </g>
          <g id="Group_9123" data-name="Group 9123">
            <path id="Path_5102" data-name="Path 5102" d="M101.671,45.4c-.037,0,.008-.733-.088-1.628s-.286-1.606-.25-1.614a1.672,1.672,0,0,1,.161.458,7.559,7.559,0,0,1,.24,2.306A1.617,1.617,0,0,1,101.671,45.4Z" fill="#263238"/>
          </g>
        </g>
        <g id="Group_9132" data-name="Group 9132">
          <path id="Path_5103" data-name="Path 5103" d="M74.083,73.977a16.829,16.829,0,0,1-4.785.191c-2.116-.291-6.853.01-6.851,2.57,0,2.855,6.319,2.15,8.784,1.7s4.919-.863,4.919-.863Z" fill="#276ef1"/>
          <g id="Group_9125" data-name="Group 9125">
            <path id="Path_5104" data-name="Path 5104" d="M68.409,77.635a4.545,4.545,0,0,1-.305-.994,4.444,4.444,0,0,1-.187-1.018,4.533,4.533,0,0,1,.305.994A4.465,4.465,0,0,1,68.409,77.635Z" fill="#263238"/>
          </g>
          <g id="Group_9126" data-name="Group 9126">
            <path id="Path_5105" data-name="Path 5105" d="M69.272,77.673a4.536,4.536,0,0,1-.213-1.019,4.485,4.485,0,0,1-.093-1.034,4.524,4.524,0,0,1,.214,1.019A4.474,4.474,0,0,1,69.272,77.673Z" fill="#263238"/>
          </g>
          <g id="Group_9127" data-name="Group 9127">
            <path id="Path_5106" data-name="Path 5106" d="M70.1,77.374a6.8,6.8,0,0,1-.236-1.794,3.465,3.465,0,0,1,.178.89A3.411,3.411,0,0,1,70.1,77.374Z" fill="#263238"/>
          </g>
          <g id="Group_9128" data-name="Group 9128">
            <path id="Path_5107" data-name="Path 5107" d="M71.412,77.075a1.983,1.983,0,0,1-.325-.765,1.906,1.906,0,0,1-.093-.816,5.458,5.458,0,0,1,.21.79A5.383,5.383,0,0,1,71.412,77.075Z" fill="#263238"/>
          </g>
          <g id="Group_9129" data-name="Group 9129">
            <path id="Path_5108" data-name="Path 5108" d="M71.692,76.031a1.189,1.189,0,0,1,.33-.02,3.031,3.031,0,0,1,.888.159,1.032,1.032,0,0,1,.273.135.375.375,0,0,1,.171.283.463.463,0,0,1-.572.382,1.18,1.18,0,0,1-.66-.431,1.784,1.784,0,0,1-.373-.714,1.693,1.693,0,0,1,.278-1.479.328.328,0,0,1,.188-.1.27.27,0,0,1,.21.06.5.5,0,0,1,.158.312,1.457,1.457,0,0,1-.033.581,1.58,1.58,0,0,1-.427.732,1.348,1.348,0,0,1-.184.15c-.046.03-.071.044-.074.041s.088-.073.223-.22a1.624,1.624,0,0,0,.378-.721,1.416,1.416,0,0,0,.018-.55.422.422,0,0,0-.129-.252.171.171,0,0,0-.244.038,1.623,1.623,0,0,0-.244,1.385,1.7,1.7,0,0,0,.349.673,1.083,1.083,0,0,0,.586.4c.216.049.457-.106.452-.279a.288.288,0,0,0-.13-.219.94.94,0,0,0-.245-.128,3.32,3.32,0,0,0-.859-.19C71.81,76.036,71.692,76.04,71.692,76.031Z" fill="#263238"/>
          </g>
          <g id="Group_9130" data-name="Group 9130">
            <path id="Path_5109" data-name="Path 5109" d="M75.9,77.195a.29.29,0,0,1-.064.019l-.19.043-.733.153c-.638.129-1.562.309-2.711.513s-2.522.434-4.061.626a11.93,11.93,0,0,1-2.44.112,5.662,5.662,0,0,1-1.278-.224,3.681,3.681,0,0,1-.613-.25,1.878,1.878,0,0,1-.539-.4l.009.01a1.207,1.207,0,0,1-.22-.242,1.4,1.4,0,0,1-.129-1.25,2.028,2.028,0,0,1,.811-.973,4.273,4.273,0,0,1,1.152-.524c.2-.053.4-.116.6-.158s.4-.086.595-.111a26.965,26.965,0,0,1,4.222-.113c.6.01,1.142,0,1.618-.031a11.744,11.744,0,0,0,1.21-.141l.436-.084.314-.082.194-.049a.3.3,0,0,1,.067-.013.309.309,0,0,1-.063.024l-.191.06-.312.093-.436.094a11.017,11.017,0,0,1-1.214.16c-.477.033-1.022.053-1.623.048a27.784,27.784,0,0,0-4.2.135c-.2.026-.388.075-.586.111s-.389.1-.587.157a4.159,4.159,0,0,0-1.118.511,1.919,1.919,0,0,0-.766.919,1.3,1.3,0,0,0,.117,1.156,1.091,1.091,0,0,0,.2.218l0,0,.005.006a1.8,1.8,0,0,0,.5.366,3.577,3.577,0,0,0,.591.242,5.572,5.572,0,0,0,1.249.221,11.916,11.916,0,0,0,2.415-.1c1.536-.186,2.909-.41,4.059-.6s2.077-.363,2.718-.479l.737-.133.192-.033A.321.321,0,0,1,75.9,77.195Z" fill="#263238"/>
          </g>
          <g id="Group_9131" data-name="Group 9131">
            <path id="Path_5110" data-name="Path 5110" d="M66.656,78.57a3.494,3.494,0,0,1-.061-.593c-.029-.366-.076-.871-.157-1.425s-.18-1.053-.257-1.413a3.548,3.548,0,0,1-.111-.587,2.554,2.554,0,0,1,.194.57,12.037,12.037,0,0,1,.416,2.851A2.507,2.507,0,0,1,66.656,78.57Z" fill="#263238"/>
          </g>
          <path id="Path_5111" data-name="Path 5111" d="M73.3,74.1l1.6,3.683,1.243-.211-2.381-3.6Z" opacity="0.4"/>
        </g>
        <path id="Path_5112" data-name="Path 5112" d="M94.181,64c-.257.079-16.811-4.18-23.506-5.908a6.843,6.843,0,0,0-5.177.719l-.081.048a5.634,5.634,0,0,0-2.738,6.225h0a5.887,5.887,0,0,0,2.87,3.655c4.415,2.483,13.757,7.706,14.043,7.6.374-.133,12.042-.411,12.042-.411L77.6,66.669l6.678,3.962L94.181,64Z" fill="#263238"/>
        <path id="Path_5113" data-name="Path 5113" d="M80.36,59.38l3.519-1.671,3.451,1.986,12.919.388,1.87,5.774-18.7-3.98s-3.4.277-3.658-.426S80.36,59.38,80.36,59.38Z" fill="#ffbe9d"/>
        <path id="Path_5114" data-name="Path 5114" d="M90.945,68.634l-1.739,5.244.216,1.6h0a9.535,9.535,0,0,0,11.787.729h0a7.826,7.826,0,0,0,3.424-6.413l-.026-5.479Z" fill="#263238"/>
        <g id="Group_9133" data-name="Group 9133">
          <path id="Path_5115" data-name="Path 5115" d="M80.587,68.668c-.02.025-2.039-1.327-4.509-3.018s-4.457-3.083-4.437-3.107,2.039,1.326,4.509,3.018S80.607,68.643,80.587,68.668Z" fill="#455a64"/>
        </g>
        <g id="Group_9134" data-name="Group 9134">
          <path id="Path_5116" data-name="Path 5116" d="M83.642,58.755a14.634,14.634,0,0,1-1.721.565,14.809,14.809,0,0,1-1.758.459,14.634,14.634,0,0,1,1.721-.565A14.81,14.81,0,0,1,83.642,58.755Z" fill="#eb996e"/>
        </g>
        <g id="Group_9135" data-name="Group 9135">
          <path id="Path_5117" data-name="Path 5117" d="M83.905,59.74a3.97,3.97,0,0,1-.6.1c-.371.056-.881.139-1.438.256s-1.056.247-1.416.346a3.937,3.937,0,0,1-.588.147,2.734,2.734,0,0,1,.561-.222,13.307,13.307,0,0,1,1.416-.38,13.487,13.487,0,0,1,1.454-.226A2.845,2.845,0,0,1,83.905,59.74Z" fill="#eb996e"/>
        </g>
        <g id="Group_9136" data-name="Group 9136">
          <path id="Path_5118" data-name="Path 5118" d="M83.611,60.643a17.6,17.6,0,0,1-1.939.41,17.754,17.754,0,0,1-1.963.3,17.667,17.667,0,0,1,1.939-.41A17.736,17.736,0,0,1,83.611,60.643Z" fill="#eb996e"/>
        </g>
        <g id="Group_9137" data-name="Group 9137">
          <path id="Path_5119" data-name="Path 5119" d="M79.045,51.633l3.246,9.806a.306.306,0,0,0,.273.2l8.845.609a.3.3,0,0,1,.286.283v.507a.3.3,0,0,1-.315.284L67.2,62.906a.309.309,0,0,1-.283-.183L62.666,52.5a.287.287,0,0,1,.274-.385l15.795-.678A.309.309,0,0,1,79.045,51.633Z" fill="#455a64"/>
          <path id="Path_5120" data-name="Path 5120" d="M72.232,55.858a.724.724,0,0,0-.478.5.652.652,0,0,0,.312.611.855.855,0,0,0,.884.03.645.645,0,0,0,.241-.82.834.834,0,0,0-.959-.321" fill="#e0e0e0"/>
        </g>
        <g id="Group_9150" data-name="Group 9150">
          <path id="Path_5121" data-name="Path 5121" d="M76.15,77.573l-2.556-3.86L92.387,60.191a7.928,7.928,0,0,1,4.1-1.544h0c4.675-.391,8.6,3.187,8.21,7.482l-.3,3.3-12.474,3.68Z" fill="#263238"/>
          <g id="Group_9138" data-name="Group 9138">
            <path id="Path_5122" data-name="Path 5122" d="M100.249,68.408a.272.272,0,0,1-.05.042l-.154.116-.6.439-.434.315c-.159.116-.346.223-.539.348l-.624.393c-.111.069-.223.142-.342.213l-.373.206c-.511.28-1.062.6-1.687.89-.31.149-.626.311-.96.463l-1.039.452c-1.431.6-3.033,1.2-4.751,1.737-3.432,1.086-6.606,1.868-8.879,2.5-.57.154-1.084.3-1.533.429s-.839.238-1.153.336l-.728.217-.19.054a.317.317,0,0,1-.066.015.28.28,0,0,1,.062-.025l.186-.064.721-.237c.312-.1.7-.221,1.148-.354s.961-.286,1.529-.445c2.268-.652,5.437-1.446,8.864-2.53,1.715-.535,3.315-1.133,4.744-1.725l1.038-.446c.334-.15.65-.31.96-.456.625-.285,1.177-.6,1.689-.876l.374-.2c.119-.069.232-.141.344-.209l.628-.385c.194-.122.383-.227.543-.339l.44-.307.612-.422.161-.107A.29.29,0,0,1,100.249,68.408Z" fill="#455a64"/>
          </g>
          <g id="Group_9139" data-name="Group 9139">
            <path id="Path_5123" data-name="Path 5123" d="M100.706,70.213a.768.768,0,0,1-.19.091c-.125.053-.309.121-.539.2a14.611,14.611,0,0,1-1.843.489,14.819,14.819,0,0,1-1.9.249c-.245.015-.444.022-.581.021a.8.8,0,0,1-.214-.012,7.756,7.756,0,0,1,.787-.088c.485-.05,1.154-.136,1.882-.279s1.376-.317,1.84-.455A7.653,7.653,0,0,1,100.706,70.213Z" fill="#455a64"/>
          </g>
          <g id="Group_9140" data-name="Group 9140">
            <path id="Path_5124" data-name="Path 5124" d="M91.635,60.839c.021.024-4,2.926-8.983,6.48s-9.037,6.417-9.058,6.393,4-2.925,8.984-6.481S91.614,60.815,91.635,60.839Z" fill="#455a64"/>
          </g>
          <g id="Group_9149" data-name="Group 9149">
            <g id="Group_9142" data-name="Group 9142">
              <path id="Path_5125" data-name="Path 5125" d="M90.549,75.188a3.758,3.758,0,0,0-2.776.086,3.314,3.314,0,0,1-1.754.308,2.823,2.823,0,0,1-1.057-.7,7.01,7.01,0,0,0-4.858-1.6,2.061,2.061,0,0,0-1.334.554c-.885.88-.217,2.026.574,2.766a9.073,9.073,0,0,0,5.283,2.34,13.268,13.268,0,0,0,5.588-.708,1.71,1.71,0,0,0,1.019-2.424A1.63,1.63,0,0,0,90.549,75.188Z" fill="#276ef1"/>
              <g id="Group_9141" data-name="Group 9141" opacity="0.4">
                <path id="Path_5126" data-name="Path 5126" d="M90.547,75.893a3.759,3.759,0,0,0-2.776.086,3.313,3.313,0,0,1-1.754.308,2.826,2.826,0,0,1-1.057-.7,7.009,7.009,0,0,0-4.858-1.6,2.061,2.061,0,0,0-1.334.554,1.383,1.383,0,0,0-.372.617,3.179,3.179,0,0,0,.945,1.445,9.073,9.073,0,0,0,5.283,2.34,13.268,13.268,0,0,0,5.588-.708,1.921,1.921,0,0,0,1.189-1.3,1.506,1.506,0,0,0-.17-.418A1.63,1.63,0,0,0,90.547,75.893Z"/>
              </g>
            </g>
            <g id="Group_9143" data-name="Group 9143">
              <path id="Path_5127" data-name="Path 5127" d="M91.4,76.94a1.363,1.363,0,0,0-.221-.49,1.686,1.686,0,0,0-.482-.433,2.031,2.031,0,0,0-.829-.291,7.334,7.334,0,0,0-2.306.4,3.9,3.9,0,0,1-1.4.2,1.968,1.968,0,0,1-.72-.229,4.519,4.519,0,0,1-.619-.428,6.62,6.62,0,0,0-2.465-1.345,6.954,6.954,0,0,0-1.227-.261,4.211,4.211,0,0,0-1.091-.006,2.521,2.521,0,0,0-.844.271,2.105,2.105,0,0,0-.517.4,4.846,4.846,0,0,0-.333.441,1.68,1.68,0,0,1,.3-.469,2.064,2.064,0,0,1,.518-.428,2.549,2.549,0,0,1,.865-.295,4.231,4.231,0,0,1,1.117-.008,6.92,6.92,0,0,1,1.249.256,7.557,7.557,0,0,1,1.294.524,5.445,5.445,0,0,1,.63.376c.2.144.391.3.585.457a4.406,4.406,0,0,0,.6.417,1.848,1.848,0,0,0,.674.216,3.83,3.83,0,0,0,1.356-.194,7.222,7.222,0,0,1,2.346-.38,1.957,1.957,0,0,1,1.34.779,1.1,1.1,0,0,1,.167.374A.487.487,0,0,1,91.4,76.94Z" fill="#263238"/>
            </g>
            <g id="Group_9144" data-name="Group 9144">
              <path id="Path_5128" data-name="Path 5128" d="M91.4,76.94a1.363,1.363,0,0,0-.221-.49,1.686,1.686,0,0,0-.482-.433,2.031,2.031,0,0,0-.829-.291,7.334,7.334,0,0,0-2.306.4,3.9,3.9,0,0,1-1.4.2,1.968,1.968,0,0,1-.72-.229,4.519,4.519,0,0,1-.619-.428,6.62,6.62,0,0,0-2.465-1.345,6.954,6.954,0,0,0-1.227-.261,4.211,4.211,0,0,0-1.091-.006,2.521,2.521,0,0,0-.844.271,2.105,2.105,0,0,0-.517.4,4.846,4.846,0,0,0-.333.441,1.68,1.68,0,0,1,.3-.469,2.064,2.064,0,0,1,.518-.428,2.549,2.549,0,0,1,.865-.295,4.231,4.231,0,0,1,1.117-.008,6.92,6.92,0,0,1,1.249.256,7.557,7.557,0,0,1,1.294.524,5.445,5.445,0,0,1,.63.376c.2.144.391.3.585.457a4.406,4.406,0,0,0,.6.417,1.848,1.848,0,0,0,.674.216,3.83,3.83,0,0,0,1.356-.194,7.222,7.222,0,0,1,2.346-.38,1.957,1.957,0,0,1,1.34.779,1.1,1.1,0,0,1,.167.374A.487.487,0,0,1,91.4,76.94Z" fill="#263238"/>
            </g>
            <g id="Group_9145" data-name="Group 9145">
              <path id="Path_5129" data-name="Path 5129" d="M80.222,76.741a2.312,2.312,0,0,1,.461-.294c.3-.166.716-.378,1.194-.585s.925-.367,1.253-.471a2.478,2.478,0,0,1,.541-.139,3.039,3.039,0,0,1-.51.212c-.318.122-.756.293-1.232.5s-.9.406-1.2.553A3.072,3.072,0,0,1,80.222,76.741Z" fill="#263238"/>
            </g>
            <g id="Group_9146" data-name="Group 9146">
              <path id="Path_5130" data-name="Path 5130" d="M80.531,77.569a16.8,16.8,0,0,1,1.761-.843,17.133,17.133,0,0,1,1.813-.743,16.816,16.816,0,0,1-1.761.843A17.163,17.163,0,0,1,80.531,77.569Z" fill="#263238"/>
            </g>
            <g id="Group_9147" data-name="Group 9147">
              <path id="Path_5131" data-name="Path 5131" d="M84.266,77.928c-.018.026-.978-.5-2.145-1.175s-2.1-1.243-2.081-1.269.978.5,2.146,1.175S84.284,77.9,84.266,77.928Z" fill="#263238"/>
            </g>
            <g id="Group_9148" data-name="Group 9148">
              <path id="Path_5132" data-name="Path 5132" d="M84.806,77.069a2.905,2.905,0,0,1-.47-.289c-.283-.187-.672-.445-1.109-.723s-.837-.522-1.127-.7a2.869,2.869,0,0,1-.459-.3,2.525,2.525,0,0,1,.5.236c.3.161.712.4,1.151.675s.822.549,1.092.752A2.36,2.36,0,0,1,84.806,77.069Z" fill="#263238"/>
            </g>
          </g>
        </g>
      </g>
    </g>
  </g>
</svg>
