<svg xmlns="http://www.w3.org/2000/svg" width="114" height="62.574" viewBox="0 0 114 62.574">
  <g id="Vector_Smart_Object" data-name="Vector Smart Object" transform="translate(-9.778 -11.839)">
    <g id="Background_Complete" data-name="Background Complete" transform="translate(9.778 11.839)">
      <g id="Group_12086" data-name="Group 12086" transform="translate(31.7 5.62)">
        <rect id="Rectangle_538" data-name="Rectangle 538" width="10.201" height="13.985" transform="matrix(0.977, -0.212, 0.211, 0.978, 0, 2.158)" fill="#f5f5f5"/>
      </g>
      <g id="Group_12095" data-name="Group 12095" transform="translate(55.157)">
        <g id="Group_12087" data-name="Group 12087">
          <rect id="Rectangle_539" data-name="Rectangle 539" width="33.981" height="22.143" fill="#f5f5f5"/>
        </g>
        <g id="Group_12090" data-name="Group 12090" transform="translate(11.419 4.552)">
          <g id="Group_12088" data-name="Group 12088">
            <ellipse id="Ellipse_464" data-name="Ellipse 464" cx="4.633" cy="4.625" rx="4.633" ry="4.625" transform="matrix(0.232, -0.973, 0.973, 0.233, 0, 9.013)" fill="#e0e0e0"/>
          </g>
          <g id="Group_12089" data-name="Group 12089" transform="translate(4.711 4.186)">
            <path id="Path_6869" data-name="Path 6869" d="M78.269,21.335l-1.208.7-1.208.7V19.938l1.208.7Z" transform="translate(-75.854 -19.938)" fill="#f5f5f5"/>
          </g>
        </g>
        <g id="Group_12091" data-name="Group 12091" transform="translate(0 18.165)">
          <rect id="Rectangle_540" data-name="Rectangle 540" width="33.981" height="3.978" fill="#e0e0e0"/>
        </g>
        <g id="Group_12092" data-name="Group 12092" transform="translate(2.322 19.587)">
          <path id="Path_6870" data-name="Path 6870" d="M64.036,30.561l-.49.283-.49.284V29.994l.49.283Z" transform="translate(-63.056 -29.994)" fill="#f5f5f5"/>
        </g>
        <g id="Group_12093" data-name="Group 12093" transform="translate(6.119 20.064)">
          <rect id="Rectangle_541" data-name="Rectangle 541" width="25.066" height="0.18" fill="#f5f5f5"/>
        </g>
        <g id="Group_12094" data-name="Group 12094" transform="translate(5.879 19.78)">
          <path id="Path_6871" data-name="Path 6871" d="M67.1,30.547a.374.374,0,1,1-.374-.374A.374.374,0,0,1,67.1,30.547Z" transform="translate(-66.353 -30.173)" fill="#f5f5f5"/>
        </g>
      </g>
      <g id="Group_12121" data-name="Group 12121" transform="translate(79.21 15.948)">
        <g id="Group_12112" data-name="Group 12112">
          <g id="Group_12101" data-name="Group 12101">
            <g id="Group_12096" data-name="Group 12096">
              <rect id="Rectangle_542" data-name="Rectangle 542" width="34.79" height="31.416" rx="0.916" fill="#f5f5f5"/>
            </g>
            <g id="Group_12097" data-name="Group 12097">
              <path id="Rectangle_543" data-name="Rectangle 543" d="M1.07,0H33.72a1.07,1.07,0,0,1,1.07,1.07V3.508a0,0,0,0,1,0,0H0a0,0,0,0,1,0,0V1.07A1.07,1.07,0,0,1,1.07,0Z" fill="#ebebeb"/>
            </g>
            <g id="Group_12098" data-name="Group 12098" transform="translate(1.848 1.485)">
              <ellipse id="Ellipse_465" data-name="Ellipse 465" cx="0.274" cy="0.275" rx="0.274" ry="0.275" fill="#fafafa"/>
            </g>
            <g id="Group_12099" data-name="Group 12099" transform="translate(3.495 1.485)">
              <path id="Path_6872" data-name="Path 6872" d="M86.987,28.272A.274.274,0,1,1,86.712,28,.275.275,0,0,1,86.987,28.272Z" transform="translate(-86.438 -27.997)" fill="#fafafa"/>
            </g>
            <g id="Group_12100" data-name="Group 12100" transform="translate(5.142 1.485)">
              <ellipse id="Ellipse_466" data-name="Ellipse 466" cx="0.274" cy="0.275" rx="0.274" ry="0.275" fill="#fafafa"/>
            </g>
          </g>
          <g id="Group_12102" data-name="Group 12102" transform="translate(17.47 6.336)">
            <rect id="Rectangle_544" data-name="Rectangle 544" width="13.137" height="0.476" fill="#fafafa"/>
          </g>
          <g id="Group_12103" data-name="Group 12103" transform="translate(17.47 8.296)">
            <rect id="Rectangle_545" data-name="Rectangle 545" width="13.137" height="0.476" fill="#fafafa"/>
          </g>
          <g id="Group_12104" data-name="Group 12104" transform="translate(17.47 10.257)">
            <rect id="Rectangle_546" data-name="Rectangle 546" width="13.137" height="0.476" fill="#fafafa"/>
          </g>
          <g id="Group_12105" data-name="Group 12105" transform="translate(17.47 12.217)">
            <rect id="Rectangle_547" data-name="Rectangle 547" width="13.137" height="0.476" fill="#fafafa"/>
          </g>
          <g id="Group_12106" data-name="Group 12106" transform="translate(17.47 14.178)">
            <rect id="Rectangle_548" data-name="Rectangle 548" width="6.568" height="0.476" fill="#fafafa"/>
          </g>
          <g id="Group_12107" data-name="Group 12107" transform="translate(3.517 18.034)">
            <rect id="Rectangle_549" data-name="Rectangle 549" width="13.137" height="0.476" transform="matrix(-1, 0, 0, -1, 13.137, 0.476)" fill="#fafafa"/>
          </g>
          <g id="Group_12108" data-name="Group 12108" transform="translate(3.517 19.994)">
            <rect id="Rectangle_550" data-name="Rectangle 550" width="13.137" height="0.476" transform="matrix(-1, 0, 0, -1, 13.137, 0.476)" fill="#fafafa"/>
          </g>
          <g id="Group_12109" data-name="Group 12109" transform="translate(3.517 21.955)">
            <rect id="Rectangle_551" data-name="Rectangle 551" width="13.137" height="0.476" transform="matrix(-1, 0, 0, -1, 13.137, 0.476)" fill="#fafafa"/>
          </g>
          <g id="Group_12110" data-name="Group 12110" transform="translate(3.517 23.916)">
            <rect id="Rectangle_552" data-name="Rectangle 552" width="13.137" height="0.476" transform="matrix(-1, 0, 0, -1, 13.137, 0.476)" fill="#fafafa"/>
          </g>
          <g id="Group_12111" data-name="Group 12111" transform="translate(10.085 25.876)">
            <rect id="Rectangle_553" data-name="Rectangle 553" width="6.568" height="0.476" transform="matrix(-1, 0, 0, -1, 6.568, 0.476)" fill="#fafafa"/>
          </g>
        </g>
        <g id="Group_12116" data-name="Group 12116" transform="translate(18.904 17.507)">
          <g id="Group_12113" data-name="Group 12113" transform="translate(0.019)">
            <rect id="Rectangle_554" data-name="Rectangle 554" width="11.241" height="9.372" fill="#fafafa"/>
          </g>
          <g id="Group_12114" data-name="Group 12114" transform="translate(0 2.726)">
            <path id="Path_6873" data-name="Path 6873" d="M100.72,49.191l3.322-2.332,2.318,1.607,3.645-3.091,1.975,1.96v4.686H100.739Z" transform="translate(-100.72 -45.375)" fill="#ebebeb"/>
          </g>
          <g id="Group_12115" data-name="Group 12115" transform="translate(4.893 1.782)">
            <ellipse id="Ellipse_467" data-name="Ellipse 467" cx="0.942" cy="0.944" rx="0.942" ry="0.944" fill="#ebebeb"/>
          </g>
        </g>
        <g id="Group_12120" data-name="Group 12120" transform="translate(3.498 6.047)">
          <g id="Group_12117" data-name="Group 12117" transform="translate(0.019)">
            <rect id="Rectangle_555" data-name="Rectangle 555" width="11.241" height="9.372" fill="#fafafa"/>
          </g>
          <g id="Group_12118" data-name="Group 12118" transform="translate(0 2.726)">
            <path id="Path_6874" data-name="Path 6874" d="M86.44,38.569l3.322-2.332,2.318,1.607,3.646-3.091,1.975,1.96V41.4H86.459Z" transform="translate(-86.44 -34.753)" fill="#ebebeb"/>
          </g>
          <g id="Group_12119" data-name="Group 12119" transform="translate(4.893 1.782)">
            <ellipse id="Ellipse_468" data-name="Ellipse 468" cx="0.942" cy="0.944" rx="0.942" ry="0.944" fill="#ebebeb"/>
          </g>
        </g>
      </g>
      <g id="Group_12138" data-name="Group 12138" transform="translate(0 30.589)">
        <g id="Group_12133" data-name="Group 12133">
          <g id="Group_12127" data-name="Group 12127">
            <g id="Group_12122" data-name="Group 12122">
              <path id="Rectangle_556" data-name="Rectangle 556" d="M0,0H41.853a0,0,0,0,1,0,0V21.939a.776.776,0,0,1-.776.776H.776A.776.776,0,0,1,0,21.939V0A0,0,0,0,1,0,0Z" fill="#f5f5f5"/>
            </g>
            <g id="Group_12123" data-name="Group 12123">
              <rect id="Rectangle_557" data-name="Rectangle 557" width="41.853" height="4.22" fill="#ebebeb"/>
            </g>
            <g id="Group_12124" data-name="Group 12124" transform="translate(2.224 1.786)">
              <ellipse id="Ellipse_469" data-name="Ellipse 469" cx="0.33" cy="0.331" rx="0.33" ry="0.331" fill="#fafafa"/>
            </g>
            <g id="Group_12125" data-name="Group 12125" transform="translate(4.205 1.786)">
              <ellipse id="Ellipse_470" data-name="Ellipse 470" cx="0.33" cy="0.331" rx="0.33" ry="0.331" fill="#fafafa"/>
            </g>
            <g id="Group_12126" data-name="Group 12126" transform="translate(6.185 1.786)">
              <ellipse id="Ellipse_471" data-name="Ellipse 471" cx="0.33" cy="0.331" rx="0.33" ry="0.331" fill="#fafafa"/>
            </g>
          </g>
          <g id="Group_12128" data-name="Group 12128" transform="translate(21.016 7.622)">
            <rect id="Rectangle_558" data-name="Rectangle 558" width="15.804" height="0.573" transform="translate(0)" fill="#ebebeb"/>
          </g>
          <g id="Group_12129" data-name="Group 12129" transform="translate(21.016 9.981)">
            <rect id="Rectangle_559" data-name="Rectangle 559" width="15.804" height="0.573" transform="translate(0)" fill="#ebebeb"/>
          </g>
          <g id="Group_12130" data-name="Group 12130" transform="translate(21.016 12.339)">
            <rect id="Rectangle_560" data-name="Rectangle 560" width="15.804" height="0.573" transform="translate(0)" fill="#ebebeb"/>
          </g>
          <g id="Group_12131" data-name="Group 12131" transform="translate(21.016 14.698)">
            <rect id="Rectangle_561" data-name="Rectangle 561" width="15.804" height="0.573" transform="translate(0)" fill="#ebebeb"/>
          </g>
          <g id="Group_12132" data-name="Group 12132" transform="translate(21.016 17.056)">
            <rect id="Rectangle_562" data-name="Rectangle 562" width="7.902" height="0.573" transform="translate(0)" fill="#ebebeb"/>
          </g>
        </g>
        <g id="Group_12137" data-name="Group 12137" transform="translate(3.458 7.221)">
          <g id="Group_12134" data-name="Group 12134" transform="translate(0.023)">
            <rect id="Rectangle_563" data-name="Rectangle 563" width="13.524" height="11.275" fill="#fafafa"/>
          </g>
          <g id="Group_12135" data-name="Group 12135" transform="translate(0 3.279)">
            <path id="Path_6875" data-name="Path 6875" d="M12.983,54.516l4-2.806,2.789,1.933,4.386-3.718,2.376,2.359v5.638H13.006Z" transform="translate(-12.983 -49.924)" fill="#ebebeb"/>
          </g>
          <g id="Group_12136" data-name="Group 12136" transform="translate(5.886 2.144)">
            <path id="Path_6876" data-name="Path 6876" d="M20.7,50.007a1.133,1.133,0,1,1-1.133-1.135A1.134,1.134,0,0,1,20.7,50.007Z" transform="translate(-18.439 -48.872)" fill="#ebebeb"/>
          </g>
        </g>
      </g>
    </g>
    <g id="Document" transform="translate(40.165 19.877)">
      <g id="Group_12159" data-name="Group 12159">
        <g id="Group_12142" data-name="Group 12142">
          <g id="Group_12139" data-name="Group 12139" transform="translate(0.056 0.05)">
            <rect id="Rectangle_564" data-name="Rectangle 564" width="10.201" height="13.985" transform="matrix(0.977, -0.212, 0.211, 0.978, 0, 2.158)" fill="#fff"/>
          </g>
          <g id="Group_12141" data-name="Group 12141">
            <g id="Group_12140" data-name="Group 12140">
              <path id="Path_6877" data-name="Path 6877" d="M50.916,33.011s-.007-.023-.017-.067l-.044-.193-.166-.746L50.073,29.2l-2.145-9.852.05.033L38.01,21.543h0l.036-.056,2.938,13.673-.045-.029,7.245-1.547,2.016-.426.532-.111c.121-.025.185-.036.185-.036s-.058.015-.176.042l-.523.118-2,.444-7.26,1.592-.037.008-.008-.038L37.953,21.507l-.01-.046.046-.01h0L47.96,19.3,48,19.289l.009.041,2.11,9.888.592,2.8.154.74.038.189C50.913,32.991,50.916,33.011,50.916,33.011Z" transform="translate(-37.943 -19.289)" fill="#263238"/>
            </g>
          </g>
        </g>
        <g id="Group_12144" data-name="Group 12144" transform="translate(1.9 3.634)">
          <g id="Group_12143" data-name="Group 12143">
            <path id="Path_6878" data-name="Path 6878" d="M44.55,22.66c.005.025-1.075.281-2.413.57s-2.427.5-2.432.478,1.075-.281,2.413-.57S44.544,22.635,44.55,22.66Z" transform="translate(-39.705 -22.658)" fill="#263238"/>
          </g>
        </g>
        <g id="Group_12146" data-name="Group 12146" transform="translate(2.156 4.256)">
          <g id="Group_12145" data-name="Group 12145">
            <path id="Path_6879" data-name="Path 6879" d="M47.408,23.235c.005.025-1.662.408-3.723.854s-3.737.787-3.743.762S41.6,24.444,43.665,24,47.4,23.21,47.408,23.235Z" transform="translate(-39.942 -23.234)" fill="#263238"/>
          </g>
        </g>
        <g id="Group_12148" data-name="Group 12148" transform="translate(2.423 5.495)">
          <g id="Group_12147" data-name="Group 12147">
            <path id="Path_6880" data-name="Path 6880" d="M47.655,24.384c.005.025-1.662.408-3.723.854S40.2,26.025,40.19,26s1.661-.407,3.723-.854S47.65,24.359,47.655,24.384Z" transform="translate(-40.19 -24.383)" fill="#263238"/>
          </g>
        </g>
        <g id="Group_12150" data-name="Group 12150" transform="translate(2.69 6.735)">
          <g id="Group_12149" data-name="Group 12149">
            <path id="Path_6881" data-name="Path 6881" d="M47.9,25.533c.006.025-1.661.408-3.723.854s-3.737.787-3.743.762,1.661-.407,3.723-.854S47.9,25.507,47.9,25.533Z" transform="translate(-40.437 -25.532)" fill="#263238"/>
          </g>
        </g>
        <g id="Group_12152" data-name="Group 12152" transform="translate(2.958 7.974)">
          <g id="Group_12151" data-name="Group 12151">
            <path id="Path_6882" data-name="Path 6882" d="M48.15,26.682c.006.025-1.661.408-3.723.854s-3.737.787-3.743.762,1.661-.407,3.723-.854S48.145,26.656,48.15,26.682Z" transform="translate(-40.685 -26.68)" fill="#263238"/>
          </g>
        </g>
        <g id="Group_12154" data-name="Group 12154" transform="translate(3.225 9.213)">
          <g id="Group_12153" data-name="Group 12153">
            <path id="Path_6883" data-name="Path 6883" d="M48.4,27.83c.005.025-1.661.408-3.723.854s-3.737.787-3.743.762,1.661-.408,3.723-.854S48.393,27.8,48.4,27.83Z" transform="translate(-40.932 -27.829)" fill="#263238"/>
          </g>
        </g>
        <g id="Group_12156" data-name="Group 12156" transform="translate(3.492 10.452)">
          <g id="Group_12155" data-name="Group 12155">
            <path id="Path_6884" data-name="Path 6884" d="M48.646,28.979c.005.025-1.662.408-3.723.854s-3.737.787-3.743.762,1.661-.408,3.723-.854S48.64,28.954,48.646,28.979Z" transform="translate(-41.18 -28.978)" fill="#263238"/>
          </g>
        </g>
        <g id="Group_12158" data-name="Group 12158" transform="translate(3.759 12.438)">
          <g id="Group_12157" data-name="Group 12157">
            <path id="Path_6885" data-name="Path 6885" d="M45.44,30.82c.005.025-.889.24-2,.48s-2.011.414-2.016.388.888-.24,2-.48S45.435,30.8,45.44,30.82Z" transform="translate(-41.428 -30.818)" fill="#263238"/>
          </g>
        </g>
      </g>
    </g>
    <g id="Pointer" transform="translate(93.395 51.589)">
      <g id="Group_12169" data-name="Group 12169">
        <g id="Group_12160" data-name="Group 12160" transform="translate(3.442 3.333)">
          <path id="Path_6886" data-name="Path 6886" d="M90.474,51.772l2.552,6.565,1.064-1.722,1.474,1.939,1.758-1.675-1.675-1.617,1.546-1.048Z" transform="translate(-90.474 -51.772)" fill="#276ef1"/>
        </g>
        <g id="Group_12162" data-name="Group 12162" transform="translate(0.571 4.302)">
          <g id="Group_12161" data-name="Group 12161">
            <path id="Path_6887" data-name="Path 6887" d="M89.723,52.672a13.666,13.666,0,0,1-1.91,1.214,13.664,13.664,0,0,1,1.91-1.214Z" transform="translate(-87.813 -52.67)" fill="#263238"/>
          </g>
        </g>
        <g id="Group_12164" data-name="Group 12164" transform="translate(0 1.91)">
          <g id="Group_12163" data-name="Group 12163">
            <path id="Path_6888" data-name="Path 6888" d="M89.963,51.524a1.793,1.793,0,0,1-.41-.108c-.249-.08-.59-.2-.959-.352s-.7-.3-.936-.409a1.885,1.885,0,0,1-.374-.2,1.931,1.931,0,0,1,.4.138l.945.383.946.376A2.034,2.034,0,0,1,89.963,51.524Z" transform="translate(-87.283 -50.454)" fill="#263238"/>
          </g>
        </g>
        <g id="Group_12166" data-name="Group 12166" transform="translate(3.445)">
          <g id="Group_12165" data-name="Group 12165">
            <path id="Path_6889" data-name="Path 6889" d="M90.481,48.683a1.431,1.431,0,0,1,.093.362c.044.226.1.54.139.889s.071.666.084.9a1.426,1.426,0,0,1,0,.374,12.276,12.276,0,0,1-.176-1.258A12.332,12.332,0,0,1,90.481,48.683Z" transform="translate(-90.476 -48.683)" fill="#263238"/>
          </g>
        </g>
        <g id="Group_12168" data-name="Group 12168" transform="translate(5.017 1.467)">
          <g id="Group_12167" data-name="Group 12167">
            <path id="Path_6890" data-name="Path 6890" d="M93.9,50.045c.011.026-.462.23-.994.572s-.953.64-.97.616a1.2,1.2,0,0,1,.254-.225c.165-.128.4-.3.667-.471A3.481,3.481,0,0,1,93.9,50.045Z" transform="translate(-91.934 -50.043)" fill="#263238"/>
          </g>
        </g>
      </g>
    </g>
    <g id="Plus" transform="translate(30.903 52.732)">
      <g id="Group_12176" data-name="Group 12176">
        <g id="Group_12171" data-name="Group 12171">
          <g id="Group_12170" data-name="Group 12170">
            <path id="Path_6891" data-name="Path 6891" d="M35.933,53.05a5.09,5.09,0,0,0-.12-.794,3.134,3.134,0,0,0-.364-.862,3.224,3.224,0,0,0-3.877-1.374,3.019,3.019,0,0,0-.814.44,2.943,2.943,0,0,0-.68.685,3.216,3.216,0,0,0,0,3.811,2.944,2.944,0,0,0,.68.685,3.024,3.024,0,0,0,.814.44,3.236,3.236,0,0,0,3.877-1.374,3.133,3.133,0,0,0,.364-.862,5.087,5.087,0,0,0,.12-.794.22.22,0,0,1,0,.053l0,.156a1.506,1.506,0,0,1-.021.253,2.3,2.3,0,0,1-.062.341,3.093,3.093,0,0,1-.354.88,3.279,3.279,0,0,1-3.951,1.429,3.1,3.1,0,0,1-.838-.449,3.029,3.029,0,0,1-.7-.7,3.3,3.3,0,0,1,0-3.92,3.727,3.727,0,0,1,.325-.384,3.681,3.681,0,0,1,.376-.319,3.1,3.1,0,0,1,.838-.449,3.3,3.3,0,0,1,1.736-.138,3.29,3.29,0,0,1,2.215,1.567,3.094,3.094,0,0,1,.354.88,2.3,2.3,0,0,1,.062.341,1.505,1.505,0,0,1,.021.253l0,.156A.221.221,0,0,1,35.933,53.05Z" transform="translate(-29.359 -49.743)" fill="#263238"/>
          </g>
        </g>
        <g id="Group_12173" data-name="Group 12173" transform="translate(3.263 1.665)">
          <g id="Group_12172" data-name="Group 12172">
            <path id="Path_6892" data-name="Path 6892" d="M32.431,54.57a14.407,14.407,0,0,1-.047-1.642,14.4,14.4,0,0,1,.047-1.642,14.431,14.431,0,0,1,.047,1.642A14.434,14.434,0,0,1,32.431,54.57Z" transform="translate(-32.384 -51.286)" fill="#263238"/>
          </g>
        </g>
        <g id="Group_12175" data-name="Group 12175" transform="translate(1.672 3.26)">
          <g id="Group_12174" data-name="Group 12174">
            <path id="Path_6893" data-name="Path 6893" d="M34.185,52.812a14.342,14.342,0,0,1-1.639.047,14.344,14.344,0,0,1-1.639-.047,14.345,14.345,0,0,1,1.639-.047A14.343,14.343,0,0,1,34.185,52.812Z" transform="translate(-30.908 -52.765)" fill="#263238"/>
          </g>
        </g>
      </g>
    </g>
    <g id="Search_Engine" data-name="Search Engine" transform="translate(40.976 41.87)">
      <g id="Group_12238" data-name="Group 12238">
        <g id="Group_12188" data-name="Group 12188" transform="translate(36.56 9.046)">
          <g id="Group_12178" data-name="Group 12178">
            <g id="Group_12177" data-name="Group 12177">
              <path id="Path_6894" data-name="Path 6894" d="M82.6,63.753c-.022.014-2.282-3.488-5.047-7.821s-4.99-7.859-4.968-7.873,2.281,3.487,5.047,7.822S82.62,63.739,82.6,63.753Z" transform="translate(-72.583 -48.059)" fill="#263238"/>
            </g>
          </g>
          <g id="Group_12187" data-name="Group 12187" transform="translate(5.752 12.793)">
            <g id="Group_12182" data-name="Group 12182">
              <g id="Group_12179" data-name="Group 12179" transform="translate(0.001 0.039)">
                <ellipse id="Ellipse_472" data-name="Ellipse 472" cx="5.244" cy="5.255" rx="5.244" ry="5.255" fill="#fff"/>
              </g>
              <g id="Group_12181" data-name="Group 12181">
                <g id="Group_12180" data-name="Group 12180">
                  <path id="Path_6895" data-name="Path 6895" d="M77.915,65.211s0-.029,0-.085,0-.143.008-.25c0-.055,0-.117.007-.185s.019-.141.03-.221a3.769,3.769,0,0,1,.1-.546,4.984,4.984,0,0,1,.572-1.409,5.275,5.275,0,0,1,3.55-2.5,4.881,4.881,0,0,1,.668-.079c.114,0,.229-.016.344-.014l.35.017a2.3,2.3,0,0,1,.353.038c.118.019.237.033.356.057a5.585,5.585,0,0,1,.706.206,5.5,5.5,0,0,1,.69.3c.112.06.219.131.33.2a2.689,2.689,0,0,1,.32.22,4.845,4.845,0,0,1,1.12,1.124,5.134,5.134,0,0,1,.757,1.46,5.257,5.257,0,0,1,0,3.346,5.132,5.132,0,0,1-.757,1.46,4.846,4.846,0,0,1-1.12,1.124,2.687,2.687,0,0,1-.319.22c-.111.066-.218.136-.33.2a5.5,5.5,0,0,1-.69.3,5.593,5.593,0,0,1-.706.206c-.118.024-.238.038-.356.057a2.3,2.3,0,0,1-.353.038l-.35.017c-.116,0-.23-.01-.344-.014a4.9,4.9,0,0,1-.668-.08,5.276,5.276,0,0,1-3.55-2.5,4.985,4.985,0,0,1-.572-1.409,3.74,3.74,0,0,1-.1-.546c-.011-.08-.024-.153-.03-.221s0-.129-.007-.185c0-.107-.006-.19-.008-.25s0-.085,0-.085,0,.029.009.085l.017.249.012.183c.007.067.022.14.034.219a3.825,3.825,0,0,0,.11.542,5.026,5.026,0,0,0,.582,1.391A5.236,5.236,0,0,0,82.2,70.334a4.852,4.852,0,0,0,.658.076c.112,0,.225.015.339.013l.344-.018a2.227,2.227,0,0,0,.347-.038c.116-.019.234-.033.35-.057a5.5,5.5,0,0,0,.694-.2,5.427,5.427,0,0,0,.678-.3c.11-.06.215-.129.324-.194a2.658,2.658,0,0,0,.314-.217,4.767,4.767,0,0,0,1.1-1.107,5.048,5.048,0,0,0,.743-1.435,5.172,5.172,0,0,0,0-3.287,5.05,5.05,0,0,0-.743-1.435,4.759,4.759,0,0,0-1.1-1.106,2.649,2.649,0,0,0-.314-.217c-.109-.065-.214-.134-.324-.194a5.435,5.435,0,0,0-.678-.3,5.521,5.521,0,0,0-.693-.2c-.117-.024-.234-.038-.35-.057a2.225,2.225,0,0,0-.347-.038L83.2,60c-.114,0-.227.009-.339.013a4.8,4.8,0,0,0-.658.076,5.235,5.235,0,0,0-3.52,2.453,5.018,5.018,0,0,0-.582,1.391,3.806,3.806,0,0,0-.11.542c-.012.079-.027.152-.034.219s-.008.128-.012.184l-.017.249C77.92,65.182,77.915,65.211,77.915,65.211Z" transform="translate(-77.914 -59.917)" fill="#263238"/>
                </g>
              </g>
            </g>
            <g id="Group_12186" data-name="Group 12186" transform="translate(3.097 2.457)">
              <g id="Group_12183" data-name="Group 12183" transform="translate(0 0.905)">
                <path id="Path_6896" data-name="Path 6896" d="M81.5,63.034l-.718,4.111,2.148-.3,2.148.3-.864-4.111Z" transform="translate(-80.785 -63.034)" fill="#263238"/>
              </g>
              <g id="Group_12185" data-name="Group 12185" transform="translate(1.238)">
                <g id="Group_12184" data-name="Group 12184">
                  <path id="Path_6897" data-name="Path 6897" d="M83.75,63.154c-.015.005-.059-.146-.172-.365a1.145,1.145,0,0,0-.258-.333.793.793,0,0,0-.21-.122.845.845,0,0,0-.257-.045.889.889,0,0,0-.49.119.782.782,0,0,0-.268.314c-.108.22-.143.374-.16.369a1,1,0,0,1,.1-.4.807.807,0,0,1,.281-.358.935.935,0,0,1,.538-.14.9.9,0,0,1,.289.053.855.855,0,0,1,.234.143,1.114,1.114,0,0,1,.261.37A1.028,1.028,0,0,1,83.75,63.154Z" transform="translate(-81.933 -62.195)" fill="#263238"/>
                </g>
              </g>
            </g>
          </g>
        </g>
        <g id="Group_12197" data-name="Group 12197" transform="translate(21.279 8.929)">
          <g id="Group_12190" data-name="Group 12190" transform="translate(5.305)">
            <g id="Group_12189" data-name="Group 12189">
              <path id="Path_6898" data-name="Path 6898" d="M63.383,64.114c-.026,0-.047-3.619-.047-8.081s.021-8.082.047-8.082.047,3.618.047,8.082S63.409,64.114,63.383,64.114Z" transform="translate(-63.336 -47.951)" fill="#263238"/>
            </g>
          </g>
          <g id="Group_12196" data-name="Group 12196" transform="translate(0 13.027)">
            <g id="Group_12194" data-name="Group 12194">
              <g id="Group_12191" data-name="Group 12191" transform="translate(0.001 0.039)">
                <ellipse id="Ellipse_473" data-name="Ellipse 473" cx="5.244" cy="5.255" rx="5.244" ry="5.255" fill="#fff"/>
              </g>
              <g id="Group_12193" data-name="Group 12193">
                <g id="Group_12192" data-name="Group 12192">
                  <path id="Path_6899" data-name="Path 6899" d="M58.42,65.319s0-.029,0-.085,0-.143.008-.25c0-.055,0-.117.007-.185s.019-.141.03-.221a3.744,3.744,0,0,1,.1-.546,4.989,4.989,0,0,1,.572-1.409,5.275,5.275,0,0,1,3.55-2.5,4.875,4.875,0,0,1,.668-.079c.114,0,.229-.016.345-.014l.35.017a2.3,2.3,0,0,1,.353.038c.118.019.237.033.356.057a5.582,5.582,0,0,1,.705.206,5.484,5.484,0,0,1,.69.3c.112.06.219.131.33.2a2.7,2.7,0,0,1,.319.22,4.835,4.835,0,0,1,1.12,1.124,5.131,5.131,0,0,1,.757,1.46,5.257,5.257,0,0,1,0,3.346,5.134,5.134,0,0,1-.757,1.461,5.985,5.985,0,0,1-.519.614,5.925,5.925,0,0,1-.6.51,2.728,2.728,0,0,1-.32.22c-.111.065-.218.136-.33.2a5.5,5.5,0,0,1-.69.3,5.584,5.584,0,0,1-.706.206c-.118.024-.238.038-.356.057a2.294,2.294,0,0,1-.353.038l-.35.017c-.116,0-.23-.01-.344-.014a4.9,4.9,0,0,1-.668-.079,5.276,5.276,0,0,1-3.55-2.5,4.985,4.985,0,0,1-.572-1.409,3.771,3.771,0,0,1-.1-.546c-.01-.08-.024-.153-.03-.221s0-.129-.007-.185c0-.107-.006-.19-.008-.25s0-.085,0-.085,0,.029.009.085l.017.249c0,.055.007.116.012.184s.022.14.034.219a3.826,3.826,0,0,0,.11.542,5.016,5.016,0,0,0,.582,1.391A5.237,5.237,0,0,0,62.7,70.442a4.828,4.828,0,0,0,.658.076c.112,0,.225.015.339.013l.344-.018a2.226,2.226,0,0,0,.347-.038c.116-.019.234-.033.35-.057a5.523,5.523,0,0,0,.694-.2,5.425,5.425,0,0,0,.678-.3c.11-.06.215-.129.324-.194a2.649,2.649,0,0,0,.314-.217,4.761,4.761,0,0,0,1.1-1.107,5.05,5.05,0,0,0,.743-1.435,5.172,5.172,0,0,0,0-3.287,5.043,5.043,0,0,0-.743-1.435,4.76,4.76,0,0,0-1.1-1.106,2.634,2.634,0,0,0-.314-.217c-.109-.065-.214-.134-.324-.194a5.41,5.41,0,0,0-.678-.3,5.482,5.482,0,0,0-.693-.2c-.116-.024-.234-.038-.35-.057a2.247,2.247,0,0,0-.347-.038l-.344-.018c-.114,0-.227.009-.339.013a4.851,4.851,0,0,0-.658.076,5.236,5.236,0,0,0-3.52,2.453,5.023,5.023,0,0,0-.582,1.391,3.826,3.826,0,0,0-.11.542c-.012.079-.027.152-.034.219s-.008.128-.012.184l-.017.249C58.425,65.291,58.42,65.319,58.42,65.319Z" transform="translate(-58.419 -60.026)" fill="#263238"/>
                </g>
              </g>
            </g>
            <g id="Group_12195" data-name="Group 12195" transform="translate(2.97 2.94)">
              <path id="Path_6900" data-name="Path 6900" d="M63.447,62.751l-2.275,2.071v2.626h1.772V65.874h1.127v1.574h1.651V64.822Z" transform="translate(-61.172 -62.751)" fill="#263238"/>
            </g>
          </g>
        </g>
        <g id="Group_12224" data-name="Group 12224" transform="translate(0.192 8.995)">
          <g id="Group_12199" data-name="Group 12199" transform="translate(6.14)">
            <g id="Group_12198" data-name="Group 12198">
              <path id="Path_6901" data-name="Path 6901" d="M44.564,63.94c-.022-.014,2.236-3.591,5.042-7.989s5.1-7.953,5.122-7.939S52.493,51.6,49.686,56,44.586,63.954,44.564,63.94Z" transform="translate(-44.564 -48.012)" fill="#263238"/>
            </g>
          </g>
          <g id="Group_12223" data-name="Group 12223" transform="translate(0 12.894)">
            <g id="Group_12203" data-name="Group 12203">
              <g id="Group_12200" data-name="Group 12200" transform="translate(0.047 0.039)">
                <ellipse id="Ellipse_474" data-name="Ellipse 474" cx="5.244" cy="5.255" rx="5.244" ry="5.255" fill="#fff"/>
              </g>
              <g id="Group_12202" data-name="Group 12202">
                <g id="Group_12201" data-name="Group 12201">
                  <path id="Path_6902" data-name="Path 6902" d="M49.408,65.258s0-.029-.009-.085-.01-.143-.017-.249c0-.055-.007-.116-.012-.184s-.022-.14-.034-.219a3.86,3.86,0,0,0-.11-.542,5.023,5.023,0,0,0-.582-1.391,5.237,5.237,0,0,0-3.52-2.453,4.823,4.823,0,0,0-.658-.076c-.112,0-.225-.015-.339-.013l-.344.018a2.225,2.225,0,0,0-.347.038c-.116.019-.234.033-.35.057a5.511,5.511,0,0,0-.693.2,5.45,5.45,0,0,0-.678.3c-.11.06-.215.129-.324.194a2.656,2.656,0,0,0-.314.217,4.764,4.764,0,0,0-1.1,1.106,5.049,5.049,0,0,0-.743,1.435,5.175,5.175,0,0,0,0,3.287,5.049,5.049,0,0,0,.743,1.435,4.756,4.756,0,0,0,1.1,1.106,2.636,2.636,0,0,0,.314.217c.109.065.214.134.324.194a5.412,5.412,0,0,0,.678.3,5.477,5.477,0,0,0,.694.2c.116.024.234.038.35.057a2.227,2.227,0,0,0,.347.038l.345.018c.114,0,.227-.009.339-.013a4.827,4.827,0,0,0,.658-.076,5.236,5.236,0,0,0,3.519-2.453,5.017,5.017,0,0,0,.582-1.391,3.828,3.828,0,0,0,.11-.541c.012-.079.026-.152.034-.219l.012-.184c.007-.106.013-.189.017-.249s.009-.085.009-.085,0,.029,0,.085,0,.143-.008.25q0,.083-.007.185c-.006.068-.019.141-.03.221a3.745,3.745,0,0,1-.1.547,4.984,4.984,0,0,1-.572,1.409,5.275,5.275,0,0,1-3.55,2.5,4.872,4.872,0,0,1-.668.079c-.114,0-.229.016-.345.014l-.35-.017a2.278,2.278,0,0,1-.353-.038c-.118-.019-.237-.033-.356-.057a5.554,5.554,0,0,1-.706-.206,5.5,5.5,0,0,1-.69-.3c-.112-.061-.219-.131-.33-.2a2.739,2.739,0,0,1-.32-.22A4.841,4.841,0,0,1,39.9,68.39a5.132,5.132,0,0,1-.757-1.46,5.257,5.257,0,0,1,0-3.346,5.129,5.129,0,0,1,.757-1.46A4.848,4.848,0,0,1,41.023,61a2.762,2.762,0,0,1,.32-.22c.111-.066.218-.136.33-.2a5.486,5.486,0,0,1,.69-.3,5.581,5.581,0,0,1,.705-.206c.118-.024.238-.038.356-.057a2.274,2.274,0,0,1,.353-.038l.35-.017c.116,0,.23.01.344.014a4.929,4.929,0,0,1,.668.079,5.276,5.276,0,0,1,3.55,2.5,4.985,4.985,0,0,1,.572,1.409,3.72,3.72,0,0,1,.1.547c.011.08.024.153.03.221s.005.129.007.185c0,.107.006.19.008.25S49.408,65.258,49.408,65.258Z" transform="translate(-38.873 -59.964)" fill="#263238"/>
                </g>
              </g>
            </g>
            <g id="Group_12222" data-name="Group 12222" transform="translate(3.201 2.558)">
              <g id="Group_12204" data-name="Group 12204">
                <rect id="Rectangle_565" data-name="Rectangle 565" width="4.117" height="5.471" fill="#263238"/>
              </g>
              <g id="Group_12221" data-name="Group 12221" transform="translate(0.747 0.827)">
                <g id="Group_12206" data-name="Group 12206" transform="translate(0.16)">
                  <g id="Group_12205" data-name="Group 12205">
                    <path id="Path_6903" data-name="Path 6903" d="M44.033,63.149a4.9,4.9,0,0,1-1.352,0,4.882,4.882,0,0,1,1.352,0Z" transform="translate(-42.681 -63.102)" fill="#455a64"/>
                  </g>
                </g>
                <g id="Group_12208" data-name="Group 12208" transform="translate(0 0.77)">
                  <g id="Group_12207" data-name="Group 12207">
                    <path id="Path_6904" data-name="Path 6904" d="M45.237,63.862a9.758,9.758,0,0,1-1.352.047,9.758,9.758,0,0,1-1.352-.047,9.811,9.811,0,0,1,1.352-.047A9.811,9.811,0,0,1,45.237,63.862Z" transform="translate(-42.533 -63.815)" fill="#455a64"/>
                  </g>
                </g>
                <g id="Group_12210" data-name="Group 12210" transform="translate(0 1.237)">
                  <g id="Group_12209" data-name="Group 12209">
                    <path id="Path_6905" data-name="Path 6905" d="M45.237,64.3a9.757,9.757,0,0,1-1.352.047,9.757,9.757,0,0,1-1.352-.047,9.779,9.779,0,0,1,1.352-.047A9.78,9.78,0,0,1,45.237,64.3Z" transform="translate(-42.533 -64.248)" fill="#455a64"/>
                  </g>
                </g>
                <g id="Group_12212" data-name="Group 12212" transform="translate(0 1.705)">
                  <g id="Group_12211" data-name="Group 12211">
                    <path id="Path_6906" data-name="Path 6906" d="M45.237,64.729a9.76,9.76,0,0,1-1.352.047,9.76,9.76,0,0,1-1.352-.047,9.775,9.775,0,0,1,1.352-.047A9.775,9.775,0,0,1,45.237,64.729Z" transform="translate(-42.533 -64.682)" fill="#455a64"/>
                  </g>
                </g>
                <g id="Group_12214" data-name="Group 12214" transform="translate(0 2.173)">
                  <g id="Group_12213" data-name="Group 12213">
                    <path id="Path_6907" data-name="Path 6907" d="M45.237,65.163a9.777,9.777,0,0,1-1.352.047,9.777,9.777,0,0,1-1.352-.047,9.777,9.777,0,0,1,1.352-.047A9.777,9.777,0,0,1,45.237,65.163Z" transform="translate(-42.533 -65.116)" fill="#455a64"/>
                  </g>
                </g>
                <g id="Group_12216" data-name="Group 12216" transform="translate(0 2.641)">
                  <g id="Group_12215" data-name="Group 12215">
                    <path id="Path_6908" data-name="Path 6908" d="M45.237,65.6a9.778,9.778,0,0,1-1.352.047,9.778,9.778,0,0,1-1.352-.047,9.775,9.775,0,0,1,1.352-.047A9.775,9.775,0,0,1,45.237,65.6Z" transform="translate(-42.533 -65.549)" fill="#455a64"/>
                  </g>
                </g>
                <g id="Group_12218" data-name="Group 12218" transform="translate(0 3.108)">
                  <g id="Group_12217" data-name="Group 12217">
                    <path id="Path_6909" data-name="Path 6909" d="M45.237,66.03a9.777,9.777,0,0,1-1.352.047,9.777,9.777,0,0,1-1.352-.047,9.758,9.758,0,0,1,1.352-.047A9.759,9.759,0,0,1,45.237,66.03Z" transform="translate(-42.533 -65.983)" fill="#455a64"/>
                  </g>
                </g>
                <g id="Group_12220" data-name="Group 12220" transform="translate(0 3.576)">
                  <g id="Group_12219" data-name="Group 12219">
                    <path id="Path_6910" data-name="Path 6910" d="M45.237,66.463a9.778,9.778,0,0,1-1.352.047,9.778,9.778,0,0,1-1.352-.047,9.758,9.758,0,0,1,1.352-.047A9.758,9.758,0,0,1,45.237,66.463Z" transform="translate(-42.533 -66.416)" fill="#455a64"/>
                  </g>
                </g>
              </g>
            </g>
          </g>
        </g>
        <g id="Group_12237" data-name="Group 12237">
          <g id="Group_12234" data-name="Group 12234" transform="translate(0.047)">
            <g id="Group_12232" data-name="Group 12232">
              <g id="Group_12225" data-name="Group 12225" transform="translate(0 0.082)">
                <rect id="Rectangle_566" data-name="Rectangle 566" width="54.987" height="9.047" rx="3.971" fill="#fff"/>
              </g>
              <g id="Group_12226" data-name="Group 12226" transform="translate(42.805)">
                <path id="Path_6911" data-name="Path 6911" d="M78.415,39.675V48.8H86.1a4.56,4.56,0,0,0,4.555-4.565h0A4.56,4.56,0,0,0,86.1,39.675Z" transform="translate(-78.415 -39.675)" fill="#276ef1"/>
              </g>
              <g id="Group_12231" data-name="Group 12231" transform="translate(46.06 2.346)">
                <g id="Group_12228" data-name="Group 12228">
                  <g id="Group_12227" data-name="Group 12227">
                    <path id="Path_6912" data-name="Path 6912" d="M85.326,43.814a4.083,4.083,0,0,0-.078-.466,1.922,1.922,0,0,0-.7-1.04,1.883,1.883,0,0,0-1.784-.264,1.888,1.888,0,0,0-.871.658,1.878,1.878,0,0,0,0,2.224,1.887,1.887,0,0,0,.872.658,1.882,1.882,0,0,0,1.784-.264,1.922,1.922,0,0,0,.7-1.039,4.082,4.082,0,0,0,.078-.466,1.5,1.5,0,0,1-.042.475,1.94,1.94,0,0,1-1.519,1.456,1.958,1.958,0,0,1-1.032-.081,1.964,1.964,0,0,1-.916-.684,1.962,1.962,0,0,1,0-2.333,1.965,1.965,0,0,1,.916-.684,1.96,1.96,0,0,1,1.032-.081,1.942,1.942,0,0,1,1.519,1.456A1.5,1.5,0,0,1,85.326,43.814Z" transform="translate(-81.432 -41.849)" fill="#fff"/>
                  </g>
                </g>
                <g id="Group_12230" data-name="Group 12230" transform="translate(3.517 3.109)">
                  <g id="Group_12229" data-name="Group 12229">
                    <path id="Path_6913" data-name="Path 6913" d="M86.855,46.283a18.854,18.854,0,0,1-2.162-1.552,18.917,18.917,0,0,1,2.162,1.552Z" transform="translate(-84.692 -44.731)" fill="#fff"/>
                  </g>
                </g>
              </g>
            </g>
            <g id="Group_12233" data-name="Group 12233" transform="translate(5.229 3.759)">
              <rect id="Rectangle_567" data-name="Rectangle 567" width="33.614" height="1.936" fill="#ebebeb"/>
            </g>
          </g>
          <g id="Group_12236" data-name="Group 12236" transform="translate(0 0.035)">
            <g id="Group_12235" data-name="Group 12235">
              <path id="Path_6914" data-name="Path 6914" d="M89.45,48.8s.105-.009.311-.021a2.819,2.819,0,0,0,.38-.048,3.927,3.927,0,0,0,.516-.117,4.354,4.354,0,0,0,1.318-.663l.179-.135c.058-.049.114-.1.172-.156a3.546,3.546,0,0,0,.341-.351c.117-.122.209-.271.32-.413l.141-.234.072-.12.061-.128a4.146,4.146,0,0,0,.377-1.139l.048-.317q.008-.162.017-.328c.01-.221.007-.45,0-.682a4.257,4.257,0,0,0-4.121-4.16c-1.228-.012-2.529,0-3.893,0L43.025,39.8a4.254,4.254,0,0,0-2.807,1.07,4.2,4.2,0,0,0-1.39,2.624,2.907,2.907,0,0,0-.03.375c-.009.125-.01.251-.009.378a7.324,7.324,0,0,0,.03.752,4.11,4.11,0,0,0,.426,1.42,4.2,4.2,0,0,0,3.5,2.321c.239.017.482.015.725.014h3.588l5.544,0,19.18.01,12.931.015,3.515.009.914,0c.206,0,.312,0,.312,0s-.106,0-.312,0l-.914,0-3.515.009-12.931.015-19.18.01-5.544,0H43.465c-.242,0-.484,0-.731-.014a4.292,4.292,0,0,1-3.572-2.371,4.2,4.2,0,0,1-.436-1.451,7.46,7.46,0,0,1-.031-.762c0-.126,0-.253.009-.382a3,3,0,0,1,.031-.383,4.294,4.294,0,0,1,1.42-2.683,4.348,4.348,0,0,1,2.87-1.094l42.663.014c1.365,0,2.664,0,3.9.01a4.307,4.307,0,0,1,4.164,4.219c.006.234.008.46,0,.684q-.009.167-.018.331l-.049.32a4.185,4.185,0,0,1-.384,1.149l-.062.129-.073.121-.144.235c-.112.142-.206.292-.324.415a3.569,3.569,0,0,1-.345.352c-.059.053-.116.107-.174.156l-.181.135a4.349,4.349,0,0,1-1.329.659,3.9,3.9,0,0,1-.519.113,2.708,2.708,0,0,1-.381.043C89.555,48.8,89.45,48.8,89.45,48.8Z" transform="translate(-38.695 -39.707)" fill="#263238"/>
            </g>
          </g>
        </g>
      </g>
    </g>
    <g id="Character" transform="translate(50.187 23.357)">
      <g id="Group_12289" data-name="Group 12289">
        <g id="Group_12245" data-name="Group 12245" transform="translate(14.029 20.38)">
          <g id="Group_12240" data-name="Group 12240">
            <g id="Group_12239" data-name="Group 12239">
              <path id="Path_6915" data-name="Path 6915" d="M63.927,43.043c-.164-.191-.18-.353.188-.386a2.13,2.13,0,0,0,1.5-.634c.094-.206-.163-.406-.383-.283a3.035,3.035,0,0,1-.79.224,1.98,1.98,0,0,1-.659.009c-.189-.03-.355-.062-.5-.093a3.99,3.99,0,0,1-1.23-.476L60.237,43.35l.852.965a1.293,1.293,0,0,0,1.138.537,5.854,5.854,0,0,0,1.714-.6c.133-.2,1.31.523,1.689.8s.659.2.645-.058a7.5,7.5,0,0,0-1.531-1.3,4.782,4.782,0,0,1-.816-.646" transform="translate(-60.237 -41.405)" fill="#ffbe9d"/>
            </g>
          </g>
          <g id="Group_12242" data-name="Group 12242" transform="translate(1.906 2.793)">
            <g id="Group_12241" data-name="Group 12241">
              <path id="Path_6916" data-name="Path 6916" d="M62.72,44.529c0,.011-.052.034-.146.032a.626.626,0,0,1-.551-.418c-.028-.09-.021-.149-.009-.15s.07.214.279.367A1.231,1.231,0,0,0,62.72,44.529Z" transform="translate(-62.003 -43.993)" fill="#eb996e"/>
            </g>
          </g>
          <g id="Group_12244" data-name="Group 12244" transform="translate(2.658 2.518)">
            <g id="Group_12243" data-name="Group 12243">
              <path id="Path_6917" data-name="Path 6917" d="M63.385,44.265c0,.011-.052.031-.141.025a.621.621,0,0,1-.524-.408c-.028-.086-.022-.142-.01-.143s.074.2.271.35A1.39,1.39,0,0,0,63.385,44.265Z" transform="translate(-62.7 -43.739)" fill="#eb996e"/>
            </g>
          </g>
        </g>
        <g id="Group_12246" data-name="Group 12246" transform="translate(10.976 3.188)">
          <path id="Path_6918" data-name="Path 6918" d="M65.761,25.469a5.6,5.6,0,0,0,3.467,4.14c.76.186,1.635.1,2.237.61,1.033.878.429,2.7,1.126,3.875.429.724,1.279,1.079,1.761,1.766a2.89,2.89,0,0,1-.83,3.72,6.037,6.037,0,0,1-3.918.978,12.193,12.193,0,0,1-8.275-3.177c-1.023-1-5.026-4.109-3.63-11.464" transform="translate(-57.407 -25.469)" fill="#263238"/>
        </g>
        <g id="Group_12263" data-name="Group 12263" transform="translate(0 10.683)">
          <path id="Path_6919" data-name="Path 6919" d="M77.437,36.35,65.983,32.942a7.253,7.253,0,0,0-1.668-.5l-3.867.026a3.753,3.753,0,0,0-1.483.311l-10.426,3.47a2,2,0,0,0-1.3,1.941h0A1.913,1.913,0,0,0,49.022,40.2h4.815l-.021.071,16.746.063V40.33l6.391.014a1.924,1.924,0,0,0,1.789-2.035A2.014,2.014,0,0,0,77.437,36.35Z" transform="translate(-47.233 -32.415)" fill="#276ef1"/>
          <g id="Group_12248" data-name="Group 12248" transform="translate(17.765 4.772)">
            <g id="Group_12247" data-name="Group 12247">
              <path id="Path_6920" data-name="Path 6920" d="M73.843,37.243a.424.424,0,0,1-.1-.005l-.3-.034c-.256-.032-.626-.074-1.085-.118a32.6,32.6,0,0,0-7.181.094c-.457.056-.826.107-1.081.146l-.294.041a.438.438,0,0,1-.1.008.431.431,0,0,1,.1-.027l.291-.059c.253-.05.622-.111,1.079-.176a28.73,28.73,0,0,1,7.2-.094c.459.053.829.1,1.083.148l.293.051A.442.442,0,0,1,73.843,37.243Z" transform="translate(-63.7 -36.839)" fill="#263238"/>
            </g>
          </g>
          <g id="Group_12250" data-name="Group 12250" transform="translate(7.853 1.7)" opacity="0.6">
            <g id="Group_12249" data-name="Group 12249">
              <path id="Path_6921" data-name="Path 6921" d="M71.88,34.679a.189.189,0,0,1-.032.039l-.1.107c-.09.092-.224.228-.4.394a6.52,6.52,0,0,1-.7.562,3.443,3.443,0,0,1-1.07.511,2.724,2.724,0,0,1-1.431-.028,7.088,7.088,0,0,1-1.507-.667,9.148,9.148,0,0,0-1.632-.766,2.512,2.512,0,0,0-1.866.1c-.6.272-1.116.687-1.676.987-.139.078-.286.137-.428.2a4.49,4.49,0,0,1-.44.147,4.261,4.261,0,0,1-.882.153,4.539,4.539,0,0,1-2.93-.808,8,8,0,0,1-.885-.788,4.315,4.315,0,0,0-.685-.561,1.9,1.9,0,0,0-.7-.264,1.074,1.074,0,0,1,.2.023,1.649,1.649,0,0,1,.525.209,4.206,4.206,0,0,1,.7.555,8.22,8.22,0,0,0,.887.772,4.5,4.5,0,0,0,2.886.776,4.18,4.18,0,0,0,.864-.153,4.479,4.479,0,0,0,.43-.145c.139-.064.282-.122.418-.2.551-.295,1.063-.712,1.681-.991a2.6,2.6,0,0,1,1.931-.1,9.135,9.135,0,0,1,1.646.778,7.087,7.087,0,0,0,1.486.668,2.67,2.67,0,0,0,1.394.039,3.431,3.431,0,0,0,1.057-.49,6.915,6.915,0,0,0,.7-.545c.184-.161.321-.292.416-.38l.107-.1A.212.212,0,0,1,71.88,34.679Z" transform="translate(-54.512 -33.992)" fill="#fff"/>
            </g>
          </g>
          <g id="Group_12251" data-name="Group 12251" transform="translate(7.421 5.153)" opacity="0.2">
            <path id="Path_6922" data-name="Path 6922" d="M54.112,37.192l7.24,1.368-.836,1.365-.22,0Z" transform="translate(-54.112 -37.192)"/>
          </g>
          <g id="Group_12253" data-name="Group 12253" transform="translate(20.801 3.719)" opacity="0.6">
            <g id="Group_12252" data-name="Group 12252">
              <path id="Path_6923" data-name="Path 6923" d="M75.051,35.864a.5.5,0,0,1,0,.111,2.431,2.431,0,0,1-.032.317,2.776,2.776,0,0,1-2.822,2.3,4.631,4.631,0,0,1-1.086-.2c-.363-.1-.711-.215-1.055-.285a3.057,3.057,0,0,0-1-.052,3.193,3.193,0,0,0-1.561.641,3.142,3.142,0,0,0-.776.849l-.094.156-.06.12a.509.509,0,0,1-.055.1.484.484,0,0,1,.037-.1l.052-.125.087-.162a3.021,3.021,0,0,1,.767-.883,3.211,3.211,0,0,1,1.591-.674,3.108,3.108,0,0,1,1.029.048c.351.07.7.183,1.062.285a4.617,4.617,0,0,0,1.064.2,2.741,2.741,0,0,0,2.328-1.156,2.857,2.857,0,0,0,.455-1.055C75.042,36.017,75.042,35.863,75.051,35.864Z" transform="translate(-66.514 -35.864)" fill="#fff"/>
            </g>
          </g>
          <g id="Group_12261" data-name="Group 12261" transform="translate(1.169 4.032)">
            <g id="Group_12254" data-name="Group 12254" transform="translate(0.145)">
              <path id="Path_6924" data-name="Path 6924" d="M48.452,39.677s13.089,5.787,13.022,5.656,2.078-3.927,2.078-3.927l-10.6-5.252Z" transform="translate(-48.452 -36.154)" fill="#276ef1"/>
            </g>
            <g id="Group_12256" data-name="Group 12256" transform="translate(6.153 0.749)">
              <g id="Group_12255" data-name="Group 12255">
                <path id="Path_6925" data-name="Path 6925" d="M54.021,36.849a1.746,1.746,0,0,1,.27.113l.72.34c.606.291,1.441.7,2.361,1.154s1.75.873,2.35,1.179l.707.367a1.759,1.759,0,0,1,.254.146,1.719,1.719,0,0,1-.27-.113l-.72-.34c-.606-.291-1.442-.7-2.362-1.154s-1.75-.873-2.349-1.179l-.707-.367A1.728,1.728,0,0,1,54.021,36.849Z" transform="translate(-54.021 -36.848)" fill="#263238"/>
              </g>
            </g>
            <g id="Group_12258" data-name="Group 12258" transform="translate(0 2.391)" opacity="0.6">
              <g id="Group_12257" data-name="Group 12257">
                <path id="Path_6926" data-name="Path 6926" d="M57.345,38.484a1.129,1.129,0,0,1-.122.389,1.835,1.835,0,0,1-.781.782,2.4,2.4,0,0,1-.727.259,2.86,2.86,0,0,1-.885.01,6.679,6.679,0,0,1-1.909-.642,9.961,9.961,0,0,0-1.856-.734,3.332,3.332,0,0,0-.857-.1,2.67,2.67,0,0,0-.74.125,2.021,2.021,0,0,0-.913.573,3.739,3.739,0,0,0-.237.326,1.215,1.215,0,0,1,.209-.35,1.992,1.992,0,0,1,.921-.613,2.692,2.692,0,0,1,.758-.14,3.354,3.354,0,0,1,.88.093,9.651,9.651,0,0,1,1.876.733,6.771,6.771,0,0,0,1.881.641,2.827,2.827,0,0,0,.86,0,2.364,2.364,0,0,0,.709-.241,1.851,1.851,0,0,0,.78-.74A3.1,3.1,0,0,0,57.345,38.484Z" transform="translate(-48.317 -38.37)" fill="#fff"/>
              </g>
            </g>
            <g id="Group_12260" data-name="Group 12260" transform="translate(9.742 6.36)" opacity="0.6">
              <g id="Group_12259" data-name="Group 12259">
                <path id="Path_6927" data-name="Path 6927" d="M62.19,42.161c0,.017-.29-.031-.758-.038a6.34,6.34,0,0,0-.819.042,6.249,6.249,0,0,0-1.923.546,6.38,6.38,0,0,0-.719.395c-.394.252-.614.444-.625.431a.856.856,0,0,1,.146-.144,4.253,4.253,0,0,1,.442-.342,5.593,5.593,0,0,1,.718-.417,5.815,5.815,0,0,1,1.95-.554,5.55,5.55,0,0,1,.83-.022,4.2,4.2,0,0,1,.556.059A.846.846,0,0,1,62.19,42.161Z" transform="translate(-57.347 -42.049)" fill="#fff"/>
              </g>
            </g>
          </g>
          <g id="Group_12262" data-name="Group 12262" transform="translate(17.298)" opacity="0.2">
            <path id="Path_6928" data-name="Path 6928" d="M63.337,32.416a2.305,2.305,0,0,0,.424,1.822,4.95,4.95,0,0,0,.759,1.1,1.66,1.66,0,0,0,1.19.536c.588-.019,1.114-.454,1.7-.42a2.253,2.253,0,0,1,1.081.484,8.551,8.551,0,0,0,1.814,1.007,3.252,3.252,0,0,0,2.04.128,2.036,2.036,0,0,0,1.412-1.4" transform="translate(-63.267 -32.416)"/>
          </g>
        </g>
        <g id="Group_12286" data-name="Group 12286" transform="translate(11.268)">
          <g id="Group_12279" data-name="Group 12279">
            <g id="Group_12278" data-name="Group 12278">
              <g id="Group_12264" data-name="Group 12264" transform="translate(1.751 0.646)">
                <path id="Path_6929" data-name="Path 6929" d="M63.7,32.983c.03-.706.068-1.345.068-1.345a1.9,1.9,0,0,0,1.643-1.81c.068-1.611-.092-5.32-.092-5.32l-2.9-1.395L59.3,25.631l.489,7.4a1.959,1.959,0,0,0,2.044,1.83h0A1.96,1.96,0,0,0,63.7,32.983Z" transform="translate(-59.301 -23.113)" fill="#ffbe9d"/>
              </g>
              <g id="Group_12268" data-name="Group 12268" transform="translate(6.898 4.28)">
                <g id="Group_12265" data-name="Group 12265" transform="translate(0.198 0.47)">
                  <path id="Path_6930" data-name="Path 6930" d="M64.656,27.121a.2.2,0,1,1-.2-.2A.2.2,0,0,1,64.656,27.121Z" transform="translate(-64.255 -26.918)" fill="#263238"/>
                </g>
                <g id="Group_12267" data-name="Group 12267">
                  <g id="Group_12266" data-name="Group 12266">
                    <path id="Path_6931" data-name="Path 6931" d="M64.865,26.725c-.025.027-.175-.1-.391-.108s-.376.1-.4.072c-.011-.013.015-.063.085-.114a.52.52,0,0,1,.631.028C64.855,26.661,64.877,26.713,64.865,26.725Z" transform="translate(-64.072 -26.482)" fill="#263238"/>
                  </g>
                </g>
              </g>
              <g id="Group_12272" data-name="Group 12272" transform="translate(4.508 4.322)">
                <g id="Group_12269" data-name="Group 12269" transform="translate(0.198 0.428)">
                  <path id="Path_6932" data-name="Path 6932" d="M62.44,27.121a.2.2,0,1,1-.2-.2A.2.2,0,0,1,62.44,27.121Z" transform="translate(-62.04 -26.918)" fill="#263238"/>
                </g>
                <g id="Group_12271" data-name="Group 12271">
                  <g id="Group_12270" data-name="Group 12270">
                    <path id="Path_6933" data-name="Path 6933" d="M62.649,26.763c-.025.027-.176-.1-.391-.108s-.376.1-.4.072c-.011-.013.015-.063.085-.114a.521.521,0,0,1,.631.028C62.64,26.7,62.662,26.751,62.649,26.763Z" transform="translate(-61.857 -26.521)" fill="#263238"/>
                  </g>
                </g>
              </g>
              <g id="Group_12274" data-name="Group 12274" transform="translate(6.04 4.49)">
                <g id="Group_12273" data-name="Group 12273">
                  <path id="Path_6934" data-name="Path 6934" d="M63.348,28.61a1.31,1.31,0,0,1,.352-.054c.055,0,.108-.014.118-.054a.325.325,0,0,0-.034-.177l-.156-.457a8.323,8.323,0,0,1-.348-1.193,8.27,8.27,0,0,1,.436,1.162l.149.459a.367.367,0,0,1,.025.233.137.137,0,0,1-.092.083.345.345,0,0,1-.094.01A1.32,1.32,0,0,1,63.348,28.61Z" transform="translate(-63.277 -26.677)" fill="#263238"/>
                </g>
              </g>
              <g id="Group_12275" data-name="Group 12275" transform="translate(5.366 6.62)">
                <path id="Path_6935" data-name="Path 6935" d="M62.688,28.677a4.108,4.108,0,0,0,1.049.351.589.589,0,0,1-.711.221A.469.469,0,0,1,62.688,28.677Z" transform="translate(-62.652 -28.65)" fill="#fff"/>
              </g>
              <g id="Group_12276" data-name="Group 12276" transform="translate(4.132 8.486)">
                <path id="Path_6936" data-name="Path 6936" d="M63.593,31.065a3.83,3.83,0,0,1-2.085-.684,2.017,2.017,0,0,0,2.058,1.079Z" transform="translate(-61.508 -30.38)" fill="#eb996e"/>
              </g>
              <g id="Group_12277" data-name="Group 12277">
                <path id="Path_6937" data-name="Path 6937" d="M57.737,27.265h0c-.006,1.394-.37,5.081,2.166,5.592l-.092-5.077a5.453,5.453,0,0,0,2.87-3.577l.015.014A3.027,3.027,0,0,1,62.964,26l2.3.568.264.243a3.175,3.175,0,0,0-.761-3.429c-1.58-1.631-2.93-.449-3.777-.551-.563-.068-2.517-.055-3.312,3.316Z" transform="translate(-57.678 -22.515)" fill="#263238"/>
              </g>
            </g>
          </g>
          <g id="Group_12285" data-name="Group 12285" transform="translate(1.282 5.264)">
            <g id="Group_12283" data-name="Group 12283">
              <g id="Group_12280" data-name="Group 12280">
                <path id="Path_6938" data-name="Path 6938" d="M59.78,27.452a.565.565,0,0,0-.677.162.926.926,0,0,0,.919,1.52" transform="translate(-58.867 -27.393)" fill="#ffbe9d"/>
              </g>
              <g id="Group_12282" data-name="Group 12282" transform="translate(0.324 0.474)">
                <g id="Group_12281" data-name="Group 12281">
                  <path id="Path_6939" data-name="Path 6939" d="M59.707,28.617c0,.011-.072.024-.184-.006a.485.485,0,0,1-.336-.3.36.36,0,0,1,.01-.263.38.38,0,0,1,.137-.16c.1-.065.178-.061.179-.05s-.063.034-.139.1a.314.314,0,0,0-.1.341.479.479,0,0,0,.27.266C59.641,28.591,59.709,28.6,59.707,28.617Z" transform="translate(-59.166 -27.832)" fill="#eb996e"/>
                </g>
              </g>
            </g>
            <g id="Group_12284" data-name="Group 12284" transform="translate(0.518 1.573)">
              <path id="Path_6940" data-name="Path 6940" d="M59.483,28.854a.183.183,0,1,0,.069,0" transform="translate(-59.347 -28.851)" fill="#276ef1"/>
            </g>
          </g>
        </g>
        <g id="Group_12287" data-name="Group 12287" transform="translate(13.87 15.965)">
          <path id="Path_6941" data-name="Path 6941" d="M64.085,39.96V37.312s-3.924.816-4,2.616Z" transform="translate(-60.089 -37.312)" fill="#ffbe9d"/>
        </g>
        <g id="Group_12288" data-name="Group 12288" transform="translate(17.457 10.068)">
          <path id="Path_6942" data-name="Path 6942" d="M63.414,32.015a3.291,3.291,0,0,0,3.22,3.031,4.346,4.346,0,0,1,1.719.109,4.382,4.382,0,0,1,1.118,1,3.313,3.313,0,0,0,3.289.745c.475-.16,1.23-.5,1.319-1,.067-.377-.392-.751-.663-1.02a3.348,3.348,0,0,0-.966-.605,24.023,24.023,0,0,0-8.879-2.436" transform="translate(-63.414 -31.847)" fill="#263238"/>
        </g>
      </g>
    </g>
  </g>
</svg>
