<svg xmlns="http://www.w3.org/2000/svg" width="46" height="48.581" viewBox="0 0 46 48.581">
  <g id="graphic" transform="translate(-13.601)">
    <g id="Group_23600" data-name="Group 23600" transform="translate(13.601 13.915)">
      <g id="Group_23599" data-name="Group 23599">
        <path id="Path_11399" data-name="Path 11399" d="M58.652,179.422H56.571V149.2a2.554,2.554,0,0,0-2.551-2.551H49.369a2.554,2.554,0,0,0-2.551,2.551v30.217H41.534V162.9a2.554,2.554,0,0,0-2.551-2.551H34.331a2.554,2.554,0,0,0-2.551,2.551v16.527H26.5v-8.559a2.554,2.554,0,0,0-2.551-2.551H19.294a2.554,2.554,0,0,0-2.551,2.551v8.559H14.55a.949.949,0,1,0,0,1.9h44.1a.949.949,0,1,0,0-1.9Zm-34.054,0H18.641v-8.559a.654.654,0,0,1,.653-.653h4.652a.654.654,0,0,1,.653.653Zm15.037,0H33.678V162.9a.654.654,0,0,1,.653-.653h4.652a.654.654,0,0,1,.653.653Zm15.037,0H48.716V149.2a.654.654,0,0,1,.653-.653H54.02a.654.654,0,0,1,.653.653v30.217Z" transform="translate(-13.601 -146.654)" fill="#06f"/>
      </g>
    </g>
    <g id="Group_23602" data-name="Group 23602" transform="translate(21.737)">
      <g id="Group_23601" data-name="Group 23601">
        <path id="Path_11400" data-name="Path 11400" d="M134.178,1a.946.946,0,0,0-1-1l-.046,0H127.4a.949.949,0,0,0,0,1.9h3.545l-9.38,9.38-3.537-3.537a.949.949,0,0,0-1.342,0L99.624,24.8a.949.949,0,0,0,1.342,1.342L117.352,9.753l3.537,3.537a.949.949,0,0,0,1.342,0L132.283,3.24V6.448a.949.949,0,1,0,1.9,0v-5.4C134.18,1.028,134.179,1.013,134.178,1Z" transform="translate(-99.346)" fill="#06f"/>
      </g>
    </g>
    <g id="Group_23604" data-name="Group 23604" transform="translate(18.539 27.831)">
      <g id="Group_23603" data-name="Group 23603">
        <circle id="Ellipse_607" data-name="Ellipse 607" cx="0.949" cy="0.949" r="0.949" fill="#06f"/>
      </g>
    </g>
  </g>
</svg>
