<svg xmlns="http://www.w3.org/2000/svg" width="23.473" height="30.695" viewBox="0 0 23.473 30.695">
  <g id="Vector_Smart_Object" data-name="Vector Smart Object" transform="translate(-884.471 -1944)">
    <path id="Color_Overlay" data-name="Color Overlay" d="M1.729,30.695A2.741,2.741,0,0,1,0,28.137V5.116A2.718,2.718,0,0,1,2.69,2.378H5.774A1.946,1.946,0,0,1,7.479,1.355H8.766A1.011,1.011,0,0,0,9.579.932,2.7,2.7,0,0,1,10.785,0h1.9a2.7,2.7,0,0,1,1.206.932,1.012,1.012,0,0,0,.814.423h1.286a1.917,1.917,0,0,1,1.378.582,1.979,1.979,0,0,1,.328.441h3.083a2.718,2.718,0,0,1,2.69,2.738V28.137a2.742,2.742,0,0,1-1.73,2.557ZM1.359,5.116V28.137A1.344,1.344,0,0,0,2.69,29.492H20.783a1.344,1.344,0,0,0,1.331-1.354V5.116a1.345,1.345,0,0,0-1.331-1.355H17.944v.664h1.833a1.7,1.7,0,0,1,1.685,1.714V27.114a1.7,1.7,0,0,1-1.684,1.715H3.7a1.7,1.7,0,0,1-1.684-1.715V6.139A1.7,1.7,0,0,1,3.7,4.424H5.529V3.761H2.69A1.345,1.345,0,0,0,1.359,5.116Zm2.01,1.023V27.114a.33.33,0,0,0,.326.332H19.778a.329.329,0,0,0,.326-.332V6.139a.329.329,0,0,0-.326-.331H17.944v.331a.686.686,0,0,1-.679.692H6.208a.686.686,0,0,1-.679-.692V5.807H3.7A.33.33,0,0,0,3.369,6.139Zm3.519-2.8V5.447h9.7V3.341a.6.6,0,0,0-.592-.6H14.708A2.365,2.365,0,0,1,12.8,1.752a1.3,1.3,0,0,0-2.126,0,2.367,2.367,0,0,1-1.908.986H7.479A.6.6,0,0,0,6.887,3.341Zm10.9,22.728-.525-.534-.525.534a.672.672,0,0,1-.961,0,.7.7,0,0,1,0-.978l.525-.534-.525-.534a.7.7,0,0,1,0-.978.671.671,0,0,1,.961,0l.525.534.525-.534a.67.67,0,0,1,.96,0,.7.7,0,0,1,0,.978l-.525.534.525.534a.7.7,0,0,1,0,.978.671.671,0,0,1-.96,0ZM5.529,23.021a2.21,2.21,0,0,1,2.187-2.227,2.154,2.154,0,0,1,1.546.653,2.207,2.207,0,1,1-3.733,1.574Zm1.359,0a.829.829,0,1,0,.828-.843A.837.837,0,0,0,6.887,23.021Zm6.682-4.093a2.187,2.187,0,1,1,2.188,2.226A2.209,2.209,0,0,1,13.57,18.929Zm1.359,0a.829.829,0,1,0,.829-.843A.837.837,0,0,0,14.929,18.929ZM7.036,17.906a.686.686,0,0,1,.679-.691A6.892,6.892,0,0,0,14.3,12.176l-.58.59a.671.671,0,0,1-.961,0,.7.7,0,0,1,0-.978l2.006-2.042L14.8,9.72a.665.665,0,0,1,.4-.177h.053a.67.67,0,0,1,.481.2l.017.019,1.993,2.028a.7.7,0,0,1,0,.978.67.67,0,0,1-.96,0L15.8,11.761A8.273,8.273,0,0,1,7.715,18.6.686.686,0,0,1,7.036,17.906ZM8.743,13.79l-1.53-1.558L5.683,13.79a.671.671,0,0,1-.96,0,.7.7,0,0,1,0-.978l1.53-1.557L4.722,9.7a.7.7,0,0,1,0-.978.67.67,0,0,1,.96,0l1.53,1.558L8.743,8.72a.67.67,0,0,1,.96,0,.7.7,0,0,1,0,.978l-1.53,1.558L9.7,12.813a.7.7,0,0,1,0,.978.671.671,0,0,1-.96,0Z" transform="translate(884.471 1944)" fill="#06f"/>
  </g>
</svg>
