<svg xmlns="http://www.w3.org/2000/svg" width="58.14" height="52.02" viewBox="0 0 58.14 52.02">
  <g id="password" transform="translate(0 -26.821)">
    <path id="Path_11401" data-name="Path 11401" d="M57.284,172.857H54.062V162.035a.856.856,0,0,0-1.711,0v10.822H13.912a.856.856,0,1,0,0,1.711H56.428v1.281a2.138,2.138,0,0,1-2.135,2.135H3.847a2.138,2.138,0,0,1-2.135-2.135v-1.281h8.555a.856.856,0,1,0,0-1.711H5.789V143.409a1.037,1.037,0,0,1,1.036-1.036h3.745a.856.856,0,0,0,0-1.711H6.825a2.75,2.75,0,0,0-2.747,2.747v29.448H.856a.856.856,0,0,0-.856.856v2.137A3.851,3.851,0,0,0,3.847,179.7H54.293a3.851,3.851,0,0,0,3.847-3.846v-2.137A.856.856,0,0,0,57.284,172.857Z" transform="translate(0 -100.855)" fill="#06f"/>
    <path id="Path_11402" data-name="Path 11402" d="M117.972,142.373h18.7a.856.856,0,1,0,0-1.711h-18.7a.856.856,0,1,0,0,1.711Z" transform="translate(-103.756 -100.855)" fill="#06f"/>
    <path id="Path_11403" data-name="Path 11403" d="M91.156,172.373a.856.856,0,1,0,0-1.711H66.6a.856.856,0,0,0-.856.856v25.351a.856.856,0,0,0,.856.856h41.429a.856.856,0,0,0,.856-.856v-8.256a.856.856,0,0,0-1.711,0v7.4H67.456v-23.64Z" transform="translate(-58.245 -127.432)" fill="#06f"/>
    <path id="Path_11404" data-name="Path 11404" d="M332.811,49.612a.856.856,0,0,0,.856-.856V39.922A2.465,2.465,0,0,0,331.2,37.46h-.579V35.111a8.29,8.29,0,0,0-16.58,0V37.46h-.579a2.465,2.465,0,0,0-2.462,2.462V54.344a4.274,4.274,0,0,0,4.27,4.27H329.4a4.274,4.274,0,0,0,4.27-4.27V52.4a.856.856,0,1,0-1.711,0v1.942A2.561,2.561,0,0,1,329.4,56.9H315.275a2.561,2.561,0,0,1-2.558-2.558V39.922a.752.752,0,0,1,.751-.751H331.2a.752.752,0,0,1,.751.751v8.835A.856.856,0,0,0,332.811,49.612Zm-17.054-14.5a6.579,6.579,0,0,1,13.158,0V37.46h-2.167V35.111a4.411,4.411,0,0,0-8.823,0V37.46h-2.167Zm9.279,2.349h-5.4V35.111a2.7,2.7,0,0,1,5.4,0Z" transform="translate(-275.527)" fill="#06f"/>
    <path id="Path_11405" data-name="Path 11405" d="M386.85,162.567a3.467,3.467,0,0,0-6.909.423,3.44,3.44,0,0,0,.941,2.374l-.526,1.707a1.8,1.8,0,0,0,1.718,2.328h2.669a1.8,1.8,0,0,0,1.718-2.328l-.526-1.707A3.458,3.458,0,0,0,386.85,162.567Zm-2.59,3.173.566,1.834a.087.087,0,0,1-.083.113h-2.669a.087.087,0,0,1-.083-.113l.565-1.833a1.5,1.5,0,0,0-.384-1.5,1.755,1.755,0,0,1,1.235-3,1.866,1.866,0,0,1,.2.011,1.755,1.755,0,0,1,1.033,2.99A1.5,1.5,0,0,0,384.26,165.74Zm1.59-.29Z" transform="translate(-336.599 -117.564)" fill="#06f"/>
  </g>
</svg>
