<svg xmlns="http://www.w3.org/2000/svg" width="46" height="46" viewBox="0 0 46 46">
  <g id="Web-computer-bag_shopping-bag-online_shopping" data-name="Web-computer-bag shopping-bag-online shopping" transform="translate(-2 -2)">
    <path id="Path_11390" data-name="Path 11390" d="M44.167,5.067H27.223A3.846,3.846,0,0,0,23.467,2H17.333a3.846,3.846,0,0,0-3.757,3.067H5.833A3.833,3.833,0,0,0,2,8.9V33.433a3.833,3.833,0,0,0,3.833,3.833H20.4v4.6H15.8a2.307,2.307,0,0,0-2.3,2.3v3.067a.767.767,0,0,0,.767.767H35.733a.767.767,0,0,0,.767-.767V44.167a2.307,2.307,0,0,0-2.3-2.3H29.6v-4.6H44.167A3.833,3.833,0,0,0,48,33.433V8.9a3.833,3.833,0,0,0-3.833-3.833Zm-20.7-1.533a2.307,2.307,0,0,1,2.3,2.3V9.667H24.233V5.833a3.775,3.775,0,0,0-.79-2.3ZM18.1,5.833a2.3,2.3,0,1,1,4.6,0V9.667H18.1Zm0,5.367H28.833v4.6h-2.3a.767.767,0,0,0-.767.767V25H18.1Zm10.733,6.133V25H27.3V17.333Zm-13.8-11.5a2.307,2.307,0,0,1,2.3-2.3h.023a3.775,3.775,0,0,0-.79,2.3V9.667H15.033ZM16.567,11.2V23.919l-1.533-1.533V12.733H13.5v9.652l-1.533,1.533V11.2ZM15.486,25H13.048l1.219-1.219ZM34.2,43.4a.767.767,0,0,1,.767.767v2.3H15.033v-2.3A.767.767,0,0,1,15.8,43.4ZM21.933,41.867v-4.6h6.133v4.6Zm24.533-8.433a2.307,2.307,0,0,1-2.3,2.3H5.833a2.307,2.307,0,0,1-2.3-2.3v-2.3H46.467Zm0-3.833H3.533V8.9a2.307,2.307,0,0,1,2.3-2.3H13.5V9.667H11.2a.767.767,0,0,0-.767.767V25.767a.767.767,0,0,0,.767.767H38.8a.767.767,0,0,0,.767-.767v-9.2A.767.767,0,0,0,38.8,15.8H36.5V13.5a2.307,2.307,0,0,0-2.3-2.3H31.133a2.3,2.3,0,0,0-.767.138v-.9a.767.767,0,0,0-.767-.767H27.3V6.6H44.167a2.307,2.307,0,0,1,2.3,2.3ZM38.033,17.333V25H30.367V17.333ZM30.367,15.8V13.5a.767.767,0,0,1,.767-.767H34.2a.767.767,0,0,1,.767.767v2.3Z" transform="translate(0)" fill="#06f"/>
    <rect id="Rectangle_1092" data-name="Rectangle 1092" width="2" height="1" transform="translate(42 33)" fill="#06f"/>
    <rect id="Rectangle_1093" data-name="Rectangle 1093" width="1" height="1" transform="translate(39 33)" fill="#06f"/>
    <path id="Path_11391" data-name="Path 11391" d="M51.135,16.435a.767.767,0,0,0,.542-.225l3.833-3.833-1.084-1.084-3.291,3.291-1.758-1.758L48.293,13.91l2.3,2.3A.767.767,0,0,0,51.135,16.435Z" transform="translate(-10.802 -2.168)" fill="#06f"/>
  </g>
</svg>
