<svg xmlns="http://www.w3.org/2000/svg" width="44" height="33.871" viewBox="0 0 44 33.871">
  <g id="click" transform="translate(0 -52.5)">
    <g id="Group_8798" data-name="Group 8798" transform="translate(0 52.5)">
      <g id="Group_8797" data-name="Group 8797" transform="translate(0 0)">
        <path id="Path_4928" data-name="Path 4928" d="M40.122,52.5H3.868A3.868,3.868,0,0,0,0,56.368V82.5a3.868,3.868,0,0,0,3.868,3.868H40.132A3.868,3.868,0,0,0,44,82.5V56.368A3.876,3.876,0,0,0,40.122,52.5Zm1.939,29.935a1.91,1.91,0,0,1-1.929,1.9H3.868a1.911,1.911,0,0,1-1.939-1.891V63.3H42.061Zm0-26.1v5.045H1.929V56.33a1.91,1.91,0,0,1,1.929-1.9H40.122a1.911,1.911,0,0,1,1.939,1.891Z" transform="translate(0 -52.5)" fill="#06f"/>
      </g>
    </g>
    <g id="Group_8800" data-name="Group 8800" transform="translate(8.711 54.883)">
      <g id="Group_8799" data-name="Group 8799" transform="translate(0 0)">
        <path id="Path_4929" data-name="Path 4929" d="M93.194,77.2a2.894,2.894,0,1,0,2.894,2.894A2.89,2.89,0,0,0,93.194,77.2Zm0,3.868a.965.965,0,1,1,.965-.965A.968.968,0,0,1,93.194,81.068Z" transform="translate(-90.3 -77.2)" fill="#06f"/>
      </g>
    </g>
    <g id="Group_8802" data-name="Group 8802" transform="translate(14.991 54.883)">
      <g id="Group_8801" data-name="Group 8801" transform="translate(0 0)">
        <path id="Path_4930" data-name="Path 4930" d="M158.294,77.2a2.894,2.894,0,1,0,2.894,2.894A2.89,2.89,0,0,0,158.294,77.2Zm0,3.868a.965.965,0,1,1,.965-.965A.955.955,0,0,1,158.294,81.068Z" transform="translate(-155.4 -77.2)" fill="#06f"/>
      </g>
    </g>
    <g id="Group_8804" data-name="Group 8804" transform="translate(2.421 54.883)">
      <g id="Group_8803" data-name="Group 8803" transform="translate(0 0)">
        <path id="Path_4931" data-name="Path 4931" d="M27.994,77.2a2.894,2.894,0,1,0,2.894,2.894A2.89,2.89,0,0,0,27.994,77.2Zm0,3.868a.965.965,0,1,1,.965-.965A.955.955,0,0,1,27.994,81.068Z" transform="translate(-25.1 -77.2)" fill="#06f"/>
      </g>
    </g>
    <g id="Group_8806" data-name="Group 8806" transform="translate(23.314 70.004)">
      <g id="Group_8805" data-name="Group 8805" transform="translate(0 0)">
        <path id="Path_4932" data-name="Path 4932" d="M254.759,238.425a1.021,1.021,0,0,0-.54-.463L242.951,234a.958.958,0,0,0-1.225.6,1.026,1.026,0,0,0,0,.637l3.926,11.3a.957.957,0,0,0,.839.646h.077a.968.968,0,0,0,.849-.511l1.4-2.653,1.833,1.823a.961.961,0,0,0,1.36,0l1.515-1.515a.961.961,0,0,0,0-1.36l-1.823-1.833,2.653-1.4A.961.961,0,0,0,254.759,238.425Zm-5.5,2.884a1,1,0,0,0,.164.232l2.055,2.074-.164.164-2.055-2.064a.952.952,0,0,0-1.36.01.779.779,0,0,0-.164.232l-.974,1.852-2.547-7.312,7.3,2.537-1.852.974A.961.961,0,0,0,249.26,241.31Z" transform="translate(-241.675 -233.944)" fill="#06f"/>
      </g>
    </g>
    <g id="Group_8808" data-name="Group 8808" transform="translate(19.644 66.355)">
      <g id="Group_8807" data-name="Group 8807" transform="translate(0 0)">
        <path id="Path_4933" data-name="Path 4933" d="M206.622,197.753l-1.351-1.341a.962.962,0,1,0-1.37,1.351l.01.01,1.351,1.341a.962.962,0,0,0,1.36-1.36Z" transform="translate(-203.625 -196.125)" fill="#06f"/>
      </g>
    </g>
    <g id="Group_8810" data-name="Group 8810" transform="translate(24.101 65.237)">
      <g id="Group_8809" data-name="Group 8809" transform="translate(0 0)">
        <path id="Path_4934" data-name="Path 4934" d="M252.136,187.376l-.386-2.055a.967.967,0,1,0-1.9.357l.386,2.055a.98.98,0,0,0,.945.791,1.318,1.318,0,0,0,.183-.019A.967.967,0,0,0,252.136,187.376Z" transform="translate(-249.833 -184.533)" fill="#06f"/>
      </g>
    </g>
    <g id="Group_8812" data-name="Group 8812" transform="translate(18.535 70.803)">
      <g id="Group_8811" data-name="Group 8811" transform="translate(0 0)">
        <path id="Path_4935" data-name="Path 4935" d="M195.333,242.632l-2.055-.386a.962.962,0,1,0-.357,1.891l2.055.386a1.069,1.069,0,0,0,.183.019.963.963,0,0,0,.174-1.91Z" transform="translate(-192.133 -242.23)" fill="#06f"/>
      </g>
    </g>
  </g>
</svg>
