<svg xmlns="http://www.w3.org/2000/svg" width="40.85" height="36.86" viewBox="0 0 40.85 36.86">
  <path id="Color_Overlay" data-name="Color Overlay" d="M16.675,35.663c0-3.563-3.185-6.463-7.1-6.463-3.96,0-7.18,2.9-7.18,6.463a1.2,1.2,0,0,1-2.394,0A8.864,8.864,0,0,1,5.629,27.6a5.664,5.664,0,1,1,7.881.01,8.86,8.86,0,0,1,5.558,8.058,1.2,1.2,0,0,1-2.393,0ZM6.3,23.536a3.271,3.271,0,1,0,3.271-3.271A3.276,3.276,0,0,0,6.3,23.536ZM24.175,34.307a2.4,2.4,0,0,1-2.393-2.393V29.281c-.1-.1-.867-.96-3.037-3.427a2.348,2.348,0,0,1,1.174-4.133c.23-.042-1.154-.019,18.538-.019a2.4,2.4,0,0,1,2.393,2.393v7.819a2.4,2.4,0,0,1-2.393,2.393ZM20.371,24.1c.149.152.993,1.04,3.044,3.351a2.622,2.622,0,0,1,.759,1.833v2.633H38.457V24.095Zm12.922,4.142a1.2,1.2,0,1,1,2.169.431,1.16,1.16,0,0,1-.983.532A1.2,1.2,0,0,1,33.293,28.238Zm-4.928.431a1.2,1.2,0,1,1,1,.532A1.2,1.2,0,0,1,28.366,28.669ZM38.457,17.792c0-3.564-3.221-6.463-7.181-6.463-3.916,0-7.1,2.9-7.1,6.463a1.2,1.2,0,0,1-2.393,0A8.86,8.86,0,0,1,27.34,9.733a5.665,5.665,0,1,1,7.882-.01,8.864,8.864,0,0,1,5.628,8.068,1.2,1.2,0,0,1-2.393,0ZM28,5.664a3.271,3.271,0,1,0,3.271-3.271A3.276,3.276,0,0,0,28,5.664ZM5.026,15.159a2.4,2.4,0,0,1-2.393-2.393V4.946A2.4,2.4,0,0,1,5.026,2.553c16.723,0,15.659-.026,15.905.019a2.348,2.348,0,0,1,1.174,4.133c-2.17,2.467-2.935,3.324-3.038,3.427v2.633a2.4,2.4,0,0,1-2.393,2.393Zm0-2.393H16.675V10.132A2.622,2.622,0,0,1,17.434,8.3c2.052-2.312,2.9-3.2,3.044-3.351l-15.452,0Z" transform="translate(0)" fill="#06f"/>
</svg>
