<svg xmlns="http://www.w3.org/2000/svg" width="41" height="41" viewBox="0 0 41 41">
  <g id="Vector_Smart_Object" data-name="Vector Smart Object" transform="translate(0.028 -0.333)">
    <path id="Color_Overlay" data-name="Color Overlay" d="M7.677,41a.924.924,0,0,1-.915-.775L5.541,32.9H4.3a4.3,4.3,0,0,1,0-8.6h.516a4.269,4.269,0,0,1-.769-2.447V4.3A4.313,4.313,0,0,1,8.351,0H36.7A4.313,4.313,0,0,1,41,4.3V21.85a4.314,4.314,0,0,1-4.3,4.3H26.867a2.94,2.94,0,0,1-.715,5.24v5.98a.929.929,0,0,1-.928.928h-2.7a.93.93,0,0,1-.363-.075.308.308,0,0,1-.052-.019L11.507,32.9h-.2v7.171a.929.929,0,0,1-.928.928Zm.786-1.856h.986V32.9H7.422Zm14.99-2.7H24.3V20.753h-.844ZM12.654,25.8v5.6L21.6,35.871V21.327ZM5.9,31.045H10.8V26.152H5.9ZM1.856,28.6a2.45,2.45,0,0,0,2.193,2.434V26.165A2.449,2.449,0,0,0,1.856,28.6Zm24.3.583a1.093,1.093,0,0,0,0-1.165Zm0-4.885H36.7a2.45,2.45,0,0,0,2.447-2.447V4.3A2.449,2.449,0,0,0,36.7,1.856H8.352A2.449,2.449,0,0,0,5.9,4.3V21.85A2.45,2.45,0,0,0,8.352,24.3h3.155l1.687-.844H7.677a.928.928,0,0,1-.928-.928V3.627A.929.929,0,0,1,7.677,2.7h29.7a.929.929,0,0,1,.928.928v18.9a.929.929,0,0,1-.928.928H26.152Zm-.928-5.4a.929.929,0,0,1,.928.928V21.6H36.444V4.556H8.6V21.6h8.3c5.267-2.625,5.279-2.629,5.291-2.635l.025-.008A1.666,1.666,0,0,1,22.5,18.9h2.729Zm3.582,17.762-1.355-2.346a.928.928,0,0,1,1.614-.916l1.355,2.347a.928.928,0,0,1-1.614.916Zm3.55-2.871-2.336-1.349a.928.928,0,0,1,.926-1.608l2.35,1.357a.93.93,0,0,1,.33,1.269.933.933,0,0,1-.8.459A.924.924,0,0,1,32.357,33.788ZM31.3,29.526a.928.928,0,1,1,0-1.856H34a.928.928,0,1,1,0,1.856ZM19.825,18.053a.928.928,0,0,1-.928-.928v-8.1a.93.93,0,0,1,.929-.929.935.935,0,0,1,.414.1l8.1,4.05a.929.929,0,0,1,0,1.661l-8.1,4.05a.935.935,0,0,1-.414.1Zm.928-2.429,5.1-2.548-5.1-2.548Z" transform="translate(-0.028 0.333)" fill="#06f"/>
  </g>
</svg>
