<svg xmlns="http://www.w3.org/2000/svg" width="43.667" height="43.667" viewBox="0 0 43.667 43.667">
  <path id="Path_4927" data-name="Path 4927" d="M5.2,25.545v3.964a1.279,1.279,0,0,0,2.184.9l4.743-4.743h3.437a6.422,6.422,0,0,0-.129,1.28v5.117a6.4,6.4,0,0,0,6.4,6.4h9.7l4.741,4.82a1.279,1.279,0,0,0,2.191-.9V38.337a6.458,6.458,0,0,0,5.2-6.269V26.95a6.465,6.465,0,0,0-6.482-6.4H30.66a6.4,6.4,0,0,0,.129-1.279V6.4a6.4,6.4,0,0,0-6.4-6.4H6.482A6.465,6.465,0,0,0,0,6.4V19.275A6.453,6.453,0,0,0,5.2,25.545Zm31.982-2.433a3.933,3.933,0,0,1,3.923,3.838v5.117a3.9,3.9,0,0,1-3.923,3.838,1.279,1.279,0,0,0-1.279,1.279v2.077L32.98,36.288a1.28,1.28,0,0,0-.912-.382H21.833A3.842,3.842,0,0,1,18,32.068V26.95a3.85,3.85,0,0,1,.22-1.279h6.177a6.39,6.39,0,0,0,5.114-2.559ZM2.559,6.4A3.933,3.933,0,0,1,6.482,2.559h17.91A3.842,3.842,0,0,1,28.23,6.4V19.275a3.842,3.842,0,0,1-3.838,3.838H11.6a1.279,1.279,0,0,0-.9.375L7.761,26.421V24.392a1.279,1.279,0,0,0-1.279-1.279,3.933,3.933,0,0,1-3.923-3.838Z" fill="#06f"/>
</svg>
