<svg xmlns="http://www.w3.org/2000/svg" width="47" height="47" viewBox="0 0 47 47">
  <g id="Vector_Smart_Object" data-name="Vector Smart Object" transform="translate(-0.468 -0.468)">
    <g id="Group_9788" data-name="Group 9788" transform="translate(0.468 0.468)">
      <path id="Path_6197" data-name="Path 6197" d="M44.94.468H3A2.535,2.535,0,0,0,.468,3V35.952A2.535,2.535,0,0,0,3,38.48H19.431l-.617,4.934a22.47,22.47,0,0,0-4.405,2.167,1.03,1.03,0,0,0,.571,1.887H32.956a1.03,1.03,0,0,0,.57-1.888,22.465,22.465,0,0,0-4.4-2.166l-.617-4.934H44.94a2.535,2.535,0,0,0,2.528-2.528V3A2.535,2.535,0,0,0,44.94.468Zm-23.97,42.3.536-4.292h4.923l.537,4.292a12.687,12.687,0,0,0-6,0Zm-1.607,2.637a13.313,13.313,0,0,1,4.6-.936,13.3,13.3,0,0,1,4.6.936ZM2.528,30.99h42.88v4.962a.469.469,0,0,1-.468.468H3a.47.47,0,0,1-.468-.468ZM3,2.528H44.94A.469.469,0,0,1,45.408,3V28.93H2.528V3A.469.469,0,0,1,3,2.528Z" transform="translate(-0.468 -0.468)" fill="#276ef1"/>
      <path id="Path_6198" data-name="Path 6198" d="M22.47,34.735h3a1.03,1.03,0,0,0,0-2.06h-3a1.03,1.03,0,0,0,0,2.06Z" transform="translate(-0.468 -0.468)" fill="#276ef1"/>
      <path id="Path_6199" data-name="Path 6199" d="M9.737,7.022h2.254L16.25,19.8a1.046,1.046,0,0,0,.062.148,2.531,2.531,0,1,0,1.753.557h7.42c-.013.16-.019.317-.019.468a5.992,5.992,0,1,0,5.992-5.992c-.137,0-.277.005-.418.015l1.395-4.183a1.03,1.03,0,0,0-.977-1.356H19.474a1.03,1.03,0,1,0,0,2.06H30.029l-.812,2.434H20.972a1.03,1.03,0,1,0,0,2.06H28.1a6,6,0,0,0-2.076,2.434H17.969L13.71,5.666a1.029,1.029,0,0,0-.977-.7h-3a1.03,1.03,0,0,0,0,2.06ZM16.478,22a.468.468,0,1,1-.468.468A.469.469,0,0,1,16.478,22Zm14.98-4.962a3.932,3.932,0,1,1-3.932,3.932A3.943,3.943,0,0,1,31.458,17.04Z" transform="translate(-0.468 -0.468)" fill="#276ef1"/>
      <path id="Path_6200" data-name="Path 6200" d="M29.49,21.887l.01.006,1.5.749a1.035,1.035,0,0,0,.46.109h0a1.028,1.028,0,0,0,.858-.459l1.5-2.248A1.03,1.03,0,0,0,32.1,18.9l-.993,1.491-.685-.343a1.029,1.029,0,0,0-1.378.471A1.035,1.035,0,0,0,29.49,21.887Z" transform="translate(-0.468 -0.468)" fill="#276ef1"/>
    </g>
  </g>
</svg>
