<svg xmlns="http://www.w3.org/2000/svg" width="65.329" height="35.217" viewBox="0 0 65.329 35.217">
  <g id="Vector_Smart_Object" data-name="Vector Smart Object" transform="translate(0 -16.78)">
    <rect id="Rectangle_502" data-name="Rectangle 502" width="1.904" height="5.98" transform="translate(63.425 23.776)" fill="#276ef1"/>
    <path id="Path_6183" data-name="Path 6183" d="M40.876,21.378A11.189,11.189,0,1,0,52.032,32.567,11.172,11.172,0,0,0,40.876,21.378Zm0,20.376a9.223,9.223,0,1,1,9.2-9.223A9.209,9.209,0,0,1,40.876,41.754Z" transform="translate(-2.883 -0.446)" fill="#276ef1"/>
    <rect id="Rectangle_503" data-name="Rectangle 503" width="5.797" height="1.914" transform="translate(15.032 37.735)" fill="#276ef1"/>
    <path id="Path_6184" data-name="Path 6184" d="M40.638,18.905A13.407,13.407,0,1,0,54.006,32.312,13.391,13.391,0,0,0,40.638,18.905Zm8.209,20.961A11.1,11.1,0,0,1,41.66,43.44a.96.96,0,0,1-.173-1.911,9.263,9.263,0,1,0-10.076-9.216,9.286,9.286,0,0,0,6.055,8.693.959.959,0,0,1-.658,1.8,11.179,11.179,0,0,1,3.831-21.669h0a11.181,11.181,0,0,1,8.209,18.728Z" transform="translate(-2.646 -0.206)" fill="none"/>
    <path id="Path_6185" data-name="Path 6185" d="M56.049,46.332l-.371-.378.371.378Z" transform="translate(-5.401 -2.83)" fill="none"/>
    <path id="Path_6186" data-name="Path 6186" d="M55.871,49.6l.555.574-.555-.574Z" transform="translate(-5.42 -3.184)" fill="none"/>
    <path id="Path_6187" data-name="Path 6187" d="M19.6,40.14a.96.96,0,0,1,0-1.92h4.382a15.456,15.456,0,0,1,0-11.261H7.542a.32.32,0,0,0-.319.32V37.9a.32.32,0,0,0,.319.32h7.592a.96.96,0,0,1,0,1.92H7.542A2.239,2.239,0,0,1,5.309,37.9V27.279A2.239,2.239,0,0,1,7.542,25.04H24.9a15.289,15.289,0,0,1,2.414-3.2H4.544A2.431,2.431,0,0,0,2.12,24.272V40.908a2.431,2.431,0,0,0,2.424,2.431H27.31a15.413,15.413,0,0,1-2.41-3.2Zm-5.231-4.8a.957.957,0,1,1-1.914,0v-5.5a.957.957,0,1,1,1.914,0Z" transform="translate(-0.206 -0.491)" fill="none"/>
    <path id="Path_6188" data-name="Path 6188" d="M57.817,38.77H63.6a.32.32,0,0,0,.319-.32V27.829a.32.32,0,0,0-.319-.32H57.812a15.371,15.371,0,0,1,.006,11.261Z" transform="translate(-5.608 -1.041)" fill="none"/>
    <path id="Path_6189" data-name="Path 6189" d="M40.878,21.378h0a11.18,11.18,0,0,0-3.831,21.669.959.959,0,0,0,.658-1.8,9.25,9.25,0,1,1,12.4-8.693,9.193,9.193,0,0,1-8.379,9.216A.96.96,0,0,0,41.9,43.68a11.176,11.176,0,0,0-1.022-22.3Z" transform="translate(-2.885 -0.446)" fill="#276ef1"/>
    <path id="Path_6190" data-name="Path 6190" d="M64.372,27.3a.958.958,0,0,0-.957.96V40.417a2.431,2.431,0,0,1-2.424,2.431h-8.3l-2.076-2.115q.359-.527.675-1.084h6.7a2.239,2.239,0,0,0,2.233-2.239V26.788a2.239,2.239,0,0,0-2.233-2.239H51.283a15.412,15.412,0,0,0-2.416-3.2H60.991a2.431,2.431,0,0,1,2.424,2.431.957.957,0,1,0,1.914,0,4.349,4.349,0,0,0-4.338-4.351H46.573a15.213,15.213,0,0,0-17.159,0H4.338A4.349,4.349,0,0,0,0,23.781V40.417a4.349,4.349,0,0,0,4.338,4.351H29.283a.977.977,0,0,0,.1-.005,15.212,15.212,0,0,0,16.966.168L52.315,51.1a3.025,3.025,0,1,0,4.266-4.289l-2-2.043h6.415a4.349,4.349,0,0,0,4.338-4.351V28.26A.958.958,0,0,0,64.372,27.3Zm-6.38-.832a.32.32,0,0,1,.319.32V37.41a.32.32,0,0,1-.319.32H52.209A15.371,15.371,0,0,0,52.2,26.468ZM4.338,42.848a2.431,2.431,0,0,1-2.424-2.431V23.781a2.431,2.431,0,0,1,2.424-2.431H27.112a15.289,15.289,0,0,0-2.414,3.2H7.337A2.239,2.239,0,0,0,5.1,26.788V37.41a2.239,2.239,0,0,0,2.233,2.239h7.592a.96.96,0,0,0,0-1.92H7.337a.32.32,0,0,1-.319-.32V26.788a.32.32,0,0,1,.319-.32H23.779a15.456,15.456,0,0,0,0,11.261H19.395a.96.96,0,0,0,0,1.92h5.3a15.412,15.412,0,0,0,2.41,3.2Zm33.655,2.664A13.407,13.407,0,1,1,51.361,32.106,13.4,13.4,0,0,1,37.993,45.513Zm17.229,2.65.012.012h0a1.119,1.119,0,0,1,.011,1.58,1.108,1.108,0,0,1-1.562,0l-2.539-2.626h0l-.139-.143-.555-.574h0L48.68,44.583l-.786-.813a15.456,15.456,0,0,0,1.535-1.51h0l.845.862h0l0,0,.371.378h0l2.02,2.058Z" fill="#276ef1"/>
    <path id="Path_6191" data-name="Path 6191" d="M14.522,29.635a.958.958,0,0,0-.957.96v5.5a.957.957,0,1,0,1.914,0v-5.5A.958.958,0,0,0,14.522,29.635Z" transform="translate(-1.316 -1.247)" fill="#276ef1"/>
    <path id="Path_6192" data-name="Path 6192" d="M56.624,50.377h0l-.139-.143Z" transform="translate(-5.48 -3.245)" fill="#276ef1"/>
    <path id="Path_6193" data-name="Path 6193" d="M55.676,45.951h0l0,0Z" transform="translate(-5.401 -2.83)" fill="#276ef1"/>
  </g>
</svg>
