<svg xmlns="http://www.w3.org/2000/svg" xmlns:xlink="http://www.w3.org/1999/xlink" width="57" height="40" viewBox="0 0 57 40">
  <defs>
    <clipPath id="clip-path">
      <rect id="crop" width="57" height="40" transform="translate(0 8.277)" fill="none"/>
    </clipPath>
  </defs>
  <g id="Vector_Smart_Object" data-name="Vector Smart Object" transform="translate(0 -8.277)" clip-path="url(#clip-path)">
    <g id="Group_13077" data-name="Group 13077">
      <path id="Path_7320" data-name="Path 7320" d="M56.794,41.92a.89.89,0,0,0-.631-.259H53.157V25.477h0V12.348a4.092,4.092,0,0,0-4.1-4.071H7.946a4.092,4.092,0,0,0-4.1,4.071V41.661H.837a.89.89,0,0,0-.892.885V45.07a3.223,3.223,0,0,0,3.232,3.207H53.823a3.223,3.223,0,0,0,3.232-3.207V42.546A.876.876,0,0,0,56.794,41.92ZM7.946,10.048H49.054a2.312,2.312,0,0,1,2.319,2.3V41.661H49.4V37.628h.006V30.307H49.4V12.885A.89.89,0,0,0,48.513,12H8.487a.89.89,0,0,0-.892.885V41.661H5.627V27.552h0V20.23h0V12.348A2.312,2.312,0,0,1,7.946,10.048ZM47.62,36.566v5.094H33.636a.89.89,0,0,0-.892.885v.639a.235.235,0,0,1-.236.234H22.25a.235.235,0,0,1-.236-.234v-.639a.89.89,0,0,0-.892-.885H9.38V13.771H47.62V33.246a.886.886,0,0,0,.006.1v3.121A.873.873,0,0,0,47.62,36.566ZM1.729,43.431H20.246a2.007,2.007,0,0,0,2.005,1.758H32.509a2.007,2.007,0,0,0,2.005-1.758H55.271V45.07a1.444,1.444,0,0,1-1.448,1.436H3.176A1.444,1.444,0,0,1,1.729,45.07Z" fill="#276ef1"/>
      <path id="Path_7321" data-name="Path 7321" d="M28.5,17.805a9.9,9.9,0,0,0-7.77,16.142.888.888,0,0,0,.252.211q.237.272.494.528a9.914,9.914,0,0,0,1.787,1.4.885.885,0,0,0,.254.219,9.937,9.937,0,1,0,4.983-18.5ZM22.26,33.092a.88.88,0,0,0-.145-.257,8.014,8.014,0,0,1-1.823-5.119,8.184,8.184,0,1,1,4.115,7.061.9.9,0,0,0-.269-.1,8.245,8.245,0,0,1-1.481-1.164Q22.45,33.31,22.26,33.092Z" fill="#276ef1"/>
      <path id="Path_7322" data-name="Path 7322" d="M26.2,32.492a.9.9,0,0,0,.4.1.887.887,0,0,0,.528-.172l5.461-3.987a.879.879,0,0,0,0-1.423l-5.461-3.987a.89.89,0,0,0-.528-.172.9.9,0,0,0-.4.1.879.879,0,0,0-.489.789V31.7A.879.879,0,0,0,26.2,32.492Zm4.36-4.775-3.067,2.24V25.477Z" fill="#276ef1"/>
    </g>
  </g>
</svg>
