<svg xmlns="http://www.w3.org/2000/svg" width="44.045" height="40.432" viewBox="0 0 44.045 40.432">
  <g id="Vector_Smart_Object" data-name="Vector Smart Object" transform="translate(0 -4.455)">
    <g id="Group_9776" data-name="Group 9776" transform="translate(7.341 15.481)">
      <path id="Path_6172" data-name="Path 6172" d="M37.342,39.872H9.814a.919.919,0,0,1-.918-.919V18.737a.919.919,0,0,1,.918-.919H37.342a.919.919,0,0,1,.918.919V38.953A.919.919,0,0,1,37.342,39.872Zm-26.61-1.838H36.424V19.656H10.732Z" transform="translate(-8.896 -17.818)" fill="#276ef1"/>
    </g>
    <g id="Group_9777" data-name="Group 9777" transform="translate(0 4.455)">
      <path id="Path_6173" data-name="Path 6173" d="M43.127,11.806H.918A.919.919,0,0,1,0,10.887V7.211A2.758,2.758,0,0,1,2.753,4.455H41.292a2.758,2.758,0,0,1,2.753,2.757v3.676A.919.919,0,0,1,43.127,11.806ZM1.835,9.968H42.21V7.211a.92.92,0,0,0-.918-.919H2.753a.92.92,0,0,0-.918.919Z" transform="translate(0 -4.455)" fill="#276ef1"/>
    </g>
    <g id="Group_9778" data-name="Group 9778" transform="translate(1.835 9.968)">
      <path id="Path_6174" data-name="Path 6174" d="M3.142,46.055a.919.919,0,0,1-.918-.919V12.055a.918.918,0,1,1,1.835,0v33.08A.919.919,0,0,1,3.142,46.055Z" transform="translate(-2.224 -11.136)" fill="#276ef1"/>
    </g>
    <g id="Group_9779" data-name="Group 9779" transform="translate(40.374 9.968)">
      <path id="Path_6175" data-name="Path 6175" d="M49.848,46.055a.919.919,0,0,1-.918-.919V12.055a.918.918,0,1,1,1.835,0v33.08A.919.919,0,0,1,49.848,46.055Z" transform="translate(-48.93 -11.136)" fill="#276ef1"/>
    </g>
    <g id="Group_9780" data-name="Group 9780" transform="translate(0 43.048)">
      <path id="Path_6176" data-name="Path 6176" d="M4.588,53.065H.918a.919.919,0,0,1,0-1.838h3.67a.919.919,0,0,1,0,1.838Z" transform="translate(0 -51.227)" fill="#276ef1"/>
    </g>
    <g id="Group_9781" data-name="Group 9781" transform="translate(38.539 43.048)">
      <path id="Path_6177" data-name="Path 6177" d="M51.294,53.065h-3.67a.919.919,0,0,1,0-1.838h3.67a.919.919,0,0,1,0,1.838Z" transform="translate(-46.706 -51.227)" fill="#276ef1"/>
    </g>
    <g id="Group_9782" data-name="Group 9782" transform="translate(34.869 24.67)">
      <path id="Path_6178" data-name="Path 6178" d="M48.681,30.792H43.176a.919.919,0,0,1,0-1.838h5.506a.919.919,0,0,1,0,1.838Z" transform="translate(-42.258 -28.955)" fill="#276ef1"/>
    </g>
    <g id="Group_9783" data-name="Group 9783" transform="translate(1.835 24.67)">
      <path id="Path_6179" data-name="Path 6179" d="M8.647,30.792H3.142a.919.919,0,0,1,0-1.838H8.647a.919.919,0,0,1,0,1.838Z" transform="translate(-2.224 -28.955)" fill="#276ef1"/>
    </g>
    <g id="Group_9784" data-name="Group 9784" transform="translate(12.846 20.995)">
      <path id="Path_6180" data-name="Path 6180" d="M21.992,35.527a.919.919,0,0,1-.918-.919V28.176a1.835,1.835,0,1,0-3.67,0v6.432a.918.918,0,1,1-1.835,0V28.176a3.67,3.67,0,1,1,7.341,0v6.432A.919.919,0,0,1,21.992,35.527Z" transform="translate(-15.569 -24.5)" fill="#276ef1"/>
    </g>
    <g id="Group_9785" data-name="Group 9785" transform="translate(12.846 26.508)">
      <path id="Path_6181" data-name="Path 6181" d="M21.992,33.02H16.486a.919.919,0,0,1,0-1.838h5.506a.919.919,0,0,1,0,1.838Z" transform="translate(-15.569 -31.182)" fill="#276ef1"/>
    </g>
    <g id="Group_9786" data-name="Group 9786" transform="translate(23.858 20.995)">
      <path id="Path_6182" data-name="Path 6182" d="M31.666,35.527H29.831a.919.919,0,0,1-.918-.919V25.419a.919.919,0,0,1,.918-.919h1.835a4.6,4.6,0,0,1,4.588,4.594v1.838A4.6,4.6,0,0,1,31.666,35.527Zm-.918-1.838h.918a2.758,2.758,0,0,0,2.753-2.757V29.095a2.758,2.758,0,0,0-2.753-2.757h-.918Z" transform="translate(-28.913 -24.5)" fill="#276ef1"/>
    </g>
  </g>
</svg>
