<svg xmlns="http://www.w3.org/2000/svg" width="32.25" height="32.25" viewBox="0 0 32.25 32.25">
  <g id="Vector_Smart_Object" data-name="Vector Smart Object" transform="translate(0 0)">
    <g id="Group_49" data-name="Group 49" transform="translate(0 0)">
      <g id="Group_48" data-name="Group 48">
        <path id="Path_549" data-name="Path 549" d="M31.772,13.15,29.3,12.533,27.9,9.17l3.746-3.746a2.056,2.056,0,0,0,0-2.907L29.732.6a2.058,2.058,0,0,0-2.907,0L23.08,4.348,19.717,2.954,19.1.478A.63.63,0,0,0,18.489,0H13.761a.63.63,0,0,0-.611.478l-.617,2.476L9.352,4.272,7.166,2.958a.63.63,0,0,0-.77.094L3.052,6.4a.63.63,0,0,0-.094.77L4.272,9.353l-1.318,3.18L.478,13.15A.63.63,0,0,0,0,13.761v4.728a.63.63,0,0,0,.478.611l2.476.617L4.272,22.9,2.958,25.084a.63.63,0,0,0,.094.77L6.4,29.2a.63.63,0,0,0,.77.094l2.186-1.314,3.18,1.318.617,2.477a.63.63,0,0,0,.611.478h4.728a.63.63,0,0,0,.611-.478l.617-2.477,3.18-1.318,2.186,1.314a.63.63,0,0,0,.77-.094L29.2,25.854a.63.63,0,0,0,.094-.77L27.978,22.9l1.318-3.18,2.476-.617a.63.63,0,0,0,.478-.611V13.761A.63.63,0,0,0,31.772,13.15ZM27.716,1.493a.8.8,0,0,1,1.125,0l1.915,1.915a.8.8,0,0,1,0,1.125L29.13,6.161,26.089,3.12ZM25.2,4.011l1.081,1.081L23.6,7.766a.63.63,0,1,0,.891.891L27.17,5.982l1.069,1.069-4.116,4.116,0,0L17.1,18.187l-1.069-1.069,5.076-5.076a.63.63,0,0,0-.891-.891l-5.076,5.076-1.081-1.081,7.015-7.016,0,0ZM12.99,17.549l.443-1.251L14.7,17.562h0l1.253,1.253L14.7,19.26Zm.4,2.177-1.333.472.472-1.333ZM30.99,18l-2.307.575a.63.63,0,0,0-.43.37l-1.561,3.767a.63.63,0,0,0,.042.566l1.224,2.037-2.648,2.648-2.037-1.224a.63.63,0,0,0-.566-.042l-3.767,1.561a.63.63,0,0,0-.37.43L18,30.99H14.253l-.575-2.307a.63.63,0,0,0-.37-.43L9.541,26.693a.629.629,0,0,0-.566.042L6.939,27.959,4.291,25.311l1.224-2.037a.63.63,0,0,0,.042-.566L4,18.942a.63.63,0,0,0-.43-.37L1.26,18V14.253l2.307-.575a.63.63,0,0,0,.43-.37L5.557,9.542a.63.63,0,0,0-.042-.566L4.291,6.939,6.939,4.291,8.976,5.516a.63.63,0,0,0,.566.042L13.308,4a.63.63,0,0,0,.37-.43l.575-2.307H18l.575,2.307a.63.63,0,0,0,.37.43l3.174,1.316-1.6,1.6a10.211,10.211,0,0,0-9.609.442.63.63,0,1,0,.645,1.082,8.955,8.955,0,0,1,8.01-.571L12.727,14.7a.629.629,0,0,0-.148.235l-2.155,6.086a.63.63,0,0,0,.8.8l6.086-2.155a.63.63,0,0,0,.235-.148l6.834-6.834A8.944,8.944,0,1,1,8.409,11.6a.63.63,0,1,0-1.086-.638,10.2,10.2,0,1,0,18.014.775l1.6-1.6,1.315,3.174a.63.63,0,0,0,.43.37l2.307.575V18Z" transform="translate(0 0)" fill="#252525"/>
      </g>
    </g>
  </g>
</svg>
