<svg xmlns="http://www.w3.org/2000/svg" width="32.894" height="34.371" viewBox="0 0 32.894 34.371">
  <g id="Vector_Smart_Object" data-name="Vector Smart Object" transform="translate(-0.739)">
    <g id="Group_47" data-name="Group 47">
      <path id="Path_543" data-name="Path 543" d="M9.064,10.4a2.4,2.4,0,1,0,2.4,2.4A2.405,2.405,0,0,0,9.064,10.4Zm0,3.463a1.06,1.06,0,1,1,1.06-1.06A1.061,1.061,0,0,1,9.064,13.86Z" fill="#252525"/>
      <path id="Path_544" data-name="Path 544" d="M9.064,23.15a2.4,2.4,0,1,0,2.4,2.4A2.405,2.405,0,0,0,9.064,23.15Zm0,3.463a1.06,1.06,0,1,1,1.06-1.06A1.061,1.061,0,0,1,9.064,26.613Z" fill="#252525"/>
      <path id="Path_545" data-name="Path 545" d="M9.064,16.774a2.4,2.4,0,1,0,2.4,2.4,2.405,2.405,0,0,0-2.4-2.4Zm0,3.463a1.06,1.06,0,1,1,1.06-1.06,1.061,1.061,0,0,1-1.06,1.06Z" fill="#252525"/>
      <path id="Path_546" data-name="Path 546" d="M20.161,12.129H13.368a.671.671,0,1,0,0,1.343h6.793a.671.671,0,1,0,0-1.343Z" fill="#252525"/>
      <path id="Path_547" data-name="Path 547" d="M33.633,22.324a7.541,7.541,0,0,0-6.843-7.512v-9.3A2.072,2.072,0,0,0,24.72,3.439H17.328a3.566,3.566,0,0,0-7.128,0H2.808A2.072,2.072,0,0,0,.739,5.508V32.3a2.072,2.072,0,0,0,2.069,2.069H24.72a2.036,2.036,0,0,0,2.069-1.944V29.836a7.541,7.541,0,0,0,6.843-7.512ZM25.447,5.508v9.3a7.439,7.439,0,0,0-1.663.343V7.113a.671.671,0,0,0-.671-.671H20.539V4.782H24.72A.727.727,0,0,1,25.447,5.508Zm-5.807,13H13.368a.671.671,0,1,0,0,1.343H19.02a7.575,7.575,0,0,0,.029,5.034h-5.68a.671.671,0,1,0,0,1.343h6.32A7.583,7.583,0,0,0,22.441,28.9v1.126H5.087V7.784H22.441v7.964A7.584,7.584,0,0,0,19.64,18.505ZM10.921,4.782a.671.671,0,0,0,.659-.8,2.224,2.224,0,1,1,4.368,0,.671.671,0,0,0,.659.8H19.2v1.66H8.331V4.782Zm13.8,28.247H2.808a.727.727,0,0,1-.727-.727V5.508a.727.727,0,0,1,.727-.727H6.989v1.66H4.415a.671.671,0,0,0-.671.671V30.7a.671.671,0,0,0,.671.671h18.7a.671.671,0,0,0,.671-.671v-1.2a7.435,7.435,0,0,0,1.663.343v2.591a.717.717,0,0,1-.727.6Zm1.4-4.505a6.2,6.2,0,1,1,6.172-6.2A6.192,6.192,0,0,1,26.118,28.523Z" fill="#252525"/>
      <path id="Path_548" data-name="Path 548" d="M27.37,21.967h-.581V20.544a.671.671,0,0,0-1.343,0v2.1a.671.671,0,0,0,.671.671H27.37a.671.671,0,1,0,0-1.343Z" fill="#252525"/>
    </g>
  </g>
</svg>
