<svg xmlns="http://www.w3.org/2000/svg" width="33.5" height="33.5" viewBox="0 0 33.5 33.5">
  <g id="Vector_Smart_Object" data-name="Vector Smart Object" transform="translate(-1.115 -1.081)">
    <path id="Path_530" data-name="Path 530" d="M8.365,18.406h1.673v1.116H8.365Z" fill="#252525"/>
    <path id="Path_531" data-name="Path 531" d="M12.268,21.195h1.673V22.31H12.268Z" fill="#252525"/>
    <path id="Path_532" data-name="Path 532" d="M8.365,21.195h2.788V22.31H8.365Z" fill="#252525"/>
    <path id="Path_533" data-name="Path 533" d="M3.9,21.195H7.249V22.31H3.9Z" fill="#252525"/>
    <path id="Path_534" data-name="Path 534" d="M7.249,23.983h6.692V25.1H7.249Z" fill="#252525"/>
    <path id="Path_535" data-name="Path 535" d="M3.9,23.983H6.134V25.1H3.9Z" fill="#252525"/>
    <path id="Path_536" data-name="Path 536" d="M10.6,26.772h3.346v1.116H10.6Z" fill="#252525"/>
    <path id="Path_537" data-name="Path 537" d="M3.9,26.772H9.48v1.116H3.9Z" fill="#252525"/>
    <path id="Path_538" data-name="Path 538" d="M7.249,29.561H10.6v1.116H7.249Z" fill="#252525"/>
    <path id="Path_539" data-name="Path 539" d="M3.9,29.561H6.134v1.116H3.9Z" fill="#252525"/>
    <path id="Path_540" data-name="Path 540" d="M33.459,16.733a.558.558,0,0,0-.558-.558H29.555a.558.558,0,0,0-.558.558v2.789H26.209a.558.558,0,0,0-.558.558v2.789H22.863a.558.558,0,0,0-.558.558v2.789H19.517a.558.558,0,0,0-.558.558v3.347h-4a1.673,1.673,0,1,0,0,1.116h.654v1.673a.558.558,0,0,1-.558.558H2.788a.558.558,0,0,1-.558-.558V20.079H5.019a1.675,1.675,0,0,0,1.673-1.673V15.617h8.365a.558.558,0,0,1,.558.558v.558h1.115v-.558A1.675,1.675,0,0,0,15.056,14.5H6.6a1.662,1.662,0,0,0-1.183.49L1.605,18.8a1.663,1.663,0,0,0-.49,1.183V32.907a1.675,1.675,0,0,0,1.673,1.673H15.056a1.675,1.675,0,0,0,1.673-1.673V31.234H34.574V30.119H33.459ZM5.576,16.406v2a.558.558,0,0,1-.558.558h-2Zm7.807,14.828a.558.558,0,1,1,.558-.558A.558.558,0,0,1,13.383,31.234Zm6.692-3.9h2.231v2.789H20.075Zm3.346-3.347h2.231v6.135H23.421Zm3.346-3.347H29v9.482H26.767Zm3.346,9.482V17.29h2.231V30.119Z" fill="#252525"/>
    <path id="Path_541" data-name="Path 541" d="M2.788,15.059A1.673,1.673,0,0,0,4.3,12.665l1.673-1.674a1.672,1.672,0,0,0,2.3-.952h2.422a1.673,1.673,0,0,0,3.227-.281l3.149-2.7a1.673,1.673,0,1,0-.759-.819L13.641,8.527a1.672,1.672,0,0,0-2.949.4H8.269A1.673,1.673,0,1,0,5.182,10.2L3.509,11.876a1.673,1.673,0,1,0-.721,3.183ZM17.845,5.02a.558.558,0,1,1-.558.558A.558.558,0,0,1,17.845,5.02Zm-5.576,3.9a.558.558,0,1,1-.558.558A.558.558,0,0,1,12.268,8.924Zm-5.576,0a.558.558,0,1,1-.558.558A.558.558,0,0,1,6.692,8.924Zm-3.9,3.9a.558.558,0,1,1-.558.558A.558.558,0,0,1,2.788,12.828Z" fill="#252525"/>
    <path id="Path_542" data-name="Path 542" d="M22.972,14.161l-3.686,3.687H14.4a1.673,1.673,0,1,0,0,1.116h1.211V29h1.115V18.964h2.788a.558.558,0,0,0,.394-.163l4.025-4.025a7.271,7.271,0,1,0-.964-.613Zm-10.147,4.8a.558.558,0,1,1,.558-.558A.558.558,0,0,1,12.826,18.964ZM31.8,12.56,28.566,8.924h4.867A6.115,6.115,0,0,1,31.8,12.56Zm1.635-4.751H27.882V2.257A6.145,6.145,0,0,1,33.433,7.809ZM26.767,2.257v6.11a.555.555,0,0,0,.141.37h0L30.964,13.3a6.134,6.134,0,1,1-4.2-11.045Z" fill="#252525"/>
  </g>
</svg>
