<svg xmlns="http://www.w3.org/2000/svg" width="25.055" height="23" viewBox="0 0 25.055 23">
  <g id="Vector_Smart_Object" data-name="Vector Smart Object" transform="translate(0 -1.045)">
    <path id="Path_5732" data-name="Path 5732" d="M7.047,18.818a.776.776,0,0,1-.553-.23.785.785,0,0,1,0-1.109l2.839-2.843-2.84-2.844A.784.784,0,0,1,7.6,10.683l3.393,3.4a.785.785,0,0,1,0,1.109L7.6,18.588a.776.776,0,0,1-.553.23Z" fill="#222831"/>
    <path id="Path_5733" data-name="Path 5733" d="M18.009,18.818h-4.7a.784.784,0,0,1,0-1.568h4.7a.784.784,0,0,1,0,1.568Z" fill="#222831"/>
    <path id="Path_5734" data-name="Path 5734" d="M22.184,24.045H2.871A2.875,2.875,0,0,1,0,21.17V3.92A2.875,2.875,0,0,1,2.871,1.045H22.184A2.875,2.875,0,0,1,25.055,3.92V21.17A2.875,2.875,0,0,1,22.184,24.045ZM2.871,2.614a1.308,1.308,0,0,0-1.3,1.307V21.17a1.308,1.308,0,0,0,1.3,1.307H22.184a1.308,1.308,0,0,0,1.3-1.307V3.92a1.308,1.308,0,0,0-1.3-1.307Z" fill="#222831"/>
    <path id="Path_5735" data-name="Path 5735" d="M24.272,6.273H.783a.784.784,0,0,1,0-1.568H24.272a.784.784,0,0,1,0,1.568Z" fill="#222831"/>
  </g>
</svg>
