<svg xmlns="http://www.w3.org/2000/svg" width="30.25" height="30.25" viewBox="0 0 30.25 30.25">
  <g id="Vector_Smart_Object" data-name="Vector Smart Object" transform="translate(0)">
    <path id="Path_525" data-name="Path 525" d="M24.342,8.035a.591.591,0,1,0,.591-.591A.591.591,0,0,0,24.342,8.035Z" fill="#252525"/>
    <path id="Path_526" data-name="Path 526" d="M26.705,15.125a11.255,11.255,0,0,1-.225,2.245.591.591,0,0,0,.461.7.581.581,0,0,0,.119.012.591.591,0,0,0,.578-.473,12.432,12.432,0,0,0,.249-2.481,12.273,12.273,0,0,0-1.2-5.321.591.591,0,1,0-1.067.508A11.1,11.1,0,0,1,26.705,15.125Z" fill="#252525"/>
    <path id="Path_527" data-name="Path 527" d="M18.079,20.442h-.591V12.762a.591.591,0,0,0-.591-.591H12.171a.591.591,0,0,0-.591.591v2.363a.591.591,0,0,0,.591.591h.591v4.727h-.591a.591.591,0,0,0-.591.591V23.4a.591.591,0,0,0,.591.591h5.908a.591.591,0,0,0,.591-.591V21.033A.591.591,0,0,0,18.079,20.442Zm-.591,2.363H12.762V21.624h.591a.591.591,0,0,0,.591-.591V15.125a.591.591,0,0,0-.591-.591h-.591V13.353h3.545v7.681a.591.591,0,0,0,.591.591h.591Z" fill="#252525"/>
    <path id="Path_528" data-name="Path 528" d="M15.125,10.989a2.363,2.363,0,1,0-2.363-2.363A2.366,2.366,0,0,0,15.125,10.989Zm0-3.545a1.182,1.182,0,1,1-1.182,1.182A1.183,1.183,0,0,1,15.125,7.444Z" fill="#252525"/>
    <path id="Path_529" data-name="Path 529" d="M15.125,0A15.382,15.382,0,0,0,0,15.125a16.111,16.111,0,0,0,2.147,8L.03,29.472a.591.591,0,0,0,.748.747L7.127,28.1a16.107,16.107,0,0,0,8,2.147A15.381,15.381,0,0,0,30.25,15.125,15.381,15.381,0,0,0,15.125,0Zm0,29.068a14.778,14.778,0,0,1-7.607-2.112.59.59,0,0,0-.5-.061l-5.49,1.83,1.83-5.49a.59.59,0,0,0-.061-.5,14.777,14.777,0,0,1-2.112-7.607A14.13,14.13,0,0,1,15.125,1.182,14.13,14.13,0,0,1,29.068,15.125,14.13,14.13,0,0,1,15.125,29.068Z" fill="#252525"/>
  </g>
</svg>
