<svg xmlns="http://www.w3.org/2000/svg" width="23.699" height="28.417" viewBox="0 0 23.699 28.417">
  <g id="Vector_Smart_Object" data-name="Vector Smart Object" transform="translate(-2.37)">
    <path id="Path_550" data-name="Path 550" d="M23.107,28.417H5.332a2.965,2.965,0,0,1-2.962-2.96V2.96A2.965,2.965,0,0,1,5.332,0H23.107a2.965,2.965,0,0,1,2.962,2.96v22.5A2.965,2.965,0,0,1,23.107,28.417ZM5.332,1.184A1.779,1.779,0,0,0,3.555,2.96v22.5a1.779,1.779,0,0,0,1.777,1.776H23.107a1.779,1.779,0,0,0,1.777-1.776V2.96a1.779,1.779,0,0,0-1.777-1.776Z" fill="#252525"/>
    <path id="Path_551" data-name="Path 551" d="M21.922,14.208h-2.37a.592.592,0,1,1,0-1.184h2.37a.592.592,0,1,1,0,1.184Z" fill="#252525"/>
    <path id="Path_552" data-name="Path 552" d="M21.922,10.656h-2.37a.592.592,0,1,1,0-1.184h2.37a.592.592,0,1,1,0,1.184Z" fill="#252525"/>
    <path id="Path_553" data-name="Path 553" d="M21.922,17.761h-2.37a.592.592,0,1,1,0-1.184h2.37a.592.592,0,1,1,0,1.184Z" fill="#252525"/>
    <path id="Path_554" data-name="Path 554" d="M21.922,21.313h-2.37a.592.592,0,1,1,0-1.184h2.37a.592.592,0,1,1,0,1.184Z" fill="#252525"/>
    <path id="Path_555" data-name="Path 555" d="M21.922,24.865H6.517a.592.592,0,1,1,0-1.184h15.4a.592.592,0,1,1,0,1.184Z" fill="#252525"/>
    <path id="Path_556" data-name="Path 556" d="M11.85,21.313a5.92,5.92,0,1,1,5.925-5.92A5.929,5.929,0,0,1,11.85,21.313Zm0-10.656a4.736,4.736,0,1,0,4.74,4.736A4.743,4.743,0,0,0,11.85,10.656Z" fill="#252525"/>
    <path id="Path_557" data-name="Path 557" d="M8.079,19.752a.591.591,0,0,1-.419-1.01l3.6-3.595V10.064a.592.592,0,0,1,1.185,0v5.328a.6.6,0,0,1-.173.419L8.5,19.579A.6.6,0,0,1,8.079,19.752Z" fill="#252525"/>
  </g>
</svg>
