<svg xmlns="http://www.w3.org/2000/svg" width="14.5" height="14.5" viewBox="0 0 14.5 14.5"><defs><style>.a{fill:#06f;}</style></defs><g transform="translate(0.003 -0.059)"><g transform="translate(-0.003 0.059)"><path class="a" d="M7.008,8.549A5.858,5.858,0,0,1,5.239,5.223a.5.5,0,0,1,.143-.416L6.5,3.686a.5.5,0,0,0,.071-.619L4.789.295A.5.5,0,0,0,4.14.112L1.274,1.462a.5.5,0,0,0-.275.5,13.853,13.853,0,0,0,4.218,8.38,13.849,13.849,0,0,0,8.38,4.218.5.5,0,0,0,.5-.275l1.35-2.866a.5.5,0,0,0-.181-.647L12.491,8.984a.5.5,0,0,0-.619.07l-1.121,1.121a.5.5,0,0,1-.416.143A5.858,5.858,0,0,1,7.008,8.549Z" transform="translate(-0.997 -0.059)"/></g></g></svg>