<svg xmlns="http://www.w3.org/2000/svg" width="97.332" height="19.98" viewBox="0 0 97.332 19.98">
  <path id="Union_1" data-name="Union 1" d="M-16.487,6.226a.454.454,0,0,1-.257-.4.448.448,0,0,1,.049-.21l.75-1.492a.457.457,0,0,1,.562-.223l.012,0,.023.01a6.85,6.85,0,0,0,2.811.6A6.865,6.865,0,0,0-5.926-.5,6.8,6.8,0,0,0-5.678-2.08l.005-.6a.456.456,0,0,0-.456-.455h-5.9a.456.456,0,0,0-.456.455V-.953a.456.456,0,0,0,.456.455H-9.51a.436.436,0,0,1,.436.431.451.451,0,0,1-.018.124.441.441,0,0,1-.066.13,4.219,4.219,0,0,1-3.553,1.684,3.835,3.835,0,0,1-1.217-.255c-.042-.014-.085-.03-.126-.046A4.214,4.214,0,0,1-16.647-1.4a4.2,4.2,0,0,1-.112-.958,4.238,4.238,0,0,1,.132-1.049,4.225,4.225,0,0,1,4.089-3.154,4.207,4.207,0,0,1,2.09.552l.051.03.069.041c.045.029.091.057.135.086l.007.005.008.005q.116.078.227.165a4.259,4.259,0,0,1,.775.779.456.456,0,0,0,.364.182h2.024a.446.446,0,0,0,.356-.139h0l.009-.01,0,0,.006-.007,0,0,.006-.008,0,0A.032.032,0,0,0-6.4-4.9l.006-.008,0,0,0-.006.012-.019a.437.437,0,0,0,.054-.206.455.455,0,0,0-.063-.234,6.87,6.87,0,0,0-5.969-3.817l-.219,0a7.926,7.926,0,0,0-1.5.178,7.352,7.352,0,0,0-1.232.394.456.456,0,0,1-.578-.21l-.248-.472-.39-.743-.143-.272a.448.448,0,0,1-.052-.212.455.455,0,0,1,.292-.425,11.856,11.856,0,0,1,3.885-.877A9.555,9.555,0,0,1-3.032-2.365v.122a9.5,9.5,0,0,1-9.506,9.39A9.257,9.257,0,0,1-16.487,6.226Zm-1.945-2.607A.43.43,0,0,1-18,3.19a.43.43,0,0,1,.43.429.429.429,0,0,1-.43.429A.429.429,0,0,1-18.432,3.619ZM7.073,1.794A5.217,5.217,0,0,1,5.467-2.075,5.047,5.047,0,0,1,7.1-5.91a5.51,5.51,0,0,1,3.91-1.5A5.538,5.538,0,0,1,14.2-6.4a4.756,4.756,0,0,1,1.99,2.659H13.226a2.454,2.454,0,0,0-2.283-1.339,2.647,2.647,0,0,0-2.05.888,3.04,3.04,0,0,0-.779,2.119A3.219,3.219,0,0,0,8.871.112a2.627,2.627,0,0,0,2.084.923A2.875,2.875,0,0,0,12.5.632a2.109,2.109,0,0,0,.93-1.265h-3.09V-2.746h6.145c0,.083.009.174.014.274V-2.2a5.412,5.412,0,0,1-1.572,3.972A5.353,5.353,0,0,1,10.97,3.359,5.364,5.364,0,0,1,7.073,1.794Zm61,.732A3,3,0,0,1,66.982.05V-.284h2.632a1.739,1.739,0,0,0,.253.964.924.924,0,0,0,.828.451.882.882,0,0,0,1-.991.9.9,0,0,0-.348-.732A2.044,2.044,0,0,0,71-.811l-.2-.1-1.128-.486a7.667,7.667,0,0,1-.964-.472,3.962,3.962,0,0,1-.806-.608,2.59,2.59,0,0,1-.759-1.886,2.706,2.706,0,0,1,1.148-2.249,3.977,3.977,0,0,1,2.474-.8,4.168,4.168,0,0,1,1.532.287,3.109,3.109,0,0,1,1.272.889,3.32,3.32,0,0,1,.683,2.044H71.631q-.15-1.012-.95-1.012-.909,0-.909.814a.83.83,0,0,0,.1.437,2.449,2.449,0,0,0,.95.656l1.094.492a8.264,8.264,0,0,1,.957.5,3.741,3.741,0,0,1,.766.608,2.6,2.6,0,0,1,.7,1.859,2.91,2.91,0,0,1-1.039,2.4,3.951,3.951,0,0,1-2.57.779A4.067,4.067,0,0,1,68.07,2.525ZM30.965,1.834A4.939,4.939,0,0,1,29.337-1.9a6.06,6.06,0,0,1,.4-2.215,4.73,4.73,0,0,1,.677-1.163A5.209,5.209,0,0,1,34.8-7.408a5.335,5.335,0,0,1,3.869,1.545,5.121,5.121,0,0,1,1.6,3.828,5.153,5.153,0,0,1-1.6,3.842,5.382,5.382,0,0,1-3.883,1.538A5.357,5.357,0,0,1,30.965,1.834Zm1.8-6.016a3.06,3.06,0,0,0-.779,2.12A3.13,3.13,0,0,0,32.769.1a2.64,2.64,0,0,0,2.072.923,2.56,2.56,0,0,0,2.016-.93,3.112,3.112,0,0,0,.766-2.112,3.138,3.138,0,0,0-.766-2.133,2.6,2.6,0,0,0-2.044-.93A2.629,2.629,0,0,0,32.763-4.181ZM19.183,1.787a5.161,5.161,0,0,1-1.6-3.835A5.154,5.154,0,0,1,19.169-5.87a5.311,5.311,0,0,1,3.849-1.538,5.152,5.152,0,0,1,4.559,2.434,4.358,4.358,0,0,1,.7,1.7H25.506a2.508,2.508,0,0,0-2.5-1.8,2.555,2.555,0,0,0-2.016.909,3.114,3.114,0,0,0-.759,2.112A3.183,3.183,0,0,0,20.988.077a2.545,2.545,0,0,0,2.03.944A2.613,2.613,0,0,0,25.506-.729h2.776a5.207,5.207,0,0,1-1.907,2.953,5.269,5.269,0,0,1-3.329,1.121A5.318,5.318,0,0,1,19.183,1.787ZM56.9,3.147V-7.216h3.432a10.386,10.386,0,0,1,1.339.076,5.618,5.618,0,0,1,1.21.287,4.232,4.232,0,0,1,2.023,1.571,5.356,5.356,0,0,1,.957,3.22q0,5.208-5.339,5.209ZM59.549.823h1.135A2.349,2.349,0,0,0,62.625.03a3.148,3.148,0,0,0,.595-2.05,3.18,3.18,0,0,0-.6-2.051A2.315,2.315,0,0,0,60.7-4.892H59.549ZM52.976,3.147l-.506-1.5h-3.6l-.547,1.5H45.484L49.64-7.216h2.084L55.847,3.147ZM49.6-.448h2.174L50.707-3.99h-.041ZM-19.976,1.823a.727.727,0,0,1-.2-.028.733.733,0,0,1-.278-.151.729.729,0,0,1-.251-.553.727.727,0,0,1,.18-.477A.733.733,0,0,1-19.495.543a.928.928,0,0,1,.078.079.731.731,0,0,1-.007.95.729.729,0,0,1-.552.251Zm-1.642-3.257a1.274,1.274,0,0,1-.382-.9,1.274,1.274,0,0,1,.37-.906,1.281,1.281,0,0,1,1.315-.315,1.279,1.279,0,0,1,.5.3,1.277,1.277,0,0,1,.011,1.808,1.278,1.278,0,0,1-.911.38A1.277,1.277,0,0,1-21.619-1.434Zm1.163-3.874a.727.727,0,0,1-.251-.553.727.727,0,0,1,.18-.477.733.733,0,0,1,1.032-.071.928.928,0,0,1,.078.079.731.731,0,0,1-.007.95.729.729,0,0,1-.552.251A.729.729,0,0,1-20.456-5.307Zm2.024-2.905A.43.43,0,0,1-18-8.642a.43.43,0,0,1,.43.429.429.429,0,0,1-.43.429A.429.429,0,0,1-18.432-8.213Z" transform="translate(22.501 12.333)" stroke="rgba(0,0,0,0)" stroke-miterlimit="10" stroke-width="1"/>
</svg>
