<svg xmlns="http://www.w3.org/2000/svg" width="37" height="36.855" viewBox="0 0 37 36.855">
  <g id="Vector_Smart_Object" data-name="Vector Smart Object" transform="translate(0 -0.123)">
    <g id="Group_66" data-name="Group 66" transform="translate(0 0.123)">
      <path id="Path_641" data-name="Path 641" d="M11.384,31.265h6.475v2.16H11.384Z" transform="translate(-3.829 -10.597)" fill="#06f"/>
      <path id="Path_642" data-name="Path 642" d="M11.384,37.773h12.95v2.16H11.384Z" transform="translate(-3.829 -12.786)" fill="#06f"/>
      <path id="Path_643" data-name="Path 643" d="M37,21.708l-3.238-4.317a10.792,10.792,0,1,0-19.426-6.475v.165A12.95,12.95,0,0,0,3.779,31.941L0,36.979H14.03A12.964,12.964,0,0,0,26.772,21.708H37ZM16.494,10.915a8.634,8.634,0,1,1,15.091,5.73l-.586.66,1.683,2.243h-6.5a13,13,0,0,0-9.687-8.235v-.4Zm-2.464,23.9H4.318L6.545,31.85l-.586-.66a10.791,10.791,0,1,1,8.071,3.629Z" transform="translate(0 -0.123)" fill="#06f"/>
    </g>
  </g>
</svg>
