<svg id="Vector_Smart_Object" data-name="Vector Smart Object" xmlns="http://www.w3.org/2000/svg" width="101.195" height="64.951" viewBox="0 0 101.195 64.951">
  <path id="Path_1536" data-name="Path 1536" d="M92.579,66.482q.1-.089.2-.182c.756-.734,2.112-2.261,2.754-2.992a.484.484,0,0,0-.044-.683.5.5,0,0,0-.043-.033L94.2,61.72l.075-.038-.9-1.294c.1-1.978-4.112-7.359-5.166-8.164s2.473-7.161,2.473-7.161a3.029,3.029,0,0,0,1.3-1.115l.061.01.451-.042a.8.8,0,0,0,.726-.736,14.367,14.367,0,0,0,.05-1.6,1.654,1.654,0,0,1,.7-1.173c.786-.519,5.837-13.493,3.513-15.868,0,0-.99-1.48-1.55-1.661a.616.616,0,0,0-.244-.628l-.161-.508s-.216.1-.539.245a9.319,9.319,0,0,1-.674-1.163c.112-.485,1.788-2.621.285-4.1-1.525-1.5-2.279-2.515-3.415-2.11s-3.806,1.01-3.728,1.963-.2,1.327.294,1.718.509.359.509.359h0a2.941,2.941,0,0,0,3.325,3.631,8.193,8.193,0,0,1,.562,1.364,1.359,1.359,0,0,0-.136.871,22.59,22.59,0,0,0-1.394,2.356c-.333.643-.95,2-1.625,3.455-1.187-.383-2.259-.769-2.259-.769s-.062.073-.16.194a6.845,6.845,0,0,0-1.017-.1l-2.864-2.884a.237.237,0,0,0-.314-.039L79.86,27.931a.3.3,0,0,0-.017.425l.01.011,2.494,2.647c-.2.21.137.466.675.717l.655.7a.233.233,0,0,0,.357.009l.222-.234c.405.133.807.252,1.131.343-.024.117-.007.2.069.239.137.067.866.473,1.861.979a7.566,7.566,0,0,1-.978,1.548c-.717.692-.7,2.6-.663,3.349a3,3,0,0,0-.541,1.111c-1.263,1.881-3.509,5.427-3.857,7.352a10.746,10.746,0,0,0-1.863,5.039c-.231,2.862-3.15,9.492-3.335,9.587-.028.014-.024.073.011.16-.965.334,1.543,4.593,2.053,4.449.444-.125,1.114-2.395,1.113-3.092l.046-.011s.614-1.657,1.077-1.893,2.841-7.583,2.831-8.745a1.938,1.938,0,0,1,.415-.856A3.206,3.206,0,0,0,84.9,53.625c3.37,2.249,5.664,9.253,6.084,9.388a.25.25,0,0,0,.075.008c.036,1,.016,2.893-.629,3.137a1.348,1.348,0,0,0-.51.341" transform="translate(-8.369 -1.596)" fill="#f2f2f2"/>
  <path id="Path_1537" data-name="Path 1537" d="M109.976,56.508a1.952,1.952,0,0,0-2.045.169,2.771,2.771,0,0,0-.679,3.02,15.876,15.876,0,0,0,1.557,2.9,7.517,7.517,0,0,1,1.071,4.233,4.613,4.613,0,0,1-2.182,3.656,7.641,7.641,0,0,1-4.016.6" transform="translate(-11.437 -6.204)" fill="none" stroke="#f2f2f2" stroke-miterlimit="10" stroke-width="0.114"/>
  <ellipse id="Ellipse_174" data-name="Ellipse 174" cx="0.722" cy="1.486" rx="0.722" ry="1.486" transform="matrix(0.504, -0.864, 0.864, 0.503, 97.774, 50.796)" fill="#f2f2f2"/>
  <ellipse id="Ellipse_175" data-name="Ellipse 175" cx="0.722" cy="1.486" rx="0.722" ry="1.486" transform="matrix(0.504, -0.864, 0.864, 0.503, 96.407, 55.501)" fill="#f2f2f2"/>
  <ellipse id="Ellipse_176" data-name="Ellipse 176" cx="0.722" cy="1.486" rx="0.722" ry="1.486" transform="matrix(0.504, -0.864, 0.864, 0.503, 93.675, 54.794)" fill="#f2f2f2"/>
  <ellipse id="Ellipse_177" data-name="Ellipse 177" cx="0.722" cy="1.486" rx="0.722" ry="1.486" transform="matrix(0.504, -0.864, 0.864, 0.503, 95.333, 60.377)" fill="#f2f2f2"/>
  <ellipse id="Ellipse_178" data-name="Ellipse 178" cx="0.722" cy="1.486" rx="0.722" ry="1.486" transform="matrix(0.504, -0.864, 0.864, 0.503, 97.901, 61.873)" fill="#f2f2f2"/>
  <path id="Path_1538" data-name="Path 1538" d="M101.3,55.215a1.951,1.951,0,0,0-1.682,1.176,2.771,2.771,0,0,0,.934,2.951,15.88,15.88,0,0,0,2.806,1.721,7.519,7.519,0,0,1,3.057,3.119,4.612,4.612,0,0,1-.044,4.256A7.638,7.638,0,0,1,103.2,70.98" transform="translate(-10.972 -6.084)" fill="none" stroke="#3f3d56" stroke-miterlimit="10" stroke-width="0.114"/>
  <ellipse id="Ellipse_179" data-name="Ellipse 179" cx="1.486" cy="0.721" rx="1.486" ry="0.721" transform="translate(89.913 48.498)" fill="#276ef1"/>
  <ellipse id="Ellipse_180" data-name="Ellipse 180" cx="1.486" cy="0.721" rx="1.486" ry="0.721" transform="translate(91.101 53.251)" fill="#276ef1"/>
  <ellipse id="Ellipse_181" data-name="Ellipse 181" cx="1.486" cy="0.721" rx="1.486" ry="0.721" transform="translate(88.384 54.015)" fill="#276ef1"/>
  <ellipse id="Ellipse_182" data-name="Ellipse 182" cx="1.486" cy="0.721" rx="1.486" ry="0.721" transform="translate(92.63 58.004)" fill="#276ef1"/>
  <ellipse id="Ellipse_183" data-name="Ellipse 183" cx="1.486" cy="0.721" rx="1.486" ry="0.721" transform="translate(95.601 58.004)" fill="#276ef1"/>
  <line id="Line_23" data-name="Line 23" x2="41.976" transform="translate(56.597 64.886)" fill="none" stroke="#3f3d56" stroke-miterlimit="10" stroke-width="0.115"/>
  <path id="Path_1539" data-name="Path 1539" d="M74.745,32.575s-4.669.738-4.1-.193,3.629-1.86,4.189-1.666S74.745,32.575,74.745,32.575Z" transform="translate(-7.788 -3.379)" fill="#ffc1c7"/>
  <path id="Path_1540" data-name="Path 1540" d="M74.745,32.575s-4.669.738-4.1-.193,3.629-1.86,4.189-1.666S74.745,32.575,74.745,32.575Z" transform="translate(-7.788 -3.379)" opacity="0.1" style="isolation: isolate"/>
  <path id="Path_1541" data-name="Path 1541" d="M80.493,21.088s-3.016.809-1.618,3.383c0,0,2.28,4.486,1.324,4.78a35.313,35.313,0,0,1-5.37.147s-1.03,2.5-.515,2.574,8.754,1.765,9.636.147,0-8.6,0-8.6S82.7,20.059,80.493,21.088Z" transform="translate(-8.182 -2.299)" fill="#276ef1"/>
  <path id="Path_1542" data-name="Path 1542" d="M80.493,21.088s-3.016.809-1.618,3.383c0,0,2.28,4.486,1.324,4.78a35.313,35.313,0,0,1-5.37.147s-1.03,2.5-.515,2.574,8.754,1.765,9.636.147,0-8.6,0-8.6S82.7,20.059,80.493,21.088Z" transform="translate(-8.182 -2.299)" opacity="0.1" style="isolation: isolate"/>
  <path id="Path_1543" data-name="Path 1543" d="M90.868,63.864s1.324,3.162.588,3.75-.588,1.691-.074,1.691,1.692-1.03,2.354-2.28c.493-.931,1.313-2.8,1.7-3.694a.484.484,0,0,0-.252-.636.474.474,0,0,0-.051-.019L93,62.025Z" transform="translate(-10.023 -6.836)" fill="#3f3d56"/>
  <path id="Path_1544" data-name="Path 1544" d="M74.483,68.39s-2.8,2.28-4.266,2.206-1.692,1.471,0,1.691,6.767.294,7.209,0,.294-3.383,0-3.456S74.483,68.39,74.483,68.39Z" transform="translate(-7.614 -7.538)" fill="#3f3d56"/>
  <path id="Path_1545" data-name="Path 1545" d="M85.031,41.759s0,2.28-1.177,3.236c0,0-1.4,7.133-.147,7.574s6.915,4.265,7.429,6.177l1.251.956s-2.28,2.28-2.722,2.28-4.781-5.956-8.68-7.06c0,0-2.427-.588-2.354-3.75s2.942-11.545,2.942-11.545h3.31Z" transform="translate(-8.673 -4.365)" fill="#2f2e41"/>
  <path id="Path_1546" data-name="Path 1546" d="M85.031,41.759s0,2.28-1.177,3.236c0,0-1.4,7.133-.147,7.574s6.915,4.265,7.429,6.177l1.251.956s-2.28,2.28-2.722,2.28-4.781-5.956-8.68-7.06c0,0-2.427-.588-2.354-3.75s2.942-11.545,2.942-11.545h3.31Z" transform="translate(-8.673 -4.365)" opacity="0.1" style="isolation: isolate"/>
  <path id="Path_1547" data-name="Path 1547" d="M76.94,40.114s-2.207,6.912-1.839,9.633a10.744,10.744,0,0,0-.221,5.368c.662,2.794-.074,10-.221,10.148s1.618,1.691,3.531.441c0,0,.074-1.765.441-2.133s.368-8.089,0-9.192S82.6,45.262,82.6,45.262s2.354-2.133,1.471-3.236.074-3.309.074-3.309l-6.694.441Z" transform="translate(-8.233 -4.264)" fill="#2f2e41"/>
  <ellipse id="Ellipse_184" data-name="Ellipse 184" cx="2.942" cy="2.941" rx="2.942" ry="2.941" transform="translate(64.735 13.127)" fill="#ffc1c7"/>
  <path id="Path_1548" data-name="Path 1548" d="M78.025,16.566s2.354,2.721,2.942,2.794S79.055,22.6,79.055,22.6s-1.4-2.353-2.354-2.574S78.025,16.566,78.025,16.566Z" transform="translate(-8.435 -1.821)" fill="#ffc1c7"/>
  <path id="Path_1549" data-name="Path 1549" d="M81.647,19.56l-.368-.515S78.745,21.3,78.651,21.9a1.3,1.3,0,0,0,.2.966l1.471-.662.736-1.471Z" transform="translate(-8.673 -2.095)" fill="#3f3d56"/>
  <path id="Path_1550" data-name="Path 1550" d="M77.022,40.1s-.588,1.765-.147,1.691.441-1.03.956-1.03.809-.809.809-.809Z" transform="translate(-8.462 -4.401)" fill="#3f3d56"/>
  <path id="Path_1551" data-name="Path 1551" d="M81.277,40.288S82.969,43.964,85.1,43.6l.417-.178a.8.8,0,0,0,.464-.924c-.2-.847-.577-2.207-.881-2.207Z" transform="translate(-8.965 -4.438)" fill="#3f3d56"/>
  <path id="Path_1552" data-name="Path 1552" d="M72.589,17.636a.9.9,0,0,1,1.244-.552c.956.368,1.765,1.177,1.986.588s.785-1.129,1.165-.675,2.108,1.3,2.035.859.92-3.052-.993-4.008-2.942-1.691-3.9-.956-3.31,2.132-2.942,3.015.221,1.324.809,1.544S72.589,17.636,72.589,17.636Z" transform="translate(-7.848 -1.383)" fill="#2f2e41"/>
  <path id="Path_1553" data-name="Path 1553" d="M81.757,20.054a.578.578,0,0,0-.736-.515c-.662.147-2.427,3.089-2.427,3.089a20.807,20.807,0,0,0-.662,2.868c-.294,1.765-.883,8.236-1.471,9.339s.515,3.677.515,3.677.662-.735,2.8-.294,4.929.882,5.149.662-.221-.809.368-1.544,1.4-14.634-1.545-16.178C83.743,21.157,82.345,20.054,81.757,20.054Z" transform="translate(-8.415 -2.147)" fill="#276ef1"/>
  <path id="Path_1554" data-name="Path 1554" d="M80.881,22.576s-3.016.809-1.618,3.383c0,0,2.28,4.486,1.324,4.78a35.313,35.313,0,0,1-5.37.147s-.478,1.581.037,1.655,8.2,2.684,9.085,1.066,0-8.6,0-8.6S83.087,21.546,80.881,22.576Z" transform="translate(-8.275 -2.463)" opacity="0.1" style="isolation: isolate"/>
  <path id="Path_1555" data-name="Path 1555" d="M67.121,31.252l4.889,2.685a.233.233,0,0,0,.323-.065.226.226,0,0,0,.019-.036l1.2-2.5a.312.312,0,0,0-.16-.375l-4.059-2.092a.237.237,0,0,0-.311.059l-2.028,1.91a.3.3,0,0,0,.115.41Z" transform="translate(-7.386 -3.174)" fill="#2f2e41"/>
  <path id="Path_1556" data-name="Path 1556" d="M67.508,30.924l4.584,2.619,1.22-2.2L69.38,29.208Z" transform="translate(-7.447 -3.216)" fill="#3f3d56"/>
  <ellipse id="Ellipse_185" data-name="Ellipse 185" cx="0.058" cy="0.067" rx="0.058" ry="0.067" transform="matrix(0.768, -0.641, 0.641, 0.768, 63.864, 26.9)" fill="#f2f2f2"/>
  <ellipse id="Ellipse_186" data-name="Ellipse 186" cx="0.038" cy="0.045" rx="0.038" ry="0.045" transform="matrix(0.768, -0.641, 0.641, 0.768, 62.191, 29.153)" fill="#f2f2f2"/>
  <path id="Path_1557" data-name="Path 1557" d="M74.824,33.826s-4.715.331-4.063-.547,3.777-1.539,4.318-1.3S74.824,33.826,74.824,33.826Z" transform="translate(-7.799 -3.516)" fill="#ffc1c7"/>
  <path id="Path_1558" data-name="Path 1558" d="M80.824,22.08s-3.016.809-1.618,3.383c0,0,2.28,4.486,1.324,4.78a35.313,35.313,0,0,1-5.37.147s-1.03,2.5-.515,2.574,8.754,1.765,9.636.147,0-8.6,0-8.6S83.031,21.05,80.824,22.08Z" transform="translate(-8.218 -2.408)" fill="#276ef1"/>
  <rect id="Rectangle_132" data-name="Rectangle 132" width="26.493" height="13.156" rx="1.548" transform="translate(26.954 16.438)" fill="#f2f2f2"/>
  <ellipse id="Ellipse_187" data-name="Ellipse 187" cx="1.732" cy="1.731" rx="1.732" ry="1.731" transform="translate(0 0.668)" fill="#276ef1"/>
  <ellipse id="Ellipse_188" data-name="Ellipse 188" cx="1.732" cy="1.731" rx="1.732" ry="1.731" transform="translate(0.509 0.057)" fill="none" stroke="#3f3d56" stroke-miterlimit="10" stroke-width="0.114"/>
  <ellipse id="Ellipse_189" data-name="Ellipse 189" cx="1.732" cy="1.731" rx="1.732" ry="1.731" transform="translate(21.09 22.465)" fill="#f2f2f2"/>
  <ellipse id="Ellipse_190" data-name="Ellipse 190" cx="1.732" cy="1.731" rx="1.732" ry="1.731" transform="translate(21.599 21.853)" fill="none" stroke="#3f3d56" stroke-miterlimit="10" stroke-width="0.114"/>
  <ellipse id="Ellipse_191" data-name="Ellipse 191" cx="1.732" cy="1.731" rx="1.732" ry="1.731" transform="translate(34.539 9.326)" fill="#276ef1"/>
  <ellipse id="Ellipse_192" data-name="Ellipse 192" cx="1.732" cy="1.731" rx="1.732" ry="1.731" transform="translate(35.048 8.715)" fill="none" stroke="#3f3d56" stroke-miterlimit="10" stroke-width="0.114"/>
  <rect id="Rectangle_133" data-name="Rectangle 133" width="26.493" height="13.156" rx="1.548" transform="translate(3.945 6.42)" fill="#276ef1"/>
  <rect id="Rectangle_134" data-name="Rectangle 134" width="26.493" height="13.156" rx="1.548" transform="translate(5.493 5.303)" fill="none" stroke="#3f3d56" stroke-miterlimit="10" stroke-width="0.114"/>
  <rect id="Rectangle_135" data-name="Rectangle 135" width="26.493" height="13.156" rx="1.548" transform="translate(28.502 15.32)" fill="none" stroke="#3f3d56" stroke-miterlimit="10" stroke-width="0.114"/>
</svg>
