<svg xmlns="http://www.w3.org/2000/svg" width="75.266" height="80.078" viewBox="0 0 75.266 80.078">
  <g id="Vector_Smart_Object" data-name="Vector Smart Object" transform="translate(-11.686 -7.968)">
    <g id="Background_Complete" data-name="Background Complete" transform="translate(11.686 9.515)">
      <g id="Group_2582" data-name="Group 2582" transform="translate(0 31.59)">
        <path id="Path_2081" data-name="Path 2081" d="M11.686,48.634v9.185A3.009,3.009,0,0,0,14.7,60.828H47.631a3.009,3.009,0,0,0,3.009-3.009V50.058l4.1-4.308L14.7,45.625A3.009,3.009,0,0,0,11.686,48.634Z" transform="translate(-11.686 -45.625)" fill="#f5f5f5"/>
        <g id="Group_2579" data-name="Group 2579" transform="translate(4.212 4.508)">
          <path id="Path_2082" data-name="Path 2082" d="M46.359,51.8l-29.887-.138,0-.919,29.887.138Z" transform="translate(-16.472 -50.748)" fill="#e0e0e0"/>
        </g>
        <g id="Group_2580" data-name="Group 2580" transform="translate(4.212 7.53)">
          <path id="Path_2083" data-name="Path 2083" d="M46.359,55.239,16.472,55.1l0-.919,29.887.138Z" transform="translate(-16.472 -54.182)" fill="#e0e0e0"/>
        </g>
        <g id="Group_2581" data-name="Group 2581" transform="translate(22.273 10.555)">
          <rect id="Rectangle_194" data-name="Rectangle 194" width="0.919" height="11.825" transform="matrix(0.005, -1, 1, 0.005, 0, 0.919)" fill="#e0e0e0"/>
        </g>
      </g>
      <g id="Group_2586" data-name="Group 2586" transform="translate(30.518 63.327)">
        <path id="Path_2084" data-name="Path 2084" d="M46.366,84.7v9.185a3.009,3.009,0,0,0,3.009,3.009H82.311a3.009,3.009,0,0,0,3.009-3.009V86.124l4.1-4.308-40.036-.125A3.009,3.009,0,0,0,46.366,84.7Z" transform="translate(-46.366 -81.691)" fill="#f5f5f5"/>
        <g id="Group_2583" data-name="Group 2583" transform="translate(4.355 4.27)">
          <path id="Path_2085" data-name="Path 2085" d="M81.2,87.6l-29.887-.138,0-.919,29.887.138Z" transform="translate(-51.315 -86.543)" fill="#e0e0e0"/>
        </g>
        <g id="Group_2584" data-name="Group 2584" transform="translate(4.355 7.292)">
          <path id="Path_2086" data-name="Path 2086" d="M81.2,91.034,51.315,90.9l0-.919,29.887.138Z" transform="translate(-51.315 -89.977)" fill="#e0e0e0"/>
        </g>
        <g id="Group_2585" data-name="Group 2585" transform="translate(22.416 10.317)">
          <rect id="Rectangle_195" data-name="Rectangle 195" width="0.919" height="11.825" transform="matrix(0.005, -1, 1, 0.005, 0, 0.919)" fill="#e0e0e0"/>
        </g>
      </g>
      <path id="Path_2087" data-name="Path 2087" d="M31.691,9.726H51.117a1.741,1.741,0,0,1,1.741,1.741v9.5a1.741,1.741,0,0,1-1.741,1.741H34.633a1.741,1.741,0,0,1-1.741-1.741V10.927Z" transform="translate(-14.087 -9.726)" fill="#f5f5f5"/>
      <g id="Group_2590" data-name="Group 2590" transform="translate(0.31 7.241)">
        <path id="Path_2088" data-name="Path 2088" d="M40.594,19.951v6.092a2,2,0,0,1-2,2H16.754a2,2,0,0,1-2-2V20.9l-2.72-2.857,26.553-.083A2,2,0,0,1,40.594,19.951Z" transform="translate(-12.038 -17.955)" fill="#e0e0e0"/>
        <g id="Group_2587" data-name="Group 2587" transform="translate(5.938 2.99)">
          <path id="Path_2089" data-name="Path 2089" d="M18.788,22.053l19.822-.092,0-.609-19.822.092Z" transform="translate(-18.786 -21.353)" fill="#f5f5f5"/>
        </g>
        <g id="Group_2588" data-name="Group 2588" transform="translate(5.938 4.994)">
          <path id="Path_2090" data-name="Path 2090" d="M18.788,24.331l19.822-.092,0-.609-19.822.092Z" transform="translate(-18.786 -23.63)" fill="#f5f5f5"/>
        </g>
        <g id="Group_2589" data-name="Group 2589" transform="translate(5.937 7.001)">
          <rect id="Rectangle_196" data-name="Rectangle 196" width="7.843" height="0.609" transform="matrix(1, -0.005, 0.005, 1, 0, 0.039)" fill="#f5f5f5"/>
        </g>
      </g>
      <g id="Group_2594" data-name="Group 2594" transform="translate(41.692 35.49)">
        <path id="Path_2091" data-name="Path 2091" d="M87.62,52.053v6.092a2,2,0,0,1-2,2H63.78a2,2,0,0,1-2-2V53l-2.72-2.857,26.553-.083A2,2,0,0,1,87.62,52.053Z" transform="translate(-59.064 -50.057)" fill="#e0e0e0"/>
        <g id="Group_2591" data-name="Group 2591" transform="translate(5.938 2.99)">
          <path id="Path_2092" data-name="Path 2092" d="M65.813,54.156l19.822-.092,0-.609-19.822.092Z" transform="translate(-65.811 -53.455)" fill="#f5f5f5"/>
        </g>
        <g id="Group_2592" data-name="Group 2592" transform="translate(5.938 4.994)">
          <path id="Path_2093" data-name="Path 2093" d="M65.813,56.433l19.822-.092,0-.609-19.822.092Z" transform="translate(-65.811 -55.732)" fill="#f5f5f5"/>
        </g>
        <g id="Group_2593" data-name="Group 2593" transform="translate(5.937 7.001)">
          <rect id="Rectangle_197" data-name="Rectangle 197" width="7.843" height="0.609" transform="matrix(1, -0.005, 0.005, 1, 0, 0.039)" fill="#f5f5f5"/>
        </g>
      </g>
    </g>
    <g id="Plants" transform="translate(23.744 27.262)">
      <g id="Group_2612" data-name="Group 2612" transform="translate(36.545 26.663)">
        <g id="Group_2596" data-name="Group 2596" transform="translate(0)">
          <g id="Group_2595" data-name="Group 2595">
            <path id="Path_2094" data-name="Path 2094" d="M69.85,83.512c-3.265-3.179-3.319-8.1-2.469-12.37a4.728,4.728,0,0,1,.631-2.056,1.48,1.48,0,0,1,1.9-.466c.492.338.622,1,.836,1.557a4.252,4.252,0,0,0,1.419,1.882,1.62,1.62,0,0,0,1.451.374c.675-.24.888-1.083,1-1.8l.628-3.993a6.739,6.739,0,0,1,.562-2.084,2.241,2.241,0,0,1,1.636-1.269,1.36,1.36,0,0,1,1.514,1.171,6.722,6.722,0,0,1-.125.892.76.76,0,0,0,.323.778.874.874,0,0,0,.837-.2,9.61,9.61,0,0,0,2.124-2.292,13.337,13.337,0,0,1,2.023-2.393A3.909,3.909,0,0,1,87,60.21a2.341,2.341,0,0,1,2.111,1.964,3.507,3.507,0,0,1-1.432,2.682,16.136,16.136,0,0,1-3.833,2.618,1.328,1.328,0,0,0-.652.506c-.233.45.14,1,.584,1.23a8.364,8.364,0,0,0,1.634.46,1.626,1.626,0,0,1,1.233,1.061c.173.777-.562,1.441-1.244,1.844a13.826,13.826,0,0,1-4.419,1.67,4.66,4.66,0,0,0-1.62.484,1.338,1.338,0,0,0-.67,1.443,1.363,1.363,0,0,0,1.37.8,9.644,9.644,0,0,0,1.663-.342,2.53,2.53,0,0,1,2.785,1.015,2.288,2.288,0,0,1-.087,2.036,5.275,5.275,0,0,1-1.37,1.586,13.9,13.9,0,0,1-6.532,3.157,9.543,9.543,0,0,1-6.671-.912" transform="translate(-66.918 -60.194)" fill="#276ef1"/>
          </g>
        </g>
        <g id="Group_2599" data-name="Group 2599" transform="translate(2.354 0.832)">
          <g id="Group_2598" data-name="Group 2598">
            <g id="Group_2597" data-name="Group 2597">
              <path id="Path_2095" data-name="Path 2095" d="M69.593,86.8a31.742,31.742,0,0,1,2.128-5.689,64.775,64.775,0,0,1,3.665-6.467L76.433,73c.345-.539.687-1.074,1.054-1.577a32.354,32.354,0,0,1,2.275-2.767c.766-.845,1.524-1.619,2.238-2.338s1.4-1.373,2.04-1.945a25.651,25.651,0,0,1,3.241-2.468c.4-.26.724-.452.943-.579l.25-.143a.563.563,0,0,1,.087-.045.509.509,0,0,1-.08.056l-.243.154c-.214.134-.529.333-.929.6a27.126,27.126,0,0,0-3.206,2.5c-.639.574-1.313,1.233-2.024,1.952s-1.464,1.5-2.225,2.342A32.721,32.721,0,0,0,77.593,71.5c-.364.5-.7,1.031-1.049,1.572L75.5,74.718a66.4,66.4,0,0,0-3.667,6.449,32.3,32.3,0,0,0-2.147,5.659" transform="translate(-69.593 -61.139)" fill="#263238"/>
            </g>
          </g>
        </g>
        <g id="Group_2602" data-name="Group 2602" transform="translate(10.265 3.097)">
          <g id="Group_2601" data-name="Group 2601">
            <g id="Group_2600" data-name="Group 2600">
              <path id="Path_2096" data-name="Path 2096" d="M78.6,71.733a1.463,1.463,0,0,1-.02-.316c-.005-.2,0-.5.005-.861.015-.727.071-1.73.137-2.836s.107-2.107.111-2.832c0-.362,0-.656,0-.859a1.458,1.458,0,0,1,.011-.316,1.425,1.425,0,0,1,.041.314c.019.2.034.5.042.86.02.727-.007,1.733-.072,2.84l-.175,2.832c-.019.341-.035.628-.047.858A1.433,1.433,0,0,1,78.6,71.733Z" transform="translate(-78.582 -63.714)" fill="#263238"/>
            </g>
          </g>
        </g>
        <g id="Group_2605" data-name="Group 2605" transform="translate(10.287 10.639)">
          <g id="Group_2604" data-name="Group 2604">
            <g id="Group_2603" data-name="Group 2603">
              <path id="Path_2097" data-name="Path 2097" d="M88.062,72.549a2.037,2.037,0,0,1-.373-.016c-.239-.018-.584-.045-1.012-.065-.855-.047-2.038-.07-3.345-.039s-2.489.114-3.341.2c-.427.039-.772.079-1.01.106a1.987,1.987,0,0,1-.372.029,2,2,0,0,1,.365-.081c.237-.042.58-.1,1.007-.148.853-.108,2.037-.2,3.348-.238a32.769,32.769,0,0,1,3.354.079c.428.032.773.074,1.011.108A1.962,1.962,0,0,1,88.062,72.549Z" transform="translate(-78.608 -72.283)" fill="#263238"/>
            </g>
          </g>
        </g>
        <g id="Group_2608" data-name="Group 2608" transform="translate(1.921 8.184)">
          <g id="Group_2607" data-name="Group 2607">
            <g id="Group_2606" data-name="Group 2606">
              <path id="Path_2098" data-name="Path 2098" d="M71.8,81.965a.484.484,0,0,1-.045-.122l-.1-.357c-.088-.311-.2-.764-.337-1.326-.271-1.123-.6-2.686-.931-4.416s-.645-3.295-.892-4.422l-.3-1.334-.078-.364a.477.477,0,0,1-.019-.129.492.492,0,0,1,.045.122l.1.357c.088.311.2.764.338,1.326.271,1.123.6,2.686.931,4.417s.645,3.294.892,4.422l.3,1.334.078.364A.468.468,0,0,1,71.8,81.965Z" transform="translate(-69.101 -69.494)" fill="#263238"/>
            </g>
          </g>
        </g>
        <g id="Group_2611" data-name="Group 2611" transform="translate(4.623 18.72)">
          <g id="Group_2610" data-name="Group 2610">
            <g id="Group_2609" data-name="Group 2609">
              <path id="Path_2099" data-name="Path 2099" d="M85,81.469a.5.5,0,0,1-.129.03l-.373.061-1.374.209c-1.161.177-2.761.44-4.529.733s-3.372.541-4.537.694c-.582.077-1.054.134-1.381.167L72.3,83.4a.49.49,0,0,1-.132,0,.5.5,0,0,1,.129-.03l.373-.06,1.374-.209c1.161-.177,2.761-.44,4.529-.733s3.372-.541,4.536-.694c.582-.077,1.054-.134,1.381-.167l.377-.036A.486.486,0,0,1,85,81.469Z" transform="translate(-72.171 -81.467)" fill="#263238"/>
            </g>
          </g>
        </g>
      </g>
      <g id="Group_2616" data-name="Group 2616">
        <path id="Path_2100" data-name="Path 2100" d="M33.284,36.858a2.146,2.146,0,0,1-.738-2.025A2.85,2.85,0,0,1,33.773,33a1.2,1.2,0,0,1,.979-.255.918.918,0,0,1,.594.716,1.862,1.862,0,0,1-.112.96,3.688,3.688,0,0,1-1.95,2.433" transform="translate(-26.244 -30.233)" fill="#455a64"/>
        <path id="Path_2101" data-name="Path 2101" d="M31.548,39.3a5.021,5.021,0,0,0-4.438-1.162c-.394.091-.838.3-.9.7s.293.74.643.943a4.289,4.289,0,0,0,4.744-.382" transform="translate(-25.486 -30.869)" fill="#455a64"/>
        <path id="Path_2102" data-name="Path 2102" d="M25.79,29.967a2.516,2.516,0,0,1,1.941.334,4.441,4.441,0,0,1,1.388,1.45,7.837,7.837,0,0,1,.976,3.893,5.307,5.307,0,0,1-3.281-1.816c-.936-.976-2.035-3.308-1.025-3.862" transform="translate(-25.388 -29.894)" fill="#455a64"/>
        <g id="Group_2613" data-name="Group 2613" transform="translate(6.992 4.197)">
          <path id="Path_2103" data-name="Path 2103" d="M34.6,40.868a5.179,5.179,0,0,1-.362-.546,9.2,9.2,0,0,1-.817-2.328,4.617,4.617,0,0,1,.181-2.455,3.026,3.026,0,0,1,.351-.665.848.848,0,0,1,.179-.209,6.422,6.422,0,0,0-.432.91,4.843,4.843,0,0,0-.134,2.394,10.673,10.673,0,0,0,.766,2.31" transform="translate(-33.334 -34.664)" fill="#263238"/>
        </g>
        <g id="Group_2614" data-name="Group 2614" transform="translate(1.395 1.775)">
          <path id="Path_2104" data-name="Path 2104" d="M33.847,40.555l-.755-.974c-.635-.824-1.516-1.959-2.5-3.2s-1.9-2.352-2.56-3.155l-.781-.953a2.661,2.661,0,0,1-.273-.361,2.7,2.7,0,0,1,.316.324c.2.215.476.53.816.924.682.786,1.606,1.889,2.6,3.131s1.858,2.389,2.473,3.229c.307.42.553.762.718,1" transform="translate(-26.974 -31.911)" fill="#263238"/>
        </g>
        <g id="Group_2615" data-name="Group 2615" transform="translate(2.53 7.936)">
          <path id="Path_2105" data-name="Path 2105" d="M28.264,39.1a.909.909,0,0,1,.251-.077,2.094,2.094,0,0,1,.3-.058,3.535,3.535,0,0,1,.407-.044,5.283,5.283,0,0,1,1.065.04,5.647,5.647,0,0,1,2.419.941,5.282,5.282,0,0,1,.813.69,3.56,3.56,0,0,1,.27.307,2.1,2.1,0,0,1,.184.247c.094.141.081.207.072.212a8.519,8.519,0,0,0-.6-.694,5.9,5.9,0,0,0-.815-.651A5.963,5.963,0,0,0,30.27,39.1a5.893,5.893,0,0,0-1.041-.07C28.633,39.042,28.269,39.13,28.264,39.1Z" transform="translate(-28.264 -38.912)" fill="#263238"/>
        </g>
      </g>
    </g>
    <g id="Device" transform="translate(31.521 7.967)">
      <g id="Group_2625" data-name="Group 2625" transform="translate(0 10.982)">
        <g id="Group_2624" data-name="Group 2624">
          <g id="Group_2620" data-name="Group 2620">
            <g id="Group_2619" data-name="Group 2619">
              <g id="Group_2617" data-name="Group 2617">
                <path id="Path_2106" data-name="Path 2106" d="M61.326,86.084l-22.271-.1a4.851,4.851,0,0,1-4.829-4.872l.236-55.832a4.851,4.851,0,0,1,4.874-4.831l22.271.1a4.852,4.852,0,0,1,4.829,4.872L66.2,81.254A4.851,4.851,0,0,1,61.326,86.084Z" transform="translate(-34.227 -20.447)" fill="#263238"/>
              </g>
              <g id="Group_2618" data-name="Group 2618" transform="translate(1.479 1.927)">
                <path id="Path_2107" data-name="Path 2107" d="M61.777,22.74l-4.318-.02a1.073,1.073,0,0,0-1.053,1.091l0,.783a1.072,1.072,0,0,1-1.053,1.091l-8.417-.039a1.074,1.074,0,0,1-1.044-1.1l0-.783a1.074,1.074,0,0,0-1.044-1.1l-1.518-.007-3.779-.018a3.4,3.4,0,0,0-3.413,3.383l-.23,54.5a3.4,3.4,0,0,0,3.382,3.412l22.227.1a3.4,3.4,0,0,0,3.413-3.383l.23-54.5A3.4,3.4,0,0,0,61.777,22.74Z" transform="translate(-35.907 -22.637)" fill="#fafafa"/>
              </g>
            </g>
          </g>
          <g id="Group_2621" data-name="Group 2621" transform="translate(13.853 57.707)">
            <path id="Path_2108" data-name="Path 2108" d="M50.886,86.421a.464.464,0,1,1-.457-.4A.43.43,0,0,1,50.886,86.421Z" transform="translate(-49.969 -86.025)" fill="#455a64"/>
          </g>
          <g id="Group_2622" data-name="Group 2622" transform="translate(15.274 57.714)">
            <path id="Path_2109" data-name="Path 2109" d="M52.5,86.429a.464.464,0,1,1-.457-.4A.43.43,0,0,1,52.5,86.429Z" transform="translate(-51.584 -86.032)" fill="#455a64"/>
          </g>
          <g id="Group_2623" data-name="Group 2623" transform="translate(16.695 57.72)">
            <path id="Path_2110" data-name="Path 2110" d="M54.116,86.436a.464.464,0,1,1-.457-.4A.43.43,0,0,1,54.116,86.436Z" transform="translate(-53.198 -86.04)" fill="#455a64"/>
          </g>
        </g>
      </g>
      <path id="Path_2111" data-name="Path 2111" d="M43.718,52.609c.362.052,22.21,4.337,22.21,4.337V52.609Z" transform="translate(-35.366 -13.325)" fill="#ebebeb"/>
      <path id="Path_2112" data-name="Path 2112" d="M35.907,83.452s23.767-3.362,23.56-3.259-23.56,0-23.56,0Z" transform="translate(-34.428 -16.636)" fill="#ebebeb"/>
      <g id="Group_2626" data-name="Group 2626" transform="translate(29.029 3.19)">
        <path id="Path_2113" data-name="Path 2113" d="M67.265,11.592c.028,0,.05,1.2.05,2.683s-.023,2.684-.05,2.684-.05-1.2-.05-2.684S67.237,11.592,67.265,11.592Z" transform="translate(-67.215 -11.592)" fill="#263238"/>
      </g>
      <g id="Group_2627" data-name="Group 2627" transform="translate(33.679 9.364)">
        <path id="Path_2114" data-name="Path 2114" d="M77.409,18.61c.011.025-1.079.531-2.435,1.13S72.51,20.8,72.5,20.777s1.079-.531,2.435-1.13S77.4,18.585,77.409,18.61Z" transform="translate(-72.499 -18.609)" fill="#263238"/>
      </g>
      <g id="Group_2628" data-name="Group 2628" transform="translate(32.18)">
        <path id="Path_2115" data-name="Path 2115" d="M76.965,7.968a.515.515,0,0,1-.052.1l-.165.284c-.144.247-.36.6-.629,1.032-.54.866-1.317,2.043-2.2,3.327s-1.666,2.454-2.221,3.31l-.656,1.014-.181.274a.49.49,0,0,1-.069.092.489.489,0,0,1,.051-.1l.165-.284c.144-.246.36-.6.629-1.032.54-.866,1.317-2.043,2.2-3.328S75.5,10.2,76.059,9.349l.656-1.015L76.9,8.06A.49.49,0,0,1,76.965,7.968Z" transform="translate(-70.796 -7.967)" fill="#263238"/>
      </g>
    </g>
    <g id="Speech_Bubbles" data-name="Speech Bubbles" transform="translate(18.545 30.667)">
      <g id="Group_2634" data-name="Group 2634" transform="translate(19.487)">
        <path id="Path_2116" data-name="Path 2116" d="M86.8,33.763H43.325a1.7,1.7,0,0,0-1.7,1.7V48.947a1.7,1.7,0,0,0,1.7,1.7h3.238c.261,1.408.566,3.185.566,3.185l2.931-3.185H86.8a1.7,1.7,0,0,0,1.7-1.7V35.463A1.7,1.7,0,0,0,86.8,33.763Z" transform="translate(-41.625 -33.763)" fill="#276ef1"/>
        <g id="Group_2633" data-name="Group 2633" transform="translate(4.125 5.191)">
          <g id="Group_2629" data-name="Group 2629" transform="translate(0 2.073)">
            <path id="Path_2117" data-name="Path 2117" d="M69.423,42.068c0,.028-5.174.05-11.555.05s-11.556-.022-11.556-.05,5.173-.05,11.556-.05S69.423,42.04,69.423,42.068Z" transform="translate(-46.313 -42.018)" fill="#f5f5f5"/>
          </g>
          <g id="Group_2630" data-name="Group 2630">
            <path id="Path_2118" data-name="Path 2118" d="M69.423,39.713c0,.028-5.174.05-11.555.05s-11.556-.023-11.556-.05,5.173-.05,11.556-.05S69.423,39.685,69.423,39.713Z" transform="translate(-46.313 -39.663)" fill="#f5f5f5"/>
          </g>
          <g id="Group_2631" data-name="Group 2631" transform="translate(0 4.123)">
            <path id="Path_2119" data-name="Path 2119" d="M69.423,44.4c0,.028-5.174.05-11.555.05s-11.556-.023-11.556-.05,5.173-.05,11.556-.05S69.423,44.37,69.423,44.4Z" transform="translate(-46.313 -44.347)" fill="#f5f5f5"/>
          </g>
          <g id="Group_2632" data-name="Group 2632" transform="translate(0 6.246)">
            <path id="Path_2120" data-name="Path 2120" d="M61.45,46.81c0,.028-3.389.05-7.568.05s-7.569-.023-7.569-.05,3.388-.05,7.569-.05S61.45,46.783,61.45,46.81Z" transform="translate(-46.313 -46.76)" fill="#f5f5f5"/>
          </g>
        </g>
      </g>
      <g id="Group_2640" data-name="Group 2640" transform="translate(0 24.241)">
        <path id="Path_2121" data-name="Path 2121" d="M64.5,61.311H20.67A1.189,1.189,0,0,0,19.48,62.5V76.766a1.189,1.189,0,0,0,1.189,1.189H52.5L55.4,81.1s.3-1.769.56-3.148H64.5a1.189,1.189,0,0,0,1.189-1.189V62.5A1.189,1.189,0,0,0,64.5,61.311Z" transform="translate(-19.48 -61.311)" fill="#455a64"/>
        <g id="Group_2639" data-name="Group 2639" transform="translate(20.187 5.233)">
          <g id="Group_2635" data-name="Group 2635" transform="translate(0 2.073)">
            <path id="Path_2122" data-name="Path 2122" d="M65.531,69.664c0,.028-5.174.05-11.555.05s-11.556-.022-11.556-.05,5.173-.05,11.556-.05S65.531,69.636,65.531,69.664Z" transform="translate(-42.421 -69.614)" fill="#f5f5f5"/>
          </g>
          <g id="Group_2636" data-name="Group 2636">
            <path id="Path_2123" data-name="Path 2123" d="M65.531,67.308c0,.028-5.174.05-11.555.05s-11.556-.023-11.556-.05,5.173-.05,11.556-.05S65.531,67.281,65.531,67.308Z" transform="translate(-42.421 -67.258)" fill="#f5f5f5"/>
          </g>
          <g id="Group_2637" data-name="Group 2637" transform="translate(0 4.123)">
            <path id="Path_2124" data-name="Path 2124" d="M65.531,71.993c0,.028-5.174.05-11.555.05s-11.556-.022-11.556-.05,5.173-.05,11.556-.05S65.531,71.965,65.531,71.993Z" transform="translate(-42.421 -71.943)" fill="#f5f5f5"/>
          </g>
          <g id="Group_2638" data-name="Group 2638" transform="translate(0 6.246)">
            <path id="Path_2125" data-name="Path 2125" d="M57.558,74.406c0,.028-3.389.05-7.568.05s-7.569-.023-7.569-.05,3.388-.05,7.569-.05S57.558,74.378,57.558,74.406Z" transform="translate(-42.421 -74.356)" fill="#f5f5f5"/>
          </g>
        </g>
      </g>
    </g>
    <g id="Character_2" data-name="Character 2" transform="translate(66.032 18.95)">
      <g id="Group_2696" data-name="Group 2696">
        <g id="Group_2684" data-name="Group 2684">
          <path id="Path_2126" data-name="Path 2126" d="M80.407,26.446a1.743,1.743,0,0,0-.583-1.124,1.153,1.153,0,0,1-.322-1.228c.118-.438.4-.405.505-.663a1.947,1.947,0,0,0,.064-.614A1.28,1.28,0,0,1,81.6,21.73a1.773,1.773,0,0,1,3.271-.341A1.364,1.364,0,0,1,86.858,22.5a.993.993,0,0,1,1.291.195,1.223,1.223,0,0,1,.093,1.348,1.6,1.6,0,0,1-1.159.763,2.355,2.355,0,0,1-1.391-.253,4.5,4.5,0,0,1-1.141-.862" transform="translate(-74.164 -20.447)" fill="#263238"/>
          <ellipse id="Ellipse_199" data-name="Ellipse 199" cx="8.347" cy="8.151" rx="8.347" ry="8.151" transform="translate(1.049 11.853)" fill="#e0e0e0"/>
          <g id="Group_2679" data-name="Group 2679" transform="translate(0 1.989)">
            <g id="Group_2673" data-name="Group 2673" transform="translate(1.28)">
              <path id="Path_2127" data-name="Path 2127" d="M93.068,42.865,92.144,40.5l-3.311,2.08,2.951,4.55A7.807,7.807,0,0,0,93.068,42.865Z" transform="translate(-76.57 -24.843)" fill="#eb996e"/>
              <g id="Group_2664" data-name="Group 2664" transform="translate(4.077)">
                <g id="Group_2663" data-name="Group 2663">
                  <g id="Group_2662" data-name="Group 2662" transform="translate(0 0.332)">
                    <g id="Group_2659" data-name="Group 2659">
                      <g id="Group_2654" data-name="Group 2654" transform="translate(1.051)">
                        <g id="Group_2653" data-name="Group 2653">
                          <g id="Group_2641" data-name="Group 2641">
                            <path id="Path_2128" data-name="Path 2128" d="M82.953,35.646h0a2.221,2.221,0,0,0,2.231-2.1c.049-.981.09-1.926.09-1.926a2.16,2.16,0,0,0,1.99-1.913c.168-1.781.191-5.9.191-5.9h0a6.32,6.32,0,0,0-6.345.276l-.173.111-.21,9.215A2.221,2.221,0,0,0,82.953,35.646Z" transform="translate(-80.726 -23.085)" fill="#ffbe9d"/>
                          </g>
                          <g id="Group_2645" data-name="Group 2645" transform="translate(2.861 3.273)">
                            <g id="Group_2642" data-name="Group 2642" transform="translate(0.067 0.176)">
                              <path id="Path_2129" data-name="Path 2129" d="M84.4,27.018a.259.259,0,0,1,.166.328.262.262,0,0,1-.331.165.259.259,0,0,1-.166-.328A.263.263,0,0,1,84.4,27.018Z" transform="translate(-84.053 -27.005)" fill="#263238"/>
                            </g>
                            <g id="Group_2644" data-name="Group 2644">
                              <g id="Group_2643" data-name="Group 2643">
                                <path id="Path_2130" data-name="Path 2130" d="M84.888,27.086c-.03.029-.2-.116-.447-.132s-.436.1-.461.067c-.013-.015.019-.069.1-.123a.617.617,0,0,1,.725.052C84.879,27.016,84.9,27.074,84.888,27.086Z" transform="translate(-83.977 -26.805)" fill="#263238"/>
                              </g>
                            </g>
                          </g>
                          <g id="Group_2649" data-name="Group 2649" transform="translate(5.613 3.278)">
                            <g id="Group_2646" data-name="Group 2646" transform="translate(0.034 0.171)">
                              <path id="Path_2131" data-name="Path 2131" d="M87.487,27.018a.259.259,0,0,1,.166.328.263.263,0,0,1-.331.165.259.259,0,0,1-.166-.328A.263.263,0,0,1,87.487,27.018Z" transform="translate(-87.143 -27.005)" fill="#263238"/>
                            </g>
                            <g id="Group_2648" data-name="Group 2648">
                              <g id="Group_2647" data-name="Group 2647">
                                <path id="Path_2132" data-name="Path 2132" d="M88.015,27.093c-.03.029-.2-.116-.447-.132s-.436.1-.461.067c-.013-.015.019-.069.1-.124a.617.617,0,0,1,.725.052C88.006,27.022,88.03,27.08,88.015,27.093Z" transform="translate(-87.104 -26.811)" fill="#263238"/>
                              </g>
                            </g>
                          </g>
                          <g id="Group_2651" data-name="Group 2651" transform="translate(4.653 3.34)">
                            <g id="Group_2650" data-name="Group 2650">
                              <path id="Path_2133" data-name="Path 2133" d="M86.013,29.027a1.21,1.21,0,0,1,.407-.052c.065,0,.117-.012.125-.046a.346.346,0,0,0-.031-.188l-.155-.515a6.813,6.813,0,0,1-.317-1.346,6.809,6.809,0,0,1,.453,1.307l.144.518a.408.408,0,0,1,.014.27.17.17,0,0,1-.12.094.416.416,0,0,1-.112.005A1.214,1.214,0,0,1,86.013,29.027Z" transform="translate(-86.013 -26.88)" fill="#263238"/>
                            </g>
                          </g>
                          <g id="Group_2652" data-name="Group 2652" transform="translate(2.263 7.659)">
                            <path id="Path_2134" data-name="Path 2134" d="M85.587,32.639a4.222,4.222,0,0,1-2.291-.85A2.223,2.223,0,0,0,85.554,33.1Z" transform="translate(-83.297 -31.789)" fill="#eb996e"/>
                          </g>
                        </g>
                      </g>
                      <g id="Group_2658" data-name="Group 2658" transform="translate(0 3.449)">
                        <g id="Group_2655" data-name="Group 2655">
                          <path id="Path_2135" data-name="Path 2135" d="M80.749,27.281a.27.27,0,0,0-.255-.275c-.336-.016-.888.106-.958,1.024A.863.863,0,0,0,80.723,29C80.728,28.972,80.743,27.791,80.749,27.281Z" transform="translate(-79.532 -27.005)" fill="#ffbe9d"/>
                        </g>
                        <g id="Group_2657" data-name="Group 2657" transform="translate(0.354 0.418)">
                          <g id="Group_2656" data-name="Group 2656">
                            <path id="Path_2136" data-name="Path 2136" d="M80.49,28.536c-.005,0-.024.014-.065.029a.233.233,0,0,1-.173-.009.565.565,0,0,1-.225-.527.75.75,0,0,1,.089-.322.266.266,0,0,1,.187-.162.118.118,0,0,1,.131.073c.015.038,0,.064.011.066s.03-.02.024-.075a.145.145,0,0,0-.046-.086.175.175,0,0,0-.125-.043.324.324,0,0,0-.256.185.772.772,0,0,0-.108.359.593.593,0,0,0,.293.591.249.249,0,0,0,.213-.019C80.485,28.568,80.494,28.539,80.49,28.536Z" transform="translate(-79.934 -27.48)" fill="#eb996e"/>
                          </g>
                        </g>
                      </g>
                    </g>
                    <g id="Group_2660" data-name="Group 2660" transform="translate(3.637 2.499)">
                      <path id="Path_2137" data-name="Path 2137" d="M83.677,26.283c.065.084.293.045.59.032s.527-.013.581-.1-.225-.314-.606-.282C83.859,25.944,83.6,26.2,83.677,26.283Z" transform="translate(-83.664 -25.925)" fill="#263238"/>
                    </g>
                    <g id="Group_2661" data-name="Group 2661" transform="translate(6.532 2.487)">
                      <path id="Path_2138" data-name="Path 2138" d="M86.959,26.194c.036.115.253.149.494.147s.457-.045.49-.16-.185-.273-.5-.269S86.922,26.083,86.959,26.194Z" transform="translate(-86.955 -25.912)" fill="#263238"/>
                    </g>
                  </g>
                  <path id="Path_2139" data-name="Path 2139" d="M87.706,24.327a2.96,2.96,0,0,1-2.487-.179,3.485,3.485,0,0,0-2.236-.5c-.237.185-.287,1.136-1.2,1.414,0,0,.063,1.814-.661,1.75s-.271-2.874-.271-2.874l1.77-.864,1.931-.365,1.819.256,1.408.385Z" transform="translate(-79.673 -22.708)" fill="#263238"/>
                </g>
              </g>
              <g id="Group_2672" data-name="Group 2672" transform="translate(0 9.034)">
                <g id="Group_2668" data-name="Group 2668" transform="translate(0 1.343)">
                  <path id="Path_2140" data-name="Path 2140" d="M74.9,36.24c1.891-1.945,5.219-1.732,5.219-1.732l2.759,1.975,1.564-1.821a10.145,10.145,0,0,1,3.185.985l.106.033V35.7a28.538,28.538,0,0,1,4.556,3.763l-1.953,1.813L88.17,43.2a.058.058,0,0,1,0,.038c-.023.116.3,2.756.631,4.763a8.142,8.142,0,0,1-7.266,2.195,21.632,21.632,0,0,1-2.132-.585,2.966,2.966,0,0,1-2.2-2.614h0c-.147-1.682-.26-3.764-.26-3.764" transform="translate(-74.898 -34.501)" fill="#455a64"/>
                  <g id="Group_2665" data-name="Group 2665" transform="translate(11.271 0.499)">
                    <path id="Path_2141" data-name="Path 2141" d="M87.708,35.068a2.106,2.106,0,0,1,.119.31c.071.2.167.5.281.86.228.729.518,1.745.792,2.879s.479,2.171.609,2.924c.065.377.114.682.143.894a2.128,2.128,0,0,1,.036.33,2.064,2.064,0,0,1-.074-.324l-.174-.887c-.148-.749-.364-1.781-.637-2.913s-.552-2.149-.762-2.882l-.25-.869A2.1,2.1,0,0,1,87.708,35.068Z" transform="translate(-87.707 -35.068)" fill="#263238"/>
                  </g>
                  <g id="Group_2666" data-name="Group 2666" transform="translate(13.048 4.397)">
                    <path id="Path_2142" data-name="Path 2142" d="M89.726,42.552c-.017-.022.807-.723,1.842-1.566s1.888-1.509,1.906-1.488-.807.722-1.842,1.566S89.744,42.573,89.726,42.552Z" transform="translate(-89.726 -39.498)" fill="#263238"/>
                  </g>
                  <path id="Path_2143" data-name="Path 2143" d="M77.5,39.51l-1.693,5.568.63.327.621-1.575A20.523,20.523,0,0,0,77.5,39.51Z" transform="translate(-75.008 -35.102)" opacity="0.2"/>
                  <g id="Group_2667" data-name="Group 2667" transform="translate(8.682 0.131)" opacity="0.2">
                    <path id="Path_2144" data-name="Path 2144" d="M87.171,35.022c.912.481-1.374,1.638-2.407,1.607l.75-1.979A10.411,10.411,0,0,1,87.171,35.022Z" transform="translate(-84.764 -34.65)"/>
                  </g>
                </g>
                <path id="Path_2145" data-name="Path 2145" d="M80.52,34.449V32.975s2.88.741,2.984,2.464c0,0,.366-1.9,1.85-2l.209,2.679-1.726,1.5h-1.75l-1.386-1.2-.181-1.86" transform="translate(-75.573 -32.975)" fill="#455a64"/>
                <g id="Group_2669" data-name="Group 2669" transform="translate(7.913 2.724)">
                  <path id="Path_2146" data-name="Path 2146" d="M84.557,44.074a1.894,1.894,0,0,1-.005-.317c0-.2.008-.5.009-.863,0-.728-.02-1.734-.112-2.841s-.236-2.1-.359-2.821l-.151-.849a1.913,1.913,0,0,1-.047-.314,1.92,1.92,0,0,1,.086.305c.05.2.113.486.183.845a26.45,26.45,0,0,1,.471,5.675c-.01.365-.025.66-.041.863A1.957,1.957,0,0,1,84.557,44.074Z" transform="translate(-83.89 -36.071)" fill="#263238"/>
                </g>
                <g id="Group_2670" data-name="Group 2670" transform="translate(4.841 1.196)">
                  <path id="Path_2147" data-name="Path 2147" d="M83.357,35.106a.348.348,0,0,0-.171.016c-.11.035-.208.173-.289.368a8.339,8.339,0,0,0-.548,1.593l-.015.066-.058-.035c-.172-.1-.349-.217-.526-.337a10.544,10.544,0,0,1-.934-.709,1.179,1.179,0,0,1-.318-.416,1.313,1.313,0,0,1-.1-.445,2.576,2.576,0,0,1,.064-.645.954.954,0,0,1,.063-.228,1.228,1.228,0,0,1-.025.235,3.047,3.047,0,0,0-.032.634,1.275,1.275,0,0,0,.1.415,1.107,1.107,0,0,0,.3.381c.272.228.588.464.929.7.176.119.351.232.521.336l-.073.031a7.286,7.286,0,0,1,.586-1.6,1.209,1.209,0,0,1,.152-.248.385.385,0,0,1,.184-.125C83.3,35.055,83.362,35.1,83.357,35.106Z" transform="translate(-80.399 -34.334)" fill="#263238"/>
                </g>
                <g id="Group_2671" data-name="Group 2671" transform="translate(8.152 0.468)">
                  <path id="Path_2148" data-name="Path 2148" d="M85.791,33.507a1.056,1.056,0,0,1,.027.23l.046.627c.022.264.054.578.108.924a1.546,1.546,0,0,1,.035.566.973.973,0,0,1-.379.484,4.263,4.263,0,0,0-.634.481l-.077.086-.008-.115a3.449,3.449,0,0,0-.425-1.436c-.183-.328-.334-.5-.322-.507a.546.546,0,0,1,.114.114,2.835,2.835,0,0,1,.261.362,3.289,3.289,0,0,1,.469,1.46l-.084-.029a4.046,4.046,0,0,1,.645-.5.892.892,0,0,0,.344-.428,1.524,1.524,0,0,0-.031-.528c-.05-.35-.074-.667-.087-.933s-.015-.482-.014-.631A1,1,0,0,1,85.791,33.507Z" transform="translate(-84.162 -33.507)" fill="#263238"/>
                </g>
              </g>
            </g>
            <g id="Group_2678" data-name="Group 2678" transform="translate(0 9.873)">
              <g id="Group_2675" data-name="Group 2675" transform="translate(1.031)">
                <path id="Path_2149" data-name="Path 2149" d="M95.952,33.927c-.117.138-4.356,5.806-4.356,5.806l.6.338,4.35-5.6Z" transform="translate(-76.654 -33.927)" fill="#263238"/>
                <path id="Path_2150" data-name="Path 2150" d="M76.883,38.773s4.46,6.42,4.729,6.546c.529.249,6.631-5.024,7.212-5.528.08-.107.246-.333.571-.783,0,0,.481-2.2.995-2.033s-.281,1.119.053,1.956,1.867-1.159,1.928-1.338l.4-.516a6.78,6.78,0,0,1,.386,1.665,7.757,7.757,0,0,1-1.577,3.44S84.9,50.453,80.325,50.71c-1.317.074-3.658-3.664-5.224-6.467a3.835,3.835,0,0,1,1.093-4.967Z" transform="translate(-74.616 -34.292)" fill="#ffbe9d"/>
                <g id="Group_2674" data-name="Group 2674" transform="translate(17.785 3.567)">
                  <path id="Path_2151" data-name="Path 2151" d="M94.828,39.143c-.015-.009.128-.262.286-.582s.273-.586.289-.58a3.624,3.624,0,0,1-.575,1.162Z" transform="translate(-94.827 -37.981)" fill="#eb996e"/>
                </g>
              </g>
              <g id="Group_2677" data-name="Group 2677" transform="translate(0 1.349)">
                <path id="Path_2152" data-name="Path 2152" d="M75.988,35.46s-4.787,1.7-1.228,9.751l5.526-3.335L79.5,39.994Z" transform="translate(-73.444 -35.46)" fill="#455a64"/>
                <g id="Group_2676" data-name="Group 2676" transform="translate(1.316 0.132)">
                  <path id="Path_2153" data-name="Path 2153" d="M75.8,35.617a1.662,1.662,0,0,1,.576.048,2.346,2.346,0,0,1,.628.265,3.394,3.394,0,0,1,.7.572A8.36,8.36,0,0,1,79,38.445c.405.783.783,1.674,1.17,2.611l.339.819.017.042-.039.021c-1.6.872-2.991,1.688-3.975,2.3-.492.3-.884.555-1.154.729l-.31.2a.669.669,0,0,1-.111.064.657.657,0,0,1,.1-.08c.068-.049.168-.123.3-.214.263-.184.65-.443,1.138-.756.976-.627,2.364-1.454,3.963-2.329l-.022.063-.34-.819c-.387-.936-.762-1.826-1.16-2.607a8.509,8.509,0,0,0-1.27-1.936,3.417,3.417,0,0,0-.675-.573,2.391,2.391,0,0,0-.608-.275A3.455,3.455,0,0,0,75.8,35.617Z" transform="translate(-74.939 -35.61)" fill="#263238"/>
                </g>
              </g>
            </g>
          </g>
          <g id="Group_2680" data-name="Group 2680" transform="translate(8.606 1.416)">
            <path id="Path_2154" data-name="Path 2154" d="M87.092,22.056a.287.287,0,0,1,.024.084,1.092,1.092,0,0,1,.014.25,1.278,1.278,0,0,1-1.653,1.16,1.138,1.138,0,0,1-.66-.478.673.673,0,0,1-.1-.435.563.563,0,0,1,.237-.4.489.489,0,0,1,.463-.03.588.588,0,0,1,.316.318.844.844,0,0,1-.126.8,1.006,1.006,0,0,1-1.265.275,2.159,2.159,0,0,0-.476-.183.6.6,0,0,0-.368.039,2,2,0,0,0-.274.181s.017-.025.056-.066a.477.477,0,0,1,.079-.071.591.591,0,0,1,.123-.079.628.628,0,0,1,.395-.059,2.115,2.115,0,0,1,.5.173,1.4,1.4,0,0,0,.278.092.88.88,0,0,0,.311-.006.911.911,0,0,0,.573-.351.754.754,0,0,0,.11-.709.455.455,0,0,0-.633-.242.465.465,0,0,0-.193.327.576.576,0,0,0,.084.372,1.051,1.051,0,0,0,.6.44,1.234,1.234,0,0,0,1.212-.287,1.31,1.31,0,0,0,.377-.788A2.641,2.641,0,0,0,87.092,22.056Z" transform="translate(-83.224 -22.056)" fill="#455a64"/>
          </g>
          <g id="Group_2681" data-name="Group 2681" transform="translate(10.487 8.211)">
            <path id="Path_2155" data-name="Path 2155" d="M86.306,30.254c0,.012-.059.038-.165.042a.858.858,0,0,1-.712-.359c-.059-.088-.075-.152-.064-.158a1.321,1.321,0,0,0,.942.475Z" transform="translate(-85.361 -29.779)" fill="#263238"/>
          </g>
          <g id="Group_2682" data-name="Group 2682" transform="translate(5.746 7.507)">
            <path id="Path_2156" data-name="Path 2156" d="M80.6,29.305c.009-.008.063.085-.007.217a.322.322,0,0,1-.2.156.334.334,0,0,1-.3-.078.359.359,0,0,1-.127-.28.385.385,0,0,1,.088-.231c.093-.109.187-.119.188-.108s-.068.049-.131.149a.3.3,0,0,0,.047.394.254.254,0,0,0,.212.064.27.27,0,0,0,.158-.1C80.606,29.391,80.587,29.308,80.6,29.305Z" transform="translate(-79.973 -28.978)" fill="#263238"/>
          </g>
          <g id="Group_2683" data-name="Group 2683" transform="translate(11.449 2.065)">
            <path id="Path_2157" data-name="Path 2157" d="M87.8,22.794a.635.635,0,0,1,.093.354,1.177,1.177,0,0,1-1.072,1.236.636.636,0,0,1-.364-.042c0-.017.14.008.354-.029a1.19,1.19,0,0,0,1.01-1.165C87.825,22.932,87.781,22.8,87.8,22.794Z" transform="translate(-86.454 -22.794)" fill="#455a64"/>
          </g>
        </g>
        <g id="Group_2685" data-name="Group 2685" transform="translate(0.548 18.197)">
          <path id="Path_2158" data-name="Path 2158" d="M79.79,41.127c.012.025-1.259.679-2.839,1.46s-2.872,1.395-2.884,1.37,1.259-.678,2.84-1.46S79.777,41.1,79.79,41.127Z" transform="translate(-74.066 -41.126)" fill="#e0e0e0"/>
        </g>
        <g id="Group_2686" data-name="Group 2686" transform="translate(0.01 16.01)">
          <path id="Path_2159" data-name="Path 2159" d="M78.558,38.642c.013.024-1.119.657-2.528,1.414s-2.562,1.35-2.575,1.325,1.119-.657,2.528-1.414S78.544,38.618,78.558,38.642Z" transform="translate(-73.454 -38.641)" fill="#e0e0e0"/>
        </g>
        <g id="Group_2687" data-name="Group 2687" transform="translate(0.086 14.242)">
          <path id="Path_2160" data-name="Path 2160" d="M77.449,36.632a4.6,4.6,0,0,1-.566.335l-1.384.772-1.377.785a4.539,4.539,0,0,1-.58.311,4.011,4.011,0,0,1,.543-.372c.343-.217.824-.507,1.364-.812s1.037-.566,1.4-.748A4,4,0,0,1,77.449,36.632Z" transform="translate(-73.541 -36.631)" fill="#e0e0e0"/>
        </g>
        <g id="Group_2688" data-name="Group 2688" transform="translate(6.228 12.219)">
          <path id="Path_2161" data-name="Path 2161" d="M82.521,35.938a.9.9,0,0,1-.372-.1,2.854,2.854,0,0,1-.78-.507,5.344,5.344,0,0,1-.629-.681,1.4,1.4,0,0,1-.218-.316,1.527,1.527,0,0,1,.272.27,9.084,9.084,0,0,0,.642.652,3.573,3.573,0,0,0,.743.518C82.386,35.88,82.525,35.923,82.521,35.938Z" transform="translate(-80.521 -34.333)" fill="#e0e0e0"/>
        </g>
        <g id="Group_2689" data-name="Group 2689" transform="translate(10.002 12.779)">
          <path id="Path_2162" data-name="Path 2162" d="M85.848,34.97a1.342,1.342,0,0,1-1.038.874,6.728,6.728,0,0,0,.573-.373A6.838,6.838,0,0,0,85.848,34.97Z" transform="translate(-84.81 -34.97)" fill="#e0e0e0"/>
        </g>
        <g id="Group_2690" data-name="Group 2690" transform="translate(5.349 15.679)">
          <path id="Path_2163" data-name="Path 2163" d="M90.228,38.268a.464.464,0,0,1-.108.02l-.31.038c-.27.03-.661.067-1.144.105-.967.077-2.305.153-3.784.207s-2.82.072-3.79.064c-.485,0-.878-.013-1.149-.023l-.312-.016a.439.439,0,0,1-.109-.012.45.45,0,0,1,.109-.008l.312,0,1.148-.009c.969-.01,2.308-.041,3.787-.093s2.816-.118,3.783-.177l1.146-.073.312-.019A.447.447,0,0,1,90.228,38.268Z" transform="translate(-79.522 -38.265)" fill="#e0e0e0"/>
        </g>
        <g id="Group_2691" data-name="Group 2691" transform="translate(6.396 17.965)">
          <path id="Path_2164" data-name="Path 2164" d="M88.848,40.865a1.961,1.961,0,0,1-.317.05c-.2.026-.5.058-.869.091-.734.068-1.751.137-2.876.183s-2.144.057-2.882.049c-.369,0-.667-.011-.873-.02a1.945,1.945,0,0,1-.32-.024,1.943,1.943,0,0,1,.32-.015l.873-.012c.737-.01,1.754-.034,2.878-.079s2.139-.1,2.874-.154l.871-.059A2,2,0,0,1,88.848,40.865Z" transform="translate(-80.711 -40.862)" fill="#e0e0e0"/>
        </g>
        <g id="Group_2692" data-name="Group 2692" transform="translate(6.683 20.782)">
          <path id="Path_2165" data-name="Path 2165" d="M85.431,44.07a3.863,3.863,0,0,1-.639.09c-.4.041-.945.085-1.552.115s-1.158.041-1.556.04a3.838,3.838,0,0,1-.645-.026,4.4,4.4,0,0,1,.643-.045l1.553-.069,1.551-.086A4.379,4.379,0,0,1,85.431,44.07Z" transform="translate(-81.038 -44.064)" fill="#e0e0e0"/>
        </g>
        <g id="Group_2693" data-name="Group 2693" transform="translate(4.015 14.05)">
          <path id="Path_2166" data-name="Path 2166" d="M80.648,36.46c0,.029-.592.035-1.32.066s-1.318.071-1.321.043a9.854,9.854,0,0,1,2.641-.109Z" transform="translate(-78.007 -36.414)" fill="#e0e0e0"/>
        </g>
        <g id="Group_2694" data-name="Group 2694" transform="translate(11.365 13.935)">
          <path id="Path_2167" data-name="Path 2167" d="M89.785,36.34a29.246,29.246,0,0,1-3.427-.013,29.245,29.245,0,0,1,3.427.013Z" transform="translate(-86.358 -36.283)" fill="#e0e0e0"/>
        </g>
        <g id="Group_2695" data-name="Group 2695" transform="translate(10.125 25.724)">
          <path id="Path_2168" data-name="Path 2168" d="M89.912,49.681a.783.783,0,0,1-.176.1c-.116.06-.287.139-.5.228a10.964,10.964,0,0,1-3.532.814c-.232.013-.421.017-.551.014a.791.791,0,0,1-.2-.014c0-.016.287-.027.748-.071a13.525,13.525,0,0,0,3.511-.809C89.642,49.782,89.905,49.666,89.912,49.681Z" transform="translate(-84.95 -49.679)" fill="#e0e0e0"/>
        </g>
      </g>
    </g>
    <g id="Character_1" data-name="Character 1" transform="translate(17.263 43.053)">
      <g id="Group_2752" data-name="Group 2752">
        <ellipse id="Ellipse_200" data-name="Ellipse 200" cx="8.347" cy="7.962" rx="8.347" ry="7.962" transform="translate(3.423 11.941)" fill="#e0e0e0"/>
        <g id="Group_2729" data-name="Group 2729" transform="translate(6.271)">
          <path id="Path_2169" data-name="Path 2169" d="M28.948,48.639c-1.324.069-1.844,1.449-2,1.758a2.67,2.67,0,0,0-.212,1.01,2.2,2.2,0,0,1-.254,1c-.292.465-.9.706-1.071,1.228-.189.591.3,1.224.166,1.831-.069.326-.307.594-.391.917a1.349,1.349,0,0,0,.179,1,2.623,2.623,0,0,0,2.2,1.153,7.745,7.745,0,0,0,2.535-.483" transform="translate(-25.15 -47.934)" fill="#263238"/>
          <path id="Path_2170" data-name="Path 2170" d="M35.925,50.589a.825.825,0,0,0,.2.853,5.316,5.316,0,0,0,.717.584,1.17,1.17,0,0,1,.489.757c.026.282-.116.563-.078.844.1.722,1.25.938,1.311,1.664.041.483-.455.927-.318,1.393a2.208,2.208,0,0,0,.287.476,1.415,1.415,0,0,1-.368,1.711,2.813,2.813,0,0,1-1.764.6,1.654,1.654,0,0,1-1.449-.494,1.987,1.987,0,0,1-.171-1.415,49.524,49.524,0,0,0,.176-6.818" transform="translate(-26.3 -48.168)" fill="#263238"/>
          <g id="Group_2720" data-name="Group 2720" transform="translate(2.214 0.543)">
            <g id="Group_2719" data-name="Group 2719">
              <g id="Group_2718" data-name="Group 2718">
                <g id="Group_2712" data-name="Group 2712" transform="translate(0.022 1.159)">
                  <g id="Group_2697" data-name="Group 2697">
                    <path id="Path_2171" data-name="Path 2171" d="M29.6,60.947c.01-1.187,0-2.437,0-2.437a2.485,2.485,0,0,1-1.82-2.27,33.324,33.324,0,0,1,.2-6.006h0a5.47,5.47,0,0,1,6.25,1.245h0l-.241,9.64a2.068,2.068,0,0,1-2.211,1.947h0A2.185,2.185,0,0,1,29.6,60.947Z" transform="translate(-27.691 -49.772)" fill="#ffbe9d"/>
                  </g>
                  <g id="Group_2701" data-name="Group 2701" transform="translate(0.283 3.148)">
                    <g id="Group_2698" data-name="Group 2698" transform="translate(0.415 0.233)">
                      <path id="Path_2172" data-name="Path 2172" d="M28.486,53.843a.256.256,0,0,0,.244.261A.244.244,0,0,0,29,53.876a.256.256,0,0,0-.243-.261A.245.245,0,0,0,28.486,53.843Z" transform="translate(-28.485 -53.614)" fill="#263238"/>
                    </g>
                    <g id="Group_2700" data-name="Group 2700">
                      <g id="Group_2699" data-name="Group 2699">
                        <path id="Path_2173" data-name="Path 2173" d="M28.017,53.613c.031.034.227-.107.5-.1.518.075.509.154.506.111.015-.015-.017-.075-.1-.141a.7.7,0,0,0-.4-.13.673.673,0,0,0-.4.124C28.031,53.538,28,53.6,28.017,53.613Z" transform="translate(-28.013 -53.35)" fill="#263238"/>
                      </g>
                    </g>
                  </g>
                  <g id="Group_2705" data-name="Group 2705" transform="translate(3.155 3.243)">
                    <g id="Group_2702" data-name="Group 2702" transform="translate(0.361 0.219)">
                      <path id="Path_2174" data-name="Path 2174" d="M31.688,53.935a.256.256,0,0,0,.244.261.245.245,0,0,0,.266-.228.256.256,0,0,0-.244-.261A.245.245,0,0,0,31.688,53.935Z" transform="translate(-31.688 -53.707)" fill="#263238"/>
                    </g>
                    <g id="Group_2704" data-name="Group 2704">
                      <g id="Group_2703" data-name="Group 2703">
                        <path id="Path_2175" data-name="Path 2175" d="M31.281,53.721c.031.034.227-.107.5-.1s.475.144.506.111c.015-.015-.016-.075-.1-.14a.7.7,0,0,0-.4-.13.675.675,0,0,0-.4.124C31.3,53.646,31.266,53.706,31.281,53.721Z" transform="translate(-31.277 -53.458)" fill="#263238"/>
                      </g>
                    </g>
                  </g>
                  <g id="Group_2707" data-name="Group 2707" transform="translate(1.437 3.189)">
                    <g id="Group_2706" data-name="Group 2706">
                      <path id="Path_2176" data-name="Path 2176" d="M30.024,55.689a1.828,1.828,0,0,0-.446-.086c-.07-.008-.137-.023-.148-.071a.357.357,0,0,1,.049-.208l.214-.533a9.207,9.207,0,0,0,.483-1.4,9.216,9.216,0,0,0-.594,1.353l-.206.536a.407.407,0,0,0-.04.276.177.177,0,0,0,.114.1.487.487,0,0,0,.119.018A1.8,1.8,0,0,0,30.024,55.689Z" transform="translate(-29.324 -53.396)" fill="#263238"/>
                    </g>
                  </g>
                  <g id="Group_2708" data-name="Group 2708" transform="translate(1.909 8.056)">
                    <path id="Path_2177" data-name="Path 2177" d="M29.86,59.609a5.075,5.075,0,0,0,2.68-.682,2.53,2.53,0,0,1-2.659,1.153Z" transform="translate(-29.86 -58.927)" fill="#eb996e"/>
                  </g>
                  <g id="Group_2709" data-name="Group 2709" transform="translate(2.217 5.964)">
                    <path id="Path_2178" data-name="Path 2178" d="M30.239,56.732a.5.5,0,0,1,.447-.179.453.453,0,0,1,.311.171.287.287,0,0,1,.018.328.333.333,0,0,1-.362.087,1.043,1.043,0,0,1-.349-.214.3.3,0,0,1-.078-.082.092.092,0,0,1,0-.1" transform="translate(-30.211 -56.55)" fill="#eb996e"/>
                  </g>
                  <g id="Group_2711" data-name="Group 2711" transform="translate(2.058 5.682)">
                    <g id="Group_2710" data-name="Group 2710">
                      <path id="Path_2179" data-name="Path 2179" d="M30.917,56.229c-.045,0-.049.3-.307.5s-.576.173-.579.214c0,.019.07.059.2.064a.743.743,0,0,0,.483-.162.647.647,0,0,0,.238-.424C30.969,56.3,30.937,56.227,30.917,56.229Z" transform="translate(-30.03 -56.229)" fill="#263238"/>
                    </g>
                  </g>
                </g>
                <g id="Group_2713" data-name="Group 2713">
                  <path id="Path_2180" data-name="Path 2180" d="M33.355,49.9a7.4,7.4,0,0,1-4.047,2.36c.162-.213,1.012-.737,1.173-.95a4.919,4.919,0,0,1-2.358,1.138.505.505,0,0,1-.286-.045.386.386,0,0,1-.146-.314,8.315,8.315,0,0,1,.058-1.808,2,2,0,0,1,.72-1.29,3.454,3.454,0,0,1,2.016-.531,4.56,4.56,0,0,1,1.776.239,1.666,1.666,0,0,1,1.1,1.165" transform="translate(-27.666 -48.455)" fill="#263238"/>
                </g>
                <g id="Group_2714" data-name="Group 2714" transform="translate(3.992 0.231)">
                  <path id="Path_2181" data-name="Path 2181" d="M35.993,54.592a11.294,11.294,0,0,0,.2-1.334c.059-1.03-.239-4.83-3.789-4.524l-.143,1.081s-.549,3.7,1.748,3.728a4.129,4.129,0,0,0,1.167,2.175s.6-.018.818-1.127" transform="translate(-32.203 -48.717)" fill="#263238"/>
                </g>
                <g id="Group_2715" data-name="Group 2715" transform="translate(5.699 5.035)">
                  <path id="Path_2182" data-name="Path 2182" d="M34.241,54.2a1.191,1.191,0,0,1,.642.049.831.831,0,0,1,.465.432.869.869,0,0,1,0,.638,1.47,1.47,0,0,1-.37.532,1,1,0,0,1-.39.253.476.476,0,0,1-.444-.074" transform="translate(-34.142 -54.177)" fill="#ffbe9d"/>
                </g>
                <g id="Group_2717" data-name="Group 2717" transform="translate(5.896 5.334)">
                  <g id="Group_2716" data-name="Group 2716">
                    <path id="Path_2183" data-name="Path 2183" d="M34.371,55.535c-.024.008.067.138.262.088a.42.42,0,0,0,.244-.208.947.947,0,0,0,.11-.353.557.557,0,0,0-.086-.377.371.371,0,0,0-.278-.169c-.2-.007-.265.132-.242.136s.094-.054.226-.021a.36.36,0,0,1,.218.415c-.026.219-.113.419-.23.468S34.384,55.517,34.371,55.535Z" transform="translate(-34.367 -54.516)" fill="#eb996e"/>
                  </g>
                </g>
              </g>
            </g>
          </g>
          <path id="Path_2184" data-name="Path 2184" d="M34.653,49.436a1.21,1.21,0,0,0,1.638-.431.775.775,0,0,0,.112-.579.8.8,0,0,0-.6-.517,1.218,1.218,0,0,0-1.119.269,1.069,1.069,0,0,0-.289,1.1.953.953,0,0,0,.921.635" transform="translate(-26.254 -47.842)" fill="#263238"/>
          <path id="Path_2185" data-name="Path 2185" d="M34.9,56.19a2.811,2.811,0,0,0-.552.476.95.95,0,0,0-.238.671,1.748,1.748,0,0,1,.045.4,1.352,1.352,0,0,1-.28.481,1.143,1.143,0,0,0,.18,1.34,1.855,1.855,0,0,0,1.312.533,1.123,1.123,0,0,0,1.274-1.264" transform="translate(-26.18 -48.84)" fill="#263238"/>
          <g id="Group_2721" data-name="Group 2721" transform="translate(6.837 2.39)">
            <path id="Path_2186" data-name="Path 2186" d="M35.046,50.555a1.312,1.312,0,0,1-.209.364,4.216,4.216,0,0,1-1.527,1.312,1.315,1.315,0,0,1-.391.152,9.118,9.118,0,0,0,1.169-.792A9.119,9.119,0,0,0,35.046,50.555Z" transform="translate(-32.919 -50.554)" fill="#455a64"/>
          </g>
          <g id="Group_2722" data-name="Group 2722" transform="translate(7.658 2.371)">
            <path id="Path_2187" data-name="Path 2187" d="M35.527,50.532a1.582,1.582,0,0,1-.065.486,3.929,3.929,0,0,1-1.209,2.01,1.578,1.578,0,0,1-.4.286,4.955,4.955,0,0,0,1.674-2.782Z" transform="translate(-33.852 -50.532)" fill="#455a64"/>
          </g>
          <g id="Group_2723" data-name="Group 2723" transform="translate(1.609 3.978)">
            <path id="Path_2188" data-name="Path 2188" d="M26.994,52.359c.03,0,.067.332.183.726s.259.7.232.712a2.284,2.284,0,0,1-.415-1.438Z" transform="translate(-26.978 -52.359)" fill="#455a64"/>
          </g>
          <g id="Group_2724" data-name="Group 2724" transform="translate(9.335 4.395)">
            <path id="Path_2189" data-name="Path 2189" d="M36.552,59.237a.558.558,0,0,0,.294.094.6.6,0,0,0,.34-.107.685.685,0,0,0,.257-.39,1.256,1.256,0,0,0,0-.581c-.042-.209-.123-.426-.194-.662a1.745,1.745,0,0,1-.086-.777,4.361,4.361,0,0,1,.317-.765,1,1,0,0,0-.586-1.244c-.11-.047-.225-.087-.331-.145a.674.674,0,0,1-.264-.237,1.11,1.11,0,0,1-.119-.607,2.072,2.072,0,0,0-.02-.49A.8.8,0,0,0,36.019,53a.478.478,0,0,0-.26-.161.176.176,0,0,1,.084.007.4.4,0,0,1,.206.129.815.815,0,0,1,.17.345,2.023,2.023,0,0,1,.036.5,1.056,1.056,0,0,0,.119.562,1.072,1.072,0,0,0,.56.341,1.093,1.093,0,0,1,.645,1.362,4.624,4.624,0,0,0-.315.749,1.671,1.671,0,0,0,.078.734c.067.232.147.453.187.672a1.31,1.31,0,0,1-.017.617.736.736,0,0,1-.294.417.627.627,0,0,1-.372.1.454.454,0,0,1-.231-.076A.211.211,0,0,1,36.552,59.237Z" transform="translate(-35.758 -52.832)" fill="#455a64"/>
          </g>
          <g id="Group_2725" data-name="Group 2725" transform="translate(8.736 7.364)">
            <path id="Path_2190" data-name="Path 2190" d="M35.078,59.506c.009-.006.025.062.119.1a.316.316,0,0,0,.374-.1.59.59,0,0,0-.031-.6,2.528,2.528,0,0,1-.384-.75.543.543,0,0,1,.107-.445c.094-.116.205-.194.277-.289a.84.84,0,0,0,.134-.616,2.389,2.389,0,0,0-.11-.437.574.574,0,0,1-.045-.163.535.535,0,0,1,.081.149,1.878,1.878,0,0,1,.144.441.892.892,0,0,1-.131.682c-.082.111-.194.192-.274.294a.447.447,0,0,0-.086.368,2.684,2.684,0,0,0,.367.723.655.655,0,0,1,.007.688.346.346,0,0,1-.245.134.338.338,0,0,1-.2-.039C35.076,59.582,35.074,59.5,35.078,59.506Z" transform="translate(-35.077 -56.206)" fill="#455a64"/>
          </g>
          <g id="Group_2726" data-name="Group 2726" transform="translate(0.604 5.282)">
            <path id="Path_2191" data-name="Path 2191" d="M26.41,58.719a.858.858,0,0,1-.157-.157,1.9,1.9,0,0,1-.336-.507,1.012,1.012,0,0,1-.081-.421.733.733,0,0,1,.17-.467c.12-.139.293-.21.4-.34a.568.568,0,0,0,.08-.5,2.116,2.116,0,0,0-.212-.51,1.749,1.749,0,0,1-.187-.506.662.662,0,0,1,.1-.487,1.7,1.7,0,0,1,.294-.306.88.88,0,0,0,.329-.47.58.58,0,0,0-.008-.212s.015.015.029.051a.344.344,0,0,1,.018.168.877.877,0,0,1-.32.516,1.71,1.71,0,0,0-.272.3.579.579,0,0,0-.078.426,1.714,1.714,0,0,0,.184.476,2.145,2.145,0,0,1,.222.532.663.663,0,0,1-.1.58c-.131.154-.3.221-.4.339a.655.655,0,0,0-.156.409.963.963,0,0,0,.064.391,2.155,2.155,0,0,0,.3.508A1.03,1.03,0,0,1,26.41,58.719Z" transform="translate(-25.836 -53.84)" fill="#455a64"/>
          </g>
          <g id="Group_2727" data-name="Group 2727" transform="translate(8.13 1.012)">
            <path id="Path_2192" data-name="Path 2192" d="M35.478,49.822a3.173,3.173,0,0,0-.47-.511A3.189,3.189,0,0,0,34.389,49a1.153,1.153,0,0,1,1.089.824Z" transform="translate(-34.389 -48.988)" fill="#276ef1"/>
          </g>
          <g id="Group_2728" data-name="Group 2728" transform="translate(9.091)">
            <path id="Path_2193" data-name="Path 2193" d="M35.888,47.838c.01-.006.075.069.127.219a1.045,1.045,0,0,1-.312,1.128c-.121.1-.216.133-.221.123s.071-.066.172-.174a1.147,1.147,0,0,0,.292-1.058A1.458,1.458,0,0,1,35.888,47.838Z" transform="translate(-35.481 -47.838)" fill="#455a64"/>
          </g>
        </g>
        <path id="Path_2194" data-name="Path 2194" d="M24.816,74.646s4.791,4.549,7.638,3.725a5.625,5.625,0,0,0,3.691-2.96l.069-.765-.285-.187-10.964-.888Z" transform="translate(-18.839 -50.926)" opacity="0.3"/>
        <g id="Group_2751" data-name="Group 2751" transform="translate(0 11.309)">
          <g id="Group_2732" data-name="Group 2732" transform="translate(2.981 0.451)">
            <path id="Path_2195" data-name="Path 2195" d="M21.6,69.627l.924-2.369,3.311,2.08-2.951,4.55A7.807,7.807,0,0,1,21.6,69.627Z" transform="translate(-21.433 -61.929)" fill="#eb996e"/>
            <g id="Group_2731" data-name="Group 2731">
              <g id="Group_2730" data-name="Group 2730">
                <path id="Path_2196" data-name="Path 2196" d="M25.31,62.355a11.822,11.822,0,0,1,3.536-1.037h0c.579,1.159,2.4,1.306,3.509.515l.932-.63a3.381,3.381,0,0,1,.39.016,4.977,4.977,0,0,1,4.408,3.963,9.938,9.938,0,0,1,.233,2.505,2.512,2.512,0,0,1-2.3,2.3s-.112,2.082-.26,3.764h0a3.14,3.14,0,0,1-1.908,2.721,7.749,7.749,0,0,1-2.432.75A8.168,8.168,0,0,1,24.17,74.71c.331-2.006.647-4.6.625-4.72a.058.058,0,0,1,0-.038l-2.162-1.919L21.411,67s2.689-3.991,3.9-4.648" transform="translate(-21.411 -61.202)" fill="#276ef1"/>
              </g>
            </g>
          </g>
          <g id="Group_2733" data-name="Group 2733" transform="translate(6.181 2.682)">
            <path id="Path_2197" data-name="Path 2197" d="M28.426,63.957a1.149,1.149,0,0,0-.534-.148A.88.88,0,0,0,27.34,64a2.359,2.359,0,0,0-.245.264.639.639,0,0,1-.35.232.57.57,0,0,1-.407-.109c-.111-.071-.206-.149-.3-.2a.662.662,0,0,0-.566-.049.747.747,0,0,0-.329.227c-.061.075-.083.126-.091.122a.3.3,0,0,1,.06-.146.746.746,0,0,1,.971-.235c.108.059.205.137.31.2a.478.478,0,0,0,.337.094.554.554,0,0,0,.295-.2,2.211,2.211,0,0,1,.261-.27.924.924,0,0,1,.61-.19.879.879,0,0,1,.413.118C28.392,63.91,28.429,63.953,28.426,63.957Z" transform="translate(-25.047 -63.737)" fill="#fafafa"/>
          </g>
          <g id="Group_2734" data-name="Group 2734" transform="translate(8.387 4.929)">
            <path id="Path_2198" data-name="Path 2198" d="M30.924,67.142a1.149,1.149,0,0,0-.459-.311.879.879,0,0,0-.583.005,2.33,2.33,0,0,0-.317.171.639.639,0,0,1-.406.108.569.569,0,0,1-.351-.234c-.083-.1-.148-.207-.222-.291a.662.662,0,0,0-.52-.227.747.747,0,0,0-.384.11c-.082.052-.119.093-.126.087s.024-.054.1-.119a.746.746,0,0,1,1,.088c.083.09.151.2.229.291a.48.48,0,0,0,.29.2.553.553,0,0,0,.343-.095,2.217,2.217,0,0,1,.333-.173.925.925,0,0,1,.639.015.882.882,0,0,1,.354.244A.327.327,0,0,1,30.924,67.142Z" transform="translate(-27.555 -66.291)" fill="#fafafa"/>
          </g>
          <g id="Group_2735" data-name="Group 2735" transform="translate(13.444 1.45)">
            <path id="Path_2199" data-name="Path 2199" d="M36.493,62.452a1.146,1.146,0,0,0-.554-.031.88.88,0,0,0-.5.3,2.3,2.3,0,0,0-.184.31.638.638,0,0,1-.293.3.568.568,0,0,1-.421-.02c-.124-.046-.233-.1-.34-.136a.661.661,0,0,0-.563.072.748.748,0,0,0-.273.291c-.043.086-.054.141-.063.139a.294.294,0,0,1,.027-.155.746.746,0,0,1,.9-.435c.117.035.229.09.346.132a.479.479,0,0,0,.35.02.555.555,0,0,0,.246-.257,2.2,2.2,0,0,1,.2-.319.924.924,0,0,1,.556-.315.881.881,0,0,1,.429.028A.326.326,0,0,1,36.493,62.452Z" transform="translate(-33.301 -62.337)" fill="#fafafa"/>
          </g>
          <g id="Group_2736" data-name="Group 2736" transform="translate(11.808 3.966)">
            <path id="Path_2200" data-name="Path 2200" d="M34.018,65.959a.988.988,0,0,0-.346-.248.673.673,0,0,0-.444-.014,1.807,1.807,0,0,0-.248.121.5.5,0,0,1-.324.07.449.449,0,0,1-.269-.2c-.061-.083-.107-.165-.16-.232a.5.5,0,0,0-.385-.192.7.7,0,0,0-.4.126s.018-.043.081-.092a.556.556,0,0,1,.319-.1.566.566,0,0,1,.456.2c.062.073.11.157.168.232a.36.36,0,0,0,.21.157c.177.031.34-.128.525-.181a.718.718,0,0,1,.5.036C33.967,65.769,34.028,65.961,34.018,65.959Z" transform="translate(-31.442 -65.196)" fill="#fafafa"/>
          </g>
          <g id="Group_2737" data-name="Group 2737" transform="translate(6.842 6.631)">
            <path id="Path_2201" data-name="Path 2201" d="M28.375,68.987a.978.978,0,0,0-.346-.248.674.674,0,0,0-.444-.014,1.807,1.807,0,0,0-.248.121.5.5,0,0,1-.324.07.449.449,0,0,1-.269-.2c-.06-.083-.107-.165-.16-.232A.5.5,0,0,0,26.2,68.3a.7.7,0,0,0-.4.126s.018-.043.081-.092a.555.555,0,0,1,.319-.105.566.566,0,0,1,.456.2c.062.073.111.157.168.232a.358.358,0,0,0,.21.157c.177.031.34-.128.525-.181a.719.719,0,0,1,.5.036C28.323,68.8,28.385,68.99,28.375,68.987Z" transform="translate(-25.798 -68.225)" fill="#fafafa"/>
          </g>
          <g id="Group_2738" data-name="Group 2738" transform="translate(11.439 7.257)">
            <path id="Path_2202" data-name="Path 2202" d="M33.644,69.133a.986.986,0,0,0-.408-.123.672.672,0,0,0-.424.131,1.786,1.786,0,0,0-.2.195.5.5,0,0,1-.284.171.449.449,0,0,1-.318-.1c-.084-.059-.155-.122-.227-.168a.5.5,0,0,0-.426-.057.7.7,0,0,0-.337.248s0-.046.047-.113a.555.555,0,0,1,.268-.2.566.566,0,0,1,.5.046c.082.049.155.112.234.165a.359.359,0,0,0,.249.081c.178-.028.28-.232.438-.341a.718.718,0,0,1,.483-.127A.521.521,0,0,1,33.644,69.133Z" transform="translate(-31.022 -68.936)" fill="#fafafa"/>
          </g>
          <g id="Group_2739" data-name="Group 2739" transform="translate(9.905 9.374)">
            <path id="Path_2203" data-name="Path 2203" d="M31.9,71.539a.981.981,0,0,0-.408-.123.674.674,0,0,0-.424.131,1.787,1.787,0,0,0-.2.195.5.5,0,0,1-.284.171.45.45,0,0,1-.318-.1c-.084-.059-.155-.122-.227-.168a.5.5,0,0,0-.426-.057.7.7,0,0,0-.337.249s0-.046.047-.113a.554.554,0,0,1,.268-.2.566.566,0,0,1,.5.046c.082.049.155.112.234.165a.358.358,0,0,0,.249.081c.178-.028.28-.232.438-.341a.717.717,0,0,1,.483-.127A.52.52,0,0,1,31.9,71.539Z" transform="translate(-29.28 -71.342)" fill="#fafafa"/>
          </g>
          <g id="Group_2740" data-name="Group 2740" transform="translate(6.704 14.096)">
            <path id="Path_2204" data-name="Path 2204" d="M28.227,77.439a.98.98,0,0,0-.35-.243.673.673,0,0,0-.444-.008,1.829,1.829,0,0,0-.247.125.5.5,0,0,1-.323.075.448.448,0,0,1-.272-.193c-.062-.082-.109-.164-.164-.23a.5.5,0,0,0-.388-.186.7.7,0,0,0-.4.132s.017-.043.08-.093a.555.555,0,0,1,.317-.11.566.566,0,0,1,.459.2c.063.072.113.155.171.229a.358.358,0,0,0,.212.154c.178.029.338-.133.523-.189a.718.718,0,0,1,.5.029C28.172,77.25,28.237,77.441,28.227,77.439Z" transform="translate(-25.642 -76.707)" fill="#fafafa"/>
          </g>
          <g id="Group_2741" data-name="Group 2741" transform="translate(10.452 15.742)">
            <path id="Path_2205" data-name="Path 2205" d="M32.527,78.782a.984.984,0,0,0-.406-.128.674.674,0,0,0-.426.125,1.825,1.825,0,0,0-.2.192.5.5,0,0,1-.286.168.45.45,0,0,1-.317-.1c-.083-.06-.153-.124-.224-.171a.5.5,0,0,0-.426-.063.7.7,0,0,0-.341.244s0-.046.049-.113a.555.555,0,0,1,.271-.2.566.566,0,0,1,.5.053c.082.05.154.115.231.168a.359.359,0,0,0,.248.084c.178-.025.283-.228.443-.335a.718.718,0,0,1,.485-.12A.52.52,0,0,1,32.527,78.782Z" transform="translate(-29.902 -78.578)" fill="#fafafa"/>
          </g>
          <g id="Group_2746" data-name="Group 2746">
            <g id="Group_2744" data-name="Group 2744">
              <g id="Group_2743" data-name="Group 2743">
                <path id="Path_2206" data-name="Path 2206" d="M18.614,60.689c.117.138,4.356,5.806,4.356,5.806l-.6.338-4.35-5.6Z" transform="translate(-18.024 -60.689)" fill="#263238"/>
                <path id="Path_2207" data-name="Path 2207" d="M35.346,65.1s-3.976,6.857-4.245,6.983c-.529.248-6.631-5.024-7.212-5.528-.08-.107-.246-.333-.571-.783,0,0-.481-2.2-.995-2.034s.281,1.119-.053,1.956-1.867-1.159-1.928-1.339l-.4-.516A6.781,6.781,0,0,0,19.56,65.5a7.757,7.757,0,0,0,1.577,3.441s6.042,7.571,10.616,7.827c1.317.074,3.834-3.719,5.4-6.521a3.316,3.316,0,0,0-1.06-4.554Z" transform="translate(-18.208 -61.054)" fill="#ffbe9d"/>
                <g id="Group_2742" data-name="Group 2742" transform="translate(1.526 3.567)">
                  <path id="Path_2208" data-name="Path 2208" d="M20.334,65.9a3.62,3.62,0,0,1-.575-1.162,6.474,6.474,0,0,1,.289.58C20.206,65.643,20.349,65.9,20.334,65.9Z" transform="translate(-19.758 -64.743)" fill="#eb996e"/>
                </g>
              </g>
            </g>
            <path id="Path_2209" data-name="Path 2209" d="M36.761,63.118c-.157.094-3.855,6.958-3.855,6.958l4.76,3.728a55.122,55.122,0,0,0,1.891-5.53,7.945,7.945,0,0,0-.164-3.165c-.356-.986-.892-.74-1.695-1.318Z" transform="translate(-19.81 -60.981)" fill="#276ef1"/>
            <g id="Group_2745" data-name="Group 2745" transform="translate(13.033 1.938)" opacity="0.7">
              <path id="Path_2210" data-name="Path 2210" d="M38.316,63.091s-.047-.026-.136-.071a.8.8,0,0,0-.418-.088,1.141,1.141,0,0,0-.621.259,3.083,3.083,0,0,0-.62.667c-.2.274-.367.608-.57.957l-.636,1.117-1.463,2.555-.912,1.586-.012-.062,3.22,2.545.934.75.248.2a.525.525,0,0,1,.082.075.549.549,0,0,1-.093-.062l-.258-.192-.952-.727-3.242-2.517-.033-.026.021-.037.91-1.587,1.469-2.551.644-1.112a11.009,11.009,0,0,1,.586-.959,3.085,3.085,0,0,1,.644-.671,1.168,1.168,0,0,1,.653-.253.787.787,0,0,1,.429.109.7.7,0,0,1,.1.063C38.307,63.081,38.317,63.089,38.316,63.091Z" transform="translate(-32.834 -62.892)"/>
            </g>
          </g>
          <g id="Group_2747" data-name="Group 2747" transform="translate(14.517 7.81)">
            <path id="Path_2211" data-name="Path 2211" d="M37.1,70.328a.985.985,0,0,0-.346-.248.674.674,0,0,0-.444-.014,1.85,1.85,0,0,0-.248.121.5.5,0,0,1-.324.071.449.449,0,0,1-.269-.2c-.061-.083-.107-.165-.16-.232a.5.5,0,0,0-.385-.192.7.7,0,0,0-.4.126s.018-.043.081-.092a.556.556,0,0,1,.319-.105.566.566,0,0,1,.456.2c.062.073.111.157.168.232a.359.359,0,0,0,.21.157c.177.031.34-.128.525-.181a.718.718,0,0,1,.5.036C37.045,70.137,37.107,70.33,37.1,70.328Z" transform="translate(-34.52 -69.565)" fill="#fafafa"/>
          </g>
          <g id="Group_2748" data-name="Group 2748" transform="translate(16.941 6.346)">
            <path id="Path_2212" data-name="Path 2212" d="M39.6,69.24a.984.984,0,0,0-.266-.332.673.673,0,0,0-.424-.133,1.819,1.819,0,0,0-.272.05.5.5,0,0,1-.331-.02.449.449,0,0,1-.206-.262c-.036-.1-.058-.188-.092-.267a.5.5,0,0,0-.319-.289.7.7,0,0,0-.419.014s.029-.036.1-.067a.556.556,0,0,1,.335-.015.566.566,0,0,1,.384.32c.04.087.064.181.1.269a.359.359,0,0,0,.16.208c.162.078.362-.032.554-.033a.718.718,0,0,1,.47.169A.52.52,0,0,1,39.6,69.24Z" transform="translate(-37.275 -67.901)" fill="#fafafa"/>
          </g>
          <g id="Group_2749" data-name="Group 2749" transform="translate(17.052 3.508)">
            <path id="Path_2213" data-name="Path 2213" d="M39.73,66.016a.981.981,0,0,0-.266-.332.673.673,0,0,0-.423-.133,1.784,1.784,0,0,0-.272.05.5.5,0,0,1-.331-.019.449.449,0,0,1-.206-.262c-.036-.1-.058-.188-.092-.267a.5.5,0,0,0-.319-.289.7.7,0,0,0-.419.013s.029-.036.1-.067a.556.556,0,0,1,.336-.015.566.566,0,0,1,.384.32c.04.087.064.18.1.268a.358.358,0,0,0,.159.208c.162.078.362-.032.555-.033a.718.718,0,0,1,.47.169A.519.519,0,0,1,39.73,66.016Z" transform="translate(-37.402 -64.676)" fill="#fafafa"/>
          </g>
          <g id="Group_2750" data-name="Group 2750" transform="translate(15.999 10.031)">
            <path id="Path_2214" data-name="Path 2214" d="M38.533,73.428a.984.984,0,0,0-.266-.332.674.674,0,0,0-.424-.133,1.817,1.817,0,0,0-.272.05.5.5,0,0,1-.331-.019.449.449,0,0,1-.206-.262c-.036-.1-.058-.188-.092-.267a.5.5,0,0,0-.319-.289.7.7,0,0,0-.418.014s.029-.036.1-.067a.554.554,0,0,1,.335-.015.567.567,0,0,1,.384.32c.04.087.064.18.1.268a.359.359,0,0,0,.16.208c.162.078.362-.032.554-.033a.719.719,0,0,1,.47.169A.52.52,0,0,1,38.533,73.428Z" transform="translate(-36.205 -72.089)" fill="#fafafa"/>
          </g>
        </g>
      </g>
    </g>
  </g>
</svg>
