<svg xmlns="http://www.w3.org/2000/svg" width="37" height="37" viewBox="0 0 37 37">
  <g id="Vector_Smart_Object" data-name="Vector Smart Object" transform="translate(0 -0.005)">
    <g id="Group_81" data-name="Group 81" transform="translate(0 0.005)">
      <path id="Path_651" data-name="Path 651" d="M35.914.006A29.248,29.248,0,0,0,15.056,8.968L13.1,10.923,11.023,8.845,4.888,10.577,0,15.466l4.28,4.281h0l.221.221L2.488,24.122l1.327,1.327L.569,28.7,2.1,30.229l3.246-3.246,1.57,1.57L.044,35.427,1.577,36.96l6.873-6.874,1.57,1.57L6.775,34.9l1.533,1.533,3.246-3.246,1.327,1.327L17.034,32.5l4.5,4.5,4.888-4.889,1.738-6.131L26.076,23.9l1.955-1.955a29.778,29.778,0,0,0,6.5-9.32A28.907,28.907,0,0,0,37,0ZM6.022,12.51l4.367-1.233,1.179,1.18L5.813,18.213,3.066,15.466Zm7.3,19.382L5.112,23.679l1.012-2.088,9.287,9.289Zm12.4-5.273L24.49,30.982l-2.956,2.956-2.746-2.747,5.755-5.756Zm.793-6.227-1.976,1.977h0l-7.288,7.289L7.346,19.747l7.288-7.29,1.975-1.975A27.131,27.131,0,0,1,34.806,2.2a27.078,27.078,0,0,1-8.286,18.192Z" transform="translate(0 -0.005)" fill="#06f"/>
      <path id="Path_652" data-name="Path 652" d="M32.93,20.587a4.941,4.941,0,1,0-6.986,0,4.952,4.952,0,0,0,6.986,0Zm-3.49-6.272a2.753,2.753,0,0,1,1.96.81,2.781,2.781,0,0,1,0,3.928,2.776,2.776,0,0,1-4.731-1.966C26.666,16.345,27.922,14.315,29.44,14.315Z" transform="translate(-6.369 -3.162)" fill="#06f"/>
    </g>
  </g>
</svg>
