<svg id="Vector_Smart_Object" data-name="Vector Smart Object" xmlns="http://www.w3.org/2000/svg" width="36" height="36" viewBox="0 0 36 36">
  <g id="Group_68" data-name="Group 68">
    <g id="Group_67" data-name="Group 67">
      <path id="Path_644" data-name="Path 644" d="M33.891,23.386V3.164A3.168,3.168,0,0,0,30.727,0H7.453A3.168,3.168,0,0,0,4.289,3.164V4.289H3.164a3.164,3.164,0,0,0,0,6.328H4.289v4.219H3.164a3.164,3.164,0,0,0,0,6.328H4.289v4.219H3.164a3.164,3.164,0,0,0,0,6.328H4.289v1.055a3.253,3.253,0,0,0,.91,2.256A3.1,3.1,0,0,0,7.453,36H28.617a7.429,7.429,0,0,0,5.273-12.614ZM3.164,8.508a1.055,1.055,0,0,1,0-2.109h2.18a1.055,1.055,0,0,1,0,2.109Zm0,10.547a1.055,1.055,0,0,1,0-2.109h2.18a1.055,1.055,0,0,1,0,2.109ZM5.344,29.6H3.164a1.055,1.055,0,0,1,0-2.109h2.18a1.055,1.055,0,0,1,0,2.109Zm2.109,4.289A1.12,1.12,0,0,1,6.4,32.766V31.53a3.163,3.163,0,0,0,0-5.965V20.983a3.163,3.163,0,0,0,0-5.965V10.436a3.163,3.163,0,0,0,0-5.965V3.164A1.056,1.056,0,0,1,7.453,2.109H30.727a1.056,1.056,0,0,1,1.055,1.055V21.877a7.381,7.381,0,0,0-10.547,6.669,7.466,7.466,0,0,0,2.242,5.344Zm21.164,0a5.309,5.309,0,1,1,5.273-5.344A5.315,5.315,0,0,1,28.617,33.891Z" fill="#06f"/>
    </g>
  </g>
  <g id="Group_70" data-name="Group 70" transform="translate(21.234 8.508)">
    <g id="Group_69" data-name="Group 69">
      <path id="Path_645" data-name="Path 645" d="M35.7,11.344H29.367a1.055,1.055,0,0,0,0,2.109H35.7a1.055,1.055,0,0,0,0-2.109Z" transform="translate(-28.313 -11.344)" fill="#06f"/>
    </g>
  </g>
  <g id="Group_72" data-name="Group 72" transform="translate(21.234 16.945)">
    <g id="Group_71" data-name="Group 71">
      <path id="Path_646" data-name="Path 646" d="M35.7,22.594H29.367a1.055,1.055,0,0,0,0,2.109H35.7a1.055,1.055,0,0,0,0-2.109Z" transform="translate(-28.313 -22.594)" fill="#06f"/>
    </g>
  </g>
  <g id="Group_74" data-name="Group 74" transform="translate(27.563 25.383)">
    <g id="Group_73" data-name="Group 73">
      <path id="Path_647" data-name="Path 647" d="M39.914,35.953H38.859V34.9a1.055,1.055,0,0,0-2.109,0v2.109A1.055,1.055,0,0,0,37.8,38.063h2.109a1.055,1.055,0,0,0,0-2.109Z" transform="translate(-36.75 -33.844)" fill="#06f"/>
    </g>
  </g>
  <g id="Group_76" data-name="Group 76" transform="translate(10.321 6.398)">
    <g id="Group_75" data-name="Group 75">
      <path id="Path_648" data-name="Path 648" d="M22.186,8.84a1.055,1.055,0,0,0-1.491,0l-3.473,3.473-1.66-1.66a1.055,1.055,0,0,0-1.492,1.492l2.406,2.406a1.055,1.055,0,0,0,1.491,0l4.219-4.219A1.055,1.055,0,0,0,22.186,8.84Z" transform="translate(-13.761 -8.531)" fill="#06f"/>
    </g>
  </g>
  <g id="Group_78" data-name="Group 78" transform="translate(10.321 14.836)">
    <g id="Group_77" data-name="Group 77">
      <path id="Path_649" data-name="Path 649" d="M22.186,20.09a1.055,1.055,0,0,0-1.491,0l-3.473,3.473-1.66-1.66a1.055,1.055,0,0,0-1.492,1.492L16.476,25.8a1.055,1.055,0,0,0,1.491,0l4.219-4.219A1.055,1.055,0,0,0,22.186,20.09Z" transform="translate(-13.761 -19.781)" fill="#06f"/>
    </g>
  </g>
  <g id="Group_80" data-name="Group 80" transform="translate(10.321 23.273)">
    <g id="Group_79" data-name="Group 79">
      <path id="Path_650" data-name="Path 650" d="M22.186,31.34a1.055,1.055,0,0,0-1.491,0l-3.473,3.473-1.66-1.66a1.055,1.055,0,1,0-1.492,1.492l2.406,2.406a1.055,1.055,0,0,0,1.491,0l4.219-4.219A1.055,1.055,0,0,0,22.186,31.34Z" transform="translate(-13.761 -31.031)" fill="#06f"/>
    </g>
  </g>
</svg>
