<svg xmlns="http://www.w3.org/2000/svg" xmlns:xlink="http://www.w3.org/1999/xlink" width="111.184" height="98.691" viewBox="0 0 111.184 98.691">
  <defs>
    <clipPath id="clip-path">
      <path id="Path_13439" data-name="Path 13439" d="M118.94,176.825a1.9,1.9,0,1,1-3.266,0h-2.2a1.9,1.9,0,1,1-3.266,0H108a1.9,1.9,0,1,1-3.266,0h-2.2a1.9,1.9,0,1,1-3.266,0h-2.2a1.9,1.9,0,1,1-3.266,0H91.6a1.9,1.9,0,1,1-3.266,0h-1.38v39.309h32.719V176.825Z" transform="translate(-86.949 -176.825)" fill="none"/>
    </clipPath>
  </defs>
  <g id="Vector_Smart_Object" data-name="Vector Smart Object" transform="translate(-15.752 -37.445)">
    <g id="Background_Complete" data-name="Background Complete" transform="translate(15.752 74.165)">
      <g id="Group_26891" data-name="Group 26891" transform="translate(63.36 29.274)">
        <g id="Group_26884" data-name="Group 26884" transform="translate(0.414 1.277)">
          <path id="Path_13343" data-name="Path 13343" d="M210.9,258.7l44.509.606L253,243.3Z" transform="translate(-210.902 -243.297)" fill="#f5f5f5"/>
        </g>
        <g id="Group_26885" data-name="Group 26885" transform="translate(0 1.603)">
          <rect id="Rectangle_1258" data-name="Rectangle 1258" width="42.535" height="14.13" transform="matrix(1, -0.03, 0.03, 1, 0, 1.276)" fill="#ebebeb"/>
        </g>
        <g id="Group_26887" data-name="Group 26887" transform="translate(5.255 6.469)">
          <g id="Group_26886" data-name="Group 26886">
            <path id="Path_13344" data-name="Path 13344" d="M257.533,259.188c0,.036-7.121.279-15.906.543s-15.91.448-15.911.412,7.119-.279,15.907-.543S257.532,259.152,257.533,259.188Z" transform="translate(-225.716 -259.184)" fill="#e0e0e0"/>
          </g>
        </g>
        <g id="Group_26889" data-name="Group 26889" transform="translate(5.587 10.13)">
          <g id="Group_26888" data-name="Group 26888">
            <path id="Path_13345" data-name="Path 13345" d="M258.549,270.392c0,.036-7.121.279-15.906.543s-15.91.448-15.911.412,7.119-.279,15.907-.543S258.548,270.356,258.549,270.392Z" transform="translate(-226.732 -270.388)" fill="#e0e0e0"/>
          </g>
        </g>
        <g id="Group_26890" data-name="Group 26890" transform="translate(12.085)">
          <path id="Path_13346" data-name="Path 13346" d="M246.907,239.884l16.474-.495-.778.827,1.229.847-1.261.761,1.312.925-17.266.518.964-1.025-.641-.908.865-.572Z" transform="translate(-246.616 -239.389)" fill="#f5f5f5"/>
        </g>
      </g>
      <g id="Group_26906" data-name="Group 26906" transform="translate(0 0)">
        <g id="Group_26895" data-name="Group 26895" transform="translate(1.182 0.37)">
          <g id="Group_26892" data-name="Group 26892" transform="translate(0.808 0.174)">
            <path id="Path_13347" data-name="Path 13347" d="M21.843,155.451l3.179,12.063a8.112,8.112,0,0,0,4.969.46l9.016-2.675-4.45-13.823Z" transform="translate(-21.843 -151.476)" fill="#fafafa"/>
          </g>
          <g id="Group_26893" data-name="Group 26893">
            <path id="Path_13348" data-name="Path 13348" d="M19.369,154.654l3.179,12.063,4.969.46,9.016-2.675L32.84,150.944Z" transform="translate(-19.369 -150.944)" fill="#f5f5f5"/>
          </g>
          <g id="Group_26894" data-name="Group 26894" transform="translate(3.179 14.419)">
            <path id="Path_13349" data-name="Path 13349" d="M30.352,195.066,29.1,196.421a5.363,5.363,0,0,0,2.07.72,7.733,7.733,0,0,0,2.9-.26A5.148,5.148,0,0,1,30.352,195.066Z" transform="translate(-29.097 -195.066)" fill="#e0e0e0"/>
          </g>
        </g>
        <g id="Group_26896" data-name="Group 26896" transform="translate(0 1.459)">
          <path id="Path_13350" data-name="Path 13350" d="M16.842,159.872l4.79-4.584-.956-1.014-4.925,4.547Z" transform="translate(-15.752 -154.274)" fill="#ebebeb"/>
        </g>
        <g id="Group_26897" data-name="Group 26897" transform="translate(10.506)">
          <path id="Path_13351" data-name="Path 13351" d="M54.5,152.642,48.5,149.811l-.6,1.257,6.007,2.971Z" transform="translate(-47.901 -149.811)" fill="#ebebeb"/>
        </g>
        <g id="Group_26899" data-name="Group 26899" transform="translate(4.089 5.064)">
          <g id="Group_26898" data-name="Group 26898">
            <path id="Path_13352" data-name="Path 13352" d="M38.5,165.309c.01.035-2.275.7-5.1,1.476s-5.128,1.385-5.138,1.35,2.275-.7,5.1-1.476S38.494,165.274,38.5,165.309Z" transform="translate(-28.264 -165.308)" fill="#e0e0e0"/>
          </g>
        </g>
        <g id="Group_26901" data-name="Group 26901" transform="translate(4.553 6.925)">
          <g id="Group_26900" data-name="Group 26900">
            <path id="Path_13353" data-name="Path 13353" d="M39.924,171c.01.035-2.275.7-5.1,1.476s-5.128,1.385-5.138,1.35,2.275-.7,5.1-1.476S39.914,170.968,39.924,171Z" transform="translate(-29.684 -171.001)" fill="#e0e0e0"/>
          </g>
        </g>
        <g id="Group_26903" data-name="Group 26903" transform="translate(5.062 8.548)">
          <g id="Group_26902" data-name="Group 26902">
            <path id="Path_13354" data-name="Path 13354" d="M41.481,175.969c.01.035-2.275.7-5.1,1.476s-5.128,1.385-5.138,1.35,2.275-.7,5.1-1.476S41.471,175.934,41.481,175.969Z" transform="translate(-31.24 -175.967)" fill="#e0e0e0"/>
          </g>
        </g>
        <g id="Group_26905" data-name="Group 26905" transform="translate(5.485 10.128)">
          <g id="Group_26904" data-name="Group 26904">
            <path id="Path_13355" data-name="Path 13355" d="M42.777,180.806c.01.035-2.275.7-5.1,1.476s-5.128,1.385-5.138,1.35,2.275-.7,5.1-1.476S42.768,180.771,42.777,180.806Z" transform="translate(-32.537 -180.804)" fill="#e0e0e0"/>
          </g>
        </g>
      </g>
      <g id="Group_26916" data-name="Group 26916" transform="translate(96.014 48.013)">
        <g id="Group_26907" data-name="Group 26907" transform="translate(4.917)">
          <path id="Path_13356" data-name="Path 13356" d="M327.546,296.733a2.747,2.747,0,0,0-1.883,1.039,4.851,4.851,0,0,0-.914,1.994,8.571,8.571,0,0,0,.384,4.369,5.8,5.8,0,0,0,2.736-3.048c.617-1.342.917-4.144-.323-4.355" transform="translate(-324.605 -296.733)" fill="#ebebeb"/>
        </g>
        <g id="Group_26908" data-name="Group 26908" transform="translate(0 5.256)">
          <path id="Path_13357" data-name="Path 13357" d="M312.909,316.7a2.347,2.347,0,0,0,.038-2.354,3.112,3.112,0,0,0-1.919-1.45,1.308,1.308,0,0,0-1.1.086,1,1,0,0,0-.357.952,2.035,2.035,0,0,0,.458.951,4.027,4.027,0,0,0,2.881,1.815" transform="translate(-309.559 -312.817)" fill="#ebebeb"/>
        </g>
        <g id="Group_26910" data-name="Group 26910" transform="translate(1.711 6.899)">
          <g id="Group_26909" data-name="Group 26909">
            <path id="Path_13358" data-name="Path 13358" d="M316.41,324.7a1.66,1.66,0,0,0,.058-.288l.129-.79a8.238,8.238,0,0,0,.083-2.643,5.045,5.045,0,0,0-1.052-2.416,3.425,3.425,0,0,0-.583-.555,2.117,2.117,0,0,0-.181-.122c-.043-.026-.066-.038-.068-.035a5.344,5.344,0,0,1,.776.759,5.206,5.206,0,0,1,1.007,2.386,8.875,8.875,0,0,1-.053,2.616c-.043.335-.078.607-.1.795A1.564,1.564,0,0,0,316.41,324.7Z" transform="translate(-314.795 -317.845)" fill="#e0e0e0"/>
          </g>
        </g>
        <g id="Group_26912" data-name="Group 26912" transform="translate(3.261 2.113)">
          <g id="Group_26911" data-name="Group 26911">
            <path id="Path_13359" data-name="Path 13359" d="M323.717,303.2a.622.622,0,0,0-.057.115l-.143.337c-.123.293-.3.72-.5,1.249-.417,1.058-.973,2.527-1.551,4.163s-1.066,3.13-1.4,4.216c-.17.543-.3.983-.391,1.289l-.1.352a.62.62,0,0,0-.028.125.6.6,0,0,0,.048-.119l.118-.347.423-1.278c.356-1.079.856-2.568,1.433-4.2s1.122-3.107,1.522-4.171l.473-1.26.126-.344A.6.6,0,0,0,323.717,303.2Z" transform="translate(-319.537 -303.199)" fill="#e0e0e0"/>
          </g>
        </g>
        <g id="Group_26913" data-name="Group 26913" transform="translate(4.99 7.861)">
          <path id="Path_13360" data-name="Path 13360" d="M324.842,323.576a5.481,5.481,0,0,1,4.171-2.774c.44-.046.972.012,1.181.4a1.136,1.136,0,0,1-.33,1.2,4.68,4.68,0,0,1-5.034,1.287" transform="translate(-324.83 -320.789)" fill="#ebebeb"/>
        </g>
        <g id="Group_26915" data-name="Group 26915" transform="translate(3.468 9.073)">
          <g id="Group_26914" data-name="Group 26914">
            <path id="Path_13361" data-name="Path 13361" d="M325.241,324.5a1.407,1.407,0,0,0-.275.018,2.645,2.645,0,0,0-.321.047c-.123.027-.267.045-.42.092a4.762,4.762,0,0,0-.5.155,5.4,5.4,0,0,0-.553.23,6.1,6.1,0,0,0-1.159.736,5.977,5.977,0,0,0-.946,1,5.207,5.207,0,0,0-.328.5,4.423,4.423,0,0,0-.242.463,4.124,4.124,0,0,0-.164.4,2.464,2.464,0,0,0-.1.309,1.409,1.409,0,0,0-.064.269c.022.007.117-.377.393-.944a4.786,4.786,0,0,1,.249-.45,5.447,5.447,0,0,1,.331-.489,6.2,6.2,0,0,1,.935-.973,6.34,6.34,0,0,1,1.135-.73,5.666,5.666,0,0,1,.541-.235c.171-.072.337-.118.488-.165C324.851,324.556,325.244,324.522,325.241,324.5Z" transform="translate(-320.17 -324.497)" fill="#e0e0e0"/>
          </g>
        </g>
      </g>
    </g>
    <g id="Floor" transform="translate(19.885 135.914)">
      <g id="Group_26918" data-name="Group 26918">
        <g id="Group_26917" data-name="Group 26917">
          <path id="Path_13362" data-name="Path 13362" d="M134.925,338.83c0,.036-23.849.065-53.261.065S28.4,338.866,28.4,338.83s23.843-.065,53.266-.065S134.925,338.794,134.925,338.83Z" transform="translate(-28.399 -338.765)" fill="#263238"/>
        </g>
      </g>
    </g>
    <g id="Notes" transform="translate(27.589 37.445)">
      <g id="Group_26977" data-name="Group 26977" transform="translate(42.787 4.117)">
        <path id="Path_13363" data-name="Path 13363" d="M186.544,55.9l.108,2.016a1.712,1.712,0,0,1,1.1-.478,1.747,1.747,0,0,1,.186,3.489,1.711,1.711,0,0,1-1.142-.358l.108,2.021a1.712,1.712,0,0,1,1.1-.478,1.747,1.747,0,0,1,.186,3.489,1.71,1.71,0,0,1-1.142-.358l.108,2.022a1.712,1.712,0,0,1,1.1-.478,1.747,1.747,0,0,1,.186,3.489,1.71,1.71,0,0,1-1.142-.358l.108,2.022a1.71,1.71,0,0,1,1.1-.478,1.747,1.747,0,0,1,.186,3.489,1.71,1.71,0,0,1-1.142-.358l.108,2.022a1.71,1.71,0,0,1,1.1-.478,1.747,1.747,0,0,1,.187,3.489,1.711,1.711,0,0,1-1.142-.358l.108,2.021a1.711,1.711,0,0,1,1.1-.478,1.747,1.747,0,0,1,.187,3.489,1.711,1.711,0,0,1-1.142-.358l.067,1.254,53.8-1.292-2.726-31.367Z" transform="translate(-185.354 -51.723)" fill="#ebebeb"/>
        <g id="Group_26976" data-name="Group 26976">
          <g id="Group_26949" data-name="Group 26949">
            <g id="Group_26919" data-name="Group 26919">
              <path id="Path_13364" data-name="Path 13364" d="M182.9,52.925l.108,2.016a1.711,1.711,0,0,1,1.1-.478,1.747,1.747,0,0,1,.186,3.489,1.711,1.711,0,0,1-1.142-.358l.108,2.021a1.711,1.711,0,0,1,1.1-.477,1.747,1.747,0,0,1,.186,3.489,1.711,1.711,0,0,1-1.142-.358l.108,2.021a1.71,1.71,0,0,1,1.1-.478,1.747,1.747,0,0,1,.186,3.489,1.713,1.713,0,0,1-1.142-.358l.108,2.021a1.712,1.712,0,0,1,1.1-.478,1.747,1.747,0,0,1,.186,3.489,1.713,1.713,0,0,1-1.142-.358l.108,2.021a1.712,1.712,0,0,1,1.1-.478,1.747,1.747,0,0,1,.186,3.489,1.711,1.711,0,0,1-1.142-.358l.108,2.021a1.712,1.712,0,0,1,1.1-.478,1.747,1.747,0,0,1,.187,3.489,1.711,1.711,0,0,1-1.142-.358l.067,1.254,53.79-2.881-1.567-29.3Z" transform="translate(-182.903 -50.045)" fill="#f5f5f5"/>
            </g>
            <g id="Group_26921" data-name="Group 26921" transform="translate(0.31 5.796)">
              <g id="Group_26920" data-name="Group 26920">
                <path id="Path_13365" data-name="Path 13365" d="M237.642,67.783c0,.036-12.039.71-26.89,1.505s-26.9,1.411-26.9,1.375,12.036-.71,26.893-1.506S237.64,67.748,237.642,67.783Z" transform="translate(-183.852 -67.782)" fill="#e0e0e0"/>
              </g>
            </g>
            <g id="Group_26923" data-name="Group 26923" transform="translate(0.561 10.484)">
              <g id="Group_26922" data-name="Group 26922">
                <path id="Path_13366" data-name="Path 13366" d="M238.409,82.128c0,.036-12.039.71-26.89,1.505s-26.9,1.411-26.9,1.375,12.036-.71,26.893-1.505S238.407,82.092,238.409,82.128Z" transform="translate(-184.619 -82.127)" fill="#e0e0e0"/>
              </g>
            </g>
            <g id="Group_26925" data-name="Group 26925" transform="translate(0.811 15.172)">
              <g id="Group_26924" data-name="Group 26924">
                <path id="Path_13367" data-name="Path 13367" d="M239.175,96.474c0,.036-12.039.71-26.89,1.505s-26.9,1.411-26.9,1.375,12.036-.71,26.893-1.505S239.173,96.437,239.175,96.474Z" transform="translate(-185.385 -96.472)" fill="#e0e0e0"/>
              </g>
            </g>
            <g id="Group_26927" data-name="Group 26927" transform="translate(1.062 19.86)">
              <g id="Group_26926" data-name="Group 26926">
                <path id="Path_13368" data-name="Path 13368" d="M239.943,110.818c0,.036-12.039.71-26.891,1.506s-26.9,1.411-26.9,1.375,12.036-.71,26.893-1.506S239.941,110.782,239.943,110.818Z" transform="translate(-186.152 -110.816)" fill="#e0e0e0"/>
              </g>
            </g>
            <g id="Group_26929" data-name="Group 26929" transform="translate(1.312 24.548)">
              <g id="Group_26928" data-name="Group 26928">
                <path id="Path_13369" data-name="Path 13369" d="M240.709,125.163c0,.036-12.039.71-26.89,1.505s-26.9,1.411-26.9,1.375,12.036-.71,26.893-1.506S240.708,125.127,240.709,125.163Z" transform="translate(-186.919 -125.162)" fill="#e0e0e0"/>
              </g>
            </g>
            <g id="Group_26930" data-name="Group 26930" transform="translate(7.416 2.477)">
              <rect id="Rectangle_1259" data-name="Rectangle 1259" width="0.125" height="29.343" transform="matrix(0.999, -0.053, 0.053, 0.999, 0, 0.007)" fill="#276ef1"/>
            </g>
            <g id="Group_26932" data-name="Group 26932" transform="translate(12.349 2.219)">
              <g id="Group_26931" data-name="Group 26931">
                <path id="Path_13370" data-name="Path 13370" d="M222.261,86.136c-.036,0-.416-6.556-.848-14.646s-.754-14.653-.718-14.655.416,6.555.848,14.648S222.3,86.134,222.261,86.136Z" transform="translate(-220.691 -56.835)" fill="#e0e0e0"/>
              </g>
            </g>
            <g id="Group_26934" data-name="Group 26934" transform="translate(2.773 2.732)">
              <g id="Group_26933" data-name="Group 26933">
                <path id="Path_13371" data-name="Path 13371" d="M192.958,87.705c-.036,0-.416-6.556-.848-14.646s-.754-14.653-.718-14.655.416,6.555.848,14.648S192.994,87.7,192.958,87.705Z" transform="translate(-191.389 -58.404)" fill="#e0e0e0"/>
              </g>
            </g>
            <g id="Group_26936" data-name="Group 26936" transform="translate(17.593 1.938)">
              <g id="Group_26935" data-name="Group 26935">
                <path id="Path_13372" data-name="Path 13372" d="M238.309,85.277c-.036,0-.416-6.556-.848-14.647s-.754-14.653-.718-14.655.416,6.555.848,14.648S238.345,85.275,238.309,85.277Z" transform="translate(-236.74 -55.976)" fill="#e0e0e0"/>
              </g>
            </g>
            <g id="Group_26938" data-name="Group 26938" transform="translate(22.838 1.657)">
              <g id="Group_26937" data-name="Group 26937">
                <path id="Path_13373" data-name="Path 13373" d="M254.357,84.417c-.036,0-.416-6.556-.848-14.646s-.754-14.653-.718-14.655.416,6.555.848,14.648S254.393,84.415,254.357,84.417Z" transform="translate(-252.788 -55.116)" fill="#e0e0e0"/>
              </g>
            </g>
            <g id="Group_26940" data-name="Group 26940" transform="translate(28.082 1.376)">
              <g id="Group_26939" data-name="Group 26939">
                <path id="Path_13374" data-name="Path 13374" d="M270.405,83.558c-.036,0-.416-6.556-.848-14.646s-.754-14.653-.718-14.655.416,6.555.848,14.648S270.441,83.556,270.405,83.558Z" transform="translate(-268.836 -54.257)" fill="#e0e0e0"/>
              </g>
            </g>
            <g id="Group_26942" data-name="Group 26942" transform="translate(33.327 1.096)">
              <g id="Group_26941" data-name="Group 26941">
                <path id="Path_13375" data-name="Path 13375" d="M286.454,82.7c-.036,0-.416-6.556-.848-14.646s-.754-14.653-.718-14.655.416,6.555.848,14.648S286.489,82.7,286.454,82.7Z" transform="translate(-284.884 -53.398)" fill="#e0e0e0"/>
              </g>
            </g>
            <g id="Group_26944" data-name="Group 26944" transform="translate(38.571 0.815)">
              <g id="Group_26943" data-name="Group 26943">
                <path id="Path_13376" data-name="Path 13376" d="M302.5,81.839c-.036,0-.416-6.556-.848-14.646s-.754-14.653-.718-14.655.416,6.555.848,14.648S302.537,81.837,302.5,81.839Z" transform="translate(-300.932 -52.538)" fill="#e0e0e0"/>
              </g>
            </g>
            <g id="Group_26946" data-name="Group 26946" transform="translate(43.815 0.534)">
              <g id="Group_26945" data-name="Group 26945">
                <path id="Path_13377" data-name="Path 13377" d="M318.55,80.979c-.036,0-.416-6.556-.848-14.646s-.754-14.653-.718-14.655.416,6.555.848,14.648S318.586,80.978,318.55,80.979Z" transform="translate(-316.98 -51.678)" fill="#e0e0e0"/>
              </g>
            </g>
            <g id="Group_26948" data-name="Group 26948" transform="translate(49.06 0.253)">
              <g id="Group_26947" data-name="Group 26947">
                <path id="Path_13378" data-name="Path 13378" d="M334.6,80.12c-.036,0-.416-6.556-.848-14.647s-.754-14.653-.718-14.655.416,6.555.848,14.648S334.634,80.118,334.6,80.12Z" transform="translate(-333.029 -50.819)" fill="#e0e0e0"/>
              </g>
            </g>
          </g>
          <g id="Group_26951" data-name="Group 26951" transform="translate(12.198 11.808)">
            <g id="Group_26950" data-name="Group 26950">
              <path id="Path_13379" data-name="Path 13379" d="M258.007,86.18a.563.563,0,0,1-.1.012l-.286.022-1.1.07-4.046.232c-3.417.189-8.138.44-13.353.7s-9.94.473-13.361.6c-1.71.065-3.094.109-4.051.125a6.921,6.921,0,0,1-1.483-.036,1.609,1.609,0,0,0,.38.014c.252,0,.623-.013,1.1-.029.956-.032,2.339-.09,4.049-.167l13.358-.642,13.355-.66,4.048-.191,1.1-.046.286-.009A.538.538,0,0,1,258.007,86.18Z" transform="translate(-220.229 -86.178)" fill="#263238"/>
            </g>
          </g>
          <g id="Group_26953" data-name="Group 26953" transform="translate(12.282 17.162)">
            <g id="Group_26952" data-name="Group 26952">
              <path id="Path_13380" data-name="Path 13380" d="M259.27,102.562c0,.036-8.679.464-19.387.955s-19.393.861-19.395.825,8.678-.463,19.389-.955S259.268,102.527,259.27,102.562Z" transform="translate(-220.488 -102.56)" fill="#263238"/>
            </g>
          </g>
          <g id="Group_26955" data-name="Group 26955" transform="translate(12.857 21.849)">
            <g id="Group_26954" data-name="Group 26954">
              <path id="Path_13381" data-name="Path 13381" d="M261.028,116.907c0,.036-8.679.464-19.387.955s-19.393.861-19.4.825,8.678-.464,19.389-.955S261.027,116.872,261.028,116.907Z" transform="translate(-222.246 -116.905)" fill="#263238"/>
            </g>
          </g>
          <g id="Group_26956" data-name="Group 26956" transform="translate(6.021 3.367)">
            <path id="Path_13382" data-name="Path 13382" d="M201.328,62.935a4.709,4.709,0,0,0,1.719,3.018,3.076,3.076,0,1,0,1.131-5.549" transform="translate(-201.328 -60.348)" fill="#e0e0e0"/>
          </g>
          <g id="Group_26965" data-name="Group 26965" transform="translate(4.484 3.364)">
            <g id="Group_26957" data-name="Group 26957" transform="translate(1.405)">
              <path id="Path_13383" data-name="Path 13383" d="M200.924,62.919a2.447,2.447,0,1,0,2.313-2.577A2.448,2.448,0,0,0,200.924,62.919Z" transform="translate(-200.921 -60.339)" fill="#455a64"/>
            </g>
            <g id="Group_26958" data-name="Group 26958" transform="translate(0 0.126)">
              <path id="Path_13384" data-name="Path 13384" d="M196.625,62.274a1.469,1.469,0,1,0,1.388-1.546A1.469,1.469,0,0,0,196.625,62.274Z" transform="translate(-196.623 -60.725)" fill="#455a64"/>
            </g>
            <g id="Group_26960" data-name="Group 26960" transform="translate(1.37 0.425)">
              <g id="Group_26959" data-name="Group 26959">
                <path id="Path_13385" data-name="Path 13385" d="M200.815,64.249a2.613,2.613,0,0,0,.553-.062,1.412,1.412,0,0,0,.934-.857,1.513,1.513,0,0,0-.158-1.267,2.92,2.92,0,0,0-.364-.422c0-.007.056.014.14.07a1.211,1.211,0,0,1,.3.3,1.526,1.526,0,0,1,.2,1.362,1.413,1.413,0,0,1-.46.631,1.443,1.443,0,0,1-.574.272,1.156,1.156,0,0,1-.426.018C200.865,64.278,200.814,64.256,200.815,64.249Z" transform="translate(-200.815 -61.639)" fill="#263238"/>
              </g>
            </g>
            <g id="Group_26962" data-name="Group 26962" transform="translate(2.6 0.324)">
              <g id="Group_26961" data-name="Group 26961">
                <path id="Path_13386" data-name="Path 13386" d="M204.579,61.7a1.583,1.583,0,0,0,1.614-.371c.013.009-.031.106-.15.226a1.21,1.21,0,0,1-1.231.283C204.653,61.784,204.571,61.717,204.579,61.7Z" transform="translate(-204.579 -61.33)" fill="#263238"/>
              </g>
            </g>
            <g id="Group_26964" data-name="Group 26964" transform="translate(1.538 3.036)">
              <g id="Group_26963" data-name="Group 26963">
                <path id="Path_13387" data-name="Path 13387" d="M202.769,71.012c-.02,0-.039-.119-.107-.3a1.584,1.584,0,0,0-1.032-.976c-.182-.058-.3-.069-.3-.089s.125-.037.325,0a1.418,1.418,0,0,1,1.1,1.038C202.8,70.885,202.785,71.012,202.769,71.012Z" transform="translate(-201.328 -69.63)" fill="#263238"/>
              </g>
            </g>
          </g>
          <g id="Group_26966" data-name="Group 26966" transform="translate(47.369 1.638)">
            <path id="Path_13388" data-name="Path 13388" d="M327.854,57.646a4.708,4.708,0,0,0,1.719,3.018,3.076,3.076,0,1,0,1.131-5.549" transform="translate(-327.854 -55.058)" fill="#e0e0e0"/>
          </g>
          <g id="Group_26975" data-name="Group 26975" transform="translate(47.369 1.202)">
            <g id="Group_26967" data-name="Group 26967" transform="translate(0 0.119)">
              <path id="Path_13389" data-name="Path 13389" d="M332.581,56.327a2.365,2.365,0,1,1-2.488-2.237A2.367,2.367,0,0,1,332.581,56.327Z" transform="translate(-327.854 -54.087)" fill="#276ef1"/>
            </g>
            <g id="Group_26968" data-name="Group 26968" transform="translate(3.148)">
              <ellipse id="Ellipse_731" data-name="Ellipse 731" cx="1.419" cy="1.42" rx="1.419" ry="1.42" fill="#276ef1"/>
            </g>
            <g id="Group_26970" data-name="Group 26970" transform="translate(3.039 0.385)">
              <g id="Group_26969" data-name="Group 26969">
                <path id="Path_13390" data-name="Path 13390" d="M338.925,57.307c0,.007-.045.034-.139.06a1.114,1.114,0,0,1-.411.028,1.4,1.4,0,0,1-.581-.2,1.364,1.364,0,0,1-.508-.559,1.473,1.473,0,0,1,.057-1.331.857.857,0,0,1,.386-.4,2.907,2.907,0,0,0-.3.444,1.462,1.462,0,0,0-.021,1.232,1.364,1.364,0,0,0,.984.726A2.6,2.6,0,0,0,338.925,57.307Z" transform="translate(-337.153 -54.899)" fill="#263238"/>
              </g>
            </g>
            <g id="Group_26972" data-name="Group 26972" transform="translate(1.796 0.481)">
              <g id="Group_26971" data-name="Group 26971">
                <path id="Path_13391" data-name="Path 13391" d="M334.941,55.385c.009.013-.062.087-.21.158a1.168,1.168,0,0,1-1.213-.145c-.127-.1-.179-.192-.167-.2a1.543,1.543,0,0,0,1.59.19Z" transform="translate(-333.349 -55.193)" fill="#263238"/>
              </g>
            </g>
            <g id="Group_26974" data-name="Group 26974" transform="translate(3.38 2.819)">
              <g id="Group_26973" data-name="Group 26973">
                <path id="Path_13392" data-name="Path 13392" d="M338.224,63.818c-.016,0-.043-.119-.017-.314a1.368,1.368,0,0,1,.948-1.111c.188-.056.311-.048.312-.032s-.112.044-.28.118a1.536,1.536,0,0,0-.89,1.043C338.25,63.7,338.244,63.818,338.224,63.818Z" transform="translate(-338.196 -62.349)" fill="#263238"/>
              </g>
            </g>
          </g>
        </g>
      </g>
      <g id="Group_26993" data-name="Group 26993" transform="translate(0 0)">
        <g id="Group_26982" data-name="Group 26982" transform="translate(0 1.577)">
          <g id="Group_26978" data-name="Group 26978" transform="translate(1.186 1.667)">
            <path id="Path_13393" data-name="Path 13393" d="M61.029,47.372,55.6,74.575c2.519,2.522,5.188,4.9,9.476,5.779L85.7,83.828,90.3,51.865Z" transform="translate(-55.603 -47.372)" fill="#e0e0e0"/>
          </g>
          <g id="Group_26979" data-name="Group 26979" transform="translate(0)">
            <path id="Path_13394" data-name="Path 13394" d="M57.4,42.27l-5.426,27.2,9.476,5.779L82.07,78.726l5.859-30.693Z" transform="translate(-51.974 -42.27)" fill="#276ef1"/>
          </g>
          <g id="Group_26980" data-name="Group 26980" transform="translate(0 25.726)">
            <path id="Path_13395" data-name="Path 13395" d="M55.8,120.992l-3.828,1.477a11.933,11.933,0,0,0,3.431,3.462,17.21,17.21,0,0,0,6.044,2.317A11.459,11.459,0,0,1,55.8,120.992Z" transform="translate(-51.974 -120.992)" fill="#276ef1"/>
          </g>
          <g id="Group_26981" data-name="Group 26981" transform="translate(0 25.726)" opacity="0.3">
            <path id="Path_13396" data-name="Path 13396" d="M55.8,120.992c-1.478,1.007-3.1,2.249-3.828,1.477a11.933,11.933,0,0,0,3.431,3.462,17.21,17.21,0,0,0,6.044,2.317A11.459,11.459,0,0,1,55.8,120.992Z" transform="translate(-51.974 -120.992)"/>
          </g>
        </g>
        <g id="Group_26983" data-name="Group 26983" transform="translate(1.186)">
          <path id="Path_13397" data-name="Path 13397" d="M56.755,44.876,70.8,40.4l-.92-2.959L55.6,41.711Z" transform="translate(-55.603 -37.445)" fill="#e0e0e0"/>
        </g>
        <g id="Group_26984" data-name="Group 26984" transform="translate(26.807 3.134)">
          <path id="Path_13398" data-name="Path 13398" d="M145.642,58.551l-9.207-11.517L134,48.955l9.1,11.808Z" transform="translate(-134.005 -47.035)" fill="#e0e0e0"/>
        </g>
        <g id="Group_26986" data-name="Group 26986" transform="translate(7.512 12.03)">
          <g id="Group_26985" data-name="Group 26985">
            <path id="Path_13399" data-name="Path 13399" d="M98.174,78.629c-.007.035-5.209-.914-11.617-2.121s-11.6-2.214-11.595-2.249,5.208.914,11.619,2.121S98.18,78.594,98.174,78.629Z" transform="translate(-74.962 -74.258)" fill="#263238"/>
          </g>
        </g>
        <g id="Group_26988" data-name="Group 26988" transform="translate(6.622 16.201)">
          <g id="Group_26987" data-name="Group 26987" transform="translate(0 0)">
            <path id="Path_13400" data-name="Path 13400" d="M95.451,91.391c-.007.036-5.209-.914-11.617-2.121s-11.6-2.214-11.595-2.249,5.208.914,11.619,2.121S95.457,91.356,95.451,91.391Z" transform="translate(-72.239 -87.02)" fill="#263238"/>
          </g>
        </g>
        <g id="Group_26990" data-name="Group 26990" transform="translate(6.054 19.94)">
          <g id="Group_26989" data-name="Group 26989">
            <path id="Path_13401" data-name="Path 13401" d="M93.712,102.832c-.007.035-5.209-.914-11.617-2.121S70.494,98.5,70.5,98.462s5.208.914,11.619,2.121S93.719,102.8,93.712,102.832Z" transform="translate(-70.5 -98.461)" fill="#263238"/>
          </g>
        </g>
        <g id="Group_26992" data-name="Group 26992" transform="translate(5.357 23.511)">
          <g id="Group_26991" data-name="Group 26991">
            <path id="Path_13402" data-name="Path 13402" d="M91.58,113.761c-.007.036-5.209-.914-11.617-2.121s-11.6-2.214-11.595-2.249,5.208.914,11.619,2.121S91.587,113.726,91.58,113.761Z" transform="translate(-68.368 -109.39)" fill="#263238"/>
          </g>
        </g>
      </g>
      <g id="Group_27001" data-name="Group 27001" transform="translate(50.399 42.277)">
        <g id="Group_26994" data-name="Group 26994" transform="translate(0.027 4.168)">
          <path id="Path_13403" data-name="Path 13403" d="M206.279,190.068l43.977,5.613-.591-16.111Z" transform="translate(-206.279 -179.57)" fill="#e0e0e0"/>
        </g>
        <g id="Group_26995" data-name="Group 26995" transform="translate(0 0.966)">
          <rect id="Rectangle_1260" data-name="Rectangle 1260" width="42.364" height="14.073" transform="matrix(0.997, 0.083, -0.083, 0.997, 1.169, 0)" fill="#455a64"/>
        </g>
        <g id="Group_26997" data-name="Group 26997" transform="translate(5.858 6.058)">
          <g id="Group_26996" data-name="Group 26996">
            <path id="Path_13404" data-name="Path 13404" d="M255.714,187.992c0,.036-7.078-.526-15.8-1.254s-15.795-1.348-15.792-1.384,7.077.526,15.8,1.254S255.717,187.956,255.714,187.992Z" transform="translate(-224.121 -185.352)" fill="#263238"/>
          </g>
        </g>
        <g id="Group_26999" data-name="Group 26999" transform="translate(5.774 9.718)">
          <g id="Group_26998" data-name="Group 26998">
            <path id="Path_13405" data-name="Path 13405" d="M255.46,199.194c0,.036-7.078-.526-15.8-1.254s-15.795-1.348-15.792-1.384,7.077.526,15.8,1.254S255.463,199.158,255.46,199.194Z" transform="translate(-223.867 -196.554)" fill="#263238"/>
          </g>
        </g>
        <g id="Group_27000" data-name="Group 27000" transform="translate(13.016)">
          <path id="Path_13406" data-name="Path 13406" d="M246.693,166.815l16.358,1.366-.863.73,1.121.976-1.334.611,1.194,1.063-17.145-1.432,1.07-.905-.532-.971.92-.469Z" transform="translate(-246.025 -166.815)" fill="#ebebeb"/>
        </g>
      </g>
      <g id="Group_27090" data-name="Group 27090" transform="translate(11.43 45.548)">
        <g id="Group_27002" data-name="Group 27002" transform="translate(0.5 1.074)">
          <path id="Path_13407" data-name="Path 13407" d="M120.469,180.111a1.9,1.9,0,1,1-3.266,0H115a1.9,1.9,0,1,1-3.266,0h-2.2a1.9,1.9,0,1,1-3.266,0h-2.2a1.9,1.9,0,1,1-3.266,0h-2.2a1.9,1.9,0,1,1-3.266,0h-2.2a1.9,1.9,0,1,1-3.266,0h-1.38v39.309l34.357,1.885L121.2,180.111Z" transform="translate(-88.478 -180.111)" fill="#e0e0e0"/>
        </g>
        <g id="Group_27075" data-name="Group 27075">
          <g id="Group_27064" data-name="Group 27064">
            <g id="Group_27063" data-name="Group 27063" clip-path="url(#clip-path)">
              <g id="Group_27003" data-name="Group 27003">
                <path id="Path_13408" data-name="Path 13408" d="M118.94,176.825a1.9,1.9,0,1,1-3.266,0h-2.2a1.9,1.9,0,1,1-3.266,0H108a1.9,1.9,0,1,1-3.266,0h-2.2a1.9,1.9,0,1,1-3.266,0h-2.2a1.9,1.9,0,1,1-3.266,0H91.6a1.9,1.9,0,1,1-3.266,0h-1.38v39.309h32.719V176.825Z" transform="translate(-86.949 -176.825)" fill="#f5f5f5"/>
              </g>
              <g id="Group_27005" data-name="Group 27005" transform="translate(-2.44 -1.434)">
                <g id="Group_27004" data-name="Group 27004">
                  <path id="Path_13409" data-name="Path 13409" d="M79.929,214.99c-.036,0-.162-9.526-.282-21.275s-.188-21.278-.152-21.278.163,9.524.283,21.277S79.965,214.99,79.929,214.99Z" transform="translate(-79.484 -172.437)" fill="#e0e0e0"/>
                </g>
              </g>
              <g id="Group_27007" data-name="Group 27007" transform="translate(2.812 -1.488)">
                <g id="Group_27006" data-name="Group 27006">
                  <path id="Path_13410" data-name="Path 13410" d="M96,214.826c-.036,0-.163-9.526-.282-21.275s-.188-21.278-.152-21.278.162,9.524.282,21.277S96.035,214.825,96,214.826Z" transform="translate(-95.555 -172.272)" fill="#e0e0e0"/>
                </g>
              </g>
              <g id="Group_27009" data-name="Group 27009" transform="translate(5.42 -1.488)">
                <g id="Group_27008" data-name="Group 27008">
                  <path id="Path_13411" data-name="Path 13411" d="M103.98,214.826c-.036,0-.162-9.526-.282-21.275s-.188-21.278-.152-21.278.162,9.524.282,21.277S104.016,214.825,103.98,214.826Z" transform="translate(-103.536 -172.272)" fill="#e0e0e0"/>
                </g>
              </g>
              <g id="Group_27011" data-name="Group 27011" transform="translate(10.728 -1.488)">
                <g id="Group_27010" data-name="Group 27010">
                  <path id="Path_13412" data-name="Path 13412" d="M120.221,214.826c-.036,0-.163-9.526-.282-21.275s-.188-21.278-.152-21.278.162,9.524.282,21.277S120.257,214.825,120.221,214.826Z" transform="translate(-119.776 -172.272)" fill="#e0e0e0"/>
                </g>
              </g>
              <g id="Group_27013" data-name="Group 27013" transform="translate(16.035 -1.488)">
                <g id="Group_27012" data-name="Group 27012">
                  <path id="Path_13413" data-name="Path 13413" d="M136.462,214.826c-.036,0-.162-9.526-.282-21.275s-.188-21.278-.152-21.278.162,9.524.282,21.277S136.5,214.825,136.462,214.826Z" transform="translate(-136.018 -172.272)" fill="#e0e0e0"/>
                </g>
              </g>
              <g id="Group_27015" data-name="Group 27015" transform="translate(21.342 -1.488)">
                <g id="Group_27014" data-name="Group 27014">
                  <path id="Path_13414" data-name="Path 13414" d="M152.7,214.826c-.036,0-.163-9.526-.282-21.275s-.188-21.278-.152-21.278.162,9.524.282,21.277S152.738,214.825,152.7,214.826Z" transform="translate(-152.258 -172.272)" fill="#e0e0e0"/>
                </g>
              </g>
              <g id="Group_27017" data-name="Group 27017" transform="translate(26.378 -1.488)">
                <g id="Group_27016" data-name="Group 27016">
                  <path id="Path_13415" data-name="Path 13415" d="M168.112,214.826c-.036,0-.163-9.526-.282-21.275s-.188-21.278-.152-21.278.162,9.524.282,21.277S168.148,214.825,168.112,214.826Z" transform="translate(-167.668 -172.272)" fill="#e0e0e0"/>
                </g>
              </g>
              <g id="Group_27019" data-name="Group 27019" transform="translate(31.414 -1.488)">
                <g id="Group_27018" data-name="Group 27018">
                  <path id="Path_13416" data-name="Path 13416" d="M183.523,214.826c-.036,0-.163-9.526-.283-21.275s-.188-21.278-.152-21.278.162,9.524.282,21.277S183.559,214.825,183.523,214.826Z" transform="translate(-183.079 -172.272)" fill="#e0e0e0"/>
                </g>
              </g>
              <g id="Group_27021" data-name="Group 27021" transform="translate(8.064 -1.541)">
                <g id="Group_27020" data-name="Group 27020">
                  <path id="Path_13417" data-name="Path 13417" d="M112.069,214.662c-.036,0-.163-9.526-.283-21.275s-.188-21.278-.152-21.278.162,9.524.282,21.277S112.105,214.661,112.069,214.662Z" transform="translate(-111.625 -172.108)" fill="#e0e0e0"/>
                </g>
              </g>
              <g id="Group_27023" data-name="Group 27023" transform="translate(13.315 -1.595)">
                <g id="Group_27022" data-name="Group 27022">
                  <path id="Path_13418" data-name="Path 13418" d="M128.14,214.5c-.036,0-.163-9.526-.283-21.275s-.188-21.278-.152-21.278.162,9.524.282,21.277S128.175,214.5,128.14,214.5Z" transform="translate(-127.695 -171.944)" fill="#e0e0e0"/>
                </g>
              </g>
              <g id="Group_27025" data-name="Group 27025" transform="translate(18.567 -1.649)">
                <g id="Group_27024" data-name="Group 27024">
                  <path id="Path_13419" data-name="Path 13419" d="M144.21,214.333c-.036,0-.162-9.526-.282-21.275s-.188-21.278-.152-21.278.162,9.524.282,21.277S144.246,214.332,144.21,214.333Z" transform="translate(-143.766 -171.779)" fill="#e0e0e0"/>
                </g>
              </g>
              <g id="Group_27027" data-name="Group 27027" transform="translate(23.819 -1.703)">
                <g id="Group_27026" data-name="Group 27026">
                  <path id="Path_13420" data-name="Path 13420" d="M160.28,214.168c-.036,0-.162-9.526-.282-21.275s-.188-21.278-.152-21.278.163,9.524.283,21.277S160.316,214.168,160.28,214.168Z" transform="translate(-159.836 -171.615)" fill="#e0e0e0"/>
                </g>
              </g>
              <g id="Group_27029" data-name="Group 27029" transform="translate(28.853 -1.434)">
                <g id="Group_27028" data-name="Group 27028">
                  <path id="Path_13421" data-name="Path 13421" d="M175.685,214.99c-.036,0-.162-9.526-.282-21.275s-.188-21.278-.152-21.278.163,9.524.283,21.277S175.721,214.99,175.685,214.99Z" transform="translate(-175.241 -172.437)" fill="#e0e0e0"/>
                </g>
              </g>
              <g id="Group_27031" data-name="Group 27031" transform="translate(34.322 -1.81)">
                <g id="Group_27030" data-name="Group 27030">
                  <path id="Path_13422" data-name="Path 13422" d="M192.421,213.839c-.036,0-.163-9.526-.282-21.275s-.188-21.278-.152-21.278.162,9.524.282,21.277S192.457,213.839,192.421,213.839Z" transform="translate(-191.976 -171.285)" fill="#e0e0e0"/>
                </g>
              </g>
              <g id="Group_27033" data-name="Group 27033" transform="translate(-2.116 35.746)">
                <g id="Group_27032" data-name="Group 27032">
                  <path id="Path_13423" data-name="Path 13423" d="M122.992,286.221c0,.036-9.518.16-21.257.278s-21.259.184-21.26.147,9.516-.16,21.259-.278S122.991,286.185,122.992,286.221Z" transform="translate(-80.475 -286.211)" fill="#e0e0e0"/>
                </g>
              </g>
              <g id="Group_27035" data-name="Group 27035" transform="translate(-1.895 38.434)">
                <g id="Group_27034" data-name="Group 27034">
                  <path id="Path_13424" data-name="Path 13424" d="M123.666,294.446c0,.036-9.518.16-21.257.278s-21.26.184-21.26.147,9.516-.161,21.259-.278S123.666,294.41,123.666,294.446Z" transform="translate(-81.15 -294.436)" fill="#e0e0e0"/>
                </g>
              </g>
              <g id="Group_27037" data-name="Group 27037" transform="translate(-2.168 30.49)">
                <g id="Group_27036" data-name="Group 27036">
                  <path id="Path_13425" data-name="Path 13425" d="M122.831,270.137c0,.036-9.518.16-21.256.278s-21.26.184-21.26.148,9.516-.161,21.258-.278S122.831,270.1,122.831,270.137Z" transform="translate(-80.315 -270.127)" fill="#e0e0e0"/>
                </g>
              </g>
              <g id="Group_27039" data-name="Group 27039" transform="translate(-2.221 25.234)">
                <g id="Group_27038" data-name="Group 27038">
                  <path id="Path_13426" data-name="Path 13426" d="M122.671,254.053c0,.036-9.518.16-21.257.278s-21.26.184-21.26.147,9.516-.16,21.259-.278S122.67,254.016,122.671,254.053Z" transform="translate(-80.154 -254.043)" fill="#e0e0e0"/>
                </g>
              </g>
              <g id="Group_27041" data-name="Group 27041" transform="translate(-2.273 19.978)">
                <g id="Group_27040" data-name="Group 27040">
                  <path id="Path_13427" data-name="Path 13427" d="M122.51,237.968c0,.036-9.518.161-21.257.278s-21.26.184-21.26.147,9.516-.16,21.259-.278S122.51,237.932,122.51,237.968Z" transform="translate(-79.994 -237.958)" fill="#e0e0e0"/>
                </g>
              </g>
              <g id="Group_27043" data-name="Group 27043" transform="translate(-2.326 14.722)">
                <g id="Group_27042" data-name="Group 27042">
                  <path id="Path_13428" data-name="Path 13428" d="M122.349,221.884c0,.036-9.518.161-21.257.278s-21.259.183-21.26.147,9.516-.16,21.259-.278S122.349,221.848,122.349,221.884Z" transform="translate(-79.833 -221.874)" fill="#e0e0e0"/>
                </g>
              </g>
              <g id="Group_27045" data-name="Group 27045" transform="translate(-2.378 9.465)">
                <g id="Group_27044" data-name="Group 27044">
                  <path id="Path_13429" data-name="Path 13429" d="M122.189,205.8c0,.036-9.518.161-21.256.278s-21.26.183-21.26.147,9.516-.16,21.258-.278S122.189,205.763,122.189,205.8Z" transform="translate(-79.673 -205.789)" fill="#e0e0e0"/>
                </g>
              </g>
              <g id="Group_27047" data-name="Group 27047" transform="translate(-2.43 4.209)">
                <g id="Group_27046" data-name="Group 27046">
                  <path id="Path_13430" data-name="Path 13430" d="M122.029,189.715c0,.036-9.518.161-21.257.278s-21.26.183-21.26.147,9.516-.161,21.259-.278S122.028,189.679,122.029,189.715Z" transform="translate(-79.512 -189.705)" fill="#e0e0e0"/>
                </g>
              </g>
              <g id="Group_27049" data-name="Group 27049" transform="translate(-2.43 2.104)">
                <g id="Group_27048" data-name="Group 27048">
                  <path id="Path_13431" data-name="Path 13431" d="M122.029,183.273c0,.036-9.518.16-21.257.278s-21.26.184-21.26.148,9.516-.161,21.259-.278S122.028,183.237,122.029,183.273Z" transform="translate(-79.512 -183.263)" fill="#e0e0e0"/>
                </g>
              </g>
              <g id="Group_27051" data-name="Group 27051" transform="translate(-2.43 6.895)">
                <g id="Group_27050" data-name="Group 27050">
                  <path id="Path_13432" data-name="Path 13432" d="M122.029,197.933c0,.036-9.518.161-21.257.278s-21.26.183-21.26.147,9.516-.161,21.259-.278S122.028,197.9,122.029,197.933Z" transform="translate(-79.512 -197.924)" fill="#e0e0e0"/>
                </g>
              </g>
              <g id="Group_27053" data-name="Group 27053" transform="translate(-2.43 12.109)">
                <g id="Group_27052" data-name="Group 27052">
                  <path id="Path_13433" data-name="Path 13433" d="M122.029,213.889c0,.036-9.518.16-21.257.278s-21.26.184-21.26.147,9.516-.16,21.259-.278S122.028,213.853,122.029,213.889Z" transform="translate(-79.512 -213.879)" fill="#e0e0e0"/>
                </g>
              </g>
              <g id="Group_27055" data-name="Group 27055" transform="translate(-2.43 17.323)">
                <g id="Group_27054" data-name="Group 27054">
                  <path id="Path_13434" data-name="Path 13434" d="M122.029,229.845c0,.036-9.518.16-21.257.278s-21.26.184-21.26.148,9.516-.16,21.259-.278S122.028,229.809,122.029,229.845Z" transform="translate(-79.512 -229.836)" fill="#e0e0e0"/>
                </g>
              </g>
              <g id="Group_27057" data-name="Group 27057" transform="translate(-2.43 22.538)">
                <g id="Group_27056" data-name="Group 27056">
                  <path id="Path_13435" data-name="Path 13435" d="M122.029,245.8c0,.036-9.518.161-21.257.278s-21.26.184-21.26.147,9.516-.16,21.259-.278S122.028,245.765,122.029,245.8Z" transform="translate(-79.512 -245.791)" fill="#e0e0e0"/>
                </g>
              </g>
              <g id="Group_27059" data-name="Group 27059" transform="translate(-2.43 27.752)">
                <g id="Group_27058" data-name="Group 27058">
                  <path id="Path_13436" data-name="Path 13436" d="M122.029,261.757c0,.036-9.518.161-21.257.278s-21.26.183-21.26.147,9.516-.16,21.259-.278S122.028,261.721,122.029,261.757Z" transform="translate(-79.512 -261.747)" fill="#e0e0e0"/>
                </g>
              </g>
              <g id="Group_27061" data-name="Group 27061" transform="translate(-2.43 32.966)">
                <g id="Group_27060" data-name="Group 27060">
                  <path id="Path_13437" data-name="Path 13437" d="M122.029,277.713c0,.036-9.518.16-21.257.278s-21.26.184-21.26.147,9.516-.16,21.259-.278S122.028,277.677,122.029,277.713Z" transform="translate(-79.512 -277.703)" fill="#e0e0e0"/>
                </g>
              </g>
              <g id="Group_27062" data-name="Group 27062">
                <path id="Path_13438" data-name="Path 13438" d="M118.94,176.825a1.9,1.9,0,1,1-3.266,0h-2.2a1.9,1.9,0,1,1-3.266,0H108a1.9,1.9,0,1,1-3.266,0h-2.2a1.9,1.9,0,1,1-3.266,0h-2.2a1.9,1.9,0,1,1-3.266,0H91.6a1.9,1.9,0,1,1-3.266,0h-1.38v39.309h32.719V176.825Z" transform="translate(-86.949 -176.825)" fill="none"/>
              </g>
            </g>
          </g>
          <g id="Group_27065" data-name="Group 27065" transform="translate(14.113 3.107)">
            <path id="Path_13440" data-name="Path 13440" d="M130.135,188.919a4.708,4.708,0,0,0,1.719,3.018,3.076,3.076,0,1,0,1.131-5.549" transform="translate(-130.135 -186.332)" fill="#e0e0e0"/>
          </g>
          <g id="Group_27074" data-name="Group 27074" transform="translate(12.644 3.104)">
            <g id="Group_27066" data-name="Group 27066" transform="translate(1.405)">
              <path id="Path_13441" data-name="Path 13441" d="M129.942,188.9a2.447,2.447,0,1,0,2.313-2.577A2.448,2.448,0,0,0,129.942,188.9Z" transform="translate(-129.939 -186.323)" fill="#276ef1"/>
            </g>
            <g id="Group_27067" data-name="Group 27067" transform="translate(0 0.126)">
              <path id="Path_13442" data-name="Path 13442" d="M125.643,188.258a1.469,1.469,0,1,0,1.388-1.546A1.469,1.469,0,0,0,125.643,188.258Z" transform="translate(-125.641 -186.71)" fill="#276ef1"/>
            </g>
            <g id="Group_27069" data-name="Group 27069" transform="translate(1.37 0.425)">
              <g id="Group_27068" data-name="Group 27068">
                <path id="Path_13443" data-name="Path 13443" d="M129.833,190.233a2.633,2.633,0,0,0,.553-.062,1.412,1.412,0,0,0,.934-.857,1.513,1.513,0,0,0-.158-1.267,2.883,2.883,0,0,0-.364-.422c0-.007.056.014.14.069a1.216,1.216,0,0,1,.3.3,1.525,1.525,0,0,1,.2,1.362,1.414,1.414,0,0,1-.46.631,1.444,1.444,0,0,1-.574.272,1.157,1.157,0,0,1-.426.018C129.883,190.262,129.831,190.24,129.833,190.233Z" transform="translate(-129.833 -187.624)" fill="#263238"/>
              </g>
            </g>
            <g id="Group_27071" data-name="Group 27071" transform="translate(2.6 0.324)">
              <g id="Group_27070" data-name="Group 27070">
                <path id="Path_13444" data-name="Path 13444" d="M133.6,187.687a1.585,1.585,0,0,0,1.615-.371c.013.009-.031.106-.15.226a1.211,1.211,0,0,1-1.231.283C133.671,187.769,133.589,187.7,133.6,187.687Z" transform="translate(-133.596 -187.314)" fill="#263238"/>
              </g>
            </g>
            <g id="Group_27073" data-name="Group 27073" transform="translate(1.538 3.036)">
              <g id="Group_27072" data-name="Group 27072">
                <path id="Path_13445" data-name="Path 13445" d="M131.787,197c-.02,0-.039-.118-.107-.3a1.585,1.585,0,0,0-1.032-.976c-.182-.058-.3-.069-.3-.09s.125-.037.325,0a1.417,1.417,0,0,1,1.1,1.038C131.817,196.87,131.8,197,131.787,197Z" transform="translate(-130.346 -195.614)" fill="#263238"/>
              </g>
            </g>
          </g>
        </g>
        <g id="Group_27077" data-name="Group 27077" transform="translate(5.731 13.978)">
          <g id="Group_27076" data-name="Group 27076">
            <path id="Path_13446" data-name="Path 13446" d="M127.808,219.664c0,.036-5.221.065-11.66.065s-11.661-.029-11.661-.065,5.22-.065,11.661-.065S127.808,219.628,127.808,219.664Z" transform="translate(-104.487 -219.599)" fill="#263238"/>
          </g>
        </g>
        <g id="Group_27079" data-name="Group 27079" transform="translate(5.731 16.404)">
          <g id="Group_27078" data-name="Group 27078">
            <path id="Path_13447" data-name="Path 13447" d="M127.808,227.088c0,.036-5.221.065-11.66.065s-11.661-.029-11.661-.065,5.22-.065,11.661-.065S127.808,227.052,127.808,227.088Z" transform="translate(-104.487 -227.023)" fill="#263238"/>
          </g>
        </g>
        <g id="Group_27081" data-name="Group 27081" transform="translate(5.731 18.83)">
          <g id="Group_27080" data-name="Group 27080">
            <path id="Path_13448" data-name="Path 13448" d="M127.808,234.512c0,.036-5.221.065-11.66.065s-11.661-.029-11.661-.065,5.22-.065,11.661-.065S127.808,234.476,127.808,234.512Z" transform="translate(-104.487 -234.447)" fill="#263238"/>
          </g>
        </g>
        <g id="Group_27083" data-name="Group 27083" transform="translate(5.731 21.256)">
          <g id="Group_27082" data-name="Group 27082">
            <path id="Path_13449" data-name="Path 13449" d="M127.808,241.936c0,.036-5.221.065-11.66.065s-11.661-.029-11.661-.065,5.22-.065,11.661-.065S127.808,241.9,127.808,241.936Z" transform="translate(-104.487 -241.871)" fill="#263238"/>
          </g>
        </g>
        <g id="Group_27085" data-name="Group 27085" transform="translate(5.731 23.683)">
          <g id="Group_27084" data-name="Group 27084">
            <path id="Path_13450" data-name="Path 13450" d="M127.808,249.361c0,.036-5.221.065-11.66.065s-11.661-.029-11.661-.065,5.22-.065,11.661-.065S127.808,249.324,127.808,249.361Z" transform="translate(-104.487 -249.295)" fill="#263238"/>
          </g>
        </g>
        <g id="Group_27087" data-name="Group 27087" transform="translate(5.731 26.109)">
          <g id="Group_27086" data-name="Group 27086">
            <path id="Path_13451" data-name="Path 13451" d="M127.808,256.784c0,.036-5.221.065-11.66.065s-11.661-.029-11.661-.065,5.22-.065,11.661-.065S127.808,256.748,127.808,256.784Z" transform="translate(-104.487 -256.719)" fill="#263238"/>
          </g>
        </g>
        <g id="Group_27089" data-name="Group 27089" transform="translate(5.731 28.535)">
          <g id="Group_27088" data-name="Group 27088">
            <path id="Path_13452" data-name="Path 13452" d="M127.808,264.208c0,.036-5.221.065-11.66.065s-11.661-.029-11.661-.065,5.22-.065,11.661-.065S127.808,264.172,127.808,264.208Z" transform="translate(-104.487 -264.143)" fill="#263238"/>
          </g>
        </g>
      </g>
    </g>
    <g id="Character" transform="translate(68.881 89.346)">
      <g id="Group_27243" data-name="Group 27243">
        <g id="Group_27100" data-name="Group 27100" transform="translate(0 36.451)">
          <g id="Group_27092" data-name="Group 27092" transform="translate(0 0.002)">
            <g id="Group_27091" data-name="Group 27091">
              <path id="Path_13453" data-name="Path 13453" d="M206.674,317.812c6.04-2,1.9-10,1.9-10l-26.4,2.485a3.821,3.821,0,0,0-3.845,3.822h0a3.821,3.821,0,0,0,3.819,3.822l24.524-.133" transform="translate(-178.331 -307.815)" fill="#263238"/>
            </g>
          </g>
          <g id="Group_27094" data-name="Group 27094" transform="translate(6.879)">
            <g id="Group_27093" data-name="Group 27093">
              <path id="Path_13454" data-name="Path 13454" d="M227.024,317.8c5.885-1.988,1.83-9.991,1.83-9.991l-25.734,2.428c-2.514.033-3.741,1.246-3.741,3.814h0c0,2.111.784,3.89,3.732,3.83l23.913-.08" transform="translate(-199.379 -307.808)" fill="#263238"/>
            </g>
          </g>
          <g id="Group_27097" data-name="Group 27097" transform="translate(6.878 1.348)">
            <g id="Group_27096" data-name="Group 27096">
              <g id="Group_27095" data-name="Group 27095">
                <path id="Path_13455" data-name="Path 13455" d="M221.05,311.938a.274.274,0,0,0-.073,0l-.214.005-.824.034-3.028.15-9.986.548c-.487.023-.97.066-1.444.072s-.946.027-1.406.055-.912.062-1.354.11a4.839,4.839,0,0,0-1.287.264,3.091,3.091,0,0,0-1.07.686,2.858,2.858,0,0,0-.649,1.042,5.235,5.235,0,0,0-.264,1.127,7.9,7.9,0,0,0-.071,1.065,4.539,4.539,0,0,0,.34,1.794,2.952,2.952,0,0,0,.8,1.091,2.164,2.164,0,0,0,.729.412c.182.058.185.039.008-.027a2.256,2.256,0,0,1-.7-.427,2.939,2.939,0,0,1-.766-1.081,4.492,4.492,0,0,1-.314-1.762,7.838,7.838,0,0,1,.078-1.05,5.139,5.139,0,0,1,.265-1.1,2.743,2.743,0,0,1,.627-1,2.986,2.986,0,0,1,1.032-.655,4.744,4.744,0,0,1,1.258-.252c.44-.046.89-.079,1.349-.106s.927-.046,1.4-.053.957-.048,1.446-.072l9.986-.589,3.026-.195.822-.06.214-.019A.316.316,0,0,0,221.05,311.938Z" transform="translate(-199.379 -311.935)" fill="#455a64"/>
              </g>
            </g>
          </g>
          <g id="Group_27099" data-name="Group 27099" transform="translate(30.9 0.591)">
            <g id="Group_27098" data-name="Group 27098">
              <path id="Path_13456" data-name="Path 13456" d="M276.346,312.9a.624.624,0,0,1-.209.1,2.17,2.17,0,0,1-.625.127,2.442,2.442,0,0,1-2.616-2.685,2.163,2.163,0,0,1,.143-.622.627.627,0,0,1,.109-.207,4.411,4.411,0,0,0-.152.835,2.421,2.421,0,0,0,2.512,2.578A4.409,4.409,0,0,0,276.346,312.9Z" transform="translate(-272.885 -309.617)" fill="#455a64"/>
            </g>
          </g>
        </g>
        <g id="Group_27154" data-name="Group 27154" transform="translate(19.07 14.455)">
          <g id="Group_27104" data-name="Group 27104">
            <g id="Group_27103" data-name="Group 27103">
              <g id="Group_27102" data-name="Group 27102">
                <g id="Group_27101" data-name="Group 27101">
                  <path id="Path_13457" data-name="Path 13457" d="M244.227,240.8c-3.275.368-3.805,2.593-5.333,4.786l-2.207,4.078,4.06,2.492-.141,6.26-1.66,5.538,15.292-.866-1.7-5.264,2.036-8.039c.154-1.1.576-3.132.291-4.21-.89-3.368-4.389-4.353-6.795-4.978a15.858,15.858,0,0,0-3.307-.019" transform="translate(-236.687 -240.497)" fill="#276ef1"/>
                </g>
              </g>
            </g>
          </g>
          <g id="Group_27106" data-name="Group 27106" transform="translate(5.237 17.413)">
            <g id="Group_27105" data-name="Group 27105">
              <path id="Path_13458" data-name="Path 13458" d="M253.288,293.8a.75.75,0,0,1,.561.119,1.1,1.1,0,0,1,.436.464,1.1,1.1,0,0,1-.42,1.4,1.1,1.1,0,0,1-.619.147.75.75,0,0,1-.534-.209,1.719,1.719,0,0,0,.536.117,1.063,1.063,0,0,0,.554-.157,1.017,1.017,0,0,0,.374-1.246,1.068,1.068,0,0,0-.376-.437A1.718,1.718,0,0,0,253.288,293.8Z" transform="translate(-252.712 -293.782)" fill="#fafafa"/>
            </g>
          </g>
          <g id="Group_27110" data-name="Group 27110" transform="translate(9.454 10.666)">
            <g id="Group_27109" data-name="Group 27109">
              <g id="Group_27108" data-name="Group 27108">
                <g id="Group_27107" data-name="Group 27107">
                  <path id="Path_13459" data-name="Path 13459" d="M265.615,273.137c-.009.025,1.562.568,3.506,1.213s3.529,1.147,3.537,1.121-1.561-.568-3.507-1.213S265.624,273.112,265.615,273.137Z" transform="translate(-265.615 -273.137)" fill="#263238"/>
                </g>
              </g>
            </g>
          </g>
          <g id="Group_27113" data-name="Group 27113" transform="translate(6.926 13.529)" opacity="0.3">
            <g id="Group_27112" data-name="Group 27112">
              <g id="Group_27111" data-name="Group 27111">
                <path id="Path_13460" data-name="Path 13460" d="M266.7,282.4a31,31,0,0,1-1.128,3.924,8.5,8.5,0,0,1-1.234,2.265,5.725,5.725,0,0,1-2.961,1.808,9.37,9.37,0,0,1-3.5.172l5.815-3.288,1.547-5.38Z" transform="translate(-257.88 -281.898)"/>
              </g>
            </g>
          </g>
          <g id="Group_27116" data-name="Group 27116" transform="translate(3.909 6.415)">
            <g id="Group_27115" data-name="Group 27115">
              <g id="Group_27114" data-name="Group 27114">
                <path id="Path_13461" data-name="Path 13461" d="M248.662,271.455a2.707,2.707,0,0,0,.041-.444c.015-.311.035-.72.059-1.213.044-1.025.095-2.44.142-4s.082-2.98.1-4.006c.006-.494.011-.9.014-1.215a2.691,2.691,0,0,0-.014-.446,2.69,2.69,0,0,0-.041.444c-.015.311-.035.72-.059,1.213-.044,1.025-.095,2.441-.142,4.005s-.082,2.981-.1,4.006c-.006.494-.011.9-.014,1.215A2.685,2.685,0,0,0,248.662,271.455Z" transform="translate(-248.648 -260.127)" fill="#263238"/>
              </g>
            </g>
          </g>
          <g id="Group_27119" data-name="Group 27119" transform="translate(0.595 8.076)">
            <g id="Group_27118" data-name="Group 27118">
              <g id="Group_27117" data-name="Group 27117">
                <path id="Path_13462" data-name="Path 13462" d="M238.506,265.211a29.194,29.194,0,0,0,3.5,2.059,29.151,29.151,0,0,0-3.5-2.059Z" transform="translate(-238.506 -265.21)" fill="#263238"/>
              </g>
            </g>
          </g>
          <g id="Group_27121" data-name="Group 27121" transform="translate(6.376 3.79)">
            <g id="Group_27120" data-name="Group 27120">
              <path id="Path_13463" data-name="Path 13463" d="M258.058,253.839a.75.75,0,0,1-.472.326,1.1,1.1,0,0,1-.636,0,1.1,1.1,0,0,1-.727-1.268,1.1,1.1,0,0,1,.319-.551.749.749,0,0,1,.519-.244,1.723,1.723,0,0,0-.454.309,1.066,1.066,0,0,0-.267.511,1.015,1.015,0,0,0,.647,1.128,1.064,1.064,0,0,0,.575.027A1.715,1.715,0,0,0,258.058,253.839Z" transform="translate(-256.198 -252.096)" fill="#fafafa"/>
            </g>
          </g>
          <g id="Group_27123" data-name="Group 27123" transform="translate(4.88 8.298)">
            <g id="Group_27122" data-name="Group 27122">
              <path id="Path_13464" data-name="Path 13464" d="M251.756,267.443a.753.753,0,0,1-.135-.558,1.1,1.1,0,0,1,.229-.594,1.1,1.1,0,0,1,1.442-.228,1.1,1.1,0,0,1,.4.5.753.753,0,0,1,.043.572,1.717,1.717,0,0,0-.127-.535,1.068,1.068,0,0,0-.382-.432,1.014,1.014,0,0,0-1.284.2,1.065,1.065,0,0,0-.23.528A1.722,1.722,0,0,0,251.756,267.443Z" transform="translate(-251.619 -265.891)" fill="#fafafa"/>
            </g>
          </g>
          <g id="Group_27125" data-name="Group 27125" transform="translate(4.88 13.825)">
            <g id="Group_27124" data-name="Group 27124">
              <path id="Path_13465" data-name="Path 13465" d="M251.756,284.354a.751.751,0,0,1-.135-.557,1.1,1.1,0,0,1,.229-.594,1.1,1.1,0,0,1,1.442-.228,1.1,1.1,0,0,1,.4.5.753.753,0,0,1,.043.572,1.717,1.717,0,0,0-.127-.535,1.068,1.068,0,0,0-.382-.432,1.014,1.014,0,0,0-1.284.2,1.067,1.067,0,0,0-.23.529A1.72,1.72,0,0,0,251.756,284.354Z" transform="translate(-251.619 -282.802)" fill="#fafafa"/>
            </g>
          </g>
          <g id="Group_27127" data-name="Group 27127" transform="translate(8.903 6.363)">
            <g id="Group_27126" data-name="Group 27126">
              <path id="Path_13466" data-name="Path 13466" d="M264.873,262.092a.751.751,0,0,1-.536-.2,1.1,1.1,0,0,1-.362-.524,1.1,1.1,0,0,1,.625-1.321,1.1,1.1,0,0,1,.634-.052.753.753,0,0,1,.5.287,1.719,1.719,0,0,0-.513-.2,1.063,1.063,0,0,0-.571.072,1.016,1.016,0,0,0-.556,1.176,1.068,1.068,0,0,0,.306.488A1.727,1.727,0,0,0,264.873,262.092Z" transform="translate(-263.929 -259.969)" fill="#fafafa"/>
            </g>
          </g>
          <g id="Group_27129" data-name="Group 27129" transform="translate(6.184 10.694)">
            <g id="Group_27128" data-name="Group 27128">
              <path id="Path_13467" data-name="Path 13467" d="M257.315,273.221a.75.75,0,0,1,.341.461,1.1,1.1,0,0,1,.02.637,1.1,1.1,0,0,1-1.24.771,1.1,1.1,0,0,1-.561-.3.75.75,0,0,1-.261-.51,1.713,1.713,0,0,0,.324.443,1.066,1.066,0,0,0,.519.249,1.015,1.015,0,0,0,1.1-.687,1.068,1.068,0,0,0,.007-.576A1.711,1.711,0,0,0,257.315,273.221Z" transform="translate(-255.611 -273.22)" fill="#fafafa"/>
            </g>
          </g>
          <g id="Group_27131" data-name="Group 27131" transform="translate(3.338 3.178)">
            <g id="Group_27130" data-name="Group 27130">
              <path id="Path_13468" data-name="Path 13468" d="M247.478,250.236a.75.75,0,0,1,.561.119,1.1,1.1,0,0,1,.436.464,1.1,1.1,0,0,1-.42,1.4,1.1,1.1,0,0,1-.619.147.75.75,0,0,1-.534-.209,1.72,1.72,0,0,0,.536.117,1.064,1.064,0,0,0,.554-.157,1.017,1.017,0,0,0,.374-1.246,1.066,1.066,0,0,0-.376-.436A1.715,1.715,0,0,0,247.478,250.236Z" transform="translate(-246.902 -250.221)" fill="#fafafa"/>
            </g>
          </g>
          <g id="Group_27133" data-name="Group 27133" transform="translate(10.716 8.378)">
            <g id="Group_27132" data-name="Group 27132">
              <path id="Path_13469" data-name="Path 13469" d="M269.572,267.589a.752.752,0,0,1-.078-.568,1.1,1.1,0,0,1,.288-.568,1.1,1.1,0,0,1,1.458-.079,1.1,1.1,0,0,1,.348.534.752.752,0,0,1-.016.573,1.72,1.72,0,0,0-.072-.545,1.067,1.067,0,0,0-.335-.468,1.014,1.014,0,0,0-1.3.07,1.067,1.067,0,0,0-.283.5A1.717,1.717,0,0,0,269.572,267.589Z" transform="translate(-269.479 -266.135)" fill="#fafafa"/>
            </g>
          </g>
          <g id="Group_27135" data-name="Group 27135" transform="translate(7.757 13.875)">
            <g id="Group_27134" data-name="Group 27134">
              <path id="Path_13470" data-name="Path 13470" d="M261,282.969a.751.751,0,0,1,.561.119,1.1,1.1,0,0,1,.436.464,1.1,1.1,0,0,1-.42,1.4,1.1,1.1,0,0,1-.619.147.751.751,0,0,1-.534-.21,1.707,1.707,0,0,0,.536.117,1.065,1.065,0,0,0,.554-.158,1.015,1.015,0,0,0,.374-1.246,1.065,1.065,0,0,0-.376-.437A1.716,1.716,0,0,0,261,282.969Z" transform="translate(-260.424 -282.954)" fill="#fafafa"/>
            </g>
          </g>
          <g id="Group_27137" data-name="Group 27137" transform="translate(12.319 20.21)">
            <g id="Group_27136" data-name="Group 27136">
              <path id="Path_13471" data-name="Path 13471" d="M274.389,303.252a.75.75,0,0,1,.219-.53,1.1,1.1,0,0,1,.535-.346,1.1,1.1,0,0,1,1.3.667,1.1,1.1,0,0,1,.032.636.754.754,0,0,1-.3.488,1.726,1.726,0,0,0,.212-.507,1.067,1.067,0,0,0-.054-.574,1.015,1.015,0,0,0-1.157-.593,1.063,1.063,0,0,0-.5.291A1.7,1.7,0,0,0,274.389,303.252Z" transform="translate(-274.384 -302.34)" fill="#fafafa"/>
            </g>
          </g>
          <g id="Group_27139" data-name="Group 27139" transform="translate(14.072 17.14)">
            <g id="Group_27138" data-name="Group 27138">
              <path id="Path_13472" data-name="Path 13472" d="M280.887,292.948a.752.752,0,0,1,.5.286,1.1,1.1,0,0,1,.272.576,1.1,1.1,0,0,1-.829,1.2,1.1,1.1,0,0,1-.634-.051.753.753,0,0,1-.444-.364,1.726,1.726,0,0,0,.474.277,1.064,1.064,0,0,0,.576.021,1.015,1.015,0,0,0,.738-1.07,1.065,1.065,0,0,0-.224-.531A1.723,1.723,0,0,0,280.887,292.948Z" transform="translate(-279.748 -292.946)" fill="#fafafa"/>
            </g>
          </g>
          <g id="Group_27141" data-name="Group 27141" transform="translate(14.081 9.482)">
            <g id="Group_27140" data-name="Group 27140">
              <path id="Path_13473" data-name="Path 13473" d="M280.915,269.516a.75.75,0,0,1,.5.286,1.1,1.1,0,0,1,.272.576,1.1,1.1,0,0,1-.829,1.2,1.1,1.1,0,0,1-.635-.051.75.75,0,0,1-.443-.364,1.715,1.715,0,0,0,.474.277,1.064,1.064,0,0,0,.576.021,1.016,1.016,0,0,0,.738-1.07,1.066,1.066,0,0,0-.224-.531A1.719,1.719,0,0,0,280.915,269.516Z" transform="translate(-279.776 -269.514)" fill="#fafafa"/>
            </g>
          </g>
          <g id="Group_27143" data-name="Group 27143" transform="translate(15.876 5.947)">
            <g id="Group_27142" data-name="Group 27142">
              <path id="Path_13474" data-name="Path 13474" d="M286.256,260.825a.752.752,0,0,1-.545-.179,1.1,1.1,0,0,1-.384-.508,1.1,1.1,0,0,1,.566-1.347,1.1,1.1,0,0,1,.631-.08.751.751,0,0,1,.508.265,1.715,1.715,0,0,0-.521-.174,1.062,1.062,0,0,0-.568.1,1.016,1.016,0,0,0-.5,1.2,1.066,1.066,0,0,0,.327.474A1.72,1.72,0,0,0,286.256,260.825Z" transform="translate(-285.267 -258.697)" fill="#fafafa"/>
            </g>
          </g>
          <g id="Group_27145" data-name="Group 27145" transform="translate(13.094 1.726)">
            <g id="Group_27144" data-name="Group 27144">
              <path id="Path_13475" data-name="Path 13475" d="M277.743,247.909a.752.752,0,0,1-.545-.179,1.1,1.1,0,0,1-.384-.508,1.1,1.1,0,0,1,.566-1.347,1.1,1.1,0,0,1,.631-.08.75.75,0,0,1,.508.265,1.715,1.715,0,0,0-.521-.174,1.064,1.064,0,0,0-.568.1,1.016,1.016,0,0,0-.5,1.2,1.069,1.069,0,0,0,.328.474A1.724,1.724,0,0,0,277.743,247.909Z" transform="translate(-276.754 -245.78)" fill="#fafafa"/>
            </g>
          </g>
          <g id="Group_27147" data-name="Group 27147" transform="translate(1.971 6.59)">
            <g id="Group_27146" data-name="Group 27146">
              <path id="Path_13476" data-name="Path 13476" d="M243.707,262.792a.752.752,0,0,1-.545-.179,1.1,1.1,0,0,1-.384-.508,1.1,1.1,0,0,1,.566-1.347,1.1,1.1,0,0,1,.632-.08.751.751,0,0,1,.508.265,1.712,1.712,0,0,0-.521-.174,1.067,1.067,0,0,0-.568.1,1.016,1.016,0,0,0-.5,1.2,1.067,1.067,0,0,0,.327.474A1.72,1.72,0,0,0,243.707,262.792Z" transform="translate(-242.718 -260.664)" fill="#fafafa"/>
            </g>
          </g>
          <g id="Group_27149" data-name="Group 27149" transform="translate(12.975 4.82)">
            <g id="Group_27148" data-name="Group 27148">
              <path id="Path_13477" data-name="Path 13477" d="M277.529,255.249a.751.751,0,0,1,.5.286,1.1,1.1,0,0,1,.272.576,1.1,1.1,0,0,1-.829,1.2,1.1,1.1,0,0,1-.635-.051.752.752,0,0,1-.443-.363,1.711,1.711,0,0,0,.474.276,1.062,1.062,0,0,0,.576.021,1.015,1.015,0,0,0,.738-1.07,1.067,1.067,0,0,0-.224-.531A1.716,1.716,0,0,0,277.529,255.249Z" transform="translate(-276.39 -255.247)" fill="#fafafa"/>
            </g>
          </g>
          <g id="Group_27153" data-name="Group 27153" transform="translate(9.088 2.556)">
            <g id="Group_27152" data-name="Group 27152">
              <g id="Group_27151" data-name="Group 27151">
                <g id="Group_27150" data-name="Group 27150">
                  <path id="Path_13478" data-name="Path 13478" d="M273.032,255a.558.558,0,0,0-.033.087l-.085.258-.313.987-1.112,3.573.051-.025-6.8-2.512-.17-.07.028.057a30.013,30.013,0,0,1,1.592-4.474,12.667,12.667,0,0,1,2.021-3.28,4.464,4.464,0,0,1,1.143-.926,2.364,2.364,0,0,1,1.056-.313,1.592,1.592,0,0,1,.216-.006l.189.02c.058.007.113.009.162.019l.131.035.178.046a.308.308,0,0,0,.062.013.314.314,0,0,0-.059-.022l-.176-.055-.131-.04c-.049-.012-.1-.015-.163-.024l-.191-.025a1.573,1.573,0,0,0-.219,0,2.375,2.375,0,0,0-1.08.3,4.478,4.478,0,0,0-1.167.927,12.564,12.564,0,0,0-2.052,3.289,29.527,29.527,0,0,0-1.6,4.487l-.011.04.039.016.17.071c2.547.954,4.909,1.8,6.808,2.5l.039.014.012-.04,1.079-3.583.293-.993.074-.261A.545.545,0,0,0,273.032,255Z" transform="translate(-264.495 -248.319)" fill="#263238"/>
                </g>
              </g>
            </g>
          </g>
        </g>
        <g id="Group_27155" data-name="Group 27155" transform="translate(7.662 24.591)">
          <path id="Path_13479" data-name="Path 13479" d="M217.975,274.72l-1.315,4.124a4.761,4.761,0,0,1-3.7,3.314l-8.794,1.652-2.392-.077,2.392-2.964,6.611-2.256a1.772,1.772,0,0,0,1.334-1.267l2.632-5.73,3.334,2.046Z" transform="translate(-201.778 -271.515)" fill="#ffbe9d"/>
        </g>
        <g id="Group_27156" data-name="Group 27156" transform="translate(17.836 26.534)">
          <path id="Path_13480" data-name="Path 13480" d="M249.226,279.11l-1.434,4.695a4.783,4.783,0,0,1-3.7,3.356l-8.794,1.673-2.392-.078.813-2.044,8.19-3.242a1.782,1.782,0,0,0,1.334-1.284l1.224-4.727Z" transform="translate(-232.91 -277.459)" fill="#ffbe9d"/>
        </g>
        <g id="Group_27161" data-name="Group 27161" transform="translate(3.582 28.765)">
          <g id="Group_27158" data-name="Group 27158">
            <g id="Group_27157" data-name="Group 27157">
              <path id="Path_13481" data-name="Path 13481" d="M212.071,293.491l-.075-.57-6.756-.266-3.316-8.368-12.631.858,4.262,9.29Z" transform="translate(-189.293 -284.287)" fill="#455a64"/>
            </g>
          </g>
          <g id="Group_27160" data-name="Group 27160" transform="translate(7.557 4.411)">
            <g id="Group_27159" data-name="Group 27159">
              <path id="Path_13482" data-name="Path 13482" d="M212.522,298.8a.662.662,0,1,0,.2-.914A.662.662,0,0,0,212.522,298.8Z" transform="translate(-212.419 -297.785)" fill="#fff"/>
            </g>
          </g>
        </g>
        <g id="Group_27242" data-name="Group 27242" transform="translate(23.6)">
          <g id="Group_27179" data-name="Group 27179">
            <g id="Group_27162" data-name="Group 27162" transform="translate(6.647 0.207)">
              <path id="Path_13483" data-name="Path 13483" d="M270.888,196.9a5.128,5.128,0,0,1,4.473,3.363c.121.35.2.715.357,1.052a1.553,1.553,0,0,0,.729.807c.248.111.53.124.786.219a1.44,1.44,0,0,1,.868,1,1.751,1.751,0,0,1-.235,1.325,1.36,1.36,0,0,0-.3.616,1.673,1.673,0,0,0,.094.457,1.253,1.253,0,0,1-2.056,1.225,1.765,1.765,0,0,1-.76.953.714.714,0,0,1-1.006-.39.99.99,0,0,1-1.881-.358" transform="translate(-270.888 -196.899)" fill="#263238"/>
            </g>
            <g id="Group_27176" data-name="Group 27176">
              <g id="Group_27163" data-name="Group 27163">
                <path id="Path_13484" data-name="Path 13484" d="M251.2,202.64a3.288,3.288,0,0,1-.239-3.57,5.322,5.322,0,0,1,2.831-2.34,5.416,5.416,0,0,1,4.922.258,4.323,4.323,0,0,1,1.856,3.879,4.279,4.279,0,0,1-2.467,3.5" transform="translate(-250.548 -196.265)" fill="#276ef1"/>
              </g>
              <g id="Group_27165" data-name="Group 27165" transform="translate(8.897 3.974)">
                <g id="Group_27164" data-name="Group 27164">
                  <path id="Path_13485" data-name="Path 13485" d="M278.945,208.5a17.187,17.187,0,0,1-1.172.115,1.5,1.5,0,0,1,1.172-.115Z" transform="translate(-277.773 -208.428)" fill="#fafafa"/>
                </g>
              </g>
              <g id="Group_27167" data-name="Group 27167" transform="translate(8.253 1.913)">
                <g id="Group_27166" data-name="Group 27166">
                  <path id="Path_13486" data-name="Path 13486" d="M276.854,202.165a143.3,143.3,0,0,0-1.051.241c-.018-.029.191-.18.5-.249A.807.807,0,0,1,276.854,202.165Z" transform="translate(-275.802 -202.119)" fill="#fafafa"/>
                </g>
              </g>
              <g id="Group_27169" data-name="Group 27169" transform="translate(6.347 0.541)">
                <g id="Group_27168" data-name="Group 27168">
                  <path id="Path_13487" data-name="Path 13487" d="M271.434,197.942a11.7,11.7,0,0,0-1.462.484,1.98,1.98,0,0,1,1.462-.484Z" transform="translate(-269.971 -197.92)" fill="#fafafa"/>
                </g>
              </g>
              <g id="Group_27171" data-name="Group 27171" transform="translate(4.128 0)">
                <g id="Group_27170" data-name="Group 27170">
                  <path id="Path_13488" data-name="Path 13488" d="M264.374,196.275c.01.037-.31.138-.635.378s-.523.509-.555.488a1.464,1.464,0,0,1,1.19-.866Z" transform="translate(-263.18 -196.266)" fill="#fafafa"/>
                </g>
              </g>
              <g id="Group_27173" data-name="Group 27173" transform="translate(2.084 0.922)">
                <g id="Group_27172" data-name="Group 27172">
                  <path id="Path_13489" data-name="Path 13489" d="M257.3,199.093c.02.031-.083.13-.172.274-.063.1-.1.191-.135.238l-.059.09v-.086c0-.029,0-.046.015-.05s.026.006.044.029l-.06,0a.5.5,0,0,1,.086-.294C257.121,199.126,257.28,199.062,257.3,199.093Z" transform="translate(-256.926 -199.085)" fill="#fafafa"/>
                </g>
              </g>
              <g id="Group_27175" data-name="Group 27175" transform="translate(8.638 5.949)">
                <g id="Group_27174" data-name="Group 27174">
                  <path id="Path_13490" data-name="Path 13490" d="M277.886,214.757c0,.035-.226.055-.487-.027s-.437-.224-.418-.253.212.054.456.128S277.888,214.72,277.886,214.757Z" transform="translate(-276.98 -214.471)" fill="#fafafa"/>
                </g>
              </g>
            </g>
            <g id="Group_27178" data-name="Group 27178" transform="translate(10.092 2.748)">
              <g id="Group_27177" data-name="Group 27177">
                <path id="Path_13491" data-name="Path 13491" d="M284.827,206.154c.006-.006-.047.165-.307.248a.6.6,0,0,1-.472-.051.669.669,0,0,1-.314-.544.735.735,0,0,1,.359-.668.891.891,0,0,1,.87-.038,1.062,1.062,0,0,1,.588.764,1.267,1.267,0,0,1-.245,1.007,1.154,1.154,0,0,1-.946.413,1.766,1.766,0,0,1-.918-.295,4.293,4.293,0,0,1-1.086-1.185,7.592,7.592,0,0,0-.65-.85c-.172-.185-.283-.272-.276-.28s.033.015.088.054a2.423,2.423,0,0,1,.224.191,6.217,6.217,0,0,1,.689.832,4.363,4.363,0,0,0,1.077,1.138,1.658,1.658,0,0,0,.855.268,1.031,1.031,0,0,0,.843-.367,1.145,1.145,0,0,0,.221-.9.942.942,0,0,0-.515-.68.781.781,0,0,0-.761.022.638.638,0,0,0-.324.571.6.6,0,0,0,.26.486.554.554,0,0,0,.421.064A.629.629,0,0,0,284.827,206.154Z" transform="translate(-281.428 -204.674)" fill="#263238"/>
              </g>
            </g>
          </g>
          <g id="Group_27241" data-name="Group 27241" transform="translate(0.114 0.87)">
            <g id="Group_27234" data-name="Group 27234" transform="translate(0.239 0.829)">
              <g id="Group_27233" data-name="Group 27233">
                <g id="Group_27224" data-name="Group 27224">
                  <g id="Group_27223" data-name="Group 27223">
                    <g id="Group_27222" data-name="Group 27222">
                      <g id="Group_27183" data-name="Group 27183">
                        <g id="Group_27182" data-name="Group 27182">
                          <g id="Group_27181" data-name="Group 27181">
                            <g id="Group_27180" data-name="Group 27180">
                              <path id="Path_13492" data-name="Path 13492" d="M259.015,202.663a.885.885,0,0,1,.791.9h0l-.5,11.952c-.019,1.411-2.578,3.08-4.088,3.049h0c-1.525-.032-1.077-1.652-1.1-2.994-.037-2.243-.036-3.085-.037-3.073a3.132,3.132,0,0,1-2.326-2.836,26.889,26.889,0,0,1-.03-4.98c.1-1.509,1.094-3.361,2.6-3.2Z" transform="translate(-251.627 -201.466)" fill="#ffbe9d"/>
                            </g>
                          </g>
                        </g>
                      </g>
                      <g id="Group_27193" data-name="Group 27193" transform="translate(0.539 3.94)">
                        <g id="Group_27187" data-name="Group 27187" transform="translate(0.213 0.609)">
                          <g id="Group_27186" data-name="Group 27186">
                            <g id="Group_27185" data-name="Group 27185">
                              <g id="Group_27184" data-name="Group 27184">
                                <path id="Path_13493" data-name="Path 13493" d="M253.928,215.677a.323.323,0,0,0,.311.326.308.308,0,0,0,.332-.291.323.323,0,0,0-.31-.326A.309.309,0,0,0,253.928,215.677Z" transform="translate(-253.928 -215.385)" fill="#263238"/>
                              </g>
                            </g>
                          </g>
                        </g>
                        <g id="Group_27192" data-name="Group 27192">
                          <g id="Group_27191" data-name="Group 27191">
                            <g id="Group_27190" data-name="Group 27190">
                              <g id="Group_27189" data-name="Group 27189">
                                <g id="Group_27188" data-name="Group 27188">
                                  <path id="Path_13494" data-name="Path 13494" d="M253.28,213.861c.04.042.284-.139.631-.138s.6.175.639.132c.019-.019-.022-.095-.133-.176a.882.882,0,0,0-.511-.158.846.846,0,0,0-.5.162C253.3,213.766,253.261,213.843,253.28,213.861Z" transform="translate(-253.275 -213.522)" fill="#263238"/>
                                </g>
                              </g>
                            </g>
                          </g>
                        </g>
                      </g>
                      <g id="Group_27203" data-name="Group 27203" transform="translate(3.949 4.004)">
                        <g id="Group_27197" data-name="Group 27197" transform="translate(0.195 0.544)">
                          <g id="Group_27196" data-name="Group 27196">
                            <g id="Group_27195" data-name="Group 27195">
                              <g id="Group_27194" data-name="Group 27194">
                                <path id="Path_13495" data-name="Path 13495" d="M264.306,215.677a.323.323,0,0,0,.311.326.308.308,0,0,0,.332-.291.323.323,0,0,0-.31-.326A.309.309,0,0,0,264.306,215.677Z" transform="translate(-264.306 -215.385)" fill="#263238"/>
                              </g>
                            </g>
                          </g>
                        </g>
                        <g id="Group_27202" data-name="Group 27202">
                          <g id="Group_27201" data-name="Group 27201">
                            <g id="Group_27200" data-name="Group 27200">
                              <g id="Group_27199" data-name="Group 27199">
                                <g id="Group_27198" data-name="Group 27198">
                                  <path id="Path_13496" data-name="Path 13496" d="M263.715,214.059c.04.042.285-.139.631-.138s.6.175.639.132c.019-.019-.022-.095-.133-.176a.886.886,0,0,0-.511-.158.85.85,0,0,0-.5.162C263.732,213.964,263.7,214.04,263.715,214.059Z" transform="translate(-263.71 -213.72)" fill="#263238"/>
                                </g>
                              </g>
                            </g>
                          </g>
                        </g>
                      </g>
                      <g id="Group_27208" data-name="Group 27208" transform="translate(1.811 4.025)">
                        <g id="Group_27207" data-name="Group 27207">
                          <g id="Group_27206" data-name="Group 27206">
                            <g id="Group_27205" data-name="Group 27205">
                              <g id="Group_27204" data-name="Group 27204">
                                <path id="Path_13497" data-name="Path 13497" d="M258.052,216.678a2.3,2.3,0,0,0-.563-.1c-.089-.009-.172-.027-.187-.087a.453.453,0,0,1,.059-.263l.262-.675a11.611,11.611,0,0,0,.588-1.766,11.651,11.651,0,0,0-.729,1.714l-.251.679a.514.514,0,0,0-.046.348.223.223,0,0,0,.146.13.6.6,0,0,0,.15.021A2.246,2.246,0,0,0,258.052,216.678Z" transform="translate(-257.168 -213.785)" fill="#263238"/>
                              </g>
                            </g>
                          </g>
                        </g>
                      </g>
                      <g id="Group_27212" data-name="Group 27212" transform="translate(2.455 10.129)">
                        <g id="Group_27211" data-name="Group 27211">
                          <g id="Group_27210" data-name="Group 27210">
                            <g id="Group_27209" data-name="Group 27209">
                              <path id="Path_13498" data-name="Path 13498" d="M259.139,233.359a6.391,6.391,0,0,0,3.367-.9,3.187,3.187,0,0,1-3.333,1.493Z" transform="translate(-259.139 -232.46)" fill="#eb996e"/>
                            </g>
                          </g>
                        </g>
                      </g>
                      <g id="Group_27216" data-name="Group 27216" transform="translate(2.807 7.519)">
                        <g id="Group_27215" data-name="Group 27215">
                          <g id="Group_27214" data-name="Group 27214">
                            <g id="Group_27213" data-name="Group 27213">
                              <path id="Path_13499" data-name="Path 13499" d="M260.251,224.712a.625.625,0,0,1,.56-.232.571.571,0,0,1,.394.212.363.363,0,0,1,.028.414.42.42,0,0,1-.455.115,1.31,1.31,0,0,1-.443-.265.387.387,0,0,1-.1-.1.116.116,0,0,1,0-.129" transform="translate(-260.216 -224.476)" fill="#eb996e"/>
                            </g>
                          </g>
                        </g>
                      </g>
                      <g id="Group_27221" data-name="Group 27221" transform="translate(2.61 7.159)">
                        <g id="Group_27220" data-name="Group 27220">
                          <g id="Group_27219" data-name="Group 27219">
                            <g id="Group_27218" data-name="Group 27218">
                              <g id="Group_27217" data-name="Group 27217">
                                <path id="Path_13500" data-name="Path 13500" d="M260.719,223.372c-.057,0-.057.374-.38.641s-.723.226-.726.279c-.005.024.089.073.259.078a.938.938,0,0,0,.606-.211.817.817,0,0,0,.294-.538C260.787,223.463,260.745,223.37,260.719,223.372Z" transform="translate(-259.613 -223.372)" fill="#263238"/>
                              </g>
                            </g>
                          </g>
                        </g>
                      </g>
                    </g>
                  </g>
                </g>
                <g id="Group_27228" data-name="Group 27228" transform="translate(3.796 3.475)">
                  <g id="Group_27227" data-name="Group 27227">
                    <g id="Group_27226" data-name="Group 27226">
                      <g id="Group_27225" data-name="Group 27225">
                        <path id="Path_13501" data-name="Path 13501" d="M263.244,212.362c.034.094.381.05.788.1s.736.16.79.076c.024-.041-.033-.129-.166-.221a1.38,1.38,0,0,0-1.2-.133C263.3,212.243,263.23,212.317,263.244,212.362Z" transform="translate(-263.243 -212.101)" fill="#263238"/>
                      </g>
                    </g>
                  </g>
                </g>
                <g id="Group_27232" data-name="Group 27232" transform="translate(0.663 2.914)">
                  <g id="Group_27231" data-name="Group 27231">
                    <g id="Group_27230" data-name="Group 27230">
                      <g id="Group_27229" data-name="Group 27229">
                        <path id="Path_13502" data-name="Path 13502" d="M253.663,210.744c.061.079.3,0,.587-.007s.531.053.587-.03c.025-.04-.014-.119-.12-.194a.85.85,0,0,0-.946.029C253.669,210.624,253.636,210.705,253.663,210.744Z" transform="translate(-253.654 -210.384)" fill="#263238"/>
                      </g>
                    </g>
                  </g>
                </g>
              </g>
            </g>
            <g id="Group_27235" data-name="Group 27235" transform="translate(8.062 5.971)">
              <path id="Path_13503" data-name="Path 13503" d="M275.644,217.279a.629.629,0,0,1,.657.033,1.166,1.166,0,0,1-.734,2.166" transform="translate(-275.567 -217.2)" fill="#ffbe9d"/>
            </g>
            <g id="Group_27236" data-name="Group 27236">
              <path id="Path_13504" data-name="Path 13504" d="M255.084,198.929a5.1,5.1,0,0,0-2.415.75,3.5,3.5,0,0,0-1.724,2.05.717.717,0,0,0,.02.567.554.554,0,0,0,.689.149,1.619,1.619,0,0,0,.561-.518,1.075,1.075,0,0,0,2.087-.023.942.942,0,0,0,.969.865,1.243,1.243,0,0,0,1.07-.845,3.151,3.151,0,0,0,.442,1.228,1.073,1.073,0,0,0,1.138.464,2.231,2.231,0,0,0,.017,1.125.766.766,0,0,0,.886.52c.348-.12.483-.533.565-.892a8.408,8.408,0,0,0,.269-2.109,3.089,3.089,0,0,0-2.49-3.131,8.132,8.132,0,0,0-2.188-.2" transform="translate(-250.897 -198.929)" fill="#263238"/>
            </g>
            <g id="Group_27238" data-name="Group 27238" transform="translate(8.257 6.532)">
              <g id="Group_27237" data-name="Group 27237">
                <path id="Path_13505" data-name="Path 13505" d="M276.222,219.883c.007-.018.1.022.219-.034a.438.438,0,0,0,.216-.43.443.443,0,0,0-.268-.4c-.126-.052-.218-.026-.224-.046s.085-.079.251-.042a.462.462,0,0,1,.246.153.562.562,0,0,1,.125.331.5.5,0,0,1-.315.523C276.3,219.981,276.209,219.894,276.222,219.883Z" transform="translate(-276.164 -218.917)" fill="#eb996e"/>
              </g>
            </g>
            <g id="Group_27240" data-name="Group 27240" transform="translate(6.914 7.628)">
              <g id="Group_27239" data-name="Group 27239">
                <path id="Path_13506" data-name="Path 13506" d="M274.411,222.272a.33.33,0,0,1,.1.028,1.782,1.782,0,0,1,.28.126,2.1,2.1,0,0,1,.819.774,1.589,1.589,0,0,1,.224.758,1.77,1.77,0,0,1-.209.884,2.094,2.094,0,0,1-.669.746,1.855,1.855,0,0,1-1.024.33,1.947,1.947,0,0,1-1.7-1.062,1.663,1.663,0,0,1-.179-.891,1.861,1.861,0,0,1,.243-.752,1.8,1.8,0,0,1,.832-.757,1.2,1.2,0,0,1,.294-.091.331.331,0,0,1,.107-.011c0,.014-.145.033-.379.148a1.817,1.817,0,0,0-.773.756,1.791,1.791,0,0,0-.215.715,1.567,1.567,0,0,0,.178.828,1.84,1.84,0,0,0,1.591.987,1.881,1.881,0,0,0,1.587-1,1.572,1.572,0,0,0,.011-1.54,2.153,2.153,0,0,0-.764-.775C274.546,222.334,274.407,222.284,274.411,222.272Z" transform="translate(-272.055 -222.271)" fill="#276ef1"/>
              </g>
            </g>
          </g>
        </g>
      </g>
    </g>
    <g id="Plant" transform="translate(27.554 93.556)">
      <g id="Group_27307" data-name="Group 27307" transform="translate(0)">
        <g id="Group_27301" data-name="Group 27301">
          <g id="Group_27245" data-name="Group 27245" transform="translate(2.651)">
            <g id="Group_27244" data-name="Group 27244">
              <path id="Path_13507" data-name="Path 13507" d="M63.646,245.881a.6.6,0,0,1,.038-.092l.123-.263a6.607,6.607,0,0,0,.362-1.051,9.287,9.287,0,0,0-.031-4.06,21.794,21.794,0,0,0-.753-2.727c-.318-.968-.688-1.995-.99-3.105a12.034,12.034,0,0,1-.489-3.57,13.978,13.978,0,0,1,.83-3.778,18.384,18.384,0,0,0,.961-3.721,5.675,5.675,0,0,0-.682-3.436c-.544-1-1.228-1.86-1.74-2.749a9.564,9.564,0,0,1-1.046-2.642,9.849,9.849,0,0,1-.066-4.093,7.636,7.636,0,0,1,.427-1.446.55.55,0,0,1-.025.1l-.086.277a10.489,10.489,0,0,0-.265,1.082,9.974,9.974,0,0,0,.106,4.063,9.519,9.519,0,0,0,1.049,2.609c.511.878,1.2,1.732,1.752,2.746a5.789,5.789,0,0,1,.7,3.506,18.355,18.355,0,0,1-.964,3.748,13.931,13.931,0,0,0-.827,3.743,11.969,11.969,0,0,0,.477,3.534c.3,1.1.663,2.132.977,3.1a21.546,21.546,0,0,1,.74,2.744,9.185,9.185,0,0,1-.01,4.09,6.075,6.075,0,0,1-.387,1.05l-.135.258A.522.522,0,0,1,63.646,245.881Z" transform="translate(-59.981 -209.148)" fill="#263238"/>
            </g>
          </g>
          <g id="Group_27249" data-name="Group 27249" transform="translate(4.353 3.746)">
            <g id="Group_27246" data-name="Group 27246">
              <path id="Path_13508" data-name="Path 13508" d="M65.476,225.921s-1.039-3.327.825-5.275a.115.115,0,0,1,.2.057C66.6,221.253,66.723,222.926,65.476,225.921Z" transform="translate(-65.187 -220.609)" fill="#276ef1"/>
            </g>
            <g id="Group_27248" data-name="Group 27248" transform="translate(0.251 1.145)">
              <g id="Group_27247" data-name="Group 27247">
                <path id="Path_13509" data-name="Path 13509" d="M66.617,224.114a3.047,3.047,0,0,1-.07.614L66.31,226.2l-.233,1.467a3.371,3.371,0,0,1-.11.607,2.577,2.577,0,0,1,.019-.618c.035-.38.1-.9.2-1.477s.194-1.091.275-1.464A2.8,2.8,0,0,1,66.617,224.114Z" transform="translate(-65.957 -224.114)" fill="#263238"/>
              </g>
            </g>
          </g>
          <g id="Group_27253" data-name="Group 27253" transform="translate(5.843 12.622)">
            <g id="Group_27250" data-name="Group 27250" transform="translate(0.02)">
              <path id="Path_13510" data-name="Path 13510" d="M69.809,252.055s.636-3.428,3.194-4.277a.115.115,0,0,1,.148.143C72.982,248.453,72.31,249.991,69.809,252.055Z" transform="translate(-69.809 -247.772)" fill="#276ef1"/>
            </g>
            <g id="Group_27252" data-name="Group 27252" transform="translate(0 0.891)">
              <g id="Group_27251" data-name="Group 27251">
                <path id="Path_13511" data-name="Path 13511" d="M72.264,250.5a3.058,3.058,0,0,1-.348.51l-.9,1.186-.891,1.188a3.355,3.355,0,0,1-.381.485,2.565,2.565,0,0,1,.305-.538c.208-.32.512-.751.863-1.214s.681-.874.927-1.165A2.782,2.782,0,0,1,72.264,250.5Z" transform="translate(-69.747 -250.498)" fill="#263238"/>
              </g>
            </g>
          </g>
          <g id="Group_27257" data-name="Group 27257" transform="translate(5.144 20.461)">
            <g id="Group_27254" data-name="Group 27254" transform="translate(0.002)">
              <path id="Path_13512" data-name="Path 13512" d="M67.639,276.8s-.386-3.465,1.816-5.021a.115.115,0,0,1,.183.094C69.631,272.433,69.434,274.1,67.639,276.8Z" transform="translate(-67.613 -271.759)" fill="#276ef1"/>
            </g>
            <g id="Group_27256" data-name="Group 27256" transform="translate(0 1.071)">
              <g id="Group_27255" data-name="Group 27255">
                <path id="Path_13513" data-name="Path 13513" d="M69.042,275.038a3.085,3.085,0,0,1-.186.589l-.512,1.4-.508,1.4a3.381,3.381,0,0,1-.224.575,2.582,2.582,0,0,1,.136-.6c.106-.367.272-.867.474-1.413s.4-1.034.549-1.384A2.756,2.756,0,0,1,69.042,275.038Z" transform="translate(-67.608 -275.038)" fill="#263238"/>
              </g>
            </g>
          </g>
          <g id="Group_27261" data-name="Group 27261" transform="translate(7.072 29.18)">
            <g id="Group_27258" data-name="Group 27258" transform="translate(0.017)">
              <path id="Path_13514" data-name="Path 13514" d="M73.571,303.414s-.262-3.476,1.994-4.953a.115.115,0,0,1,.18.1C75.718,299.119,75.462,300.778,73.571,303.414Z" transform="translate(-73.562 -298.441)" fill="#276ef1"/>
            </g>
            <g id="Group_27260" data-name="Group 27260" transform="translate(0 1.054)">
              <g id="Group_27259" data-name="Group 27259">
                <path id="Path_13515" data-name="Path 13515" d="M75.082,301.666a3.054,3.054,0,0,1-.207.582l-.562,1.376L73.756,305a3.334,3.334,0,0,1-.244.567,2.588,2.588,0,0,1,.158-.6c.119-.363.3-.857.524-1.395s.435-1.019.6-1.363A2.762,2.762,0,0,1,75.082,301.666Z" transform="translate(-73.509 -301.666)" fill="#263238"/>
              </g>
            </g>
          </g>
          <g id="Group_27265" data-name="Group 27265" transform="translate(0 1.703)">
            <g id="Group_27262" data-name="Group 27262">
              <path id="Path_13516" data-name="Path 13516" d="M55.015,218.79s-3.087-1.614-3.148-4.311a.115.115,0,0,1,.18-.1C52.506,214.7,53.778,215.791,55.015,218.79Z" transform="translate(-51.867 -214.359)" fill="#276ef1"/>
            </g>
            <g id="Group_27264" data-name="Group 27264" transform="translate(0.64 1.046)">
              <g id="Group_27263" data-name="Group 27263">
                <path id="Path_13517" data-name="Path 13517" d="M53.826,217.561a3.059,3.059,0,0,1,.385.483l.87,1.2.873,1.2a3.326,3.326,0,0,1,.352.507,2.577,2.577,0,0,1-.424-.45c-.244-.293-.567-.71-.907-1.182s-.634-.908-.841-1.229A2.782,2.782,0,0,1,53.826,217.561Z" transform="translate(-53.825 -217.561)" fill="#263238"/>
              </g>
            </g>
          </g>
          <g id="Group_27269" data-name="Group 27269" transform="translate(3.059 9.041)">
            <g id="Group_27266" data-name="Group 27266">
              <path id="Path_13518" data-name="Path 13518" d="M64.632,241.052s-3.18-1.423-3.4-4.112a.115.115,0,0,1,.174-.11C61.879,237.119,63.215,238.134,64.632,241.052Z" transform="translate(-61.228 -236.814)" fill="#276ef1"/>
            </g>
            <g id="Group_27268" data-name="Group 27268" transform="translate(0.696 1.012)">
              <g id="Group_27267" data-name="Group 27267">
                <path id="Path_13519" data-name="Path 13519" d="M63.358,239.912a3.069,3.069,0,0,1,.413.459l.942,1.15.945,1.146a3.319,3.319,0,0,1,.382.485,2.573,2.573,0,0,1-.451-.423c-.262-.278-.609-.674-.977-1.125s-.688-.868-.914-1.175A2.761,2.761,0,0,1,63.358,239.912Z" transform="translate(-63.356 -239.912)" fill="#263238"/>
              </g>
            </g>
          </g>
          <g id="Group_27273" data-name="Group 27273" transform="translate(3.201 15.965)">
            <g id="Group_27270" data-name="Group 27270">
              <path id="Path_13520" data-name="Path 13520" d="M63.1,263.287s-2.183-2.716-1.159-5.212a.115.115,0,0,1,.2-.019C62.434,258.53,63.162,260.043,63.1,263.287Z" transform="translate(-61.663 -258.001)" fill="#276ef1"/>
            </g>
            <g id="Group_27272" data-name="Group 27272" transform="translate(0.484 1.179)">
              <g id="Group_27271" data-name="Group 27271">
                <path id="Path_13521" data-name="Path 13521" d="M63.151,261.61a3.05,3.05,0,0,1,.159.6l.315,1.453.319,1.451a3.343,3.343,0,0,1,.119.605,2.564,2.564,0,0,1-.209-.582c-.107-.366-.236-.878-.357-1.447s-.218-1.086-.279-1.463A2.764,2.764,0,0,1,63.151,261.61Z" transform="translate(-63.145 -261.61)" fill="#263238"/>
              </g>
            </g>
          </g>
          <g id="Group_27277" data-name="Group 27277" transform="translate(3.462 26.336)">
            <g id="Group_27274" data-name="Group 27274">
              <path id="Path_13522" data-name="Path 13522" d="M65.795,294.031s-3.155-1.476-3.334-4.168a.115.115,0,0,1,.175-.107C63.108,290.053,64.427,291.09,65.795,294.031Z" transform="translate(-62.46 -289.738)" fill="#276ef1"/>
            </g>
            <g id="Group_27276" data-name="Group 27276" transform="translate(0.68 1.022)">
              <g id="Group_27275" data-name="Group 27275">
                <path id="Path_13523" data-name="Path 13523" d="M64.543,292.866a3.09,3.09,0,0,1,.406.466l.922,1.165.925,1.162a3.327,3.327,0,0,1,.374.491,2.589,2.589,0,0,1-.444-.431c-.257-.282-.6-.684-.958-1.141s-.674-.879-.894-1.191A2.775,2.775,0,0,1,64.543,292.866Z" transform="translate(-64.542 -292.866)" fill="#263238"/>
              </g>
            </g>
          </g>
          <g id="Group_27300" data-name="Group 27300" transform="translate(6.024 16.131)">
            <g id="Group_27279" data-name="Group 27279" transform="translate(1.032 0.793)">
              <g id="Group_27278" data-name="Group 27278">
                <path id="Path_13524" data-name="Path 13524" d="M79.484,260.935a.255.255,0,0,1,0,.077l-.006.223c-.009.21-.022.492-.037.845-.041.743-.1,1.779-.165,3.019v.007a11.722,11.722,0,0,1-1.729,4.017c-.632,1-1.3,1.909-1.867,2.755a19.5,19.5,0,0,0-1.4,2.316,9.811,9.811,0,0,0-.655,1.7c-.056.208-.1.371-.121.482a.861.861,0,0,1-.046.168.863.863,0,0,1,.021-.173c.016-.113.05-.278.1-.49a8.976,8.976,0,0,1,.621-1.727,18.489,18.489,0,0,1,1.383-2.343c.568-.852,1.227-1.762,1.857-2.757a11.885,11.885,0,0,0,1.73-3.969v.007c.087-1.238.16-2.273.212-3.016.029-.352.051-.634.068-.843.009-.089.016-.161.022-.222A.267.267,0,0,1,79.484,260.935Z" transform="translate(-73.459 -260.935)" fill="#263238"/>
              </g>
            </g>
            <g id="Group_27284" data-name="Group 27284" transform="translate(4.479 3.348)">
              <g id="Group_27280" data-name="Group 27280">
                <path id="Path_13525" data-name="Path 13525" d="M84.706,274.127s1.336-3.219-.345-5.328a.115.115,0,0,0-.2.039C84.01,269.376,83.735,271.031,84.706,274.127Z" transform="translate(-84.006 -268.754)" fill="#276ef1"/>
              </g>
              <g id="Group_27282" data-name="Group 27282" transform="translate(0.447 1.167)">
                <g id="Group_27281" data-name="Group 27281">
                  <path id="Path_13526" data-name="Path 13526" d="M85.382,272.326a2.779,2.779,0,0,1,.106.609c.047.378.1.9.142,1.482s.061,1.107.061,1.489a2.56,2.56,0,0,1-.038.617,3.372,3.372,0,0,1-.055-.615l-.1-1.483c-.039-.554-.074-1.056-.1-1.483A3.047,3.047,0,0,1,85.382,272.326Z" transform="translate(-85.373 -272.326)" fill="#263238"/>
                </g>
              </g>
              <g id="Group_27283" data-name="Group 27283" opacity="0.3">
                <path id="Path_13527" data-name="Path 13527" d="M84.706,274.127s1.336-3.219-.345-5.328a.115.115,0,0,0-.2.039C84.01,269.376,83.735,271.031,84.706,274.127Z" transform="translate(-84.006 -268.754)"/>
              </g>
            </g>
            <g id="Group_27289" data-name="Group 27289" transform="translate(0 11.159)">
              <g id="Group_27285" data-name="Group 27285">
                <path id="Path_13528" data-name="Path 13528" d="M71.34,297.976s1.071-3.317-.775-5.283a.115.115,0,0,0-.2.055C70.262,293.3,70.121,294.969,71.34,297.976Z" transform="translate(-70.3 -292.655)" fill="#276ef1"/>
              </g>
              <g id="Group_27287" data-name="Group 27287" transform="translate(0.451 1.148)">
                <g id="Group_27286" data-name="Group 27286">
                  <path id="Path_13529" data-name="Path 13529" d="M71.686,296.168a2.789,2.789,0,0,1,.155.6c.078.373.173.891.261,1.466s.151,1.1.182,1.479a2.558,2.558,0,0,1,.013.618,3.36,3.36,0,0,1-.1-.608l-.219-1.47-.223-1.47A3.052,3.052,0,0,1,71.686,296.168Z" transform="translate(-71.68 -296.168)" fill="#263238"/>
                </g>
              </g>
              <g id="Group_27288" data-name="Group 27288" opacity="0.3">
                <path id="Path_13530" data-name="Path 13530" d="M71.34,297.976s1.071-3.317-.775-5.283a.115.115,0,0,0-.2.055C70.262,293.3,70.121,294.969,71.34,297.976Z" transform="translate(-70.3 -292.655)"/>
              </g>
            </g>
            <g id="Group_27294" data-name="Group 27294" transform="translate(6.88)">
              <g id="Group_27290" data-name="Group 27290">
                <path id="Path_13531" data-name="Path 13531" d="M91.354,263.3s2.854-2,2.566-4.682a.115.115,0,0,0-.191-.076C93.314,258.912,92.195,260.162,91.354,263.3Z" transform="translate(-91.354 -258.509)" fill="#276ef1"/>
              </g>
              <g id="Group_27291" data-name="Group 27291" opacity="0.3">
                <path id="Path_13532" data-name="Path 13532" d="M91.354,263.3s2.854-2,2.566-4.682a.115.115,0,0,0-.191-.076C93.314,258.912,92.195,260.162,91.354,263.3Z" transform="translate(-91.354 -258.509)"/>
              </g>
              <g id="Group_27293" data-name="Group 27293" transform="translate(0.027 1.106)">
                <g id="Group_27292" data-name="Group 27292">
                  <path id="Path_13533" data-name="Path 13533" d="M93.458,261.895a2.762,2.762,0,0,1-.237.571c-.163.345-.4.815-.675,1.327s-.542.967-.747,1.289a2.575,2.575,0,0,1-.362.5,3.349,3.349,0,0,1,.283-.548l.711-1.3.708-1.307A3.074,3.074,0,0,1,93.458,261.895Z" transform="translate(-91.436 -261.894)" fill="#263238"/>
                </g>
              </g>
            </g>
            <g id="Group_27299" data-name="Group 27299" transform="translate(2.19 9.962)">
              <g id="Group_27295" data-name="Group 27295">
                <path id="Path_13534" data-name="Path 13534" d="M77,292.22s3.442-.537,4.364-3.072a.115.115,0,0,0-.139-.152C80.69,289.149,79.135,289.777,77,292.22Z" transform="translate(-77.002 -288.991)" fill="#276ef1"/>
              </g>
              <g id="Group_27296" data-name="Group 27296" opacity="0.3">
                <path id="Path_13535" data-name="Path 13535" d="M77,292.22s3.442-.537,4.364-3.072a.115.115,0,0,0-.139-.152C80.69,289.149,79.135,289.777,77,292.22Z" transform="translate(-77.002 -288.991)"/>
              </g>
              <g id="Group_27298" data-name="Group 27298" transform="translate(0.021 0.828)">
                <g id="Group_27297" data-name="Group 27297">
                  <path id="Path_13536" data-name="Path 13536" d="M80.5,291.525a2.791,2.791,0,0,1-.464.408c-.3.238-.717.556-1.19.894s-.912.63-1.238.828a2.543,2.543,0,0,1-.546.29,3.361,3.361,0,0,1,.5-.367l1.213-.857,1.21-.862A3.028,3.028,0,0,1,80.5,291.525Z" transform="translate(-77.067 -291.524)" fill="#263238"/>
                </g>
              </g>
            </g>
          </g>
        </g>
        <g id="Group_27302" data-name="Group 27302" transform="translate(3.927 35.66)">
          <path id="Path_13537" data-name="Path 13537" d="M64.888,318.27l-1,6.763H70.14l-.811-6.763Z" transform="translate(-63.884 -318.27)" fill="#455a64"/>
        </g>
        <g id="Group_27304" data-name="Group 27304" transform="translate(4.576 37.691)">
          <g id="Group_27303" data-name="Group 27303">
            <path id="Path_13538" data-name="Path 13538" d="M70.917,324.549a24.451,24.451,0,0,1-2.523.065,24.453,24.453,0,0,1-2.523-.065,24.459,24.459,0,0,1,2.523-.065A24.457,24.457,0,0,1,70.917,324.549Z" transform="translate(-65.872 -324.483)" fill="#263238"/>
          </g>
        </g>
        <g id="Group_27306" data-name="Group 27306" transform="translate(4.535 38.229)">
          <g id="Group_27305" data-name="Group 27305">
            <path id="Path_13539" data-name="Path 13539" d="M70.956,326.2c0,.036-1.167.065-2.605.065s-2.606-.029-2.606-.065,1.166-.065,2.606-.065S70.956,326.159,70.956,326.2Z" transform="translate(-65.745 -326.13)" fill="#263238"/>
          </g>
        </g>
      </g>
    </g>
  </g>
</svg>
